%TF.GenerationSoftware,KiCad,Pcbnew,7.0.7*%
%TF.CreationDate,2024-03-26T11:27:05-06:00*%
%TF.ProjectId,rgb2comp,72676232-636f-46d7-902e-6b696361645f,1.0*%
%TF.SameCoordinates,Original*%
%TF.FileFunction,Legend,Bot*%
%TF.FilePolarity,Positive*%
%FSLAX46Y46*%
G04 Gerber Fmt 4.6, Leading zero omitted, Abs format (unit mm)*
G04 Created by KiCad (PCBNEW 7.0.7) date 2024-03-26 11:27:05*
%MOMM*%
%LPD*%
G01*
G04 APERTURE LIST*
%ADD10C,0.150000*%
G04 APERTURE END LIST*
D10*
X164276190Y-98449819D02*
X164276190Y-99259342D01*
X164276190Y-99259342D02*
X164228571Y-99354580D01*
X164228571Y-99354580D02*
X164180952Y-99402200D01*
X164180952Y-99402200D02*
X164085714Y-99449819D01*
X164085714Y-99449819D02*
X163895238Y-99449819D01*
X163895238Y-99449819D02*
X163800000Y-99402200D01*
X163800000Y-99402200D02*
X163752381Y-99354580D01*
X163752381Y-99354580D02*
X163704762Y-99259342D01*
X163704762Y-99259342D02*
X163704762Y-98449819D01*
X163276190Y-99402200D02*
X163180952Y-99449819D01*
X163180952Y-99449819D02*
X162990476Y-99449819D01*
X162990476Y-99449819D02*
X162895238Y-99402200D01*
X162895238Y-99402200D02*
X162847619Y-99306961D01*
X162847619Y-99306961D02*
X162847619Y-99259342D01*
X162847619Y-99259342D02*
X162895238Y-99164104D01*
X162895238Y-99164104D02*
X162990476Y-99116485D01*
X162990476Y-99116485D02*
X163133333Y-99116485D01*
X163133333Y-99116485D02*
X163228571Y-99068866D01*
X163228571Y-99068866D02*
X163276190Y-98973628D01*
X163276190Y-98973628D02*
X163276190Y-98926009D01*
X163276190Y-98926009D02*
X163228571Y-98830771D01*
X163228571Y-98830771D02*
X163133333Y-98783152D01*
X163133333Y-98783152D02*
X162990476Y-98783152D01*
X162990476Y-98783152D02*
X162895238Y-98830771D01*
X162419047Y-99449819D02*
X162419047Y-98783152D01*
X162419047Y-98449819D02*
X162466666Y-98497438D01*
X162466666Y-98497438D02*
X162419047Y-98545057D01*
X162419047Y-98545057D02*
X162371428Y-98497438D01*
X162371428Y-98497438D02*
X162419047Y-98449819D01*
X162419047Y-98449819D02*
X162419047Y-98545057D01*
X161942857Y-98783152D02*
X161942857Y-99449819D01*
X161942857Y-98878390D02*
X161895238Y-98830771D01*
X161895238Y-98830771D02*
X161800000Y-98783152D01*
X161800000Y-98783152D02*
X161657143Y-98783152D01*
X161657143Y-98783152D02*
X161561905Y-98830771D01*
X161561905Y-98830771D02*
X161514286Y-98926009D01*
X161514286Y-98926009D02*
X161514286Y-99449819D01*
X160609524Y-98783152D02*
X160609524Y-99592676D01*
X160609524Y-99592676D02*
X160657143Y-99687914D01*
X160657143Y-99687914D02*
X160704762Y-99735533D01*
X160704762Y-99735533D02*
X160800000Y-99783152D01*
X160800000Y-99783152D02*
X160942857Y-99783152D01*
X160942857Y-99783152D02*
X161038095Y-99735533D01*
X160609524Y-99402200D02*
X160704762Y-99449819D01*
X160704762Y-99449819D02*
X160895238Y-99449819D01*
X160895238Y-99449819D02*
X160990476Y-99402200D01*
X160990476Y-99402200D02*
X161038095Y-99354580D01*
X161038095Y-99354580D02*
X161085714Y-99259342D01*
X161085714Y-99259342D02*
X161085714Y-98973628D01*
X161085714Y-98973628D02*
X161038095Y-98878390D01*
X161038095Y-98878390D02*
X160990476Y-98830771D01*
X160990476Y-98830771D02*
X160895238Y-98783152D01*
X160895238Y-98783152D02*
X160704762Y-98783152D01*
X160704762Y-98783152D02*
X160609524Y-98830771D01*
X159371428Y-99449819D02*
X159371428Y-98449819D01*
X159371428Y-98449819D02*
X159133333Y-98449819D01*
X159133333Y-98449819D02*
X158990476Y-98497438D01*
X158990476Y-98497438D02*
X158895238Y-98592676D01*
X158895238Y-98592676D02*
X158847619Y-98687914D01*
X158847619Y-98687914D02*
X158800000Y-98878390D01*
X158800000Y-98878390D02*
X158800000Y-99021247D01*
X158800000Y-99021247D02*
X158847619Y-99211723D01*
X158847619Y-99211723D02*
X158895238Y-99306961D01*
X158895238Y-99306961D02*
X158990476Y-99402200D01*
X158990476Y-99402200D02*
X159133333Y-99449819D01*
X159133333Y-99449819D02*
X159371428Y-99449819D01*
X157990476Y-99402200D02*
X158085714Y-99449819D01*
X158085714Y-99449819D02*
X158276190Y-99449819D01*
X158276190Y-99449819D02*
X158371428Y-99402200D01*
X158371428Y-99402200D02*
X158419047Y-99306961D01*
X158419047Y-99306961D02*
X158419047Y-98926009D01*
X158419047Y-98926009D02*
X158371428Y-98830771D01*
X158371428Y-98830771D02*
X158276190Y-98783152D01*
X158276190Y-98783152D02*
X158085714Y-98783152D01*
X158085714Y-98783152D02*
X157990476Y-98830771D01*
X157990476Y-98830771D02*
X157942857Y-98926009D01*
X157942857Y-98926009D02*
X157942857Y-99021247D01*
X157942857Y-99021247D02*
X158419047Y-99116485D01*
X157514285Y-99449819D02*
X157514285Y-98449819D01*
X157419047Y-99068866D02*
X157133333Y-99449819D01*
X157133333Y-98783152D02*
X157514285Y-99164104D01*
X156704761Y-99449819D02*
X156704761Y-98449819D01*
X156609523Y-99068866D02*
X156323809Y-99449819D01*
X156323809Y-98783152D02*
X156704761Y-99164104D01*
X155895237Y-99449819D02*
X155895237Y-98783152D01*
X155895237Y-98449819D02*
X155942856Y-98497438D01*
X155942856Y-98497438D02*
X155895237Y-98545057D01*
X155895237Y-98545057D02*
X155847618Y-98497438D01*
X155847618Y-98497438D02*
X155895237Y-98449819D01*
X155895237Y-98449819D02*
X155895237Y-98545057D01*
X155561904Y-98783152D02*
X155180952Y-98783152D01*
X155419047Y-98449819D02*
X155419047Y-99306961D01*
X155419047Y-99306961D02*
X155371428Y-99402200D01*
X155371428Y-99402200D02*
X155276190Y-99449819D01*
X155276190Y-99449819D02*
X155180952Y-99449819D01*
X163395237Y-101012200D02*
X163299999Y-101059819D01*
X163299999Y-101059819D02*
X163109523Y-101059819D01*
X163109523Y-101059819D02*
X163014285Y-101012200D01*
X163014285Y-101012200D02*
X162966666Y-100916961D01*
X162966666Y-100916961D02*
X162966666Y-100869342D01*
X162966666Y-100869342D02*
X163014285Y-100774104D01*
X163014285Y-100774104D02*
X163109523Y-100726485D01*
X163109523Y-100726485D02*
X163252380Y-100726485D01*
X163252380Y-100726485D02*
X163347618Y-100678866D01*
X163347618Y-100678866D02*
X163395237Y-100583628D01*
X163395237Y-100583628D02*
X163395237Y-100536009D01*
X163395237Y-100536009D02*
X163347618Y-100440771D01*
X163347618Y-100440771D02*
X163252380Y-100393152D01*
X163252380Y-100393152D02*
X163109523Y-100393152D01*
X163109523Y-100393152D02*
X163014285Y-100440771D01*
X162109523Y-101012200D02*
X162204761Y-101059819D01*
X162204761Y-101059819D02*
X162395237Y-101059819D01*
X162395237Y-101059819D02*
X162490475Y-101012200D01*
X162490475Y-101012200D02*
X162538094Y-100964580D01*
X162538094Y-100964580D02*
X162585713Y-100869342D01*
X162585713Y-100869342D02*
X162585713Y-100583628D01*
X162585713Y-100583628D02*
X162538094Y-100488390D01*
X162538094Y-100488390D02*
X162490475Y-100440771D01*
X162490475Y-100440771D02*
X162395237Y-100393152D01*
X162395237Y-100393152D02*
X162204761Y-100393152D01*
X162204761Y-100393152D02*
X162109523Y-100440771D01*
X161680951Y-101059819D02*
X161680951Y-100059819D01*
X161252380Y-101059819D02*
X161252380Y-100536009D01*
X161252380Y-100536009D02*
X161299999Y-100440771D01*
X161299999Y-100440771D02*
X161395237Y-100393152D01*
X161395237Y-100393152D02*
X161538094Y-100393152D01*
X161538094Y-100393152D02*
X161633332Y-100440771D01*
X161633332Y-100440771D02*
X161680951Y-100488390D01*
X160395237Y-101012200D02*
X160490475Y-101059819D01*
X160490475Y-101059819D02*
X160680951Y-101059819D01*
X160680951Y-101059819D02*
X160776189Y-101012200D01*
X160776189Y-101012200D02*
X160823808Y-100916961D01*
X160823808Y-100916961D02*
X160823808Y-100536009D01*
X160823808Y-100536009D02*
X160776189Y-100440771D01*
X160776189Y-100440771D02*
X160680951Y-100393152D01*
X160680951Y-100393152D02*
X160490475Y-100393152D01*
X160490475Y-100393152D02*
X160395237Y-100440771D01*
X160395237Y-100440771D02*
X160347618Y-100536009D01*
X160347618Y-100536009D02*
X160347618Y-100631247D01*
X160347618Y-100631247D02*
X160823808Y-100726485D01*
X159919046Y-101059819D02*
X159919046Y-100393152D01*
X159919046Y-100488390D02*
X159871427Y-100440771D01*
X159871427Y-100440771D02*
X159776189Y-100393152D01*
X159776189Y-100393152D02*
X159633332Y-100393152D01*
X159633332Y-100393152D02*
X159538094Y-100440771D01*
X159538094Y-100440771D02*
X159490475Y-100536009D01*
X159490475Y-100536009D02*
X159490475Y-101059819D01*
X159490475Y-100536009D02*
X159442856Y-100440771D01*
X159442856Y-100440771D02*
X159347618Y-100393152D01*
X159347618Y-100393152D02*
X159204761Y-100393152D01*
X159204761Y-100393152D02*
X159109522Y-100440771D01*
X159109522Y-100440771D02*
X159061903Y-100536009D01*
X159061903Y-100536009D02*
X159061903Y-101059819D01*
X158157142Y-101059819D02*
X158157142Y-100536009D01*
X158157142Y-100536009D02*
X158204761Y-100440771D01*
X158204761Y-100440771D02*
X158299999Y-100393152D01*
X158299999Y-100393152D02*
X158490475Y-100393152D01*
X158490475Y-100393152D02*
X158585713Y-100440771D01*
X158157142Y-101012200D02*
X158252380Y-101059819D01*
X158252380Y-101059819D02*
X158490475Y-101059819D01*
X158490475Y-101059819D02*
X158585713Y-101012200D01*
X158585713Y-101012200D02*
X158633332Y-100916961D01*
X158633332Y-100916961D02*
X158633332Y-100821723D01*
X158633332Y-100821723D02*
X158585713Y-100726485D01*
X158585713Y-100726485D02*
X158490475Y-100678866D01*
X158490475Y-100678866D02*
X158252380Y-100678866D01*
X158252380Y-100678866D02*
X158157142Y-100631247D01*
X157823808Y-100393152D02*
X157442856Y-100393152D01*
X157680951Y-100059819D02*
X157680951Y-100916961D01*
X157680951Y-100916961D02*
X157633332Y-101012200D01*
X157633332Y-101012200D02*
X157538094Y-101059819D01*
X157538094Y-101059819D02*
X157442856Y-101059819D01*
X157109522Y-101059819D02*
X157109522Y-100393152D01*
X157109522Y-100059819D02*
X157157141Y-100107438D01*
X157157141Y-100107438D02*
X157109522Y-100155057D01*
X157109522Y-100155057D02*
X157061903Y-100107438D01*
X157061903Y-100107438D02*
X157109522Y-100059819D01*
X157109522Y-100059819D02*
X157109522Y-100155057D01*
X156204761Y-101012200D02*
X156299999Y-101059819D01*
X156299999Y-101059819D02*
X156490475Y-101059819D01*
X156490475Y-101059819D02*
X156585713Y-101012200D01*
X156585713Y-101012200D02*
X156633332Y-100964580D01*
X156633332Y-100964580D02*
X156680951Y-100869342D01*
X156680951Y-100869342D02*
X156680951Y-100583628D01*
X156680951Y-100583628D02*
X156633332Y-100488390D01*
X156633332Y-100488390D02*
X156585713Y-100440771D01*
X156585713Y-100440771D02*
X156490475Y-100393152D01*
X156490475Y-100393152D02*
X156299999Y-100393152D01*
X156299999Y-100393152D02*
X156204761Y-100440771D01*
M02*
