%TF.GenerationSoftware,KiCad,Pcbnew,7.0.7*%
%TF.CreationDate,2024-03-26T11:27:05-06:00*%
%TF.ProjectId,rgb2comp,72676232-636f-46d7-902e-6b696361645f,1.0*%
%TF.SameCoordinates,Original*%
%TF.FileFunction,Copper,L1,Top*%
%TF.FilePolarity,Positive*%
%FSLAX46Y46*%
G04 Gerber Fmt 4.6, Leading zero omitted, Abs format (unit mm)*
G04 Created by KiCad (PCBNEW 7.0.7) date 2024-03-26 11:27:05*
%MOMM*%
%LPD*%
G01*
G04 APERTURE LIST*
G04 Aperture macros list*
%AMRoundRect*
0 Rectangle with rounded corners*
0 $1 Rounding radius*
0 $2 $3 $4 $5 $6 $7 $8 $9 X,Y pos of 4 corners*
0 Add a 4 corners polygon primitive as box body*
4,1,4,$2,$3,$4,$5,$6,$7,$8,$9,$2,$3,0*
0 Add four circle primitives for the rounded corners*
1,1,$1+$1,$2,$3*
1,1,$1+$1,$4,$5*
1,1,$1+$1,$6,$7*
1,1,$1+$1,$8,$9*
0 Add four rect primitives between the rounded corners*
20,1,$1+$1,$2,$3,$4,$5,0*
20,1,$1+$1,$4,$5,$6,$7,0*
20,1,$1+$1,$6,$7,$8,$9,0*
20,1,$1+$1,$8,$9,$2,$3,0*%
%AMFreePoly0*
4,1,5,0.737500,-0.200000,-0.737500,-0.200000,-0.737500,0.200000,0.737500,0.200000,0.737500,-0.200000,0.737500,-0.200000,$1*%
G04 Aperture macros list end*
%ADD10C,0.200000*%
%TA.AperFunction,NonConductor*%
%ADD11C,0.200000*%
%TD*%
%TA.AperFunction,ComponentPad*%
%ADD12R,1.700000X1.700000*%
%TD*%
%TA.AperFunction,ComponentPad*%
%ADD13O,1.700000X1.700000*%
%TD*%
%TA.AperFunction,SMDPad,CuDef*%
%ADD14RoundRect,0.150000X-0.150000X0.725000X-0.150000X-0.725000X0.150000X-0.725000X0.150000X0.725000X0*%
%TD*%
%TA.AperFunction,ComponentPad*%
%ADD15C,1.400000*%
%TD*%
%TA.AperFunction,ComponentPad*%
%ADD16O,1.400000X1.400000*%
%TD*%
%TA.AperFunction,ComponentPad*%
%ADD17C,1.600000*%
%TD*%
%TA.AperFunction,ComponentPad*%
%ADD18R,1.200000X1.200000*%
%TD*%
%TA.AperFunction,ComponentPad*%
%ADD19C,1.200000*%
%TD*%
%TA.AperFunction,ComponentPad*%
%ADD20O,1.500000X1.500000*%
%TD*%
%TA.AperFunction,SMDPad,CuDef*%
%ADD21RoundRect,0.100000X0.637500X0.100000X-0.637500X0.100000X-0.637500X-0.100000X0.637500X-0.100000X0*%
%TD*%
%TA.AperFunction,SMDPad,CuDef*%
%ADD22R,1.475000X0.400000*%
%TD*%
%TA.AperFunction,SMDPad,CuDef*%
%ADD23FreePoly0,180.000000*%
%TD*%
%TA.AperFunction,ViaPad*%
%ADD24C,2.100000*%
%TD*%
%TA.AperFunction,Conductor*%
%ADD25C,0.250000*%
%TD*%
G04 APERTURE END LIST*
D10*
D11*
X142854600Y-98457142D02*
X142902219Y-98314285D01*
X142902219Y-98314285D02*
X142902219Y-98076190D01*
X142902219Y-98076190D02*
X142854600Y-97980952D01*
X142854600Y-97980952D02*
X142806980Y-97933333D01*
X142806980Y-97933333D02*
X142711742Y-97885714D01*
X142711742Y-97885714D02*
X142616504Y-97885714D01*
X142616504Y-97885714D02*
X142521266Y-97933333D01*
X142521266Y-97933333D02*
X142473647Y-97980952D01*
X142473647Y-97980952D02*
X142426028Y-98076190D01*
X142426028Y-98076190D02*
X142378409Y-98266666D01*
X142378409Y-98266666D02*
X142330790Y-98361904D01*
X142330790Y-98361904D02*
X142283171Y-98409523D01*
X142283171Y-98409523D02*
X142187933Y-98457142D01*
X142187933Y-98457142D02*
X142092695Y-98457142D01*
X142092695Y-98457142D02*
X141997457Y-98409523D01*
X141997457Y-98409523D02*
X141949838Y-98361904D01*
X141949838Y-98361904D02*
X141902219Y-98266666D01*
X141902219Y-98266666D02*
X141902219Y-98028571D01*
X141902219Y-98028571D02*
X141949838Y-97885714D01*
X142902219Y-97457142D02*
X141902219Y-97457142D01*
X142902219Y-97028571D02*
X142378409Y-97028571D01*
X142378409Y-97028571D02*
X142283171Y-97076190D01*
X142283171Y-97076190D02*
X142235552Y-97171428D01*
X142235552Y-97171428D02*
X142235552Y-97314285D01*
X142235552Y-97314285D02*
X142283171Y-97409523D01*
X142283171Y-97409523D02*
X142330790Y-97457142D01*
X142902219Y-96123809D02*
X142378409Y-96123809D01*
X142378409Y-96123809D02*
X142283171Y-96171428D01*
X142283171Y-96171428D02*
X142235552Y-96266666D01*
X142235552Y-96266666D02*
X142235552Y-96457142D01*
X142235552Y-96457142D02*
X142283171Y-96552380D01*
X142854600Y-96123809D02*
X142902219Y-96219047D01*
X142902219Y-96219047D02*
X142902219Y-96457142D01*
X142902219Y-96457142D02*
X142854600Y-96552380D01*
X142854600Y-96552380D02*
X142759361Y-96599999D01*
X142759361Y-96599999D02*
X142664123Y-96599999D01*
X142664123Y-96599999D02*
X142568885Y-96552380D01*
X142568885Y-96552380D02*
X142521266Y-96457142D01*
X142521266Y-96457142D02*
X142521266Y-96219047D01*
X142521266Y-96219047D02*
X142473647Y-96123809D01*
X142902219Y-95504761D02*
X142854600Y-95599999D01*
X142854600Y-95599999D02*
X142759361Y-95647618D01*
X142759361Y-95647618D02*
X141902219Y-95647618D01*
X142902219Y-95219046D02*
X142235552Y-94695237D01*
X142235552Y-95219046D02*
X142902219Y-94695237D01*
D12*
%TO.P,J2,1,Pin_1*%
%TO.N,GND*%
X167005000Y-90716500D03*
D13*
%TO.P,J2,2,Pin_2*%
%TO.N,/R-Y*%
X164465000Y-90716500D03*
%TO.P,J2,3,Pin_3*%
%TO.N,GND*%
X167005000Y-88176500D03*
%TO.P,J2,4,Pin_4*%
%TO.N,/Y*%
X164465000Y-88176500D03*
%TO.P,J2,5,Pin_5*%
%TO.N,GND*%
X167005000Y-85636500D03*
%TO.P,J2,6,Pin_6*%
%TO.N,/B-Y*%
X164465000Y-85636500D03*
%TO.P,J2,7,Pin_7*%
%TO.N,GND*%
X167005000Y-83096500D03*
%TO.P,J2,8,Pin_8*%
%TO.N,/Raudio*%
X164465000Y-83096500D03*
%TO.P,J2,9,Pin_9*%
%TO.N,GND*%
X167005000Y-80556500D03*
%TO.P,J2,10,Pin_10*%
%TO.N,/Laudio*%
X164465000Y-80556500D03*
%TO.P,J2,11,Pin_11*%
%TO.N,GND*%
X167005000Y-78016500D03*
%TO.P,J2,12,Pin_12*%
%TO.N,/Composite*%
X164465000Y-78016500D03*
%TD*%
D14*
%TO.P,U1,1,CSYNC*%
%TO.N,Net-(U1-Pad1)*%
X154305000Y-79886500D03*
%TO.P,U1,2,VIDEO*%
%TO.N,Net-(U1-Pad2)*%
X153035000Y-79886500D03*
%TO.P,U1,3,FRAME*%
%TO.N,unconnected-(U1-Pad3)*%
X151765000Y-79886500D03*
%TO.P,U1,4,GND*%
%TO.N,GND*%
X150495000Y-79886500D03*
%TO.P,U1,5,BURST*%
%TO.N,unconnected-(U1-Pad5)*%
X150495000Y-85036500D03*
%TO.P,U1,6,INT*%
%TO.N,Net-(C5-Pad1)*%
X151765000Y-85036500D03*
%TO.P,U1,7,O/E*%
%TO.N,unconnected-(U1-Pad7)*%
X153035000Y-85036500D03*
%TO.P,U1,8,VCC*%
%TO.N,+5V*%
X154305000Y-85036500D03*
%TD*%
D15*
%TO.P,R3,1*%
%TO.N,/G*%
X133985000Y-84130000D03*
D16*
%TO.P,R3,2*%
%TO.N,GND*%
X133985000Y-86670000D03*
%TD*%
D17*
%TO.P,C18,1*%
%TO.N,GND*%
X156350000Y-82150000D03*
%TO.P,C18,2*%
%TO.N,+5V*%
X156350000Y-84650000D03*
%TD*%
D15*
%TO.P,R1,1*%
%TO.N,/Sync*%
X130760000Y-80556500D03*
D16*
%TO.P,R1,2*%
%TO.N,GND*%
X128220000Y-80556500D03*
%TD*%
D15*
%TO.P,R13,1*%
%TO.N,/R-Y Amp*%
X155575000Y-96381500D03*
D16*
%TO.P,R13,2*%
%TO.N,Net-(C10-Pad1)*%
X155575000Y-93841500D03*
%TD*%
D15*
%TO.P,R4,1*%
%TO.N,/B*%
X134000000Y-93480000D03*
D16*
%TO.P,R4,2*%
%TO.N,GND*%
X134000000Y-96020000D03*
%TD*%
D18*
%TO.P,C8,1*%
%TO.N,+5V*%
X126077401Y-99550000D03*
D19*
%TO.P,C8,2*%
%TO.N,GND*%
X127577401Y-99550000D03*
%TD*%
D15*
%TO.P,R6,1*%
%TO.N,Net-(U1-Pad1)*%
X160000000Y-83280000D03*
D16*
%TO.P,R6,2*%
%TO.N,/Y+S*%
X160000000Y-85820000D03*
%TD*%
D15*
%TO.P,R10,1*%
%TO.N,/Y Raw*%
X162330000Y-106150000D03*
D16*
%TO.P,R10,2*%
%TO.N,GND*%
X164870000Y-106150000D03*
%TD*%
D15*
%TO.P,R7,1*%
%TO.N,/Y Raw*%
X167800000Y-99330000D03*
D16*
%TO.P,R7,2*%
%TO.N,Net-(C13-Pad2)*%
X167800000Y-101870000D03*
%TD*%
D17*
%TO.P,C3,1*%
%TO.N,Net-(V1-Pad14)*%
X136500000Y-86600000D03*
%TO.P,C3,2*%
%TO.N,/G*%
X136500000Y-84100000D03*
%TD*%
D15*
%TO.P,C19,1*%
%TO.N,GND*%
X164700000Y-95550000D03*
D16*
%TO.P,C19,2*%
%TO.N,+5V*%
X162160000Y-95550000D03*
%TD*%
D15*
%TO.P,R2,1*%
%TO.N,/R*%
X133985000Y-88811500D03*
D16*
%TO.P,R2,2*%
%TO.N,GND*%
X133985000Y-91351500D03*
%TD*%
D20*
%TO.P,V1,1*%
%TO.N,N/C*%
X151473500Y-103330000D03*
%TO.P,V1,2*%
X150584500Y-105870000D03*
%TO.P,V1,3,Y_in*%
%TO.N,Net-(V1-Pad3)*%
X149695500Y-103330000D03*
%TO.P,V1,4,B-Y_in*%
%TO.N,Net-(V1-Pad4)*%
X148806500Y-105870000D03*
%TO.P,V1,5,R-Y_in*%
%TO.N,Net-(V1-Pad5)*%
X147917500Y-103330000D03*
%TO.P,V1,6*%
%TO.N,N/C*%
X147028500Y-105870000D03*
%TO.P,V1,7*%
X146139500Y-103330000D03*
%TO.P,V1,8*%
X145250500Y-105870000D03*
%TO.P,V1,9*%
X144361500Y-103330000D03*
%TO.P,V1,10*%
X143472500Y-105870000D03*
%TO.P,V1,11*%
X142583500Y-103330000D03*
%TO.P,V1,12*%
X141694500Y-105870000D03*
%TO.P,V1,13,R*%
%TO.N,Net-(C2-Pad1)*%
X140805500Y-103330000D03*
%TO.P,V1,14,G*%
%TO.N,Net-(V1-Pad14)*%
X139916500Y-105870000D03*
%TO.P,V1,15,B*%
%TO.N,Net-(V1-Pad15)*%
X139027500Y-103330000D03*
%TO.P,V1,16,Y*%
%TO.N,Net-(V1-Pad16)*%
X138138500Y-105870000D03*
%TO.P,V1,17,B-Y*%
%TO.N,/B-Y Raw*%
X137249500Y-103330000D03*
%TO.P,V1,18,R-Y*%
%TO.N,/R-Y Raw*%
X136360500Y-105870000D03*
%TO.P,V1,19,GND*%
%TO.N,GND*%
X135471500Y-103330000D03*
%TO.P,V1,20,VIDEO_IN*%
%TO.N,Net-(V1-Pad20)*%
X134582500Y-105870000D03*
%TO.P,V1,21*%
%TO.N,N/C*%
X133693500Y-103330000D03*
%TO.P,V1,22*%
X132804500Y-105870000D03*
%TO.P,V1,23*%
X131915500Y-103330000D03*
%TO.P,V1,24,Vcc*%
%TO.N,+5V*%
X131026500Y-105870000D03*
%TD*%
D15*
%TO.P,R9,1*%
%TO.N,Net-(V1-Pad16)*%
X157130000Y-106150000D03*
D16*
%TO.P,R9,2*%
%TO.N,/Y Raw*%
X159670000Y-106150000D03*
%TD*%
D17*
%TO.P,C4,1*%
%TO.N,Net-(V1-Pad15)*%
X136500000Y-96050000D03*
%TO.P,C4,2*%
%TO.N,/B*%
X136500000Y-93550000D03*
%TD*%
D15*
%TO.P,R11,1*%
%TO.N,/B-Y Amp*%
X145415000Y-96381500D03*
D16*
%TO.P,R11,2*%
%TO.N,Net-(C6-Pad1)*%
X145415000Y-93841500D03*
%TD*%
D17*
%TO.P,C1,1*%
%TO.N,/Sync*%
X133370000Y-80556500D03*
%TO.P,C1,2*%
%TO.N,Net-(U1-Pad2)*%
X135870000Y-80556500D03*
%TD*%
%TO.P,C17,1*%
%TO.N,Net-(V1-Pad3)*%
X149650000Y-100750000D03*
%TO.P,C17,2*%
%TO.N,GND*%
X152150000Y-100750000D03*
%TD*%
%TO.P,C7,1*%
%TO.N,+5V*%
X127600000Y-106200000D03*
%TO.P,C7,2*%
%TO.N,GND*%
X127600000Y-103700000D03*
%TD*%
D18*
%TO.P,C10,1*%
%TO.N,Net-(C10-Pad1)*%
X155575000Y-90716500D03*
D19*
%TO.P,C10,2*%
%TO.N,/R-Y*%
X155575000Y-89216500D03*
%TD*%
D21*
%TO.P,D1,1,CH1_IN*%
%TO.N,Net-(C12-Pad2)*%
X165512500Y-102000000D03*
%TO.P,D1,2,CH2_IN*%
%TO.N,Net-(C13-Pad2)*%
X165512500Y-101350000D03*
%TO.P,D1,3,CH3_IN*%
%TO.N,Net-(C14-Pad2)*%
X165512500Y-100700000D03*
%TO.P,D1,4,CH4_IN*%
%TO.N,unconnected-(D1-Pad4)*%
X165512500Y-100050000D03*
%TO.P,D1,5,GND*%
%TO.N,GND*%
X165512500Y-99400000D03*
%TO.P,D1,6,DISABLE*%
X165512500Y-98750000D03*
%TO.P,D1,7,NC*%
%TO.N,unconnected-(D1-Pad7)*%
X165512500Y-98100000D03*
%TO.P,D1,8,NC*%
%TO.N,unconnected-(D1-Pad8)*%
X159787500Y-98100000D03*
D22*
%TO.P,D1,9,HD_BYPASS*%
%TO.N,+5V*%
X159787500Y-98750000D03*
D23*
%TO.P,D1,10,Vs+*%
X159787500Y-99400000D03*
D21*
%TO.P,D1,11,CH4_OUT*%
%TO.N,unconnected-(D1-Pad11)*%
X159787500Y-100050000D03*
%TO.P,D1,12,CH3_OUT*%
%TO.N,/R-Y Amp*%
X159787500Y-100700000D03*
%TO.P,D1,13,CH2_OUT*%
%TO.N,/Y Amp*%
X159787500Y-101350000D03*
%TO.P,D1,14,CH1_OUT*%
%TO.N,/B-Y Amp*%
X159787500Y-102000000D03*
%TD*%
D17*
%TO.P,C12,1*%
%TO.N,/B-Y Raw*%
X157100000Y-103950000D03*
%TO.P,C12,2*%
%TO.N,Net-(C12-Pad2)*%
X159600000Y-103950000D03*
%TD*%
%TO.P,C15,1*%
%TO.N,Net-(V1-Pad4)*%
X154550000Y-105900000D03*
%TO.P,C15,2*%
%TO.N,GND*%
X154550000Y-103400000D03*
%TD*%
%TO.P,C5,1*%
%TO.N,Net-(C5-Pad1)*%
X142875000Y-80536500D03*
%TO.P,C5,2*%
%TO.N,GND*%
X142875000Y-78036500D03*
%TD*%
D12*
%TO.P,J1,1,Pin_1*%
%TO.N,GND*%
X128138000Y-84460000D03*
D13*
%TO.P,J1,2,Pin_2*%
%TO.N,/Sync*%
X130678000Y-84460000D03*
%TO.P,J1,3,Pin_3*%
%TO.N,/R*%
X128138000Y-87000000D03*
%TO.P,J1,4,Pin_4*%
%TO.N,/G*%
X130678000Y-87000000D03*
%TO.P,J1,5,Pin_5*%
%TO.N,+5V*%
X128138000Y-89540000D03*
%TO.P,J1,6,Pin_6*%
%TO.N,/B*%
X130678000Y-89540000D03*
%TO.P,J1,7,Pin_7*%
%TO.N,/Laudio*%
X128138000Y-92080000D03*
%TO.P,J1,8,Pin_8*%
%TO.N,/Raudio*%
X130678000Y-92080000D03*
%TO.P,J1,9,Pin_9*%
%TO.N,/Composite*%
X128138000Y-94620000D03*
%TO.P,J1,10,Pin_10*%
%TO.N,GND*%
X130678000Y-94620000D03*
%TD*%
D18*
%TO.P,C9,1*%
%TO.N,/Y+S*%
X150495000Y-90716500D03*
D19*
%TO.P,C9,2*%
%TO.N,/Y*%
X150495000Y-89216500D03*
%TD*%
D18*
%TO.P,C6,1*%
%TO.N,Net-(C6-Pad1)*%
X145415000Y-90716500D03*
D19*
%TO.P,C6,2*%
%TO.N,/B-Y*%
X145415000Y-89216500D03*
%TD*%
D15*
%TO.P,R12,1*%
%TO.N,/Y+S*%
X150495000Y-93941500D03*
D16*
%TO.P,R12,2*%
%TO.N,/Y Amp*%
X150495000Y-96481500D03*
%TD*%
D15*
%TO.P,R5,1*%
%TO.N,GND*%
X145415000Y-78066500D03*
D16*
%TO.P,R5,2*%
%TO.N,Net-(C5-Pad1)*%
X145415000Y-80606500D03*
%TD*%
D17*
%TO.P,C14,1*%
%TO.N,/R-Y Raw*%
X167100000Y-106800000D03*
%TO.P,C14,2*%
%TO.N,Net-(C14-Pad2)*%
X167100000Y-104300000D03*
%TD*%
%TO.P,C2,1*%
%TO.N,Net-(C2-Pad1)*%
X136500000Y-91300000D03*
%TO.P,C2,2*%
%TO.N,/R*%
X136500000Y-88800000D03*
%TD*%
D15*
%TO.P,R14,1*%
%TO.N,GND*%
X159850000Y-92720000D03*
D16*
%TO.P,R14,2*%
%TO.N,Net-(C10-Pad1)*%
X159850000Y-90180000D03*
%TD*%
D17*
%TO.P,C13,1*%
%TO.N,/Y Raw*%
X162300000Y-103900000D03*
%TO.P,C13,2*%
%TO.N,Net-(C13-Pad2)*%
X164800000Y-103900000D03*
%TD*%
D15*
%TO.P,R8,1*%
%TO.N,/R-Y Raw*%
X167850000Y-94630000D03*
D16*
%TO.P,R8,2*%
%TO.N,Net-(C14-Pad2)*%
X167850000Y-97170000D03*
%TD*%
D17*
%TO.P,C11,1*%
%TO.N,Net-(V1-Pad20)*%
X130650000Y-100600000D03*
%TO.P,C11,2*%
%TO.N,GND*%
X130650000Y-98100000D03*
%TD*%
%TO.P,C16,1*%
%TO.N,Net-(V1-Pad5)*%
X147450000Y-100800000D03*
%TO.P,C16,2*%
%TO.N,GND*%
X144950000Y-100800000D03*
%TD*%
D24*
%TO.N,GND*%
X126619000Y-78143500D03*
X159893000Y-95415500D03*
X148220000Y-84970000D03*
%TD*%
D25*
%TO.N,/Sync*%
X130760000Y-80556500D02*
X133370000Y-80556500D01*
%TO.N,Net-(U1-Pad2)*%
X135870000Y-80556500D02*
X140335000Y-80556500D01*
X147320000Y-78016500D02*
X152400000Y-78016500D01*
X141605000Y-79286500D02*
X146050000Y-79286500D01*
X140335000Y-80556500D02*
X141605000Y-79286500D01*
X153035000Y-78651500D02*
X153035000Y-79886500D01*
X152400000Y-78016500D02*
X153035000Y-78651500D01*
X146050000Y-79286500D02*
X147320000Y-78016500D01*
%TO.N,/R*%
X133985000Y-88811500D02*
X136488500Y-88811500D01*
X129412278Y-88274278D02*
X133447778Y-88274278D01*
X133447778Y-88274278D02*
X133985000Y-88811500D01*
X128138000Y-87000000D02*
X129412278Y-88274278D01*
X136488500Y-88811500D02*
X136500000Y-88800000D01*
%TO.N,/G*%
X130678000Y-87000000D02*
X133548000Y-84130000D01*
X136470000Y-84130000D02*
X136500000Y-84100000D01*
X133985000Y-84130000D02*
X136470000Y-84130000D01*
X133548000Y-84130000D02*
X133985000Y-84130000D01*
%TO.N,/B*%
X130678000Y-90158000D02*
X130678000Y-89540000D01*
X134000000Y-93480000D02*
X130678000Y-90158000D01*
X134070000Y-93550000D02*
X134000000Y-93480000D01*
X136500000Y-93550000D02*
X134070000Y-93550000D01*
%TO.N,Net-(C5-Pad1)*%
X151765000Y-85036500D02*
X151765000Y-84760428D01*
X150101072Y-83096500D02*
X147955000Y-83096500D01*
X145415000Y-80606500D02*
X147930000Y-83121500D01*
X147955000Y-83096500D02*
X147930000Y-83121500D01*
X145345000Y-80536500D02*
X145415000Y-80606500D01*
X142875000Y-80536500D02*
X145345000Y-80536500D01*
X151765000Y-84760428D02*
X150101072Y-83096500D01*
%TO.N,GND*%
X164823959Y-98750000D02*
X163950000Y-97876041D01*
X165512500Y-99400000D02*
X165512500Y-98750000D01*
X152481749Y-82150000D02*
X156350000Y-82150000D01*
X150495000Y-79886500D02*
X150495000Y-80163251D01*
X165512500Y-98750000D02*
X164823959Y-98750000D01*
X163950000Y-96300000D02*
X164700000Y-95550000D01*
X150495000Y-80163251D02*
X152481749Y-82150000D01*
X163950000Y-97876041D02*
X163950000Y-96300000D01*
%TO.N,/Y*%
X164465000Y-88176500D02*
X162876500Y-88176500D01*
X162400000Y-87700000D02*
X152011500Y-87700000D01*
X152011500Y-87700000D02*
X150495000Y-89216500D01*
X162876500Y-88176500D02*
X162400000Y-87700000D01*
%TO.N,/R-Y*%
X162365000Y-88616500D02*
X156175000Y-88616500D01*
X164465000Y-90716500D02*
X162365000Y-88616500D01*
X156175000Y-88616500D02*
X155575000Y-89216500D01*
%TO.N,Net-(V1-Pad15)*%
X139027500Y-103330000D02*
X139027500Y-98577500D01*
X139027500Y-98577500D02*
X136500000Y-96050000D01*
%TO.N,/B-Y Raw*%
X153365000Y-104525000D02*
X153245000Y-104405000D01*
X153245000Y-104405000D02*
X138324500Y-104405000D01*
X156525000Y-104525000D02*
X153365000Y-104525000D01*
X138324500Y-104405000D02*
X137249500Y-103330000D01*
X157100000Y-103950000D02*
X156525000Y-104525000D01*
%TO.N,/R-Y Raw*%
X138342051Y-107851551D02*
X136360500Y-105870000D01*
X167100000Y-106800000D02*
X166048449Y-107851551D01*
X166048449Y-107851551D02*
X138342051Y-107851551D01*
%TO.N,/B-Y Amp*%
X151640991Y-98650000D02*
X147683500Y-98650000D01*
X159787500Y-102000000D02*
X154990991Y-102000000D01*
X147683500Y-98650000D02*
X145415000Y-96381500D01*
X154990991Y-102000000D02*
X151640991Y-98650000D01*
%TO.N,/R-Y Amp*%
X159787500Y-100700000D02*
X157950000Y-100700000D01*
X157950000Y-100700000D02*
X155575000Y-98325000D01*
X155575000Y-98325000D02*
X155575000Y-96381500D01*
%TO.N,/Y Amp*%
X151715000Y-97701500D02*
X150495000Y-96481500D01*
X155363500Y-101350000D02*
X151715000Y-97701500D01*
X159787500Y-101350000D02*
X155363500Y-101350000D01*
%TO.N,Net-(C2-Pad1)*%
X140000000Y-94800000D02*
X136500000Y-91300000D01*
X140000000Y-102524500D02*
X140805500Y-103330000D01*
X140000000Y-102524500D02*
X140000000Y-94800000D01*
%TO.N,Net-(C6-Pad1)*%
X145415000Y-93841500D02*
X145415000Y-90716500D01*
%TO.N,/Y+S*%
X150495000Y-93941500D02*
X150495000Y-90716500D01*
%TO.N,Net-(C10-Pad1)*%
X155575000Y-93841500D02*
X155575000Y-90716500D01*
X159313500Y-90716500D02*
X159850000Y-90180000D01*
X155575000Y-90716500D02*
X159313500Y-90716500D01*
%TO.N,Net-(V1-Pad20)*%
X131745559Y-104680339D02*
X133392839Y-104680339D01*
X133392839Y-104680339D02*
X134582500Y-105870000D01*
X130650000Y-100600000D02*
X130650000Y-103584780D01*
X130650000Y-103584780D02*
X131745559Y-104680339D01*
%TO.N,Net-(V1-Pad4)*%
X149888051Y-106951551D02*
X153498449Y-106951551D01*
X148806500Y-105870000D02*
X149888051Y-106951551D01*
X153498449Y-106951551D02*
X154550000Y-105900000D01*
%TO.N,Net-(V1-Pad5)*%
X147450000Y-102862500D02*
X147917500Y-103330000D01*
X147450000Y-100800000D02*
X147450000Y-102862500D01*
%TO.N,Net-(V1-Pad3)*%
X149650000Y-103284500D02*
X149695500Y-103330000D01*
X149650000Y-100750000D02*
X149650000Y-103284500D01*
%TO.N,Net-(C12-Pad2)*%
X161550000Y-102000000D02*
X165512500Y-102000000D01*
X159600000Y-103950000D02*
X161550000Y-102000000D01*
%TO.N,Net-(C13-Pad2)*%
X167155000Y-101225000D02*
X166250000Y-101225000D01*
X167800000Y-101870000D02*
X167155000Y-101225000D01*
%TO.N,Net-(C14-Pad2)*%
X166201041Y-100700000D02*
X166631931Y-100269110D01*
X168079569Y-100700000D02*
X165512500Y-100700000D01*
X166631931Y-100269110D02*
X166631931Y-98388069D01*
X166631931Y-98388069D02*
X167850000Y-97170000D01*
X168825000Y-101445431D02*
X168079569Y-100700000D01*
X165512500Y-100700000D02*
X166201041Y-100700000D01*
X168825000Y-102575000D02*
X168825000Y-101445431D01*
X167100000Y-104300000D02*
X168825000Y-102575000D01*
%TO.N,Net-(U1-Pad1)*%
X158950000Y-82230000D02*
X160000000Y-83280000D01*
X154305000Y-79886500D02*
X156646449Y-79886500D01*
X158950000Y-82190051D02*
X156646449Y-79886500D01*
X158950000Y-82190051D02*
X158950000Y-82230000D01*
%TO.N,Net-(V1-Pad16)*%
X139670051Y-107401551D02*
X138138500Y-105870000D01*
X155878449Y-107401551D02*
X139670051Y-107401551D01*
X157130000Y-106150000D02*
X155878449Y-107401551D01*
%TO.N,/Y Raw*%
X162330000Y-103930000D02*
X162300000Y-103900000D01*
X162330000Y-106150000D02*
X162330000Y-103930000D01*
X159670000Y-106150000D02*
X162330000Y-106150000D01*
%TD*%
%TA.AperFunction,Conductor*%
%TO.N,+5V*%
G36*
X170410121Y-74988502D02*
G01*
X170456614Y-75042158D01*
X170468000Y-75094500D01*
X170468000Y-108243500D01*
X170447998Y-108311621D01*
X170394342Y-108358114D01*
X170342000Y-108369500D01*
X166730593Y-108369500D01*
X166662472Y-108349498D01*
X166615979Y-108295842D01*
X166605875Y-108225568D01*
X166635369Y-108160988D01*
X166641497Y-108154406D01*
X166659836Y-108136067D01*
X166686752Y-108109150D01*
X166749061Y-108075126D01*
X166808457Y-108076539D01*
X166871913Y-108093543D01*
X167100000Y-108113498D01*
X167328087Y-108093543D01*
X167549243Y-108034284D01*
X167756749Y-107937523D01*
X167944300Y-107806198D01*
X168106198Y-107644300D01*
X168237523Y-107456749D01*
X168334284Y-107249243D01*
X168393543Y-107028087D01*
X168413498Y-106800000D01*
X168393543Y-106571913D01*
X168334284Y-106350757D01*
X168237523Y-106143251D01*
X168106198Y-105955700D01*
X167944300Y-105793802D01*
X167944296Y-105793799D01*
X167756746Y-105662474D01*
X167751985Y-105659726D01*
X167753122Y-105657754D01*
X167707154Y-105617287D01*
X167687687Y-105549011D01*
X167708223Y-105481049D01*
X167753083Y-105442177D01*
X167751985Y-105440274D01*
X167756746Y-105437525D01*
X167801204Y-105406395D01*
X167944300Y-105306198D01*
X168106198Y-105144300D01*
X168237523Y-104956749D01*
X168334284Y-104749243D01*
X168393543Y-104528087D01*
X168413498Y-104300000D01*
X168393543Y-104071913D01*
X168376540Y-104008457D01*
X168378229Y-103937481D01*
X168409149Y-103886753D01*
X169213657Y-103082245D01*
X169226092Y-103072284D01*
X169225905Y-103072057D01*
X169232009Y-103067005D01*
X169232018Y-103067000D01*
X169279999Y-103015904D01*
X169301134Y-102994770D01*
X169305429Y-102989232D01*
X169309271Y-102984731D01*
X169341586Y-102950321D01*
X169351345Y-102932567D01*
X169362197Y-102916046D01*
X169374613Y-102900041D01*
X169393347Y-102856748D01*
X169395961Y-102851412D01*
X169406374Y-102832470D01*
X169418695Y-102810060D01*
X169423733Y-102790435D01*
X169430138Y-102771730D01*
X169438181Y-102753145D01*
X169445563Y-102706525D01*
X169446761Y-102700744D01*
X169458500Y-102655030D01*
X169458500Y-102634768D01*
X169460051Y-102615058D01*
X169463219Y-102595056D01*
X169458780Y-102548089D01*
X169458500Y-102542157D01*
X169458500Y-101529285D01*
X169460249Y-101513443D01*
X169459956Y-101513416D01*
X169460700Y-101505530D01*
X169460702Y-101505523D01*
X169458500Y-101435459D01*
X169458500Y-101405575D01*
X169457620Y-101398613D01*
X169457156Y-101392724D01*
X169455674Y-101345542D01*
X169450020Y-101326083D01*
X169446012Y-101306728D01*
X169443474Y-101286634D01*
X169426103Y-101242760D01*
X169424189Y-101237171D01*
X169411019Y-101191838D01*
X169400703Y-101174395D01*
X169392005Y-101156640D01*
X169384552Y-101137814D01*
X169356818Y-101099641D01*
X169353558Y-101094678D01*
X169351472Y-101091151D01*
X169329542Y-101054069D01*
X169315214Y-101039741D01*
X169302384Y-101024720D01*
X169290472Y-101008324D01*
X169290469Y-101008322D01*
X169290469Y-101008321D01*
X169254107Y-100978239D01*
X169249726Y-100974253D01*
X168646370Y-100370897D01*
X168612344Y-100308585D01*
X168617409Y-100237770D01*
X168646370Y-100192707D01*
X168676765Y-100162312D01*
X168729301Y-100109776D01*
X168850589Y-99936558D01*
X168939956Y-99744910D01*
X168994686Y-99540655D01*
X169013116Y-99330000D01*
X168994686Y-99119345D01*
X168939956Y-98915090D01*
X168850589Y-98723442D01*
X168850588Y-98723441D01*
X168850587Y-98723438D01*
X168729307Y-98550232D01*
X168729304Y-98550228D01*
X168729301Y-98550224D01*
X168579776Y-98400699D01*
X168536957Y-98370717D01*
X168492630Y-98315262D01*
X168485321Y-98244643D01*
X168517351Y-98181282D01*
X168536953Y-98164295D01*
X168629776Y-98099301D01*
X168779301Y-97949776D01*
X168889646Y-97792187D01*
X168900587Y-97776561D01*
X168900587Y-97776560D01*
X168900589Y-97776558D01*
X168989956Y-97584910D01*
X169044686Y-97380655D01*
X169063116Y-97170000D01*
X169044686Y-96959345D01*
X168989956Y-96755090D01*
X168900589Y-96563442D01*
X168900588Y-96563441D01*
X168900587Y-96563438D01*
X168779307Y-96390232D01*
X168779304Y-96390228D01*
X168779301Y-96390224D01*
X168629776Y-96240699D01*
X168629772Y-96240696D01*
X168629767Y-96240692D01*
X168456561Y-96119412D01*
X168264912Y-96030045D01*
X168264905Y-96030042D01*
X168240838Y-96023594D01*
X168233794Y-96021706D01*
X168173172Y-95984756D01*
X168142150Y-95920896D01*
X168150578Y-95850401D01*
X168195780Y-95795654D01*
X168233793Y-95778293D01*
X168264910Y-95769956D01*
X168456558Y-95680589D01*
X168629776Y-95559301D01*
X168779301Y-95409776D01*
X168897098Y-95241544D01*
X168900587Y-95236561D01*
X168900587Y-95236560D01*
X168900589Y-95236558D01*
X168989956Y-95044910D01*
X169044686Y-94840655D01*
X169063116Y-94630000D01*
X169044686Y-94419345D01*
X168989956Y-94215090D01*
X168900589Y-94023442D01*
X168900588Y-94023441D01*
X168900587Y-94023438D01*
X168779307Y-93850232D01*
X168779304Y-93850228D01*
X168779301Y-93850224D01*
X168629776Y-93700699D01*
X168629772Y-93700696D01*
X168629767Y-93700692D01*
X168456561Y-93579412D01*
X168264912Y-93490045D01*
X168264908Y-93490043D01*
X168155822Y-93460814D01*
X168060655Y-93435314D01*
X167850000Y-93416884D01*
X167639345Y-93435314D01*
X167584616Y-93449978D01*
X167435091Y-93490043D01*
X167435087Y-93490045D01*
X167243438Y-93579412D01*
X167070232Y-93700692D01*
X167070221Y-93700701D01*
X166920701Y-93850221D01*
X166920692Y-93850232D01*
X166799412Y-94023438D01*
X166710045Y-94215087D01*
X166710043Y-94215091D01*
X166678499Y-94332818D01*
X166655314Y-94419345D01*
X166636884Y-94630000D01*
X166655314Y-94840655D01*
X166665869Y-94880045D01*
X166710043Y-95044908D01*
X166710045Y-95044912D01*
X166799412Y-95236561D01*
X166920692Y-95409767D01*
X166920696Y-95409772D01*
X166920699Y-95409776D01*
X167070224Y-95559301D01*
X167070228Y-95559304D01*
X167070232Y-95559307D01*
X167243438Y-95680587D01*
X167243441Y-95680588D01*
X167243442Y-95680589D01*
X167435090Y-95769956D01*
X167466205Y-95778293D01*
X167526828Y-95815245D01*
X167557849Y-95879105D01*
X167549421Y-95949600D01*
X167504218Y-96004347D01*
X167466206Y-96021706D01*
X167459162Y-96023594D01*
X167435091Y-96030043D01*
X167435087Y-96030045D01*
X167243438Y-96119412D01*
X167070232Y-96240692D01*
X167070221Y-96240701D01*
X166920701Y-96390221D01*
X166920692Y-96390232D01*
X166799412Y-96563438D01*
X166710045Y-96755087D01*
X166710043Y-96755091D01*
X166674226Y-96888766D01*
X166655314Y-96959345D01*
X166636884Y-97170000D01*
X166649202Y-97310800D01*
X166652873Y-97352753D01*
X166638884Y-97422357D01*
X166589484Y-97473350D01*
X166520358Y-97489540D01*
X166465498Y-97470063D01*
X166464030Y-97472607D01*
X166456874Y-97468475D01*
X166308848Y-97407161D01*
X166231402Y-97396965D01*
X166189885Y-97391500D01*
X166189882Y-97391500D01*
X164835116Y-97391500D01*
X164835105Y-97391501D01*
X164725945Y-97405872D01*
X164655797Y-97394932D01*
X164602698Y-97347804D01*
X164583500Y-97280950D01*
X164583500Y-96888766D01*
X164603502Y-96820645D01*
X164657158Y-96774152D01*
X164698518Y-96763245D01*
X164699996Y-96763115D01*
X164700000Y-96763116D01*
X164910655Y-96744686D01*
X165114910Y-96689956D01*
X165306558Y-96600589D01*
X165479776Y-96479301D01*
X165629301Y-96329776D01*
X165740204Y-96171389D01*
X165750587Y-96156561D01*
X165750587Y-96156560D01*
X165750589Y-96156558D01*
X165839956Y-95964910D01*
X165894686Y-95760655D01*
X165913116Y-95550000D01*
X165894686Y-95339345D01*
X165839956Y-95135090D01*
X165750589Y-94943442D01*
X165750588Y-94943441D01*
X165750587Y-94943438D01*
X165629307Y-94770232D01*
X165629304Y-94770228D01*
X165629301Y-94770224D01*
X165479776Y-94620699D01*
X165479772Y-94620696D01*
X165479767Y-94620692D01*
X165306561Y-94499412D01*
X165114912Y-94410045D01*
X165114908Y-94410043D01*
X165020112Y-94384643D01*
X164910655Y-94355314D01*
X164700000Y-94336884D01*
X164489345Y-94355314D01*
X164461064Y-94362892D01*
X164285091Y-94410043D01*
X164285087Y-94410045D01*
X164093438Y-94499412D01*
X163920232Y-94620692D01*
X163920221Y-94620701D01*
X163770701Y-94770221D01*
X163770692Y-94770232D01*
X163649412Y-94943438D01*
X163560045Y-95135087D01*
X163560043Y-95135091D01*
X163505314Y-95339346D01*
X163486884Y-95550000D01*
X163505315Y-95760667D01*
X163506269Y-95766075D01*
X163504957Y-95766306D01*
X163503418Y-95830870D01*
X163475616Y-95876497D01*
X163476482Y-95877261D01*
X163473866Y-95880227D01*
X163469560Y-95885777D01*
X163465714Y-95890279D01*
X163433417Y-95924674D01*
X163433411Y-95924683D01*
X163423651Y-95942435D01*
X163412803Y-95958950D01*
X163400386Y-95974958D01*
X163381645Y-96018264D01*
X163379034Y-96023594D01*
X163356305Y-96064939D01*
X163356303Y-96064944D01*
X163351267Y-96084559D01*
X163344864Y-96103262D01*
X163336819Y-96121852D01*
X163329437Y-96168456D01*
X163328233Y-96174268D01*
X163316500Y-96219968D01*
X163316500Y-96240223D01*
X163314949Y-96259933D01*
X163311780Y-96279942D01*
X163311780Y-96279943D01*
X163316220Y-96326917D01*
X163316500Y-96332850D01*
X163316500Y-97792187D01*
X163314751Y-97808029D01*
X163315044Y-97808057D01*
X163314298Y-97815948D01*
X163316500Y-97885998D01*
X163316500Y-97915892D01*
X163316501Y-97915913D01*
X163317378Y-97922861D01*
X163317844Y-97928773D01*
X163319326Y-97975929D01*
X163319327Y-97975934D01*
X163324977Y-97995380D01*
X163328986Y-98014738D01*
X163331525Y-98034834D01*
X163331526Y-98034840D01*
X163348893Y-98078703D01*
X163350816Y-98084320D01*
X163363982Y-98129634D01*
X163374294Y-98147072D01*
X163382988Y-98164820D01*
X163390444Y-98183650D01*
X163390450Y-98183661D01*
X163418177Y-98221824D01*
X163421437Y-98226787D01*
X163445460Y-98267406D01*
X163459779Y-98281725D01*
X163472617Y-98296755D01*
X163482156Y-98309884D01*
X163484528Y-98313148D01*
X163502585Y-98328086D01*
X163520886Y-98343226D01*
X163525267Y-98347212D01*
X163894417Y-98716362D01*
X164242534Y-99064479D01*
X164276560Y-99126791D01*
X164278361Y-99170020D01*
X164266500Y-99260113D01*
X164266500Y-99539883D01*
X164266501Y-99539892D01*
X164275776Y-99610343D01*
X164282162Y-99658850D01*
X164286640Y-99669662D01*
X164289591Y-99676786D01*
X164297177Y-99747376D01*
X164289591Y-99773214D01*
X164282161Y-99791151D01*
X164266500Y-99910113D01*
X164266500Y-100189883D01*
X164266501Y-100189892D01*
X164282162Y-100308848D01*
X164282162Y-100308849D01*
X164289591Y-100326786D01*
X164297177Y-100397376D01*
X164289591Y-100423214D01*
X164282161Y-100441151D01*
X164266500Y-100560113D01*
X164266500Y-100839883D01*
X164266501Y-100839892D01*
X164282162Y-100958848D01*
X164282162Y-100958849D01*
X164289591Y-100976786D01*
X164297177Y-101047376D01*
X164289591Y-101073214D01*
X164282161Y-101091151D01*
X164266500Y-101210113D01*
X164266500Y-101240500D01*
X164246498Y-101308621D01*
X164192842Y-101355114D01*
X164140500Y-101366500D01*
X161633849Y-101366500D01*
X161618010Y-101364751D01*
X161617983Y-101365045D01*
X161610091Y-101364299D01*
X161540060Y-101366500D01*
X161510144Y-101366500D01*
X161503172Y-101367379D01*
X161497265Y-101367844D01*
X161450110Y-101369326D01*
X161450105Y-101369327D01*
X161430660Y-101374977D01*
X161411302Y-101378986D01*
X161391207Y-101381524D01*
X161391205Y-101381525D01*
X161347324Y-101398897D01*
X161341709Y-101400819D01*
X161296410Y-101413980D01*
X161296404Y-101413982D01*
X161278966Y-101424295D01*
X161261220Y-101432989D01*
X161242381Y-101440448D01*
X161242378Y-101440450D01*
X161233554Y-101446861D01*
X161166685Y-101470716D01*
X161097534Y-101454631D01*
X161048057Y-101403715D01*
X161033499Y-101344921D01*
X161033499Y-101210116D01*
X161033498Y-101210107D01*
X161017838Y-101091151D01*
X161017838Y-101091150D01*
X161010410Y-101073219D01*
X161002819Y-101002634D01*
X161010408Y-100976786D01*
X161017838Y-100958850D01*
X161033500Y-100839885D01*
X161033499Y-100560116D01*
X161017838Y-100441150D01*
X161010410Y-100423219D01*
X161002819Y-100352634D01*
X161010408Y-100326786D01*
X161017838Y-100308850D01*
X161033500Y-100189885D01*
X161033499Y-99910116D01*
X161017838Y-99791150D01*
X160956524Y-99643124D01*
X160858987Y-99516013D01*
X160743548Y-99427432D01*
X160731878Y-99418477D01*
X160583848Y-99357161D01*
X160506402Y-99346965D01*
X160464885Y-99341500D01*
X160464882Y-99341500D01*
X159110116Y-99341500D01*
X159110107Y-99341501D01*
X159003046Y-99355595D01*
X158991150Y-99357162D01*
X158843121Y-99418477D01*
X158716013Y-99516013D01*
X158618477Y-99643121D01*
X158557161Y-99791151D01*
X158541500Y-99910113D01*
X158541500Y-99940500D01*
X158521498Y-100008621D01*
X158467842Y-100055114D01*
X158415500Y-100066500D01*
X158264595Y-100066500D01*
X158196474Y-100046498D01*
X158175500Y-100029595D01*
X156385789Y-98239883D01*
X158541500Y-98239883D01*
X158541501Y-98239892D01*
X158551146Y-98313150D01*
X158557162Y-98358850D01*
X158608917Y-98483799D01*
X158618477Y-98506878D01*
X158651745Y-98550232D01*
X158716013Y-98633987D01*
X158843124Y-98731524D01*
X158991150Y-98792838D01*
X159110115Y-98808500D01*
X160464884Y-98808499D01*
X160583850Y-98792838D01*
X160731876Y-98731524D01*
X160858987Y-98633987D01*
X160956524Y-98506876D01*
X161017838Y-98358850D01*
X161033500Y-98239885D01*
X161033499Y-97960116D01*
X161017838Y-97841150D01*
X160956524Y-97693124D01*
X160858987Y-97566013D01*
X160737260Y-97472607D01*
X160731878Y-97468477D01*
X160731873Y-97468475D01*
X160657863Y-97437818D01*
X160583848Y-97407161D01*
X160506402Y-97396965D01*
X160464885Y-97391500D01*
X160464882Y-97391500D01*
X159110116Y-97391500D01*
X159110107Y-97391501D01*
X159003046Y-97405595D01*
X158991150Y-97407162D01*
X158843121Y-97468477D01*
X158716013Y-97566013D01*
X158618477Y-97693121D01*
X158557161Y-97841151D01*
X158541500Y-97960113D01*
X158541500Y-98239883D01*
X156385789Y-98239883D01*
X156245405Y-98099499D01*
X156211379Y-98037187D01*
X156208500Y-98010404D01*
X156208500Y-97478815D01*
X156228502Y-97410694D01*
X156262226Y-97375604D01*
X156354776Y-97310801D01*
X156504301Y-97161276D01*
X156625589Y-96988058D01*
X156714956Y-96796410D01*
X156769686Y-96592155D01*
X156788116Y-96381500D01*
X156769686Y-96170845D01*
X156714956Y-95966590D01*
X156625589Y-95774942D01*
X156625588Y-95774941D01*
X156625587Y-95774938D01*
X156504307Y-95601732D01*
X156504304Y-95601728D01*
X156504301Y-95601724D01*
X156354776Y-95452199D01*
X156354772Y-95452196D01*
X156354767Y-95452192D01*
X156181561Y-95330912D01*
X155989912Y-95241545D01*
X155989905Y-95241542D01*
X155967211Y-95235461D01*
X155958794Y-95233206D01*
X155898172Y-95196256D01*
X155867150Y-95132396D01*
X155875578Y-95061901D01*
X155920780Y-95007154D01*
X155958793Y-94989793D01*
X155989910Y-94981456D01*
X156181558Y-94892089D01*
X156213195Y-94869937D01*
X156255014Y-94840655D01*
X156354776Y-94770801D01*
X156504301Y-94621276D01*
X156621281Y-94454210D01*
X156625587Y-94448061D01*
X156625587Y-94448060D01*
X156625589Y-94448058D01*
X156714956Y-94256410D01*
X156769686Y-94052155D01*
X156788116Y-93841500D01*
X156769686Y-93630845D01*
X156714956Y-93426590D01*
X156625589Y-93234942D01*
X156625588Y-93234941D01*
X156625587Y-93234938D01*
X156504307Y-93061732D01*
X156504303Y-93061727D01*
X156504301Y-93061724D01*
X156354776Y-92912199D01*
X156354775Y-92912198D01*
X156262229Y-92847396D01*
X156217901Y-92791938D01*
X156208500Y-92744183D01*
X156208500Y-91934207D01*
X156228502Y-91866086D01*
X156282158Y-91819593D01*
X156290445Y-91816159D01*
X156421204Y-91767389D01*
X156538261Y-91679761D01*
X156625889Y-91562704D01*
X156674652Y-91431964D01*
X156717198Y-91375132D01*
X156783719Y-91350321D01*
X156792707Y-91350000D01*
X159229647Y-91350000D01*
X159245488Y-91351749D01*
X159245516Y-91351456D01*
X159253402Y-91352200D01*
X159253409Y-91352202D01*
X159323458Y-91350000D01*
X159353356Y-91350000D01*
X159357319Y-91350000D01*
X159357319Y-91351128D01*
X159421801Y-91365716D01*
X159471585Y-91416333D01*
X159486100Y-91485830D01*
X159460738Y-91552142D01*
X159413750Y-91589994D01*
X159243438Y-91669412D01*
X159070232Y-91790692D01*
X159070221Y-91790701D01*
X158920701Y-91940221D01*
X158920692Y-91940232D01*
X158799412Y-92113438D01*
X158710045Y-92305087D01*
X158710043Y-92305091D01*
X158690711Y-92377241D01*
X158655314Y-92509345D01*
X158636884Y-92720000D01*
X158655314Y-92930655D01*
X158677164Y-93012199D01*
X158710043Y-93134908D01*
X158710045Y-93134912D01*
X158799412Y-93326561D01*
X158920692Y-93499767D01*
X158920696Y-93499772D01*
X158920699Y-93499776D01*
X159070224Y-93649301D01*
X159070228Y-93649304D01*
X159070232Y-93649307D01*
X159243438Y-93770587D01*
X159248206Y-93773340D01*
X159247388Y-93774755D01*
X159295061Y-93816722D01*
X159314529Y-93884997D01*
X159293994Y-93952959D01*
X159239976Y-93999030D01*
X159236753Y-94000418D01*
X159183267Y-94022573D01*
X158974107Y-94150745D01*
X158787567Y-94310067D01*
X158628245Y-94496607D01*
X158508364Y-94692238D01*
X158500073Y-94705768D01*
X158489601Y-94731049D01*
X158406195Y-94932407D01*
X158348928Y-95170943D01*
X158335502Y-95341543D01*
X158329681Y-95415500D01*
X158348928Y-95660057D01*
X158406195Y-95898592D01*
X158500073Y-96125232D01*
X158528025Y-96170846D01*
X158628245Y-96334392D01*
X158628246Y-96334394D01*
X158628248Y-96334396D01*
X158787567Y-96520933D01*
X158974104Y-96680252D01*
X158974106Y-96680253D01*
X158974107Y-96680254D01*
X158993525Y-96692153D01*
X159183268Y-96808427D01*
X159409908Y-96902305D01*
X159648443Y-96959572D01*
X159893000Y-96978819D01*
X160137557Y-96959572D01*
X160376092Y-96902305D01*
X160602732Y-96808427D01*
X160811896Y-96680252D01*
X160998433Y-96520933D01*
X161157752Y-96334396D01*
X161285927Y-96125232D01*
X161379805Y-95898592D01*
X161437072Y-95660057D01*
X161456319Y-95415500D01*
X161437072Y-95170943D01*
X161379805Y-94932408D01*
X161285927Y-94705768D01*
X161157752Y-94496604D01*
X160998433Y-94310067D01*
X160811896Y-94150748D01*
X160811894Y-94150746D01*
X160811892Y-94150745D01*
X160602731Y-94022572D01*
X160602729Y-94022571D01*
X160496961Y-93978760D01*
X160441680Y-93934212D01*
X160419260Y-93866848D01*
X160436819Y-93798057D01*
X160472906Y-93759141D01*
X160629776Y-93649301D01*
X160779301Y-93499776D01*
X160890137Y-93341485D01*
X160900587Y-93326561D01*
X160900587Y-93326560D01*
X160900589Y-93326558D01*
X160989956Y-93134910D01*
X161044686Y-92930655D01*
X161063116Y-92720000D01*
X161044686Y-92509345D01*
X160989956Y-92305090D01*
X160900589Y-92113442D01*
X160900588Y-92113441D01*
X160900587Y-92113438D01*
X160779307Y-91940232D01*
X160779304Y-91940228D01*
X160779301Y-91940224D01*
X160629776Y-91790699D01*
X160629772Y-91790696D01*
X160629767Y-91790692D01*
X160456561Y-91669412D01*
X160264912Y-91580045D01*
X160264905Y-91580042D01*
X160242211Y-91573961D01*
X160233794Y-91571706D01*
X160173172Y-91534756D01*
X160142150Y-91470896D01*
X160150578Y-91400401D01*
X160195780Y-91345654D01*
X160233793Y-91328293D01*
X160264910Y-91319956D01*
X160456558Y-91230589D01*
X160629776Y-91109301D01*
X160779301Y-90959776D01*
X160900589Y-90786558D01*
X160989956Y-90594910D01*
X161044686Y-90390655D01*
X161063116Y-90180000D01*
X161044686Y-89969345D01*
X160989956Y-89765090D01*
X160900589Y-89573442D01*
X160900588Y-89573441D01*
X160900587Y-89573438D01*
X160812944Y-89448270D01*
X160790256Y-89380996D01*
X160807541Y-89312136D01*
X160859311Y-89263552D01*
X160916157Y-89250000D01*
X162050406Y-89250000D01*
X162118527Y-89270002D01*
X162139501Y-89286905D01*
X163115132Y-90262536D01*
X163149158Y-90324848D01*
X163148182Y-90382561D01*
X163120436Y-90492128D01*
X163111919Y-90594910D01*
X163101844Y-90716500D01*
X163120265Y-90938810D01*
X163120437Y-90940875D01*
X163175702Y-91159112D01*
X163175703Y-91159113D01*
X163175704Y-91159116D01*
X163260091Y-91351500D01*
X163266141Y-91365293D01*
X163389275Y-91553765D01*
X163389279Y-91553770D01*
X163541762Y-91719408D01*
X163580094Y-91749243D01*
X163719424Y-91857689D01*
X163917426Y-91964842D01*
X163917427Y-91964842D01*
X163917428Y-91964843D01*
X164029227Y-92003223D01*
X164130365Y-92037944D01*
X164352431Y-92075000D01*
X164352435Y-92075000D01*
X164577565Y-92075000D01*
X164577569Y-92075000D01*
X164799635Y-92037944D01*
X165012574Y-91964842D01*
X165210576Y-91857689D01*
X165388240Y-91719406D01*
X165449245Y-91653137D01*
X165510096Y-91616567D01*
X165581061Y-91618700D01*
X165639606Y-91658862D01*
X165660000Y-91694441D01*
X165704111Y-91812704D01*
X165704112Y-91812707D01*
X165791738Y-91929761D01*
X165908792Y-92017387D01*
X165908794Y-92017388D01*
X165908796Y-92017389D01*
X165963900Y-92037942D01*
X166045795Y-92068488D01*
X166045803Y-92068490D01*
X166106350Y-92074999D01*
X166106355Y-92074999D01*
X166106362Y-92075000D01*
X166106368Y-92075000D01*
X167903632Y-92075000D01*
X167903638Y-92075000D01*
X167903645Y-92074999D01*
X167903649Y-92074999D01*
X167964196Y-92068490D01*
X167964199Y-92068489D01*
X167964201Y-92068489D01*
X168101204Y-92017389D01*
X168171399Y-91964842D01*
X168218261Y-91929761D01*
X168305887Y-91812707D01*
X168305887Y-91812706D01*
X168305889Y-91812704D01*
X168356989Y-91675701D01*
X168357666Y-91669412D01*
X168363499Y-91615149D01*
X168363500Y-91615132D01*
X168363500Y-89817867D01*
X168363499Y-89817850D01*
X168356990Y-89757303D01*
X168356988Y-89757295D01*
X168314842Y-89644300D01*
X168305889Y-89620296D01*
X168305888Y-89620294D01*
X168305887Y-89620292D01*
X168218261Y-89503238D01*
X168101207Y-89415612D01*
X168101203Y-89415610D01*
X167986192Y-89372713D01*
X167929356Y-89330167D01*
X167904546Y-89263646D01*
X167919638Y-89194272D01*
X167937525Y-89169320D01*
X168080714Y-89013777D01*
X168080724Y-89013765D01*
X168087774Y-89002974D01*
X168203860Y-88825291D01*
X168294296Y-88619116D01*
X168349564Y-88400868D01*
X168368156Y-88176500D01*
X168349564Y-87952132D01*
X168320477Y-87837270D01*
X168294297Y-87733887D01*
X168294296Y-87733886D01*
X168294296Y-87733884D01*
X168203860Y-87527709D01*
X168188500Y-87504199D01*
X168080724Y-87339234D01*
X168080720Y-87339229D01*
X167928237Y-87173591D01*
X167833672Y-87099988D01*
X167750576Y-87035311D01*
X167717319Y-87017313D01*
X167666929Y-86967302D01*
X167651576Y-86897985D01*
X167676136Y-86831372D01*
X167717320Y-86795686D01*
X167750576Y-86777689D01*
X167928240Y-86639406D01*
X168080722Y-86473768D01*
X168203860Y-86285291D01*
X168294296Y-86079116D01*
X168349564Y-85860868D01*
X168368156Y-85636500D01*
X168349564Y-85412132D01*
X168336020Y-85358649D01*
X168294297Y-85193887D01*
X168294296Y-85193886D01*
X168294296Y-85193884D01*
X168203860Y-84987709D01*
X168192290Y-84970000D01*
X168080724Y-84799234D01*
X168080720Y-84799229D01*
X167947345Y-84654347D01*
X167928240Y-84633594D01*
X167928239Y-84633593D01*
X167928237Y-84633591D01*
X167819863Y-84549240D01*
X167750576Y-84495311D01*
X167717319Y-84477313D01*
X167666929Y-84427302D01*
X167651576Y-84357985D01*
X167676136Y-84291372D01*
X167717320Y-84255686D01*
X167750576Y-84237689D01*
X167928240Y-84099406D01*
X168080722Y-83933768D01*
X168203860Y-83745291D01*
X168294296Y-83539116D01*
X168349564Y-83320868D01*
X168368156Y-83096500D01*
X168349564Y-82872132D01*
X168349562Y-82872124D01*
X168294297Y-82653887D01*
X168294296Y-82653886D01*
X168294296Y-82653884D01*
X168203860Y-82447709D01*
X168189739Y-82426095D01*
X168080724Y-82259234D01*
X168080720Y-82259229D01*
X167928237Y-82093591D01*
X167846382Y-82029881D01*
X167750576Y-81955311D01*
X167717319Y-81937313D01*
X167666929Y-81887302D01*
X167651576Y-81817985D01*
X167676136Y-81751372D01*
X167717320Y-81715686D01*
X167750576Y-81697689D01*
X167928240Y-81559406D01*
X168080722Y-81393768D01*
X168203860Y-81205291D01*
X168294296Y-80999116D01*
X168349564Y-80780868D01*
X168368156Y-80556500D01*
X168349564Y-80332132D01*
X168332399Y-80264350D01*
X168294297Y-80113887D01*
X168294296Y-80113886D01*
X168294296Y-80113884D01*
X168203860Y-79907709D01*
X168187166Y-79882157D01*
X168080724Y-79719234D01*
X168080720Y-79719229D01*
X167928237Y-79553591D01*
X167833018Y-79479479D01*
X167750576Y-79415311D01*
X167741438Y-79410366D01*
X167717320Y-79397314D01*
X167666929Y-79347302D01*
X167651576Y-79277985D01*
X167676136Y-79211372D01*
X167717320Y-79175686D01*
X167750576Y-79157689D01*
X167928240Y-79019406D01*
X168080722Y-78853768D01*
X168203860Y-78665291D01*
X168294296Y-78459116D01*
X168349564Y-78240868D01*
X168368156Y-78016500D01*
X168349564Y-77792132D01*
X168305468Y-77618002D01*
X168294297Y-77573887D01*
X168294296Y-77573886D01*
X168294296Y-77573884D01*
X168203860Y-77367709D01*
X168197140Y-77357424D01*
X168080724Y-77179234D01*
X168080720Y-77179229D01*
X167928237Y-77013591D01*
X167846382Y-76949881D01*
X167750576Y-76875311D01*
X167552574Y-76768158D01*
X167552572Y-76768157D01*
X167552571Y-76768156D01*
X167339639Y-76695057D01*
X167339630Y-76695055D01*
X167295476Y-76687687D01*
X167117569Y-76658000D01*
X166892431Y-76658000D01*
X166744211Y-76682733D01*
X166670369Y-76695055D01*
X166670360Y-76695057D01*
X166457428Y-76768156D01*
X166457426Y-76768158D01*
X166259426Y-76875310D01*
X166259424Y-76875311D01*
X166081762Y-77013591D01*
X165929279Y-77179229D01*
X165840483Y-77315143D01*
X165786479Y-77361231D01*
X165716131Y-77370806D01*
X165651774Y-77340829D01*
X165629517Y-77315143D01*
X165540720Y-77179229D01*
X165388237Y-77013591D01*
X165306382Y-76949881D01*
X165210576Y-76875311D01*
X165012574Y-76768158D01*
X165012572Y-76768157D01*
X165012571Y-76768156D01*
X164799639Y-76695057D01*
X164799630Y-76695055D01*
X164755476Y-76687687D01*
X164577569Y-76658000D01*
X164352431Y-76658000D01*
X164204210Y-76682733D01*
X164130369Y-76695055D01*
X164130360Y-76695057D01*
X163917428Y-76768156D01*
X163917426Y-76768158D01*
X163719426Y-76875310D01*
X163719424Y-76875311D01*
X163541762Y-77013591D01*
X163389279Y-77179229D01*
X163389275Y-77179234D01*
X163266141Y-77367706D01*
X163175703Y-77573886D01*
X163175702Y-77573887D01*
X163120437Y-77792124D01*
X163120436Y-77792130D01*
X163120436Y-77792132D01*
X163101844Y-78016500D01*
X163118242Y-78214393D01*
X163120437Y-78240875D01*
X163175702Y-78459112D01*
X163175703Y-78459113D01*
X163175704Y-78459116D01*
X163264781Y-78662192D01*
X163266141Y-78665293D01*
X163389275Y-78853765D01*
X163389279Y-78853770D01*
X163541762Y-79019408D01*
X163590920Y-79057669D01*
X163719424Y-79157689D01*
X163752680Y-79175686D01*
X163803071Y-79225700D01*
X163818423Y-79295016D01*
X163793862Y-79361629D01*
X163752680Y-79397313D01*
X163719426Y-79415310D01*
X163719424Y-79415311D01*
X163541762Y-79553591D01*
X163389279Y-79719229D01*
X163389275Y-79719234D01*
X163266141Y-79907706D01*
X163175703Y-80113886D01*
X163175702Y-80113887D01*
X163120437Y-80332124D01*
X163120436Y-80332130D01*
X163120436Y-80332132D01*
X163110297Y-80454494D01*
X163104785Y-80521014D01*
X163101844Y-80556500D01*
X163118578Y-80758451D01*
X163120437Y-80780875D01*
X163175702Y-80999112D01*
X163175703Y-80999113D01*
X163175704Y-80999116D01*
X163264781Y-81202192D01*
X163266141Y-81205293D01*
X163389275Y-81393765D01*
X163389279Y-81393770D01*
X163541762Y-81559408D01*
X163545992Y-81562700D01*
X163719424Y-81697689D01*
X163752680Y-81715686D01*
X163803071Y-81765700D01*
X163818423Y-81835016D01*
X163793862Y-81901629D01*
X163752680Y-81937313D01*
X163719426Y-81955310D01*
X163719424Y-81955311D01*
X163541762Y-82093591D01*
X163389279Y-82259229D01*
X163389275Y-82259234D01*
X163266141Y-82447706D01*
X163175703Y-82653886D01*
X163175702Y-82653887D01*
X163120437Y-82872124D01*
X163120436Y-82872130D01*
X163120436Y-82872132D01*
X163101844Y-83096500D01*
X163120265Y-83318810D01*
X163120437Y-83320875D01*
X163175702Y-83539112D01*
X163175703Y-83539113D01*
X163175704Y-83539116D01*
X163252893Y-83715090D01*
X163266141Y-83745293D01*
X163389275Y-83933765D01*
X163389279Y-83933770D01*
X163541762Y-84099408D01*
X163586162Y-84133966D01*
X163719424Y-84237689D01*
X163752680Y-84255686D01*
X163803071Y-84305700D01*
X163818423Y-84375016D01*
X163793862Y-84441629D01*
X163752680Y-84477313D01*
X163719426Y-84495310D01*
X163719424Y-84495311D01*
X163541762Y-84633591D01*
X163389279Y-84799229D01*
X163389275Y-84799234D01*
X163266141Y-84987706D01*
X163175703Y-85193886D01*
X163175702Y-85193887D01*
X163120437Y-85412124D01*
X163120436Y-85412130D01*
X163120436Y-85412132D01*
X163101844Y-85636500D01*
X163120265Y-85858810D01*
X163120437Y-85860875D01*
X163175702Y-86079112D01*
X163175703Y-86079113D01*
X163175704Y-86079116D01*
X163264781Y-86282192D01*
X163266141Y-86285293D01*
X163389275Y-86473765D01*
X163389279Y-86473770D01*
X163541762Y-86639408D01*
X163581067Y-86670000D01*
X163719424Y-86777689D01*
X163752680Y-86795686D01*
X163803071Y-86845700D01*
X163818423Y-86915016D01*
X163793862Y-86981629D01*
X163752680Y-87017313D01*
X163719426Y-87035310D01*
X163719424Y-87035311D01*
X163541762Y-87173591D01*
X163389279Y-87339229D01*
X163294683Y-87484020D01*
X163240679Y-87530108D01*
X163170331Y-87539683D01*
X163105974Y-87509705D01*
X163100105Y-87504199D01*
X162907243Y-87311337D01*
X162897280Y-87298902D01*
X162897053Y-87299090D01*
X162892000Y-87292982D01*
X162840920Y-87245015D01*
X162819777Y-87223871D01*
X162819772Y-87223866D01*
X162814225Y-87219563D01*
X162809717Y-87215712D01*
X162775325Y-87183417D01*
X162775319Y-87183413D01*
X162757563Y-87173651D01*
X162741047Y-87162802D01*
X162725041Y-87150386D01*
X162694289Y-87137078D01*
X162681740Y-87131648D01*
X162676408Y-87129036D01*
X162635061Y-87106305D01*
X162615436Y-87101266D01*
X162596736Y-87094864D01*
X162578145Y-87086819D01*
X162578143Y-87086818D01*
X162578142Y-87086818D01*
X162531542Y-87079437D01*
X162525729Y-87078233D01*
X162480030Y-87066500D01*
X162459776Y-87066500D01*
X162440066Y-87064949D01*
X162420057Y-87061780D01*
X162420056Y-87061780D01*
X162373083Y-87066220D01*
X162367150Y-87066500D01*
X160726390Y-87066500D01*
X160658269Y-87046498D01*
X160611776Y-86992842D01*
X160601672Y-86922568D01*
X160631166Y-86857988D01*
X160654119Y-86837287D01*
X160739229Y-86777692D01*
X160779776Y-86749301D01*
X160929301Y-86599776D01*
X161050589Y-86426558D01*
X161139956Y-86234910D01*
X161194686Y-86030655D01*
X161213116Y-85820000D01*
X161194686Y-85609345D01*
X161139956Y-85405090D01*
X161050589Y-85213442D01*
X161050588Y-85213441D01*
X161050587Y-85213438D01*
X160929307Y-85040232D01*
X160929304Y-85040228D01*
X160929301Y-85040224D01*
X160779776Y-84890699D01*
X160779772Y-84890696D01*
X160779767Y-84890692D01*
X160606561Y-84769412D01*
X160414912Y-84680045D01*
X160414905Y-84680042D01*
X160392211Y-84673961D01*
X160383794Y-84671706D01*
X160323172Y-84634756D01*
X160292150Y-84570896D01*
X160300578Y-84500401D01*
X160345780Y-84445654D01*
X160383793Y-84428293D01*
X160414910Y-84419956D01*
X160606558Y-84330589D01*
X160779776Y-84209301D01*
X160929301Y-84059776D01*
X161050589Y-83886558D01*
X161139956Y-83694910D01*
X161194686Y-83490655D01*
X161213116Y-83280000D01*
X161194686Y-83069345D01*
X161139956Y-82865090D01*
X161050589Y-82673442D01*
X161050588Y-82673441D01*
X161050587Y-82673438D01*
X160929307Y-82500232D01*
X160929304Y-82500228D01*
X160929301Y-82500224D01*
X160779776Y-82350699D01*
X160779772Y-82350696D01*
X160779767Y-82350692D01*
X160606561Y-82229412D01*
X160414912Y-82140045D01*
X160414908Y-82140043D01*
X160305438Y-82110711D01*
X160210655Y-82085314D01*
X160000000Y-82066884D01*
X159999999Y-82066884D01*
X159967236Y-82069750D01*
X159789345Y-82085314D01*
X159789342Y-82085314D01*
X159789339Y-82085315D01*
X159783922Y-82086270D01*
X159783690Y-82084958D01*
X159719121Y-82083416D01*
X159668402Y-82052497D01*
X159535353Y-81919448D01*
X159515016Y-81888482D01*
X159513374Y-81889385D01*
X159509555Y-81882440D01*
X159509553Y-81882438D01*
X159509552Y-81882434D01*
X159481812Y-81844254D01*
X159478564Y-81839309D01*
X159454542Y-81798689D01*
X159440214Y-81784361D01*
X159427384Y-81769340D01*
X159415472Y-81752944D01*
X159415469Y-81752942D01*
X159415469Y-81752941D01*
X159379107Y-81722859D01*
X159374726Y-81718873D01*
X157153693Y-79497839D01*
X157143728Y-79485401D01*
X157143501Y-79485590D01*
X157138450Y-79479484D01*
X157138449Y-79479482D01*
X157087370Y-79431516D01*
X157066226Y-79410371D01*
X157066221Y-79410366D01*
X157060674Y-79406063D01*
X157056166Y-79402212D01*
X157021774Y-79369917D01*
X157021768Y-79369913D01*
X157004012Y-79360151D01*
X156987496Y-79349302D01*
X156971490Y-79336886D01*
X156937587Y-79322215D01*
X156928189Y-79318148D01*
X156922857Y-79315536D01*
X156881510Y-79292805D01*
X156861885Y-79287766D01*
X156843185Y-79281364D01*
X156824594Y-79273319D01*
X156824592Y-79273318D01*
X156824591Y-79273318D01*
X156777991Y-79265937D01*
X156772178Y-79264733D01*
X156726479Y-79253000D01*
X156706225Y-79253000D01*
X156686515Y-79251449D01*
X156666506Y-79248280D01*
X156666505Y-79248280D01*
X156619532Y-79252720D01*
X156613599Y-79253000D01*
X155239500Y-79253000D01*
X155171379Y-79232998D01*
X155124886Y-79179342D01*
X155113500Y-79127000D01*
X155113500Y-79094994D01*
X155110562Y-79057670D01*
X155099446Y-79019408D01*
X155064145Y-78897899D01*
X155064143Y-78897897D01*
X155064143Y-78897894D01*
X154979455Y-78754696D01*
X154979450Y-78754689D01*
X154861810Y-78637049D01*
X154861803Y-78637044D01*
X154718605Y-78552356D01*
X154558829Y-78505937D01*
X154521506Y-78503000D01*
X154521502Y-78503000D01*
X154088498Y-78503000D01*
X154088494Y-78503000D01*
X154051170Y-78505937D01*
X153891395Y-78552356D01*
X153842129Y-78581492D01*
X153773313Y-78598951D01*
X153705982Y-78576434D01*
X153661513Y-78521089D01*
X153656001Y-78500240D01*
X153655446Y-78500383D01*
X153653474Y-78492705D01*
X153653474Y-78492703D01*
X153636103Y-78448829D01*
X153634189Y-78443240D01*
X153621019Y-78397907D01*
X153610703Y-78380464D01*
X153602005Y-78362709D01*
X153594552Y-78343883D01*
X153566818Y-78305710D01*
X153563558Y-78300747D01*
X153539542Y-78260138D01*
X153525214Y-78245810D01*
X153512384Y-78230789D01*
X153500472Y-78214393D01*
X153500469Y-78214391D01*
X153500469Y-78214390D01*
X153464113Y-78184313D01*
X153459721Y-78180317D01*
X152907241Y-77627836D01*
X152897280Y-77615401D01*
X152897053Y-77615590D01*
X152892000Y-77609482D01*
X152840920Y-77561515D01*
X152819777Y-77540371D01*
X152819772Y-77540366D01*
X152814225Y-77536063D01*
X152809717Y-77532212D01*
X152775325Y-77499917D01*
X152775319Y-77499913D01*
X152757563Y-77490151D01*
X152741047Y-77479302D01*
X152725041Y-77466886D01*
X152694289Y-77453578D01*
X152681740Y-77448148D01*
X152676408Y-77445536D01*
X152635061Y-77422805D01*
X152615436Y-77417766D01*
X152596736Y-77411364D01*
X152578145Y-77403319D01*
X152578143Y-77403318D01*
X152578142Y-77403318D01*
X152531542Y-77395937D01*
X152525729Y-77394733D01*
X152480030Y-77383000D01*
X152459776Y-77383000D01*
X152440066Y-77381449D01*
X152420057Y-77378280D01*
X152420056Y-77378280D01*
X152373083Y-77382720D01*
X152367150Y-77383000D01*
X147403853Y-77383000D01*
X147388011Y-77381250D01*
X147387984Y-77381544D01*
X147380092Y-77380798D01*
X147380091Y-77380798D01*
X147310042Y-77383000D01*
X147280144Y-77383000D01*
X147280140Y-77383000D01*
X147280130Y-77383001D01*
X147273179Y-77383879D01*
X147267267Y-77384344D01*
X147220112Y-77385826D01*
X147220110Y-77385827D01*
X147200655Y-77391478D01*
X147181302Y-77395486D01*
X147161210Y-77398024D01*
X147161202Y-77398026D01*
X147117336Y-77415393D01*
X147111721Y-77417316D01*
X147066407Y-77430482D01*
X147066402Y-77430484D01*
X147048963Y-77440797D01*
X147031218Y-77449490D01*
X147012380Y-77456949D01*
X146998704Y-77466886D01*
X146974212Y-77484680D01*
X146969261Y-77487933D01*
X146928640Y-77511955D01*
X146914307Y-77526287D01*
X146899281Y-77539120D01*
X146882895Y-77551026D01*
X146882894Y-77551026D01*
X146852818Y-77587380D01*
X146848823Y-77591771D01*
X146756628Y-77683965D01*
X146694316Y-77717991D01*
X146623501Y-77712926D01*
X146566665Y-77670379D01*
X146553338Y-77648120D01*
X146465587Y-77459938D01*
X146344307Y-77286732D01*
X146344304Y-77286728D01*
X146344301Y-77286724D01*
X146194776Y-77137199D01*
X146194772Y-77137196D01*
X146194767Y-77137192D01*
X146021561Y-77015912D01*
X145829912Y-76926545D01*
X145829908Y-76926543D01*
X145735112Y-76901143D01*
X145625655Y-76871814D01*
X145415000Y-76853384D01*
X145204345Y-76871814D01*
X145149616Y-76886478D01*
X145000091Y-76926543D01*
X145000087Y-76926545D01*
X144808438Y-77015912D01*
X144635232Y-77137192D01*
X144635221Y-77137201D01*
X144485701Y-77286721D01*
X144485692Y-77286732D01*
X144364412Y-77459938D01*
X144364410Y-77459942D01*
X144321357Y-77552269D01*
X144274440Y-77605553D01*
X144206163Y-77625014D01*
X144138203Y-77604472D01*
X144092968Y-77552267D01*
X144012524Y-77379752D01*
X143881200Y-77192203D01*
X143881195Y-77192197D01*
X143719302Y-77030304D01*
X143719296Y-77030299D01*
X143531749Y-76898977D01*
X143324246Y-76802217D01*
X143324240Y-76802215D01*
X143230771Y-76777170D01*
X143103087Y-76742957D01*
X142875000Y-76723002D01*
X142874999Y-76723002D01*
X142646913Y-76742957D01*
X142425759Y-76802215D01*
X142425753Y-76802217D01*
X142218250Y-76898977D01*
X142030703Y-77030299D01*
X142030697Y-77030304D01*
X141868804Y-77192197D01*
X141868799Y-77192203D01*
X141737477Y-77379750D01*
X141640717Y-77587253D01*
X141640715Y-77587259D01*
X141581457Y-77808412D01*
X141581457Y-77808413D01*
X141561502Y-78036500D01*
X141581457Y-78264587D01*
X141633581Y-78459116D01*
X141640718Y-78485750D01*
X141640857Y-78486132D01*
X141640868Y-78486311D01*
X141642140Y-78491057D01*
X141641185Y-78491312D01*
X141645355Y-78556986D01*
X141610833Y-78619024D01*
X141548251Y-78652550D01*
X141526413Y-78655157D01*
X141505112Y-78655826D01*
X141505110Y-78655827D01*
X141485655Y-78661478D01*
X141466302Y-78665486D01*
X141446210Y-78668024D01*
X141446202Y-78668026D01*
X141402336Y-78685393D01*
X141396721Y-78687316D01*
X141351407Y-78700482D01*
X141351402Y-78700484D01*
X141333963Y-78710797D01*
X141316218Y-78719490D01*
X141297380Y-78726949D01*
X141275278Y-78743007D01*
X141259212Y-78754680D01*
X141254261Y-78757933D01*
X141213640Y-78781955D01*
X141199307Y-78796287D01*
X141184281Y-78809120D01*
X141167895Y-78821026D01*
X141167894Y-78821026D01*
X141137818Y-78857380D01*
X141133822Y-78861771D01*
X140109498Y-79886096D01*
X140047188Y-79920120D01*
X140020405Y-79923000D01*
X137089394Y-79923000D01*
X137021273Y-79902998D01*
X136986181Y-79869271D01*
X136876200Y-79712203D01*
X136876195Y-79712197D01*
X136714302Y-79550304D01*
X136714296Y-79550299D01*
X136526749Y-79418977D01*
X136319246Y-79322217D01*
X136319240Y-79322215D01*
X136181475Y-79285301D01*
X136098087Y-79262957D01*
X135870000Y-79243002D01*
X135869999Y-79243002D01*
X135641913Y-79262957D01*
X135420759Y-79322215D01*
X135420753Y-79322217D01*
X135213250Y-79418977D01*
X135025703Y-79550299D01*
X135025697Y-79550304D01*
X134863804Y-79712197D01*
X134863799Y-79712203D01*
X134732474Y-79899753D01*
X134729726Y-79904515D01*
X134727761Y-79903380D01*
X134687255Y-79949365D01*
X134618974Y-79968812D01*
X134551018Y-79948256D01*
X134512168Y-79903421D01*
X134510274Y-79904515D01*
X134507525Y-79899753D01*
X134376200Y-79712203D01*
X134376195Y-79712197D01*
X134214302Y-79550304D01*
X134214296Y-79550299D01*
X134026749Y-79418977D01*
X133819246Y-79322217D01*
X133819240Y-79322215D01*
X133681475Y-79285301D01*
X133598087Y-79262957D01*
X133370000Y-79243002D01*
X133141913Y-79262957D01*
X132920759Y-79322215D01*
X132920753Y-79322217D01*
X132713250Y-79418977D01*
X132525703Y-79550299D01*
X132525697Y-79550304D01*
X132363804Y-79712197D01*
X132363799Y-79712203D01*
X132253819Y-79869271D01*
X132198362Y-79913599D01*
X132150606Y-79923000D01*
X131857315Y-79923000D01*
X131789194Y-79902998D01*
X131754104Y-79869273D01*
X131689301Y-79776724D01*
X131539776Y-79627199D01*
X131539772Y-79627196D01*
X131539767Y-79627192D01*
X131366561Y-79505912D01*
X131202606Y-79429458D01*
X131174910Y-79416544D01*
X131174908Y-79416543D01*
X131066871Y-79387595D01*
X130970655Y-79361814D01*
X130760000Y-79343384D01*
X130549345Y-79361814D01*
X130494615Y-79376478D01*
X130345091Y-79416543D01*
X130345087Y-79416545D01*
X130153438Y-79505912D01*
X129980232Y-79627192D01*
X129980221Y-79627201D01*
X129830701Y-79776721D01*
X129830692Y-79776732D01*
X129709412Y-79949938D01*
X129620045Y-80141587D01*
X129620042Y-80141595D01*
X129611705Y-80172708D01*
X129574752Y-80233330D01*
X129510891Y-80264350D01*
X129440396Y-80255920D01*
X129385651Y-80210716D01*
X129368294Y-80172708D01*
X129359956Y-80141590D01*
X129270589Y-79949942D01*
X129270588Y-79949941D01*
X129270587Y-79949938D01*
X129149307Y-79776732D01*
X129149304Y-79776728D01*
X129149301Y-79776724D01*
X128999776Y-79627199D01*
X128999772Y-79627196D01*
X128999767Y-79627192D01*
X128826561Y-79505912D01*
X128662606Y-79429459D01*
X128634910Y-79416544D01*
X128634908Y-79416543D01*
X128526871Y-79387595D01*
X128430655Y-79361814D01*
X128220000Y-79343384D01*
X128009344Y-79361814D01*
X127906819Y-79389285D01*
X127835842Y-79387595D01*
X127777047Y-79347800D01*
X127749100Y-79282535D01*
X127760874Y-79212522D01*
X127778393Y-79185754D01*
X127883752Y-79062396D01*
X128011927Y-78853232D01*
X128105805Y-78626592D01*
X128163072Y-78388057D01*
X128182319Y-78143500D01*
X128163072Y-77898943D01*
X128105805Y-77660408D01*
X128011927Y-77433768D01*
X127883752Y-77224604D01*
X127724433Y-77038067D01*
X127537896Y-76878748D01*
X127537894Y-76878746D01*
X127537892Y-76878745D01*
X127357425Y-76768156D01*
X127328732Y-76750573D01*
X127102092Y-76656695D01*
X126863557Y-76599428D01*
X126619000Y-76580181D01*
X126618999Y-76580181D01*
X126374443Y-76599428D01*
X126135907Y-76656695D01*
X125909266Y-76750574D01*
X125700107Y-76878745D01*
X125513567Y-77038067D01*
X125354245Y-77224607D01*
X125228085Y-77430484D01*
X125226073Y-77433768D01*
X125216471Y-77456949D01*
X125132195Y-77660407D01*
X125100573Y-77792124D01*
X125074928Y-77898943D01*
X125055681Y-78143500D01*
X125074928Y-78388057D01*
X125132195Y-78626592D01*
X125226073Y-78853232D01*
X125231306Y-78861771D01*
X125354245Y-79062392D01*
X125354246Y-79062394D01*
X125354248Y-79062396D01*
X125513567Y-79248933D01*
X125700104Y-79408252D01*
X125909268Y-79536427D01*
X126135908Y-79630305D01*
X126374443Y-79687572D01*
X126619000Y-79706819D01*
X126863557Y-79687572D01*
X127102092Y-79630305D01*
X127112773Y-79625880D01*
X127183359Y-79618289D01*
X127246848Y-79650066D01*
X127283078Y-79711122D01*
X127280547Y-79782074D01*
X127264207Y-79814558D01*
X127169410Y-79949942D01*
X127080045Y-80141587D01*
X127080043Y-80141591D01*
X127039978Y-80291115D01*
X127025314Y-80345845D01*
X127006884Y-80556500D01*
X127025314Y-80767155D01*
X127049408Y-80857076D01*
X127080043Y-80971408D01*
X127080045Y-80971412D01*
X127169412Y-81163061D01*
X127290692Y-81336267D01*
X127290696Y-81336272D01*
X127290699Y-81336276D01*
X127440224Y-81485801D01*
X127440227Y-81485803D01*
X127440232Y-81485807D01*
X127613438Y-81607087D01*
X127613441Y-81607088D01*
X127613442Y-81607089D01*
X127805090Y-81696456D01*
X128009345Y-81751186D01*
X128220000Y-81769616D01*
X128430655Y-81751186D01*
X128634910Y-81696456D01*
X128826558Y-81607089D01*
X128999776Y-81485801D01*
X129149301Y-81336276D01*
X129270589Y-81163058D01*
X129359956Y-80971410D01*
X129368293Y-80940293D01*
X129405240Y-80879674D01*
X129469100Y-80848650D01*
X129539595Y-80857076D01*
X129594343Y-80902277D01*
X129611705Y-80940292D01*
X129620041Y-80971402D01*
X129620045Y-80971412D01*
X129709412Y-81163061D01*
X129830692Y-81336267D01*
X129830696Y-81336272D01*
X129830699Y-81336276D01*
X129980224Y-81485801D01*
X129980227Y-81485803D01*
X129980232Y-81485807D01*
X130153438Y-81607087D01*
X130153441Y-81607088D01*
X130153442Y-81607089D01*
X130345090Y-81696456D01*
X130549345Y-81751186D01*
X130760000Y-81769616D01*
X130970655Y-81751186D01*
X131174910Y-81696456D01*
X131366558Y-81607089D01*
X131539776Y-81485801D01*
X131689301Y-81336276D01*
X131754103Y-81243728D01*
X131809558Y-81199401D01*
X131857315Y-81190000D01*
X132150606Y-81190000D01*
X132218727Y-81210002D01*
X132253819Y-81243729D01*
X132363799Y-81400796D01*
X132363802Y-81400800D01*
X132525700Y-81562698D01*
X132713251Y-81694023D01*
X132920757Y-81790784D01*
X133141913Y-81850043D01*
X133370000Y-81869998D01*
X133598087Y-81850043D01*
X133819243Y-81790784D01*
X134026749Y-81694023D01*
X134214300Y-81562698D01*
X134376198Y-81400800D01*
X134507523Y-81213249D01*
X134507523Y-81213248D01*
X134507525Y-81213246D01*
X134510274Y-81208485D01*
X134512245Y-81209622D01*
X134552713Y-81163654D01*
X134620989Y-81144187D01*
X134688951Y-81164723D01*
X134727822Y-81209583D01*
X134729726Y-81208485D01*
X134732474Y-81213246D01*
X134863799Y-81400796D01*
X134863802Y-81400800D01*
X135025700Y-81562698D01*
X135213251Y-81694023D01*
X135420757Y-81790784D01*
X135641913Y-81850043D01*
X135870000Y-81869998D01*
X136098087Y-81850043D01*
X136319243Y-81790784D01*
X136526749Y-81694023D01*
X136714300Y-81562698D01*
X136876198Y-81400800D01*
X136967233Y-81270789D01*
X136986181Y-81243729D01*
X137041638Y-81199401D01*
X137089394Y-81190000D01*
X140251147Y-81190000D01*
X140266988Y-81191749D01*
X140267016Y-81191456D01*
X140274902Y-81192200D01*
X140274909Y-81192202D01*
X140344958Y-81190000D01*
X140374856Y-81190000D01*
X140381818Y-81189119D01*
X140387719Y-81188654D01*
X140434889Y-81187173D01*
X140454347Y-81181519D01*
X140473694Y-81177513D01*
X140493797Y-81174974D01*
X140537679Y-81157599D01*
X140543274Y-81155683D01*
X140571816Y-81147391D01*
X140588591Y-81142519D01*
X140588595Y-81142517D01*
X140606026Y-81132208D01*
X140623780Y-81123509D01*
X140642617Y-81116052D01*
X140680786Y-81088318D01*
X140685744Y-81085062D01*
X140726362Y-81061042D01*
X140740685Y-81046718D01*
X140755724Y-81033874D01*
X140772107Y-81021972D01*
X140802193Y-80985603D01*
X140806161Y-80981241D01*
X141346496Y-80440906D01*
X141408806Y-80406882D01*
X141479621Y-80411947D01*
X141536457Y-80454494D01*
X141561268Y-80521014D01*
X141561189Y-80530999D01*
X141561502Y-80530999D01*
X141561502Y-80536493D01*
X141561502Y-80536496D01*
X141561502Y-80536500D01*
X141581457Y-80764587D01*
X141595042Y-80815287D01*
X141640715Y-80985740D01*
X141640717Y-80985746D01*
X141737477Y-81193249D01*
X141837619Y-81336267D01*
X141868802Y-81380800D01*
X142030700Y-81542698D01*
X142218251Y-81674023D01*
X142425757Y-81770784D01*
X142646913Y-81830043D01*
X142875000Y-81849998D01*
X143103087Y-81830043D01*
X143324243Y-81770784D01*
X143531749Y-81674023D01*
X143719300Y-81542698D01*
X143881198Y-81380800D01*
X143977176Y-81243730D01*
X143991181Y-81223729D01*
X144046638Y-81179401D01*
X144094394Y-81170000D01*
X144268670Y-81170000D01*
X144336791Y-81190002D01*
X144371883Y-81223730D01*
X144485692Y-81386267D01*
X144485696Y-81386272D01*
X144485699Y-81386276D01*
X144635224Y-81535801D01*
X144635228Y-81535804D01*
X144635232Y-81535807D01*
X144808438Y-81657087D01*
X144808441Y-81657088D01*
X144808442Y-81657089D01*
X145000090Y-81746456D01*
X145204345Y-81801186D01*
X145415000Y-81819616D01*
X145625655Y-81801186D01*
X145625667Y-81801182D01*
X145631070Y-81800231D01*
X145631302Y-81801548D01*
X145695840Y-81803070D01*
X145746597Y-81834001D01*
X147384477Y-83471882D01*
X147418503Y-83534194D01*
X147413438Y-83605010D01*
X147370891Y-83661845D01*
X147361218Y-83668409D01*
X147301106Y-83705246D01*
X147114567Y-83864567D01*
X146955245Y-84051107D01*
X146827074Y-84260266D01*
X146733195Y-84486907D01*
X146686827Y-84680044D01*
X146675928Y-84725443D01*
X146656681Y-84970000D01*
X146675928Y-85214557D01*
X146733195Y-85453092D01*
X146827073Y-85679732D01*
X146827074Y-85679733D01*
X146955245Y-85888892D01*
X146955246Y-85888894D01*
X146955248Y-85888896D01*
X147114567Y-86075433D01*
X147301104Y-86234752D01*
X147301106Y-86234753D01*
X147301107Y-86234754D01*
X147301362Y-86234910D01*
X147510268Y-86362927D01*
X147736908Y-86456805D01*
X147975443Y-86514072D01*
X148220000Y-86533319D01*
X148464557Y-86514072D01*
X148703092Y-86456805D01*
X148929732Y-86362927D01*
X149138896Y-86234752D01*
X149325433Y-86075433D01*
X149484752Y-85888896D01*
X149484753Y-85888893D01*
X149487967Y-85885131D01*
X149488786Y-85885830D01*
X149540889Y-85845643D01*
X149611624Y-85839558D01*
X149674420Y-85872682D01*
X149707615Y-85927898D01*
X149735855Y-86025101D01*
X149735856Y-86025102D01*
X149735857Y-86025106D01*
X149820544Y-86168303D01*
X149820549Y-86168310D01*
X149938189Y-86285950D01*
X149938196Y-86285955D01*
X150081394Y-86370643D01*
X150081397Y-86370643D01*
X150081399Y-86370645D01*
X150241169Y-86417062D01*
X150248634Y-86417649D01*
X150278494Y-86420000D01*
X150278498Y-86420000D01*
X150711506Y-86420000D01*
X150736388Y-86418041D01*
X150748831Y-86417062D01*
X150908601Y-86370645D01*
X150908603Y-86370643D01*
X150908605Y-86370643D01*
X151041974Y-86291768D01*
X151051807Y-86285953D01*
X151051814Y-86285945D01*
X151052767Y-86285208D01*
X151053662Y-86284856D01*
X151058631Y-86281918D01*
X151059104Y-86282719D01*
X151118850Y-86259256D01*
X151188474Y-86273152D01*
X151207233Y-86285208D01*
X151208189Y-86285949D01*
X151208193Y-86285953D01*
X151208197Y-86285955D01*
X151208198Y-86285956D01*
X151351394Y-86370643D01*
X151351397Y-86370643D01*
X151351399Y-86370645D01*
X151511169Y-86417062D01*
X151518634Y-86417649D01*
X151548494Y-86420000D01*
X151548498Y-86420000D01*
X151981506Y-86420000D01*
X152006388Y-86418041D01*
X152018831Y-86417062D01*
X152178601Y-86370645D01*
X152178603Y-86370643D01*
X152178605Y-86370643D01*
X152311974Y-86291768D01*
X152321807Y-86285953D01*
X152321814Y-86285945D01*
X152322767Y-86285208D01*
X152323662Y-86284856D01*
X152328631Y-86281918D01*
X152329104Y-86282719D01*
X152388850Y-86259256D01*
X152458474Y-86273152D01*
X152477233Y-86285208D01*
X152478189Y-86285949D01*
X152478193Y-86285953D01*
X152478197Y-86285955D01*
X152478198Y-86285956D01*
X152621394Y-86370643D01*
X152621397Y-86370643D01*
X152621399Y-86370645D01*
X152781169Y-86417062D01*
X152788634Y-86417649D01*
X152818494Y-86420000D01*
X152818498Y-86420000D01*
X153251506Y-86420000D01*
X153276388Y-86418041D01*
X153288831Y-86417062D01*
X153448601Y-86370645D01*
X153448603Y-86370643D01*
X153448605Y-86370643D01*
X153581974Y-86291768D01*
X153591807Y-86285953D01*
X153709453Y-86168307D01*
X153771473Y-86063438D01*
X153794143Y-86025105D01*
X153794143Y-86025103D01*
X153794145Y-86025101D01*
X153840562Y-85865331D01*
X153842492Y-85840814D01*
X153843500Y-85828006D01*
X153843500Y-84244994D01*
X153840562Y-84207670D01*
X153840562Y-84207669D01*
X153794145Y-84047899D01*
X153794143Y-84047897D01*
X153794143Y-84047894D01*
X153709455Y-83904696D01*
X153709450Y-83904689D01*
X153591810Y-83787049D01*
X153591803Y-83787044D01*
X153448605Y-83702356D01*
X153288829Y-83655937D01*
X153251506Y-83653000D01*
X153251502Y-83653000D01*
X152818498Y-83653000D01*
X152818494Y-83653000D01*
X152781170Y-83655937D01*
X152621394Y-83702356D01*
X152478197Y-83787043D01*
X152477225Y-83787798D01*
X152476323Y-83788152D01*
X152471369Y-83791082D01*
X152470896Y-83790282D01*
X152411139Y-83813744D01*
X152341517Y-83799842D01*
X152322775Y-83787798D01*
X152321802Y-83787043D01*
X152178605Y-83702356D01*
X152018829Y-83655937D01*
X151981506Y-83653000D01*
X151981502Y-83653000D01*
X151605667Y-83653000D01*
X151537546Y-83632998D01*
X151516571Y-83616095D01*
X150608313Y-82707836D01*
X150598351Y-82695401D01*
X150598124Y-82695590D01*
X150593073Y-82689484D01*
X150593072Y-82689482D01*
X150584169Y-82681122D01*
X150541992Y-82641515D01*
X150520849Y-82620371D01*
X150520844Y-82620366D01*
X150515297Y-82616063D01*
X150510789Y-82612212D01*
X150476397Y-82579917D01*
X150476391Y-82579913D01*
X150458635Y-82570151D01*
X150442119Y-82559302D01*
X150426113Y-82546886D01*
X150390712Y-82531567D01*
X150382812Y-82528148D01*
X150377480Y-82525536D01*
X150336133Y-82502805D01*
X150316508Y-82497766D01*
X150297808Y-82491364D01*
X150279217Y-82483319D01*
X150279215Y-82483318D01*
X150279214Y-82483318D01*
X150232614Y-82475937D01*
X150226801Y-82474733D01*
X150181102Y-82463000D01*
X150160848Y-82463000D01*
X150141138Y-82461449D01*
X150121129Y-82458280D01*
X150121128Y-82458280D01*
X150074155Y-82462720D01*
X150068222Y-82463000D01*
X148219594Y-82463000D01*
X148151473Y-82442998D01*
X148130499Y-82426095D01*
X146642501Y-80938097D01*
X146608475Y-80875785D01*
X146609744Y-80822748D01*
X146608731Y-80822570D01*
X146609682Y-80817167D01*
X146609686Y-80817155D01*
X146628116Y-80606500D01*
X146609686Y-80395845D01*
X146554956Y-80191590D01*
X146465589Y-79999942D01*
X146430221Y-79949431D01*
X146407533Y-79882157D01*
X146424818Y-79813296D01*
X146444339Y-79788065D01*
X146455686Y-79776718D01*
X146470724Y-79763874D01*
X146487107Y-79751972D01*
X146517193Y-79715603D01*
X146521161Y-79711241D01*
X147545501Y-78686902D01*
X147607811Y-78652879D01*
X147634594Y-78650000D01*
X149661560Y-78650000D01*
X149729681Y-78670002D01*
X149776174Y-78723658D01*
X149786278Y-78793932D01*
X149770014Y-78840139D01*
X149735855Y-78897897D01*
X149689437Y-79057670D01*
X149686500Y-79094994D01*
X149686500Y-80678006D01*
X149689437Y-80715329D01*
X149735856Y-80875105D01*
X149820544Y-81018303D01*
X149820549Y-81018310D01*
X149938189Y-81135950D01*
X149938196Y-81135955D01*
X150081394Y-81220643D01*
X150081397Y-81220643D01*
X150081399Y-81220645D01*
X150241169Y-81267062D01*
X150248634Y-81267649D01*
X150278494Y-81270000D01*
X150278498Y-81270000D01*
X150653655Y-81270000D01*
X150721776Y-81290002D01*
X150742750Y-81306905D01*
X151974502Y-82538657D01*
X151984469Y-82551097D01*
X151984696Y-82550910D01*
X151989748Y-82557017D01*
X152040844Y-82604999D01*
X152061974Y-82626130D01*
X152067517Y-82630430D01*
X152072030Y-82634285D01*
X152080988Y-82642697D01*
X152106428Y-82666586D01*
X152106429Y-82666586D01*
X152106431Y-82666588D01*
X152124178Y-82676344D01*
X152140708Y-82687202D01*
X152156708Y-82699613D01*
X152175711Y-82707836D01*
X152200000Y-82718347D01*
X152205334Y-82720959D01*
X152246689Y-82743695D01*
X152266311Y-82748733D01*
X152285012Y-82755135D01*
X152303604Y-82763181D01*
X152350219Y-82770563D01*
X152355991Y-82771758D01*
X152401719Y-82783500D01*
X152421980Y-82783500D01*
X152441688Y-82785050D01*
X152461692Y-82788219D01*
X152495208Y-82785051D01*
X152508659Y-82783780D01*
X152514591Y-82783500D01*
X155130606Y-82783500D01*
X155198727Y-82803502D01*
X155233819Y-82837229D01*
X155343799Y-82994296D01*
X155343802Y-82994300D01*
X155505700Y-83156198D01*
X155693251Y-83287523D01*
X155900757Y-83384284D01*
X156121913Y-83443543D01*
X156350000Y-83463498D01*
X156578087Y-83443543D01*
X156799243Y-83384284D01*
X157006749Y-83287523D01*
X157194300Y-83156198D01*
X157356198Y-82994300D01*
X157487523Y-82806749D01*
X157584284Y-82599243D01*
X157643543Y-82378087D01*
X157663498Y-82150000D01*
X157660060Y-82110708D01*
X157674047Y-82041106D01*
X157723445Y-81990113D01*
X157792571Y-81973921D01*
X157859477Y-81997672D01*
X157874675Y-82010632D01*
X158364647Y-82500604D01*
X158384989Y-82531567D01*
X158386627Y-82530667D01*
X158390447Y-82537616D01*
X158397182Y-82546886D01*
X158410618Y-82565379D01*
X158418177Y-82575782D01*
X158421432Y-82580736D01*
X158444869Y-82620366D01*
X158445459Y-82621363D01*
X158445462Y-82621367D01*
X158459779Y-82635684D01*
X158472617Y-82650714D01*
X158474922Y-82653886D01*
X158484528Y-82667107D01*
X158508819Y-82687202D01*
X158520886Y-82697185D01*
X158525267Y-82701171D01*
X158661325Y-82837229D01*
X158772497Y-82948401D01*
X158806523Y-83010713D01*
X158805263Y-83063744D01*
X158806270Y-83063922D01*
X158805315Y-83069339D01*
X158805314Y-83069342D01*
X158805314Y-83069345D01*
X158786884Y-83280000D01*
X158805314Y-83490655D01*
X158823305Y-83557798D01*
X158860043Y-83694908D01*
X158860045Y-83694912D01*
X158949412Y-83886561D01*
X159070692Y-84059767D01*
X159070696Y-84059772D01*
X159070699Y-84059776D01*
X159220224Y-84209301D01*
X159220228Y-84209304D01*
X159220232Y-84209307D01*
X159393438Y-84330587D01*
X159393441Y-84330588D01*
X159393442Y-84330589D01*
X159585090Y-84419956D01*
X159616205Y-84428293D01*
X159676828Y-84465245D01*
X159707849Y-84529105D01*
X159699421Y-84599600D01*
X159654218Y-84654347D01*
X159616206Y-84671706D01*
X159608406Y-84673796D01*
X159585091Y-84680043D01*
X159585087Y-84680045D01*
X159393438Y-84769412D01*
X159220232Y-84890692D01*
X159220221Y-84890701D01*
X159070701Y-85040221D01*
X159070692Y-85040232D01*
X158949412Y-85213438D01*
X158860045Y-85405087D01*
X158860043Y-85405091D01*
X158826563Y-85530042D01*
X158805314Y-85609345D01*
X158786884Y-85820000D01*
X158805314Y-86030655D01*
X158818299Y-86079116D01*
X158860043Y-86234908D01*
X158860045Y-86234912D01*
X158949412Y-86426561D01*
X159070692Y-86599767D01*
X159070696Y-86599772D01*
X159070699Y-86599776D01*
X159220224Y-86749301D01*
X159220227Y-86749303D01*
X159345881Y-86837287D01*
X159390209Y-86892744D01*
X159397518Y-86963363D01*
X159365487Y-87026724D01*
X159304286Y-87062709D01*
X159273610Y-87066500D01*
X152095353Y-87066500D01*
X152079511Y-87064750D01*
X152079484Y-87065044D01*
X152071591Y-87064297D01*
X152001528Y-87066500D01*
X151971644Y-87066500D01*
X151971640Y-87066500D01*
X151971629Y-87066501D01*
X151964690Y-87067377D01*
X151958777Y-87067843D01*
X151911614Y-87069325D01*
X151911607Y-87069327D01*
X151892149Y-87074979D01*
X151872804Y-87078985D01*
X151852706Y-87081525D01*
X151852697Y-87081527D01*
X151808831Y-87098894D01*
X151803216Y-87100817D01*
X151757908Y-87113981D01*
X151740464Y-87124297D01*
X151722718Y-87132990D01*
X151703882Y-87140448D01*
X151665709Y-87168181D01*
X151660748Y-87171440D01*
X151620138Y-87195458D01*
X151605811Y-87209784D01*
X151590785Y-87222617D01*
X151574395Y-87234525D01*
X151574393Y-87234527D01*
X151544313Y-87270886D01*
X151540317Y-87275277D01*
X150737252Y-88078341D01*
X150674940Y-88112366D01*
X150625009Y-88113100D01*
X150597721Y-88108000D01*
X150597718Y-88108000D01*
X150392282Y-88108000D01*
X150271119Y-88130649D01*
X150190343Y-88145749D01*
X150041921Y-88203248D01*
X149998782Y-88219960D01*
X149998781Y-88219960D01*
X149998780Y-88219961D01*
X149998776Y-88219963D01*
X149824116Y-88328108D01*
X149672297Y-88466509D01*
X149548497Y-88630449D01*
X149548493Y-88630454D01*
X149456929Y-88814339D01*
X149456923Y-88814355D01*
X149400706Y-89011937D01*
X149381751Y-89216500D01*
X149400706Y-89421062D01*
X149456923Y-89618644D01*
X149456926Y-89618652D01*
X149492443Y-89689980D01*
X149492445Y-89689983D01*
X149504904Y-89759878D01*
X149480523Y-89821654D01*
X149444112Y-89870293D01*
X149444110Y-89870297D01*
X149393011Y-90007295D01*
X149393009Y-90007303D01*
X149386500Y-90067850D01*
X149386500Y-91365149D01*
X149393009Y-91425696D01*
X149393011Y-91425704D01*
X149444110Y-91562702D01*
X149444112Y-91562707D01*
X149531738Y-91679761D01*
X149648791Y-91767386D01*
X149648792Y-91767386D01*
X149648796Y-91767389D01*
X149779535Y-91816152D01*
X149836368Y-91858698D01*
X149861179Y-91925219D01*
X149861500Y-91934207D01*
X149861500Y-92844183D01*
X149841498Y-92912304D01*
X149807771Y-92947396D01*
X149715224Y-93012198D01*
X149565696Y-93161727D01*
X149565692Y-93161732D01*
X149444412Y-93334938D01*
X149355045Y-93526587D01*
X149355043Y-93526591D01*
X149322164Y-93649298D01*
X149300314Y-93730845D01*
X149281884Y-93941500D01*
X149300314Y-94152155D01*
X149317178Y-94215091D01*
X149355043Y-94356408D01*
X149355045Y-94356412D01*
X149444412Y-94548061D01*
X149565692Y-94721267D01*
X149565696Y-94721272D01*
X149565699Y-94721276D01*
X149715224Y-94870801D01*
X149715228Y-94870804D01*
X149715232Y-94870807D01*
X149888438Y-94992087D01*
X149888441Y-94992088D01*
X149888442Y-94992089D01*
X150080090Y-95081456D01*
X150111205Y-95089793D01*
X150171828Y-95126745D01*
X150202849Y-95190605D01*
X150194421Y-95261100D01*
X150149218Y-95315847D01*
X150111206Y-95333206D01*
X150103406Y-95335296D01*
X150080091Y-95341543D01*
X150080087Y-95341545D01*
X149888438Y-95430912D01*
X149715232Y-95552192D01*
X149715221Y-95552201D01*
X149565701Y-95701721D01*
X149565692Y-95701732D01*
X149444412Y-95874938D01*
X149355045Y-96066587D01*
X149355043Y-96066591D01*
X149326963Y-96171389D01*
X149300314Y-96270845D01*
X149281884Y-96481500D01*
X149300314Y-96692155D01*
X149317178Y-96755091D01*
X149355043Y-96896408D01*
X149355045Y-96896412D01*
X149444412Y-97088061D01*
X149565692Y-97261267D01*
X149565696Y-97261272D01*
X149565699Y-97261276D01*
X149715224Y-97410801D01*
X149715228Y-97410804D01*
X149715232Y-97410807D01*
X149888438Y-97532087D01*
X149888441Y-97532088D01*
X149888442Y-97532089D01*
X150080090Y-97621456D01*
X150284345Y-97676186D01*
X150495000Y-97694616D01*
X150705655Y-97676186D01*
X150705667Y-97676182D01*
X150711070Y-97675231D01*
X150711302Y-97676548D01*
X150775840Y-97678070D01*
X150826597Y-97709001D01*
X150919001Y-97801405D01*
X150953027Y-97863717D01*
X150947962Y-97934532D01*
X150905415Y-97991368D01*
X150838895Y-98016179D01*
X150829906Y-98016500D01*
X147998095Y-98016500D01*
X147929974Y-97996498D01*
X147909000Y-97979595D01*
X146642502Y-96713097D01*
X146608476Y-96650785D01*
X146609741Y-96597751D01*
X146608731Y-96597573D01*
X146609684Y-96592165D01*
X146609684Y-96592161D01*
X146609686Y-96592155D01*
X146628116Y-96381500D01*
X146609686Y-96170845D01*
X146554956Y-95966590D01*
X146465589Y-95774942D01*
X146465588Y-95774941D01*
X146465587Y-95774938D01*
X146344307Y-95601732D01*
X146344304Y-95601728D01*
X146344301Y-95601724D01*
X146194776Y-95452199D01*
X146194772Y-95452196D01*
X146194767Y-95452192D01*
X146021561Y-95330912D01*
X145829912Y-95241545D01*
X145829905Y-95241542D01*
X145807211Y-95235461D01*
X145798794Y-95233206D01*
X145738172Y-95196256D01*
X145707150Y-95132396D01*
X145715578Y-95061901D01*
X145760780Y-95007154D01*
X145798793Y-94989793D01*
X145829910Y-94981456D01*
X146021558Y-94892089D01*
X146053195Y-94869937D01*
X146095014Y-94840655D01*
X146194776Y-94770801D01*
X146344301Y-94621276D01*
X146461281Y-94454210D01*
X146465587Y-94448061D01*
X146465587Y-94448060D01*
X146465589Y-94448058D01*
X146554956Y-94256410D01*
X146609686Y-94052155D01*
X146628116Y-93841500D01*
X146609686Y-93630845D01*
X146554956Y-93426590D01*
X146465589Y-93234942D01*
X146465588Y-93234941D01*
X146465587Y-93234938D01*
X146344307Y-93061732D01*
X146344303Y-93061727D01*
X146344301Y-93061724D01*
X146194776Y-92912199D01*
X146194775Y-92912198D01*
X146102229Y-92847396D01*
X146057901Y-92791938D01*
X146048500Y-92744183D01*
X146048500Y-91934207D01*
X146068502Y-91866086D01*
X146122158Y-91819593D01*
X146130445Y-91816159D01*
X146261204Y-91767389D01*
X146378261Y-91679761D01*
X146426642Y-91615132D01*
X146465887Y-91562707D01*
X146465887Y-91562706D01*
X146465889Y-91562704D01*
X146509960Y-91444545D01*
X146516988Y-91425704D01*
X146516990Y-91425696D01*
X146523499Y-91365149D01*
X146523500Y-91365132D01*
X146523500Y-90067867D01*
X146523499Y-90067850D01*
X146516990Y-90007303D01*
X146516988Y-90007295D01*
X146465890Y-89870299D01*
X146465889Y-89870297D01*
X146465889Y-89870296D01*
X146429474Y-89821652D01*
X146404665Y-89755135D01*
X146417554Y-89689983D01*
X146453074Y-89618652D01*
X146509294Y-89421059D01*
X146528249Y-89216500D01*
X146509294Y-89011941D01*
X146469764Y-88873009D01*
X146453076Y-88814355D01*
X146453075Y-88814354D01*
X146453074Y-88814348D01*
X146451646Y-88811480D01*
X146361506Y-88630454D01*
X146361502Y-88630449D01*
X146237702Y-88466509D01*
X146085883Y-88328108D01*
X145911223Y-88219963D01*
X145911222Y-88219962D01*
X145911218Y-88219960D01*
X145793867Y-88174498D01*
X145719656Y-88145749D01*
X145669170Y-88136311D01*
X145517718Y-88108000D01*
X145312282Y-88108000D01*
X145191119Y-88130649D01*
X145110343Y-88145749D01*
X144961921Y-88203248D01*
X144918782Y-88219960D01*
X144918781Y-88219960D01*
X144918780Y-88219961D01*
X144918776Y-88219963D01*
X144744116Y-88328108D01*
X144592297Y-88466509D01*
X144468497Y-88630449D01*
X144468493Y-88630454D01*
X144376929Y-88814339D01*
X144376923Y-88814355D01*
X144320706Y-89011937D01*
X144301751Y-89216500D01*
X144320706Y-89421062D01*
X144376923Y-89618644D01*
X144376926Y-89618652D01*
X144412443Y-89689980D01*
X144412445Y-89689983D01*
X144424904Y-89759878D01*
X144400523Y-89821654D01*
X144364112Y-89870293D01*
X144364110Y-89870297D01*
X144313011Y-90007295D01*
X144313009Y-90007303D01*
X144306500Y-90067850D01*
X144306500Y-91365149D01*
X144313009Y-91425696D01*
X144313011Y-91425704D01*
X144364110Y-91562702D01*
X144364112Y-91562707D01*
X144451738Y-91679761D01*
X144568791Y-91767386D01*
X144568792Y-91767386D01*
X144568796Y-91767389D01*
X144699535Y-91816152D01*
X144756368Y-91858698D01*
X144781179Y-91925219D01*
X144781500Y-91934207D01*
X144781500Y-92744183D01*
X144761498Y-92812304D01*
X144727771Y-92847396D01*
X144635224Y-92912198D01*
X144485696Y-93061727D01*
X144485692Y-93061732D01*
X144364412Y-93234938D01*
X144275045Y-93426587D01*
X144275043Y-93426591D01*
X144248250Y-93526587D01*
X144220314Y-93630845D01*
X144201884Y-93841500D01*
X144220314Y-94052155D01*
X144229533Y-94086561D01*
X144275043Y-94256408D01*
X144275045Y-94256412D01*
X144364412Y-94448061D01*
X144485692Y-94621267D01*
X144485696Y-94621272D01*
X144485699Y-94621276D01*
X144635224Y-94770801D01*
X144635228Y-94770804D01*
X144635232Y-94770807D01*
X144808438Y-94892087D01*
X144808441Y-94892088D01*
X144808442Y-94892089D01*
X145000090Y-94981456D01*
X145031205Y-94989793D01*
X145091828Y-95026745D01*
X145122849Y-95090605D01*
X145114421Y-95161100D01*
X145069218Y-95215847D01*
X145031206Y-95233206D01*
X145023406Y-95235296D01*
X145000091Y-95241543D01*
X145000087Y-95241545D01*
X144808438Y-95330912D01*
X144635232Y-95452192D01*
X144635221Y-95452201D01*
X144485701Y-95601721D01*
X144485692Y-95601732D01*
X144364412Y-95774938D01*
X144275045Y-95966587D01*
X144275043Y-95966591D01*
X144258041Y-96030045D01*
X144220314Y-96170845D01*
X144201884Y-96381500D01*
X144220314Y-96592155D01*
X144229533Y-96626561D01*
X144275043Y-96796408D01*
X144275045Y-96796412D01*
X144364412Y-96988061D01*
X144485692Y-97161267D01*
X144485696Y-97161272D01*
X144485699Y-97161276D01*
X144635224Y-97310801D01*
X144635228Y-97310804D01*
X144635232Y-97310807D01*
X144808438Y-97432087D01*
X144808441Y-97432088D01*
X144808442Y-97432089D01*
X145000090Y-97521456D01*
X145204345Y-97576186D01*
X145415000Y-97594616D01*
X145625655Y-97576186D01*
X145625667Y-97576182D01*
X145631070Y-97575231D01*
X145631302Y-97576548D01*
X145695840Y-97578070D01*
X145746597Y-97609001D01*
X147176253Y-99038657D01*
X147186220Y-99051097D01*
X147186447Y-99050910D01*
X147191499Y-99057017D01*
X147191500Y-99057018D01*
X147242595Y-99104999D01*
X147263725Y-99126130D01*
X147269268Y-99130430D01*
X147273781Y-99134285D01*
X147308179Y-99166586D01*
X147308180Y-99166586D01*
X147308182Y-99166588D01*
X147325929Y-99176344D01*
X147342459Y-99187202D01*
X147358459Y-99199613D01*
X147389636Y-99213104D01*
X147401751Y-99218347D01*
X147407085Y-99220959D01*
X147448440Y-99243695D01*
X147448442Y-99243695D01*
X147455406Y-99246453D01*
X147511381Y-99290126D01*
X147534857Y-99357129D01*
X147518383Y-99426188D01*
X147467188Y-99475377D01*
X147420006Y-99489125D01*
X147221918Y-99506456D01*
X147221914Y-99506456D01*
X147221913Y-99506457D01*
X147129545Y-99531207D01*
X147000759Y-99565715D01*
X147000753Y-99565717D01*
X146793250Y-99662477D01*
X146605703Y-99793799D01*
X146605697Y-99793804D01*
X146443804Y-99955697D01*
X146443799Y-99955703D01*
X146312474Y-100143253D01*
X146309726Y-100148015D01*
X146307761Y-100146880D01*
X146267255Y-100192865D01*
X146198974Y-100212312D01*
X146131018Y-100191756D01*
X146092168Y-100146921D01*
X146090274Y-100148015D01*
X146087525Y-100143253D01*
X145956200Y-99955703D01*
X145956195Y-99955697D01*
X145794302Y-99793804D01*
X145794296Y-99793799D01*
X145606749Y-99662477D01*
X145399246Y-99565717D01*
X145399240Y-99565715D01*
X145302834Y-99539883D01*
X145178087Y-99506457D01*
X144950000Y-99486502D01*
X144949999Y-99486502D01*
X144721913Y-99506457D01*
X144500759Y-99565715D01*
X144500753Y-99565717D01*
X144293250Y-99662477D01*
X144105703Y-99793799D01*
X144105697Y-99793804D01*
X143943804Y-99955697D01*
X143943799Y-99955703D01*
X143812477Y-100143250D01*
X143715717Y-100350753D01*
X143715715Y-100350759D01*
X143692234Y-100438391D01*
X143656457Y-100571913D01*
X143636502Y-100800000D01*
X143656457Y-101028087D01*
X143685859Y-101137816D01*
X143715715Y-101249240D01*
X143715717Y-101249246D01*
X143812477Y-101456749D01*
X143918979Y-101608850D01*
X143943802Y-101644300D01*
X144105700Y-101806198D01*
X144124544Y-101819393D01*
X144183327Y-101860553D01*
X144227655Y-101916010D01*
X144234964Y-101986629D01*
X144202934Y-102049990D01*
X144143668Y-102085473D01*
X144142131Y-102085884D01*
X144142129Y-102085885D01*
X144018010Y-102119142D01*
X143929423Y-102142880D01*
X143929420Y-102142881D01*
X143729846Y-102235944D01*
X143544956Y-102365406D01*
X143543465Y-102363277D01*
X143488358Y-102387346D01*
X143418262Y-102376077D01*
X143400544Y-102364691D01*
X143400044Y-102365406D01*
X143370185Y-102344498D01*
X143215154Y-102235944D01*
X143215150Y-102235942D01*
X143015579Y-102142881D01*
X143015573Y-102142879D01*
X142925678Y-102118791D01*
X142802871Y-102085885D01*
X142583500Y-102066693D01*
X142364129Y-102085885D01*
X142151426Y-102142879D01*
X142151420Y-102142881D01*
X141951846Y-102235944D01*
X141766956Y-102365406D01*
X141765465Y-102363277D01*
X141710358Y-102387346D01*
X141640262Y-102376077D01*
X141622544Y-102364691D01*
X141622044Y-102365406D01*
X141592185Y-102344498D01*
X141437154Y-102235944D01*
X141437150Y-102235942D01*
X141237579Y-102142881D01*
X141237573Y-102142879D01*
X141147678Y-102118791D01*
X141024871Y-102085885D01*
X140805500Y-102066693D01*
X140805498Y-102066693D01*
X140805497Y-102066693D01*
X140770478Y-102069756D01*
X140700874Y-102055765D01*
X140649883Y-102006364D01*
X140633500Y-101944235D01*
X140633500Y-94883849D01*
X140635249Y-94868012D01*
X140634955Y-94867985D01*
X140635701Y-94860092D01*
X140633500Y-94790059D01*
X140633500Y-94760151D01*
X140633500Y-94760144D01*
X140632620Y-94753185D01*
X140632155Y-94747280D01*
X140630673Y-94700110D01*
X140625022Y-94680663D01*
X140621012Y-94661300D01*
X140618474Y-94641203D01*
X140601100Y-94597323D01*
X140599184Y-94591725D01*
X140586018Y-94546406D01*
X140575700Y-94528961D01*
X140567005Y-94511209D01*
X140559553Y-94492385D01*
X140559550Y-94492379D01*
X140531818Y-94454210D01*
X140528562Y-94449253D01*
X140504542Y-94408637D01*
X140504540Y-94408635D01*
X140504540Y-94408634D01*
X140490218Y-94394312D01*
X140477377Y-94379279D01*
X140465471Y-94362892D01*
X140456311Y-94355314D01*
X140429108Y-94332810D01*
X140424736Y-94328831D01*
X140177571Y-94081666D01*
X141289995Y-94081666D01*
X141289995Y-99070785D01*
X143514442Y-99070785D01*
X143514442Y-94081666D01*
X141289995Y-94081666D01*
X140177571Y-94081666D01*
X137809150Y-91713246D01*
X137775125Y-91650934D01*
X137776539Y-91591541D01*
X137793543Y-91528087D01*
X137813498Y-91300000D01*
X137793543Y-91071913D01*
X137734284Y-90850757D01*
X137637523Y-90643251D01*
X137506198Y-90455700D01*
X137344300Y-90293802D01*
X137344296Y-90293799D01*
X137156746Y-90162474D01*
X137151985Y-90159726D01*
X137153122Y-90157754D01*
X137107154Y-90117287D01*
X137087687Y-90049011D01*
X137108223Y-89981049D01*
X137153083Y-89942177D01*
X137151985Y-89940274D01*
X137156746Y-89937525D01*
X137156749Y-89937523D01*
X137344300Y-89806198D01*
X137506198Y-89644300D01*
X137637523Y-89456749D01*
X137734284Y-89249243D01*
X137793543Y-89028087D01*
X137813498Y-88800000D01*
X137793543Y-88571913D01*
X137734284Y-88350757D01*
X137637523Y-88143251D01*
X137506198Y-87955700D01*
X137344300Y-87793802D01*
X137344300Y-87793801D01*
X137340410Y-87789912D01*
X137342053Y-87788268D01*
X137308220Y-87737432D01*
X137307081Y-87666445D01*
X137341413Y-87611091D01*
X137340410Y-87610088D01*
X137422792Y-87527706D01*
X137506198Y-87444300D01*
X137637523Y-87256749D01*
X137734284Y-87049243D01*
X137793543Y-86828087D01*
X137813498Y-86600000D01*
X137793543Y-86371913D01*
X137734284Y-86150757D01*
X137637523Y-85943251D01*
X137506198Y-85755700D01*
X137344300Y-85593802D01*
X137344296Y-85593799D01*
X137156746Y-85462474D01*
X137151985Y-85459726D01*
X137153122Y-85457754D01*
X137107154Y-85417287D01*
X137087687Y-85349011D01*
X137108223Y-85281049D01*
X137153083Y-85242177D01*
X137151985Y-85240274D01*
X137156746Y-85237525D01*
X137178055Y-85222604D01*
X137344300Y-85106198D01*
X137506198Y-84944300D01*
X137637523Y-84756749D01*
X137734284Y-84549243D01*
X137793543Y-84328087D01*
X137813498Y-84100000D01*
X137793543Y-83871913D01*
X137734284Y-83650757D01*
X137637523Y-83443251D01*
X137506198Y-83255700D01*
X137344300Y-83093802D01*
X137309373Y-83069346D01*
X137156749Y-82962477D01*
X136949246Y-82865717D01*
X136949240Y-82865715D01*
X136842929Y-82837229D01*
X136728087Y-82806457D01*
X136500000Y-82786502D01*
X136271913Y-82806457D01*
X136050759Y-82865715D01*
X136050753Y-82865717D01*
X135843250Y-82962477D01*
X135655703Y-83093799D01*
X135655697Y-83093804D01*
X135493804Y-83255697D01*
X135493799Y-83255703D01*
X135362813Y-83442771D01*
X135307356Y-83487099D01*
X135259600Y-83496500D01*
X135082315Y-83496500D01*
X135014194Y-83476498D01*
X134979104Y-83442773D01*
X134914301Y-83350224D01*
X134764776Y-83200699D01*
X134764772Y-83200696D01*
X134764767Y-83200692D01*
X134591561Y-83079412D01*
X134399912Y-82990045D01*
X134399908Y-82990043D01*
X134305113Y-82964643D01*
X134195655Y-82935314D01*
X133985000Y-82916884D01*
X133774345Y-82935314D01*
X133725504Y-82948401D01*
X133570091Y-82990043D01*
X133570087Y-82990045D01*
X133378438Y-83079412D01*
X133205232Y-83200692D01*
X133205221Y-83200701D01*
X133055701Y-83350221D01*
X133055692Y-83350232D01*
X132934412Y-83523438D01*
X132845045Y-83715087D01*
X132845043Y-83715091D01*
X132790313Y-83919348D01*
X132790312Y-83919353D01*
X132787365Y-83953041D01*
X132761501Y-84019158D01*
X132750941Y-84031152D01*
X132254871Y-84527223D01*
X132192558Y-84561248D01*
X132121743Y-84556184D01*
X132064907Y-84513637D01*
X132040206Y-84448535D01*
X132022564Y-84235632D01*
X132015483Y-84207669D01*
X131967297Y-84017387D01*
X131967296Y-84017386D01*
X131967296Y-84017384D01*
X131876860Y-83811209D01*
X131851354Y-83772169D01*
X131753724Y-83622734D01*
X131753720Y-83622729D01*
X131632135Y-83490655D01*
X131601240Y-83457094D01*
X131601239Y-83457093D01*
X131601237Y-83457091D01*
X131463945Y-83350232D01*
X131423576Y-83318811D01*
X131225574Y-83211658D01*
X131225572Y-83211657D01*
X131225571Y-83211656D01*
X131012639Y-83138557D01*
X131012630Y-83138555D01*
X130968476Y-83131187D01*
X130790569Y-83101500D01*
X130565431Y-83101500D01*
X130417211Y-83126233D01*
X130343369Y-83138555D01*
X130343360Y-83138557D01*
X130130428Y-83211656D01*
X130130426Y-83211658D01*
X129932426Y-83318810D01*
X129932424Y-83318811D01*
X129754762Y-83457091D01*
X129693754Y-83523363D01*
X129632901Y-83559933D01*
X129561936Y-83557798D01*
X129503391Y-83517636D01*
X129482999Y-83482057D01*
X129458265Y-83415744D01*
X129438889Y-83363796D01*
X129438888Y-83363794D01*
X129438887Y-83363792D01*
X129351261Y-83246738D01*
X129234207Y-83159112D01*
X129234202Y-83159110D01*
X129097204Y-83108011D01*
X129097196Y-83108009D01*
X129036649Y-83101500D01*
X129036638Y-83101500D01*
X127239362Y-83101500D01*
X127239350Y-83101500D01*
X127178803Y-83108009D01*
X127178795Y-83108011D01*
X127041797Y-83159110D01*
X127041792Y-83159112D01*
X126924738Y-83246738D01*
X126837112Y-83363792D01*
X126837110Y-83363797D01*
X126786011Y-83500795D01*
X126786009Y-83500803D01*
X126779500Y-83561350D01*
X126779500Y-85358649D01*
X126786009Y-85419196D01*
X126786011Y-85419204D01*
X126837110Y-85556202D01*
X126837112Y-85556207D01*
X126924738Y-85673261D01*
X127041791Y-85760886D01*
X127041792Y-85760886D01*
X127041796Y-85760889D01*
X127156810Y-85803787D01*
X127213642Y-85846332D01*
X127238453Y-85912852D01*
X127223362Y-85982226D01*
X127205475Y-86007179D01*
X127062280Y-86162729D01*
X127062275Y-86162734D01*
X126939141Y-86351206D01*
X126848703Y-86557386D01*
X126848702Y-86557387D01*
X126793437Y-86775624D01*
X126793436Y-86775630D01*
X126793436Y-86775632D01*
X126774844Y-87000000D01*
X126793394Y-87223866D01*
X126793437Y-87224375D01*
X126848702Y-87442612D01*
X126848703Y-87442613D01*
X126848704Y-87442616D01*
X126922881Y-87611723D01*
X126939141Y-87648793D01*
X127062275Y-87837265D01*
X127062279Y-87837270D01*
X127214762Y-88002908D01*
X127251785Y-88031724D01*
X127392424Y-88141189D01*
X127590426Y-88248342D01*
X127590427Y-88248342D01*
X127590428Y-88248343D01*
X127702227Y-88286723D01*
X127803365Y-88321444D01*
X128025431Y-88358500D01*
X128025435Y-88358500D01*
X128250565Y-88358500D01*
X128250569Y-88358500D01*
X128472635Y-88321444D01*
X128472651Y-88321438D01*
X128475751Y-88320654D01*
X128477072Y-88320703D01*
X128477777Y-88320586D01*
X128477801Y-88320730D01*
X128546698Y-88323311D01*
X128595795Y-88353699D01*
X128905031Y-88662935D01*
X128914998Y-88675375D01*
X128915225Y-88675188D01*
X128920277Y-88681295D01*
X128971373Y-88729277D01*
X128992503Y-88750408D01*
X128998046Y-88754708D01*
X129002559Y-88758563D01*
X129036957Y-88790864D01*
X129036958Y-88790864D01*
X129036960Y-88790866D01*
X129054707Y-88800622D01*
X129071237Y-88811480D01*
X129087237Y-88823891D01*
X129118414Y-88837382D01*
X129130529Y-88842625D01*
X129135863Y-88845237D01*
X129177218Y-88867973D01*
X129196840Y-88873011D01*
X129215541Y-88879413D01*
X129228092Y-88884845D01*
X129234130Y-88887458D01*
X129234131Y-88887458D01*
X129234133Y-88887459D01*
X129280755Y-88894842D01*
X129286524Y-88896037D01*
X129314132Y-88903126D01*
X129375135Y-88939441D01*
X129406822Y-89002974D01*
X129399131Y-89073553D01*
X129398181Y-89075776D01*
X129388704Y-89097381D01*
X129388702Y-89097387D01*
X129333437Y-89315624D01*
X129333436Y-89315630D01*
X129333436Y-89315632D01*
X129314844Y-89540000D01*
X129332850Y-89757299D01*
X129333437Y-89764375D01*
X129388702Y-89982612D01*
X129388703Y-89982613D01*
X129388704Y-89982616D01*
X129467598Y-90162477D01*
X129479141Y-90188793D01*
X129602275Y-90377265D01*
X129602279Y-90377270D01*
X129754762Y-90542908D01*
X129791781Y-90571721D01*
X129932424Y-90681189D01*
X129965680Y-90699186D01*
X130016071Y-90749200D01*
X130031423Y-90818516D01*
X130006862Y-90885129D01*
X129965680Y-90920814D01*
X129932426Y-90938810D01*
X129932424Y-90938811D01*
X129754762Y-91077091D01*
X129602279Y-91242729D01*
X129513483Y-91378643D01*
X129459479Y-91424731D01*
X129389131Y-91434306D01*
X129324774Y-91404329D01*
X129302517Y-91378643D01*
X129213720Y-91242729D01*
X129061237Y-91077091D01*
X128979382Y-91013381D01*
X128883576Y-90938811D01*
X128685574Y-90831658D01*
X128685572Y-90831657D01*
X128685571Y-90831656D01*
X128472639Y-90758557D01*
X128472630Y-90758555D01*
X128416567Y-90749200D01*
X128250569Y-90721500D01*
X128025431Y-90721500D01*
X127884974Y-90744938D01*
X127803369Y-90758555D01*
X127803360Y-90758557D01*
X127590428Y-90831656D01*
X127590426Y-90831658D01*
X127392426Y-90938810D01*
X127392424Y-90938811D01*
X127214762Y-91077091D01*
X127062279Y-91242729D01*
X127062275Y-91242734D01*
X126939141Y-91431206D01*
X126848703Y-91637386D01*
X126848702Y-91637387D01*
X126793437Y-91855624D01*
X126793436Y-91855630D01*
X126793436Y-91855632D01*
X126774844Y-92080000D01*
X126791483Y-92280805D01*
X126793437Y-92304375D01*
X126848702Y-92522612D01*
X126848703Y-92522613D01*
X126848704Y-92522616D01*
X126929013Y-92705703D01*
X126939141Y-92728793D01*
X127062275Y-92917265D01*
X127062279Y-92917270D01*
X127214762Y-93082908D01*
X127269331Y-93125381D01*
X127392424Y-93221189D01*
X127425680Y-93239186D01*
X127476071Y-93289200D01*
X127491423Y-93358516D01*
X127466862Y-93425129D01*
X127425680Y-93460813D01*
X127392426Y-93478810D01*
X127392424Y-93478811D01*
X127214762Y-93617091D01*
X127062279Y-93782729D01*
X127062275Y-93782734D01*
X126939141Y-93971206D01*
X126848703Y-94177386D01*
X126848702Y-94177387D01*
X126793437Y-94395624D01*
X126793436Y-94395630D01*
X126793436Y-94395632D01*
X126774844Y-94620000D01*
X126793128Y-94840655D01*
X126793437Y-94844375D01*
X126848702Y-95062612D01*
X126848703Y-95062613D01*
X126848704Y-95062616D01*
X126939140Y-95268791D01*
X126939141Y-95268793D01*
X127062275Y-95457265D01*
X127062279Y-95457270D01*
X127214762Y-95622908D01*
X127262490Y-95660056D01*
X127392424Y-95761189D01*
X127590426Y-95868342D01*
X127590427Y-95868342D01*
X127590428Y-95868343D01*
X127641212Y-95885777D01*
X127803365Y-95941444D01*
X128025431Y-95978500D01*
X128025435Y-95978500D01*
X128250565Y-95978500D01*
X128250569Y-95978500D01*
X128472635Y-95941444D01*
X128685574Y-95868342D01*
X128883576Y-95761189D01*
X129061240Y-95622906D01*
X129213722Y-95457268D01*
X129302518Y-95321354D01*
X129356520Y-95275268D01*
X129426868Y-95265692D01*
X129491225Y-95295669D01*
X129513480Y-95321353D01*
X129546607Y-95372058D01*
X129602275Y-95457265D01*
X129602279Y-95457270D01*
X129754762Y-95622908D01*
X129802490Y-95660056D01*
X129932424Y-95761189D01*
X130130426Y-95868342D01*
X130130427Y-95868342D01*
X130130428Y-95868343D01*
X130181212Y-95885777D01*
X130343365Y-95941444D01*
X130565431Y-95978500D01*
X130565435Y-95978500D01*
X130790565Y-95978500D01*
X130790569Y-95978500D01*
X131012635Y-95941444D01*
X131225574Y-95868342D01*
X131423576Y-95761189D01*
X131601240Y-95622906D01*
X131753722Y-95457268D01*
X131876860Y-95268791D01*
X131967296Y-95062616D01*
X132022564Y-94844368D01*
X132041156Y-94620000D01*
X132022564Y-94395632D01*
X132006657Y-94332818D01*
X131967297Y-94177387D01*
X131967296Y-94177386D01*
X131967296Y-94177384D01*
X131876860Y-93971209D01*
X131864937Y-93952959D01*
X131753724Y-93782734D01*
X131753720Y-93782729D01*
X131601237Y-93617091D01*
X131484963Y-93526591D01*
X131423576Y-93478811D01*
X131390319Y-93460813D01*
X131339929Y-93410802D01*
X131324576Y-93341485D01*
X131349136Y-93274872D01*
X131390320Y-93239186D01*
X131423576Y-93221189D01*
X131601240Y-93082906D01*
X131753722Y-92917268D01*
X131876860Y-92728791D01*
X131947922Y-92566784D01*
X131993600Y-92512440D01*
X132061412Y-92491415D01*
X132129826Y-92510391D01*
X132152402Y-92528306D01*
X132772497Y-93148401D01*
X132806523Y-93210713D01*
X132805263Y-93263744D01*
X132806270Y-93263922D01*
X132805315Y-93269339D01*
X132805314Y-93269342D01*
X132805314Y-93269345D01*
X132786884Y-93480000D01*
X132805314Y-93690655D01*
X132828741Y-93778087D01*
X132860043Y-93894908D01*
X132860045Y-93894912D01*
X132949412Y-94086561D01*
X133070692Y-94259767D01*
X133070695Y-94259771D01*
X133070699Y-94259776D01*
X133220224Y-94409301D01*
X133220228Y-94409304D01*
X133220232Y-94409307D01*
X133393438Y-94530587D01*
X133393441Y-94530588D01*
X133393442Y-94530589D01*
X133585090Y-94619956D01*
X133616205Y-94628293D01*
X133676828Y-94665245D01*
X133707849Y-94729105D01*
X133699421Y-94799600D01*
X133654218Y-94854347D01*
X133616206Y-94871706D01*
X133608406Y-94873796D01*
X133585091Y-94880043D01*
X133585087Y-94880045D01*
X133393438Y-94969412D01*
X133220232Y-95090692D01*
X133220221Y-95090701D01*
X133070701Y-95240221D01*
X133070692Y-95240232D01*
X132949412Y-95413438D01*
X132860045Y-95605087D01*
X132860043Y-95605091D01*
X132839814Y-95680589D01*
X132805314Y-95809345D01*
X132786884Y-96020000D01*
X132805314Y-96230655D01*
X132818521Y-96279943D01*
X132860043Y-96434908D01*
X132860045Y-96434912D01*
X132949412Y-96626561D01*
X133070692Y-96799767D01*
X133070696Y-96799772D01*
X133070699Y-96799776D01*
X133220224Y-96949301D01*
X133220228Y-96949304D01*
X133220232Y-96949307D01*
X133393438Y-97070587D01*
X133393441Y-97070588D01*
X133393442Y-97070589D01*
X133585090Y-97159956D01*
X133789345Y-97214686D01*
X134000000Y-97233116D01*
X134210655Y-97214686D01*
X134414910Y-97159956D01*
X134606558Y-97070589D01*
X134779776Y-96949301D01*
X134929301Y-96799776D01*
X135050589Y-96626558D01*
X135062699Y-96600589D01*
X135073641Y-96577123D01*
X135120558Y-96523837D01*
X135188835Y-96504376D01*
X135256795Y-96524917D01*
X135302031Y-96577122D01*
X135362477Y-96706749D01*
X135473786Y-96865715D01*
X135493802Y-96894300D01*
X135655700Y-97056198D01*
X135843251Y-97187523D01*
X136050757Y-97284284D01*
X136271913Y-97343543D01*
X136500000Y-97363498D01*
X136728087Y-97343543D01*
X136791541Y-97326540D01*
X136862514Y-97328228D01*
X136913246Y-97359151D01*
X138357095Y-98802999D01*
X138391120Y-98865311D01*
X138394000Y-98892094D01*
X138394000Y-102171645D01*
X138373998Y-102239766D01*
X138340271Y-102274858D01*
X138210956Y-102365406D01*
X138209465Y-102363277D01*
X138154358Y-102387346D01*
X138084262Y-102376077D01*
X138066544Y-102364691D01*
X138066044Y-102365406D01*
X138036185Y-102344498D01*
X137881154Y-102235944D01*
X137881150Y-102235942D01*
X137681579Y-102142881D01*
X137681573Y-102142879D01*
X137591678Y-102118791D01*
X137468871Y-102085885D01*
X137249500Y-102066693D01*
X137030129Y-102085885D01*
X136817426Y-102142879D01*
X136817420Y-102142881D01*
X136617846Y-102235944D01*
X136432956Y-102365406D01*
X136431465Y-102363277D01*
X136376358Y-102387346D01*
X136306262Y-102376077D01*
X136288544Y-102364691D01*
X136288044Y-102365406D01*
X136258185Y-102344498D01*
X136103154Y-102235944D01*
X136103150Y-102235942D01*
X135903579Y-102142881D01*
X135903573Y-102142879D01*
X135813678Y-102118791D01*
X135690871Y-102085885D01*
X135471500Y-102066693D01*
X135471499Y-102066693D01*
X135252129Y-102085885D01*
X135039426Y-102142879D01*
X135039420Y-102142881D01*
X134839846Y-102235944D01*
X134654956Y-102365406D01*
X134653465Y-102363277D01*
X134598358Y-102387346D01*
X134528262Y-102376077D01*
X134510544Y-102364691D01*
X134510044Y-102365406D01*
X134480185Y-102344498D01*
X134325154Y-102235944D01*
X134325150Y-102235942D01*
X134125579Y-102142881D01*
X134125573Y-102142879D01*
X134035678Y-102118791D01*
X133912871Y-102085885D01*
X133693500Y-102066693D01*
X133474129Y-102085885D01*
X133261426Y-102142879D01*
X133261420Y-102142881D01*
X133061846Y-102235944D01*
X132876956Y-102365406D01*
X132875465Y-102363277D01*
X132820358Y-102387346D01*
X132750262Y-102376077D01*
X132732544Y-102364691D01*
X132732044Y-102365406D01*
X132702185Y-102344498D01*
X132547154Y-102235944D01*
X132547150Y-102235942D01*
X132347579Y-102142881D01*
X132347573Y-102142879D01*
X132257678Y-102118791D01*
X132134871Y-102085885D01*
X131915500Y-102066693D01*
X131915499Y-102066693D01*
X131696129Y-102085885D01*
X131483426Y-102142879D01*
X131483420Y-102142881D01*
X131462748Y-102152521D01*
X131392556Y-102163181D01*
X131327744Y-102134200D01*
X131288889Y-102074780D01*
X131283500Y-102038325D01*
X131283500Y-101819393D01*
X131303502Y-101751272D01*
X131337230Y-101716180D01*
X131439885Y-101644300D01*
X131494300Y-101606198D01*
X131656198Y-101444300D01*
X131787523Y-101256749D01*
X131884284Y-101049243D01*
X131943543Y-100828087D01*
X131963498Y-100600000D01*
X131943543Y-100371913D01*
X131884284Y-100150757D01*
X131787523Y-99943251D01*
X131656198Y-99755700D01*
X131494300Y-99593802D01*
X131454191Y-99565717D01*
X131306746Y-99462474D01*
X131301985Y-99459726D01*
X131303122Y-99457754D01*
X131257154Y-99417287D01*
X131237687Y-99349011D01*
X131258223Y-99281049D01*
X131303083Y-99242177D01*
X131301985Y-99240274D01*
X131306746Y-99237525D01*
X131360891Y-99199612D01*
X131494300Y-99106198D01*
X131656198Y-98944300D01*
X131787523Y-98756749D01*
X131884284Y-98549243D01*
X131943543Y-98328087D01*
X131963498Y-98100000D01*
X131943543Y-97871913D01*
X131884284Y-97650757D01*
X131787523Y-97443251D01*
X131656198Y-97255700D01*
X131494300Y-97093802D01*
X131461148Y-97070589D01*
X131306749Y-96962477D01*
X131099246Y-96865717D01*
X131099240Y-96865715D01*
X131005771Y-96840670D01*
X130878087Y-96806457D01*
X130650000Y-96786502D01*
X130421913Y-96806457D01*
X130200759Y-96865715D01*
X130200753Y-96865717D01*
X129993250Y-96962477D01*
X129805703Y-97093799D01*
X129805697Y-97093804D01*
X129643804Y-97255697D01*
X129643799Y-97255703D01*
X129512477Y-97443250D01*
X129415717Y-97650753D01*
X129415715Y-97650759D01*
X129379873Y-97784525D01*
X129356457Y-97871913D01*
X129336502Y-98100000D01*
X129356457Y-98328087D01*
X129375914Y-98400701D01*
X129415715Y-98549240D01*
X129415717Y-98549246D01*
X129512477Y-98756749D01*
X129623349Y-98915091D01*
X129643802Y-98944300D01*
X129805700Y-99106198D01*
X129805703Y-99106200D01*
X129993253Y-99237525D01*
X129998015Y-99240274D01*
X129996880Y-99242238D01*
X130042865Y-99282745D01*
X130062312Y-99351026D01*
X130041756Y-99418982D01*
X129996921Y-99457831D01*
X129998015Y-99459726D01*
X129993253Y-99462474D01*
X129805703Y-99593799D01*
X129805697Y-99593804D01*
X129643804Y-99755697D01*
X129643799Y-99755703D01*
X129512477Y-99943250D01*
X129415717Y-100150753D01*
X129415715Y-100150759D01*
X129375523Y-100300757D01*
X129356457Y-100371913D01*
X129336502Y-100600000D01*
X129356457Y-100828087D01*
X129359619Y-100839886D01*
X129415715Y-101049240D01*
X129415717Y-101049246D01*
X129512477Y-101256749D01*
X129622571Y-101413980D01*
X129643802Y-101444300D01*
X129805700Y-101606198D01*
X129805704Y-101606201D01*
X129805708Y-101606204D01*
X129962770Y-101716180D01*
X130007099Y-101771637D01*
X130016500Y-101819393D01*
X130016500Y-103500926D01*
X130014751Y-103516768D01*
X130015044Y-103516796D01*
X130014298Y-103524687D01*
X130016500Y-103594737D01*
X130016500Y-103624631D01*
X130016501Y-103624652D01*
X130017378Y-103631600D01*
X130017844Y-103637512D01*
X130019326Y-103684668D01*
X130019327Y-103684673D01*
X130024977Y-103704119D01*
X130028986Y-103723477D01*
X130031525Y-103743573D01*
X130031526Y-103743579D01*
X130048893Y-103787442D01*
X130050816Y-103793059D01*
X130063982Y-103838373D01*
X130074294Y-103855811D01*
X130082988Y-103873559D01*
X130090444Y-103892389D01*
X130090450Y-103892400D01*
X130118177Y-103930563D01*
X130121437Y-103935526D01*
X130145460Y-103976145D01*
X130159779Y-103990464D01*
X130172617Y-104005494D01*
X130174771Y-104008458D01*
X130184528Y-104021887D01*
X130212794Y-104045271D01*
X130220886Y-104051965D01*
X130225267Y-104055951D01*
X130743431Y-104574115D01*
X131238312Y-105068996D01*
X131248279Y-105081436D01*
X131248506Y-105081249D01*
X131253558Y-105087356D01*
X131304654Y-105135338D01*
X131325784Y-105156469D01*
X131331327Y-105160769D01*
X131335840Y-105164624D01*
X131370238Y-105196925D01*
X131370239Y-105196925D01*
X131370241Y-105196927D01*
X131387988Y-105206683D01*
X131404518Y-105217541D01*
X131420518Y-105229952D01*
X131451251Y-105243251D01*
X131463810Y-105248686D01*
X131469144Y-105251298D01*
X131510499Y-105274034D01*
X131528258Y-105278593D01*
X131589264Y-105314905D01*
X131620955Y-105378436D01*
X131618633Y-105433246D01*
X131560385Y-105650629D01*
X131541193Y-105869999D01*
X131560385Y-106089370D01*
X131617379Y-106302073D01*
X131617381Y-106302079D01*
X131682697Y-106442150D01*
X131710444Y-106501654D01*
X131836751Y-106682037D01*
X131836751Y-106682038D01*
X131836754Y-106682042D01*
X131992457Y-106837745D01*
X131992461Y-106837748D01*
X131992462Y-106837749D01*
X132172846Y-106964056D01*
X132372424Y-107057120D01*
X132585129Y-107114115D01*
X132804500Y-107133307D01*
X133023871Y-107114115D01*
X133236576Y-107057120D01*
X133436154Y-106964056D01*
X133616538Y-106837749D01*
X133616537Y-106837749D01*
X133621044Y-106834594D01*
X133622579Y-106836786D01*
X133677246Y-106812704D01*
X133747378Y-106823751D01*
X133765426Y-106835350D01*
X133765956Y-106834594D01*
X133788681Y-106850506D01*
X133950846Y-106964056D01*
X134150424Y-107057120D01*
X134363129Y-107114115D01*
X134582500Y-107133307D01*
X134801871Y-107114115D01*
X135014576Y-107057120D01*
X135214154Y-106964056D01*
X135394538Y-106837749D01*
X135394542Y-106837745D01*
X135399044Y-106834593D01*
X135400579Y-106836785D01*
X135455246Y-106812703D01*
X135525378Y-106823750D01*
X135543426Y-106835349D01*
X135543956Y-106834593D01*
X135548458Y-106837745D01*
X135548462Y-106837749D01*
X135728846Y-106964056D01*
X135928424Y-107057120D01*
X136141129Y-107114115D01*
X136360500Y-107133307D01*
X136579871Y-107114115D01*
X136611214Y-107105716D01*
X136682188Y-107107402D01*
X136732922Y-107138326D01*
X137749001Y-108154405D01*
X137783027Y-108216717D01*
X137777962Y-108287532D01*
X137735415Y-108344368D01*
X137668895Y-108369179D01*
X137659906Y-108369500D01*
X125560910Y-108369500D01*
X125492789Y-108349498D01*
X125446296Y-108295842D01*
X125436192Y-108225568D01*
X125465686Y-108160988D01*
X125495071Y-108136069D01*
X125603416Y-108069676D01*
X125783969Y-107915469D01*
X125938176Y-107734916D01*
X126062240Y-107532463D01*
X126153105Y-107313094D01*
X126208535Y-107082211D01*
X126227165Y-106845500D01*
X126208535Y-106608789D01*
X126153105Y-106377906D01*
X126062240Y-106158537D01*
X125938176Y-105956084D01*
X125937848Y-105955700D01*
X125783969Y-105775530D01*
X125603419Y-105621326D01*
X125603417Y-105621325D01*
X125603416Y-105621324D01*
X125400963Y-105497260D01*
X125399124Y-105496498D01*
X125181592Y-105406394D01*
X125012599Y-105365823D01*
X124950711Y-105350965D01*
X124714000Y-105332335D01*
X124713999Y-105332335D01*
X124477289Y-105350965D01*
X124246407Y-105406394D01*
X124027038Y-105497259D01*
X123824582Y-105621325D01*
X123824580Y-105621326D01*
X123644030Y-105775530D01*
X123489826Y-105956080D01*
X123489825Y-105956082D01*
X123365759Y-106158538D01*
X123329381Y-106246364D01*
X123322985Y-106261807D01*
X123309409Y-106294582D01*
X123264861Y-106349863D01*
X123197497Y-106372284D01*
X123128706Y-106354726D01*
X123080328Y-106302764D01*
X123067000Y-106246364D01*
X123067000Y-103700000D01*
X126286502Y-103700000D01*
X126306457Y-103928087D01*
X126319334Y-103976145D01*
X126365715Y-104149240D01*
X126365717Y-104149246D01*
X126462477Y-104356749D01*
X126589171Y-104537687D01*
X126593802Y-104544300D01*
X126755700Y-104706198D01*
X126943251Y-104837523D01*
X127150757Y-104934284D01*
X127371913Y-104993543D01*
X127600000Y-105013498D01*
X127828087Y-104993543D01*
X128049243Y-104934284D01*
X128256749Y-104837523D01*
X128444300Y-104706198D01*
X128606198Y-104544300D01*
X128737523Y-104356749D01*
X128834284Y-104149243D01*
X128893543Y-103928087D01*
X128913498Y-103700000D01*
X128893543Y-103471913D01*
X128834284Y-103250757D01*
X128737523Y-103043251D01*
X128606198Y-102855700D01*
X128444300Y-102693802D01*
X128442923Y-102692838D01*
X128256749Y-102562477D01*
X128049246Y-102465717D01*
X128049240Y-102465715D01*
X127950333Y-102439213D01*
X127828087Y-102406457D01*
X127600000Y-102386502D01*
X127371913Y-102406457D01*
X127150759Y-102465715D01*
X127150753Y-102465717D01*
X126943250Y-102562477D01*
X126755703Y-102693799D01*
X126755697Y-102693804D01*
X126593804Y-102855697D01*
X126593799Y-102855703D01*
X126462477Y-103043250D01*
X126365717Y-103250753D01*
X126365715Y-103250759D01*
X126334441Y-103367477D01*
X126306457Y-103471913D01*
X126286502Y-103700000D01*
X123067000Y-103700000D01*
X123067000Y-99550000D01*
X126464152Y-99550000D01*
X126483107Y-99754562D01*
X126539324Y-99952144D01*
X126539330Y-99952160D01*
X126630894Y-100136045D01*
X126630898Y-100136050D01*
X126754698Y-100299990D01*
X126906517Y-100438391D01*
X126906519Y-100438392D01*
X127081183Y-100546540D01*
X127272746Y-100620751D01*
X127474683Y-100658500D01*
X127474686Y-100658500D01*
X127680116Y-100658500D01*
X127680119Y-100658500D01*
X127882056Y-100620751D01*
X128073619Y-100546540D01*
X128248283Y-100438392D01*
X128400102Y-100299991D01*
X128523904Y-100136050D01*
X128523905Y-100136046D01*
X128523907Y-100136045D01*
X128615471Y-99952160D01*
X128615470Y-99952160D01*
X128615475Y-99952152D01*
X128671695Y-99754559D01*
X128690650Y-99550000D01*
X128671695Y-99345441D01*
X128667301Y-99329999D01*
X128615477Y-99147855D01*
X128615476Y-99147854D01*
X128615475Y-99147848D01*
X128612140Y-99141150D01*
X128523907Y-98963954D01*
X128523903Y-98963949D01*
X128509066Y-98944302D01*
X128449416Y-98865311D01*
X128400103Y-98800009D01*
X128248284Y-98661608D01*
X128073624Y-98553463D01*
X128073623Y-98553462D01*
X128073619Y-98553460D01*
X127953370Y-98506876D01*
X127882057Y-98479249D01*
X127831571Y-98469811D01*
X127680119Y-98441500D01*
X127474683Y-98441500D01*
X127355941Y-98463697D01*
X127272744Y-98479249D01*
X127147776Y-98527662D01*
X127081183Y-98553460D01*
X127081182Y-98553460D01*
X127081181Y-98553461D01*
X127081177Y-98553463D01*
X126906517Y-98661608D01*
X126754698Y-98800009D01*
X126630898Y-98963949D01*
X126630894Y-98963954D01*
X126539330Y-99147839D01*
X126539324Y-99147855D01*
X126483107Y-99345437D01*
X126464152Y-99550000D01*
X123067000Y-99550000D01*
X123067000Y-75094500D01*
X123087002Y-75026379D01*
X123140658Y-74979886D01*
X123193000Y-74968500D01*
X170342000Y-74968500D01*
X170410121Y-74988502D01*
G37*
%TD.AperFunction*%
%TD*%
M02*
