%TF.GenerationSoftware,KiCad,Pcbnew,7.0.7*%
%TF.CreationDate,2024-03-26T11:27:05-06:00*%
%TF.ProjectId,rgb2comp,72676232-636f-46d7-902e-6b696361645f,1.0*%
%TF.SameCoordinates,Original*%
%TF.FileFunction,Copper,L2,Bot*%
%TF.FilePolarity,Positive*%
%FSLAX46Y46*%
G04 Gerber Fmt 4.6, Leading zero omitted, Abs format (unit mm)*
G04 Created by KiCad (PCBNEW 7.0.7) date 2024-03-26 11:27:05*
%MOMM*%
%LPD*%
G01*
G04 APERTURE LIST*
%TA.AperFunction,ComponentPad*%
%ADD10R,1.700000X1.700000*%
%TD*%
%TA.AperFunction,ComponentPad*%
%ADD11O,1.700000X1.700000*%
%TD*%
%TA.AperFunction,ComponentPad*%
%ADD12C,1.400000*%
%TD*%
%TA.AperFunction,ComponentPad*%
%ADD13O,1.400000X1.400000*%
%TD*%
%TA.AperFunction,ComponentPad*%
%ADD14C,1.600000*%
%TD*%
%TA.AperFunction,ComponentPad*%
%ADD15R,1.200000X1.200000*%
%TD*%
%TA.AperFunction,ComponentPad*%
%ADD16C,1.200000*%
%TD*%
%TA.AperFunction,ComponentPad*%
%ADD17O,1.500000X1.500000*%
%TD*%
%TA.AperFunction,ViaPad*%
%ADD18C,2.300000*%
%TD*%
%TA.AperFunction,ViaPad*%
%ADD19C,2.100000*%
%TD*%
%TA.AperFunction,Conductor*%
%ADD20C,0.250000*%
%TD*%
G04 APERTURE END LIST*
D10*
%TO.P,J2,1,Pin_1*%
%TO.N,GND*%
X167005000Y-90716500D03*
D11*
%TO.P,J2,2,Pin_2*%
%TO.N,/R-Y*%
X164465000Y-90716500D03*
%TO.P,J2,3,Pin_3*%
%TO.N,GND*%
X167005000Y-88176500D03*
%TO.P,J2,4,Pin_4*%
%TO.N,/Y*%
X164465000Y-88176500D03*
%TO.P,J2,5,Pin_5*%
%TO.N,GND*%
X167005000Y-85636500D03*
%TO.P,J2,6,Pin_6*%
%TO.N,/B-Y*%
X164465000Y-85636500D03*
%TO.P,J2,7,Pin_7*%
%TO.N,GND*%
X167005000Y-83096500D03*
%TO.P,J2,8,Pin_8*%
%TO.N,/Raudio*%
X164465000Y-83096500D03*
%TO.P,J2,9,Pin_9*%
%TO.N,GND*%
X167005000Y-80556500D03*
%TO.P,J2,10,Pin_10*%
%TO.N,/Laudio*%
X164465000Y-80556500D03*
%TO.P,J2,11,Pin_11*%
%TO.N,GND*%
X167005000Y-78016500D03*
%TO.P,J2,12,Pin_12*%
%TO.N,/Composite*%
X164465000Y-78016500D03*
%TD*%
D12*
%TO.P,R3,1*%
%TO.N,/G*%
X133985000Y-84130000D03*
D13*
%TO.P,R3,2*%
%TO.N,GND*%
X133985000Y-86670000D03*
%TD*%
D14*
%TO.P,C18,1*%
%TO.N,GND*%
X156350000Y-82150000D03*
%TO.P,C18,2*%
%TO.N,+5V*%
X156350000Y-84650000D03*
%TD*%
D12*
%TO.P,R1,1*%
%TO.N,/Sync*%
X130760000Y-80556500D03*
D13*
%TO.P,R1,2*%
%TO.N,GND*%
X128220000Y-80556500D03*
%TD*%
D12*
%TO.P,R13,1*%
%TO.N,/R-Y Amp*%
X155575000Y-96381500D03*
D13*
%TO.P,R13,2*%
%TO.N,Net-(C10-Pad1)*%
X155575000Y-93841500D03*
%TD*%
D12*
%TO.P,R4,1*%
%TO.N,/B*%
X134000000Y-93480000D03*
D13*
%TO.P,R4,2*%
%TO.N,GND*%
X134000000Y-96020000D03*
%TD*%
D15*
%TO.P,C8,1*%
%TO.N,+5V*%
X126077401Y-99550000D03*
D16*
%TO.P,C8,2*%
%TO.N,GND*%
X127577401Y-99550000D03*
%TD*%
D12*
%TO.P,R6,1*%
%TO.N,Net-(U1-Pad1)*%
X160000000Y-83280000D03*
D13*
%TO.P,R6,2*%
%TO.N,/Y+S*%
X160000000Y-85820000D03*
%TD*%
D12*
%TO.P,R10,1*%
%TO.N,/Y Raw*%
X162330000Y-106150000D03*
D13*
%TO.P,R10,2*%
%TO.N,GND*%
X164870000Y-106150000D03*
%TD*%
D12*
%TO.P,R7,1*%
%TO.N,/Y Raw*%
X167800000Y-99330000D03*
D13*
%TO.P,R7,2*%
%TO.N,Net-(C13-Pad2)*%
X167800000Y-101870000D03*
%TD*%
D14*
%TO.P,C3,1*%
%TO.N,Net-(V1-Pad14)*%
X136500000Y-86600000D03*
%TO.P,C3,2*%
%TO.N,/G*%
X136500000Y-84100000D03*
%TD*%
D12*
%TO.P,C19,1*%
%TO.N,GND*%
X164700000Y-95550000D03*
D13*
%TO.P,C19,2*%
%TO.N,+5V*%
X162160000Y-95550000D03*
%TD*%
D12*
%TO.P,R2,1*%
%TO.N,/R*%
X133985000Y-88811500D03*
D13*
%TO.P,R2,2*%
%TO.N,GND*%
X133985000Y-91351500D03*
%TD*%
D17*
%TO.P,V1,1*%
%TO.N,N/C*%
X151473500Y-103330000D03*
%TO.P,V1,2*%
X150584500Y-105870000D03*
%TO.P,V1,3,Y_in*%
%TO.N,Net-(V1-Pad3)*%
X149695500Y-103330000D03*
%TO.P,V1,4,B-Y_in*%
%TO.N,Net-(V1-Pad4)*%
X148806500Y-105870000D03*
%TO.P,V1,5,R-Y_in*%
%TO.N,Net-(V1-Pad5)*%
X147917500Y-103330000D03*
%TO.P,V1,6*%
%TO.N,N/C*%
X147028500Y-105870000D03*
%TO.P,V1,7*%
X146139500Y-103330000D03*
%TO.P,V1,8*%
X145250500Y-105870000D03*
%TO.P,V1,9*%
X144361500Y-103330000D03*
%TO.P,V1,10*%
X143472500Y-105870000D03*
%TO.P,V1,11*%
X142583500Y-103330000D03*
%TO.P,V1,12*%
X141694500Y-105870000D03*
%TO.P,V1,13,R*%
%TO.N,Net-(C2-Pad1)*%
X140805500Y-103330000D03*
%TO.P,V1,14,G*%
%TO.N,Net-(V1-Pad14)*%
X139916500Y-105870000D03*
%TO.P,V1,15,B*%
%TO.N,Net-(V1-Pad15)*%
X139027500Y-103330000D03*
%TO.P,V1,16,Y*%
%TO.N,Net-(V1-Pad16)*%
X138138500Y-105870000D03*
%TO.P,V1,17,B-Y*%
%TO.N,/B-Y Raw*%
X137249500Y-103330000D03*
%TO.P,V1,18,R-Y*%
%TO.N,/R-Y Raw*%
X136360500Y-105870000D03*
%TO.P,V1,19,GND*%
%TO.N,GND*%
X135471500Y-103330000D03*
%TO.P,V1,20,VIDEO_IN*%
%TO.N,Net-(V1-Pad20)*%
X134582500Y-105870000D03*
%TO.P,V1,21*%
%TO.N,N/C*%
X133693500Y-103330000D03*
%TO.P,V1,22*%
X132804500Y-105870000D03*
%TO.P,V1,23*%
X131915500Y-103330000D03*
%TO.P,V1,24,Vcc*%
%TO.N,+5V*%
X131026500Y-105870000D03*
%TD*%
D12*
%TO.P,R9,1*%
%TO.N,Net-(V1-Pad16)*%
X157130000Y-106150000D03*
D13*
%TO.P,R9,2*%
%TO.N,/Y Raw*%
X159670000Y-106150000D03*
%TD*%
D14*
%TO.P,C4,1*%
%TO.N,Net-(V1-Pad15)*%
X136500000Y-96050000D03*
%TO.P,C4,2*%
%TO.N,/B*%
X136500000Y-93550000D03*
%TD*%
D12*
%TO.P,R11,1*%
%TO.N,/B-Y Amp*%
X145415000Y-96381500D03*
D13*
%TO.P,R11,2*%
%TO.N,Net-(C6-Pad1)*%
X145415000Y-93841500D03*
%TD*%
D14*
%TO.P,C1,1*%
%TO.N,/Sync*%
X133370000Y-80556500D03*
%TO.P,C1,2*%
%TO.N,Net-(U1-Pad2)*%
X135870000Y-80556500D03*
%TD*%
%TO.P,C17,1*%
%TO.N,Net-(V1-Pad3)*%
X149650000Y-100750000D03*
%TO.P,C17,2*%
%TO.N,GND*%
X152150000Y-100750000D03*
%TD*%
%TO.P,C7,1*%
%TO.N,+5V*%
X127600000Y-106200000D03*
%TO.P,C7,2*%
%TO.N,GND*%
X127600000Y-103700000D03*
%TD*%
D15*
%TO.P,C10,1*%
%TO.N,Net-(C10-Pad1)*%
X155575000Y-90716500D03*
D16*
%TO.P,C10,2*%
%TO.N,/R-Y*%
X155575000Y-89216500D03*
%TD*%
D14*
%TO.P,C12,1*%
%TO.N,/B-Y Raw*%
X157100000Y-103950000D03*
%TO.P,C12,2*%
%TO.N,Net-(C12-Pad2)*%
X159600000Y-103950000D03*
%TD*%
%TO.P,C15,1*%
%TO.N,Net-(V1-Pad4)*%
X154550000Y-105900000D03*
%TO.P,C15,2*%
%TO.N,GND*%
X154550000Y-103400000D03*
%TD*%
%TO.P,C5,1*%
%TO.N,Net-(C5-Pad1)*%
X142875000Y-80536500D03*
%TO.P,C5,2*%
%TO.N,GND*%
X142875000Y-78036500D03*
%TD*%
D10*
%TO.P,J1,1,Pin_1*%
%TO.N,GND*%
X128138000Y-84460000D03*
D11*
%TO.P,J1,2,Pin_2*%
%TO.N,/Sync*%
X130678000Y-84460000D03*
%TO.P,J1,3,Pin_3*%
%TO.N,/R*%
X128138000Y-87000000D03*
%TO.P,J1,4,Pin_4*%
%TO.N,/G*%
X130678000Y-87000000D03*
%TO.P,J1,5,Pin_5*%
%TO.N,+5V*%
X128138000Y-89540000D03*
%TO.P,J1,6,Pin_6*%
%TO.N,/B*%
X130678000Y-89540000D03*
%TO.P,J1,7,Pin_7*%
%TO.N,/Laudio*%
X128138000Y-92080000D03*
%TO.P,J1,8,Pin_8*%
%TO.N,/Raudio*%
X130678000Y-92080000D03*
%TO.P,J1,9,Pin_9*%
%TO.N,/Composite*%
X128138000Y-94620000D03*
%TO.P,J1,10,Pin_10*%
%TO.N,GND*%
X130678000Y-94620000D03*
%TD*%
D15*
%TO.P,C9,1*%
%TO.N,/Y+S*%
X150495000Y-90716500D03*
D16*
%TO.P,C9,2*%
%TO.N,/Y*%
X150495000Y-89216500D03*
%TD*%
D15*
%TO.P,C6,1*%
%TO.N,Net-(C6-Pad1)*%
X145415000Y-90716500D03*
D16*
%TO.P,C6,2*%
%TO.N,/B-Y*%
X145415000Y-89216500D03*
%TD*%
D12*
%TO.P,R12,1*%
%TO.N,/Y+S*%
X150495000Y-93941500D03*
D13*
%TO.P,R12,2*%
%TO.N,/Y Amp*%
X150495000Y-96481500D03*
%TD*%
D12*
%TO.P,R5,1*%
%TO.N,GND*%
X145415000Y-78066500D03*
D13*
%TO.P,R5,2*%
%TO.N,Net-(C5-Pad1)*%
X145415000Y-80606500D03*
%TD*%
D14*
%TO.P,C14,1*%
%TO.N,/R-Y Raw*%
X167100000Y-106800000D03*
%TO.P,C14,2*%
%TO.N,Net-(C14-Pad2)*%
X167100000Y-104300000D03*
%TD*%
%TO.P,C2,1*%
%TO.N,Net-(C2-Pad1)*%
X136500000Y-91300000D03*
%TO.P,C2,2*%
%TO.N,/R*%
X136500000Y-88800000D03*
%TD*%
D12*
%TO.P,R14,1*%
%TO.N,GND*%
X159850000Y-92720000D03*
D13*
%TO.P,R14,2*%
%TO.N,Net-(C10-Pad1)*%
X159850000Y-90180000D03*
%TD*%
D14*
%TO.P,C13,1*%
%TO.N,/Y Raw*%
X162300000Y-103900000D03*
%TO.P,C13,2*%
%TO.N,Net-(C13-Pad2)*%
X164800000Y-103900000D03*
%TD*%
D12*
%TO.P,R8,1*%
%TO.N,/R-Y Raw*%
X167850000Y-94630000D03*
D13*
%TO.P,R8,2*%
%TO.N,Net-(C14-Pad2)*%
X167850000Y-97170000D03*
%TD*%
D14*
%TO.P,C11,1*%
%TO.N,Net-(V1-Pad20)*%
X130650000Y-100600000D03*
%TO.P,C11,2*%
%TO.N,GND*%
X130650000Y-98100000D03*
%TD*%
%TO.P,C16,1*%
%TO.N,Net-(V1-Pad5)*%
X147450000Y-100800000D03*
%TO.P,C16,2*%
%TO.N,GND*%
X144950000Y-100800000D03*
%TD*%
D18*
%TO.N,GND*%
X124714000Y-106845500D03*
D19*
X126619000Y-78143500D03*
X159893000Y-95415500D03*
X148220000Y-84970000D03*
%TD*%
D20*
%TO.N,/Sync*%
X130678000Y-80638500D02*
X130760000Y-80556500D01*
X130678000Y-84460000D02*
X130678000Y-80638500D01*
%TO.N,/Laudio*%
X162560000Y-78646500D02*
X162560000Y-76746500D01*
X126365000Y-93891500D02*
X128270000Y-91986500D01*
X161739520Y-75926020D02*
X125281198Y-75926020D01*
X124274520Y-76932698D02*
X124274520Y-93705302D01*
X124460718Y-93891500D02*
X126365000Y-93891500D01*
X163835000Y-79921500D02*
X162560000Y-78646500D01*
X162560000Y-76746500D02*
X161739520Y-75926020D01*
X124274520Y-93705302D02*
X124460718Y-93891500D01*
X125281198Y-75926020D02*
X124274520Y-76932698D01*
%TO.N,/Raudio*%
X125467396Y-76375540D02*
X161553322Y-76375540D01*
X125095000Y-90716500D02*
X124724040Y-90345540D01*
X162110480Y-80736980D02*
X163835000Y-82461500D01*
X161553322Y-76375540D02*
X162110480Y-76932698D01*
X124724040Y-77118896D02*
X125467396Y-76375540D01*
X162110480Y-76932698D02*
X162110480Y-80736980D01*
X129540000Y-90716500D02*
X125095000Y-90716500D01*
X130810000Y-91986500D02*
X129540000Y-90716500D01*
X124724040Y-90345540D02*
X124724040Y-77118896D01*
%TO.N,/Composite*%
X161930000Y-75476500D02*
X163835000Y-77381500D01*
X123825000Y-76746500D02*
X125095000Y-75476500D01*
X124460000Y-94526500D02*
X123825000Y-93891500D01*
X128270000Y-94526500D02*
X124460000Y-94526500D01*
X123825000Y-93891500D02*
X123825000Y-76746500D01*
X125095000Y-75476500D02*
X161930000Y-75476500D01*
%TO.N,/B-Y*%
X145415000Y-89216500D02*
X146263528Y-89216500D01*
X163473500Y-84645000D02*
X164465000Y-85636500D01*
X158575431Y-84645000D02*
X163473500Y-84645000D01*
X157370431Y-85850000D02*
X158575431Y-84645000D01*
X149630028Y-85850000D02*
X157370431Y-85850000D01*
X146263528Y-89216500D02*
X149630028Y-85850000D01*
%TO.N,Net-(V1-Pad14)*%
X131745559Y-104680339D02*
X138726839Y-104680339D01*
X136500000Y-86600000D02*
X137625000Y-87725000D01*
X138726839Y-104680339D02*
X139916500Y-105870000D01*
X130700000Y-103634780D02*
X131745559Y-104680339D01*
X130700000Y-102900000D02*
X130700000Y-103634780D01*
X137625000Y-100625000D02*
X132975000Y-100625000D01*
X137625000Y-87725000D02*
X137625000Y-100625000D01*
X132975000Y-100625000D02*
X130700000Y-102900000D01*
%TO.N,/R-Y Raw*%
X168850000Y-98930431D02*
X168850000Y-105050000D01*
X166825000Y-97594569D02*
X167535431Y-98305000D01*
X167850000Y-94630000D02*
X166825000Y-95655000D01*
X166825000Y-95655000D02*
X166825000Y-97594569D01*
X168224569Y-98305000D02*
X168850000Y-98930431D01*
X166725000Y-95755000D02*
X167850000Y-94630000D01*
X168850000Y-105050000D02*
X167100000Y-106800000D01*
X167535431Y-98305000D02*
X168224569Y-98305000D01*
%TO.N,/Y+S*%
X158830000Y-86990000D02*
X160000000Y-85820000D01*
X150495000Y-90716500D02*
X154221500Y-86990000D01*
X154221500Y-86990000D02*
X158830000Y-86990000D01*
%TO.N,Net-(C13-Pad2)*%
X164800000Y-103900000D02*
X166830000Y-101870000D01*
X166830000Y-101870000D02*
X167800000Y-101870000D01*
%TO.N,/Y Raw*%
X163900000Y-102300000D02*
X162300000Y-103900000D01*
X167800000Y-99330000D02*
X164830000Y-102300000D01*
X164830000Y-102300000D02*
X163900000Y-102300000D01*
%TD*%
%TA.AperFunction,Conductor*%
%TO.N,GND*%
G36*
X155074775Y-103568175D02*
G01*
X155091276Y-103582065D01*
X155637098Y-104127888D01*
X155684111Y-104123775D01*
X155753716Y-104137764D01*
X155804709Y-104187164D01*
X155816798Y-104216680D01*
X155838521Y-104297749D01*
X155865715Y-104399240D01*
X155865717Y-104399246D01*
X155962477Y-104606749D01*
X156058791Y-104744300D01*
X156093802Y-104794300D01*
X156255700Y-104956198D01*
X156255703Y-104956200D01*
X156344547Y-105018410D01*
X156388875Y-105073867D01*
X156396184Y-105144487D01*
X156364153Y-105207847D01*
X156353274Y-105218139D01*
X156350226Y-105220696D01*
X156200696Y-105370227D01*
X156200692Y-105370232D01*
X156079412Y-105543438D01*
X156079409Y-105543442D01*
X156054057Y-105597811D01*
X156007140Y-105651096D01*
X155938862Y-105670556D01*
X155870902Y-105650013D01*
X155824837Y-105595990D01*
X155818159Y-105577179D01*
X155784284Y-105450757D01*
X155687523Y-105243251D01*
X155556198Y-105055700D01*
X155394300Y-104893802D01*
X155383875Y-104886502D01*
X155206746Y-104762474D01*
X155201985Y-104759726D01*
X155203023Y-104757927D01*
X155156532Y-104716963D01*
X155137095Y-104648679D01*
X155157661Y-104580726D01*
X155202782Y-104541664D01*
X155201730Y-104539841D01*
X155206496Y-104537088D01*
X155277888Y-104487099D01*
X155277888Y-104487098D01*
X154732065Y-103941276D01*
X154698040Y-103878963D01*
X154703104Y-103808148D01*
X154745651Y-103751312D01*
X154763951Y-103739917D01*
X154788045Y-103727641D01*
X154877641Y-103638045D01*
X154889914Y-103613957D01*
X154938658Y-103562344D01*
X155007573Y-103545275D01*
X155074775Y-103568175D01*
G37*
%TD.AperFunction*%
%TA.AperFunction,Conductor*%
G36*
X145474775Y-100968175D02*
G01*
X145491276Y-100982065D01*
X146037098Y-101527888D01*
X146037099Y-101527888D01*
X146087088Y-101456496D01*
X146089841Y-101451730D01*
X146091729Y-101452820D01*
X146132384Y-101406594D01*
X146200651Y-101387094D01*
X146268622Y-101407597D01*
X146307989Y-101452987D01*
X146309726Y-101451985D01*
X146312474Y-101456746D01*
X146417124Y-101606200D01*
X146443802Y-101644300D01*
X146605700Y-101806198D01*
X146793251Y-101937523D01*
X147000757Y-102034284D01*
X147154238Y-102075409D01*
X147214859Y-102112360D01*
X147245880Y-102176220D01*
X147237452Y-102246715D01*
X147193896Y-102300328D01*
X147100956Y-102365406D01*
X147099465Y-102363277D01*
X147044358Y-102387346D01*
X146974262Y-102376077D01*
X146956544Y-102364691D01*
X146956044Y-102365406D01*
X146926185Y-102344498D01*
X146771154Y-102235944D01*
X146771148Y-102235941D01*
X146571579Y-102142881D01*
X146571573Y-102142879D01*
X146481678Y-102118791D01*
X146358871Y-102085885D01*
X146139500Y-102066693D01*
X145920129Y-102085885D01*
X145758082Y-102129306D01*
X145687106Y-102127616D01*
X145628310Y-102087822D01*
X145600362Y-102022558D01*
X145612135Y-101952544D01*
X145653200Y-101904386D01*
X145677888Y-101887098D01*
X145132065Y-101341276D01*
X145098040Y-101278963D01*
X145103104Y-101208148D01*
X145145651Y-101151312D01*
X145163951Y-101139917D01*
X145188045Y-101127641D01*
X145277641Y-101038045D01*
X145289914Y-101013957D01*
X145338658Y-100962344D01*
X145407573Y-100945275D01*
X145474775Y-100968175D01*
G37*
%TD.AperFunction*%
%TA.AperFunction,Conductor*%
G36*
X151741850Y-100903104D02*
G01*
X151798686Y-100945651D01*
X151810084Y-100963955D01*
X151822359Y-100988045D01*
X151822361Y-100988048D01*
X151911951Y-101077638D01*
X151911953Y-101077639D01*
X151911955Y-101077641D01*
X151936042Y-101089913D01*
X151987656Y-101138661D01*
X152004722Y-101207576D01*
X151981821Y-101274778D01*
X151967933Y-101291275D01*
X151422110Y-101837097D01*
X151422110Y-101837099D01*
X151435715Y-101846625D01*
X151480045Y-101902082D01*
X151487355Y-101972701D01*
X151455324Y-102036062D01*
X151394123Y-102072047D01*
X151374428Y-102075359D01*
X151254135Y-102085883D01*
X151041426Y-102142879D01*
X151041420Y-102142881D01*
X150841846Y-102235944D01*
X150656956Y-102365406D01*
X150655465Y-102363277D01*
X150600358Y-102387346D01*
X150530262Y-102376077D01*
X150512544Y-102364691D01*
X150512044Y-102365406D01*
X150491005Y-102350674D01*
X150327154Y-102235944D01*
X150327148Y-102235941D01*
X150327148Y-102235940D01*
X150188247Y-102171171D01*
X150134961Y-102124254D01*
X150115500Y-102055977D01*
X150136041Y-101988017D01*
X150188247Y-101942781D01*
X150306747Y-101887524D01*
X150306747Y-101887523D01*
X150306749Y-101887523D01*
X150494300Y-101756198D01*
X150656198Y-101594300D01*
X150787523Y-101406749D01*
X150787523Y-101406748D01*
X150787525Y-101406746D01*
X150790274Y-101401985D01*
X150792082Y-101403028D01*
X150832990Y-101356561D01*
X150901265Y-101337095D01*
X150969227Y-101357631D01*
X151008349Y-101402779D01*
X151010161Y-101401734D01*
X151012913Y-101406501D01*
X151062899Y-101477888D01*
X151608722Y-100932065D01*
X151671035Y-100898040D01*
X151741850Y-100903104D01*
G37*
%TD.AperFunction*%
%TA.AperFunction,Conductor*%
G36*
X170410121Y-74988502D02*
G01*
X170456614Y-75042158D01*
X170468000Y-75094500D01*
X170468000Y-108443500D01*
X170447998Y-108511621D01*
X170394342Y-108558114D01*
X170342000Y-108569500D01*
X123143000Y-108569500D01*
X123074879Y-108549498D01*
X123028386Y-108495842D01*
X123017000Y-108443500D01*
X123017000Y-106200000D01*
X126286502Y-106200000D01*
X126306457Y-106428087D01*
X126325726Y-106500000D01*
X126365715Y-106649240D01*
X126365717Y-106649246D01*
X126462477Y-106856749D01*
X126589056Y-107037523D01*
X126593802Y-107044300D01*
X126755700Y-107206198D01*
X126943251Y-107337523D01*
X127150757Y-107434284D01*
X127371913Y-107493543D01*
X127600000Y-107513498D01*
X127828087Y-107493543D01*
X128049243Y-107434284D01*
X128256749Y-107337523D01*
X128444300Y-107206198D01*
X128606198Y-107044300D01*
X128737523Y-106856749D01*
X128834284Y-106649243D01*
X128893543Y-106428087D01*
X128913498Y-106200000D01*
X128893543Y-105971913D01*
X128834284Y-105750757D01*
X128737523Y-105543251D01*
X128606198Y-105355700D01*
X128444300Y-105193802D01*
X128418491Y-105175730D01*
X128256746Y-105062474D01*
X128251985Y-105059726D01*
X128253023Y-105057927D01*
X128206532Y-105016963D01*
X128187095Y-104948679D01*
X128207661Y-104880726D01*
X128252782Y-104841664D01*
X128251730Y-104839841D01*
X128256496Y-104837088D01*
X128327888Y-104787099D01*
X128327888Y-104787098D01*
X127782065Y-104241276D01*
X127748040Y-104178963D01*
X127753104Y-104108148D01*
X127795651Y-104051312D01*
X127813951Y-104039917D01*
X127838045Y-104027641D01*
X127927641Y-103938045D01*
X127939914Y-103913957D01*
X127988658Y-103862344D01*
X128057573Y-103845275D01*
X128124775Y-103868175D01*
X128141276Y-103882065D01*
X128687098Y-104427888D01*
X128687099Y-104427888D01*
X128737088Y-104356497D01*
X128833811Y-104149073D01*
X128833813Y-104149068D01*
X128893048Y-103928002D01*
X128912995Y-103700000D01*
X128893048Y-103471997D01*
X128833813Y-103250931D01*
X128833811Y-103250926D01*
X128737086Y-103043498D01*
X128687100Y-102972110D01*
X128687097Y-102972110D01*
X128141275Y-103517933D01*
X128078963Y-103551959D01*
X128008148Y-103546894D01*
X127951312Y-103504347D01*
X127939913Y-103486041D01*
X127938850Y-103483954D01*
X127927641Y-103461955D01*
X127927639Y-103461953D01*
X127927638Y-103461951D01*
X127838048Y-103372361D01*
X127838045Y-103372359D01*
X127813955Y-103360084D01*
X127762341Y-103311334D01*
X127745276Y-103242419D01*
X127768178Y-103175218D01*
X127782065Y-103158722D01*
X128327888Y-102612899D01*
X128327888Y-102612898D01*
X128256501Y-102562913D01*
X128049073Y-102466188D01*
X128049068Y-102466186D01*
X127828000Y-102406951D01*
X127828004Y-102406951D01*
X127600000Y-102387004D01*
X127371997Y-102406951D01*
X127150931Y-102466186D01*
X127150926Y-102466188D01*
X126943500Y-102562913D01*
X126872109Y-102612899D01*
X127417934Y-103158723D01*
X127451959Y-103221036D01*
X127446895Y-103291851D01*
X127404348Y-103348687D01*
X127386043Y-103360085D01*
X127361956Y-103372358D01*
X127361951Y-103372361D01*
X127272361Y-103461951D01*
X127272358Y-103461956D01*
X127260085Y-103486043D01*
X127211337Y-103537658D01*
X127142422Y-103554723D01*
X127075220Y-103531822D01*
X127058723Y-103517934D01*
X126512899Y-102972109D01*
X126462913Y-103043500D01*
X126366188Y-103250926D01*
X126366186Y-103250931D01*
X126306951Y-103471997D01*
X126287004Y-103700000D01*
X126306951Y-103928002D01*
X126366186Y-104149068D01*
X126366188Y-104149073D01*
X126462913Y-104356501D01*
X126512899Y-104427888D01*
X127058722Y-103882065D01*
X127121035Y-103848040D01*
X127191850Y-103853104D01*
X127248686Y-103895651D01*
X127260084Y-103913955D01*
X127272359Y-103938045D01*
X127272361Y-103938048D01*
X127361951Y-104027638D01*
X127361953Y-104027639D01*
X127361955Y-104027641D01*
X127386042Y-104039913D01*
X127437656Y-104088661D01*
X127454722Y-104157576D01*
X127431821Y-104224778D01*
X127417933Y-104241275D01*
X126872110Y-104787097D01*
X126872110Y-104787100D01*
X126943498Y-104837086D01*
X126948266Y-104839839D01*
X126947178Y-104841721D01*
X126993420Y-104882409D01*
X127012904Y-104950680D01*
X126992386Y-105018647D01*
X126947015Y-105057995D01*
X126948015Y-105059726D01*
X126943253Y-105062474D01*
X126755703Y-105193799D01*
X126755697Y-105193804D01*
X126593804Y-105355697D01*
X126593799Y-105355703D01*
X126462477Y-105543250D01*
X126365717Y-105750753D01*
X126365715Y-105750759D01*
X126325726Y-105899999D01*
X126306457Y-105971913D01*
X126286502Y-106200000D01*
X123017000Y-106200000D01*
X123017000Y-100198649D01*
X124968901Y-100198649D01*
X124975410Y-100259196D01*
X124975412Y-100259204D01*
X125026511Y-100396202D01*
X125026513Y-100396207D01*
X125114139Y-100513261D01*
X125231193Y-100600887D01*
X125231195Y-100600888D01*
X125231197Y-100600889D01*
X125276893Y-100617933D01*
X125368196Y-100651988D01*
X125368204Y-100651990D01*
X125428751Y-100658499D01*
X125428756Y-100658499D01*
X125428763Y-100658500D01*
X125428769Y-100658500D01*
X126726033Y-100658500D01*
X126726039Y-100658500D01*
X126726046Y-100658499D01*
X126726050Y-100658499D01*
X126786597Y-100651990D01*
X126786598Y-100651989D01*
X126786602Y-100651989D01*
X126923605Y-100600889D01*
X126969751Y-100566344D01*
X127036268Y-100541532D01*
X127090777Y-100549720D01*
X127272875Y-100620266D01*
X127272878Y-100620267D01*
X127474732Y-100658000D01*
X127680070Y-100658000D01*
X127881923Y-100620267D01*
X127881926Y-100620266D01*
X127934238Y-100600000D01*
X129336502Y-100600000D01*
X129356457Y-100828087D01*
X129369067Y-100875148D01*
X129415715Y-101049240D01*
X129415717Y-101049246D01*
X129512477Y-101256749D01*
X129614728Y-101402779D01*
X129643802Y-101444300D01*
X129805700Y-101606198D01*
X129993251Y-101737523D01*
X130200757Y-101834284D01*
X130421913Y-101893543D01*
X130510107Y-101901259D01*
X130576224Y-101927121D01*
X130617863Y-101984625D01*
X130621804Y-102055512D01*
X130588219Y-102115875D01*
X130311333Y-102392760D01*
X130298900Y-102402722D01*
X130299088Y-102402949D01*
X130292979Y-102408002D01*
X130245017Y-102459078D01*
X130223860Y-102480234D01*
X130219560Y-102485777D01*
X130215713Y-102490280D01*
X130183417Y-102524674D01*
X130183411Y-102524683D01*
X130173651Y-102542435D01*
X130162803Y-102558950D01*
X130150386Y-102574958D01*
X130131645Y-102618264D01*
X130129034Y-102623594D01*
X130106305Y-102664939D01*
X130106303Y-102664944D01*
X130101267Y-102684559D01*
X130094864Y-102703262D01*
X130086819Y-102721852D01*
X130079437Y-102768456D01*
X130078233Y-102774268D01*
X130066500Y-102819968D01*
X130066500Y-102840223D01*
X130064949Y-102859933D01*
X130061780Y-102879942D01*
X130061780Y-102879943D01*
X130066220Y-102926917D01*
X130066500Y-102932850D01*
X130066500Y-103550926D01*
X130064751Y-103566768D01*
X130065044Y-103566796D01*
X130064298Y-103574687D01*
X130066500Y-103644737D01*
X130066500Y-103674631D01*
X130066501Y-103674652D01*
X130067378Y-103681600D01*
X130067844Y-103687512D01*
X130069326Y-103734668D01*
X130069327Y-103734673D01*
X130074977Y-103754119D01*
X130078986Y-103773477D01*
X130081525Y-103793573D01*
X130081526Y-103793579D01*
X130098893Y-103837442D01*
X130100816Y-103843059D01*
X130113982Y-103888373D01*
X130124294Y-103905811D01*
X130132988Y-103923559D01*
X130140444Y-103942389D01*
X130140450Y-103942400D01*
X130168177Y-103980563D01*
X130171437Y-103985526D01*
X130195460Y-104026145D01*
X130209779Y-104040464D01*
X130222617Y-104055494D01*
X130223349Y-104056501D01*
X130234528Y-104071887D01*
X130262794Y-104095271D01*
X130270886Y-104101965D01*
X130275267Y-104105951D01*
X130459906Y-104290590D01*
X130643558Y-104474242D01*
X130677584Y-104536554D01*
X130672519Y-104607369D01*
X130629972Y-104664205D01*
X130597570Y-104681734D01*
X130594429Y-104682877D01*
X130394846Y-104775944D01*
X130214465Y-104902248D01*
X130214459Y-104902253D01*
X130058753Y-105057959D01*
X130058748Y-105057965D01*
X129932444Y-105238346D01*
X129839381Y-105437920D01*
X129839379Y-105437926D01*
X129810044Y-105547406D01*
X129782385Y-105650629D01*
X129763193Y-105870000D01*
X129780068Y-106062892D01*
X129782385Y-106089370D01*
X129839379Y-106302073D01*
X129839381Y-106302079D01*
X129929554Y-106495457D01*
X129932444Y-106501654D01*
X130035788Y-106649243D01*
X130058751Y-106682038D01*
X130058754Y-106682042D01*
X130214457Y-106837745D01*
X130214461Y-106837748D01*
X130214462Y-106837749D01*
X130394846Y-106964056D01*
X130594424Y-107057120D01*
X130807129Y-107114115D01*
X131026500Y-107133307D01*
X131245871Y-107114115D01*
X131458576Y-107057120D01*
X131658154Y-106964056D01*
X131838538Y-106837749D01*
X131838538Y-106837748D01*
X131843045Y-106834593D01*
X131844611Y-106836829D01*
X131898972Y-106812740D01*
X131969128Y-106823634D01*
X131987435Y-106835337D01*
X131987956Y-106834594D01*
X131992462Y-106837749D01*
X132172846Y-106964056D01*
X132372424Y-107057120D01*
X132585129Y-107114115D01*
X132804500Y-107133307D01*
X133023871Y-107114115D01*
X133236576Y-107057120D01*
X133436154Y-106964056D01*
X133616538Y-106837749D01*
X133616537Y-106837749D01*
X133621044Y-106834594D01*
X133622579Y-106836786D01*
X133677246Y-106812704D01*
X133747378Y-106823751D01*
X133765426Y-106835350D01*
X133765956Y-106834594D01*
X133770462Y-106837749D01*
X133950846Y-106964056D01*
X134150424Y-107057120D01*
X134363129Y-107114115D01*
X134582500Y-107133307D01*
X134801871Y-107114115D01*
X135014576Y-107057120D01*
X135214154Y-106964056D01*
X135394538Y-106837749D01*
X135394542Y-106837745D01*
X135399044Y-106834593D01*
X135400579Y-106836785D01*
X135455246Y-106812703D01*
X135525378Y-106823750D01*
X135543426Y-106835349D01*
X135543956Y-106834593D01*
X135548458Y-106837745D01*
X135548462Y-106837749D01*
X135728846Y-106964056D01*
X135928424Y-107057120D01*
X136141129Y-107114115D01*
X136360500Y-107133307D01*
X136579871Y-107114115D01*
X136792576Y-107057120D01*
X136992154Y-106964056D01*
X137172538Y-106837749D01*
X137172542Y-106837745D01*
X137177044Y-106834593D01*
X137178579Y-106836785D01*
X137233246Y-106812703D01*
X137303378Y-106823750D01*
X137321426Y-106835349D01*
X137321956Y-106834593D01*
X137326458Y-106837745D01*
X137326462Y-106837749D01*
X137506846Y-106964056D01*
X137706424Y-107057120D01*
X137919129Y-107114115D01*
X138138500Y-107133307D01*
X138357871Y-107114115D01*
X138570576Y-107057120D01*
X138770154Y-106964056D01*
X138950538Y-106837749D01*
X138950537Y-106837749D01*
X138955044Y-106834594D01*
X138956579Y-106836786D01*
X139011246Y-106812704D01*
X139081378Y-106823751D01*
X139099426Y-106835350D01*
X139099956Y-106834594D01*
X139104462Y-106837749D01*
X139284846Y-106964056D01*
X139484424Y-107057120D01*
X139697129Y-107114115D01*
X139916500Y-107133307D01*
X140135871Y-107114115D01*
X140348576Y-107057120D01*
X140548154Y-106964056D01*
X140728538Y-106837749D01*
X140728542Y-106837745D01*
X140733044Y-106834593D01*
X140734579Y-106836785D01*
X140789246Y-106812703D01*
X140859378Y-106823750D01*
X140877426Y-106835349D01*
X140877956Y-106834593D01*
X140882458Y-106837745D01*
X140882462Y-106837749D01*
X141062846Y-106964056D01*
X141262424Y-107057120D01*
X141475129Y-107114115D01*
X141694500Y-107133307D01*
X141913871Y-107114115D01*
X142126576Y-107057120D01*
X142326154Y-106964056D01*
X142506538Y-106837749D01*
X142506542Y-106837745D01*
X142511044Y-106834593D01*
X142512579Y-106836785D01*
X142567246Y-106812703D01*
X142637378Y-106823750D01*
X142655426Y-106835349D01*
X142655956Y-106834593D01*
X142660458Y-106837745D01*
X142660462Y-106837749D01*
X142840846Y-106964056D01*
X143040424Y-107057120D01*
X143253129Y-107114115D01*
X143472500Y-107133307D01*
X143691871Y-107114115D01*
X143904576Y-107057120D01*
X144104154Y-106964056D01*
X144284538Y-106837749D01*
X144284537Y-106837749D01*
X144289044Y-106834594D01*
X144290579Y-106836786D01*
X144345246Y-106812704D01*
X144415378Y-106823751D01*
X144433426Y-106835350D01*
X144433956Y-106834594D01*
X144438462Y-106837749D01*
X144618846Y-106964056D01*
X144818424Y-107057120D01*
X145031129Y-107114115D01*
X145250500Y-107133307D01*
X145469871Y-107114115D01*
X145682576Y-107057120D01*
X145882154Y-106964056D01*
X146062538Y-106837749D01*
X146062542Y-106837745D01*
X146067044Y-106834593D01*
X146068579Y-106836785D01*
X146123246Y-106812703D01*
X146193378Y-106823750D01*
X146211426Y-106835349D01*
X146211956Y-106834593D01*
X146216458Y-106837745D01*
X146216462Y-106837749D01*
X146396846Y-106964056D01*
X146596424Y-107057120D01*
X146809129Y-107114115D01*
X147028500Y-107133307D01*
X147247871Y-107114115D01*
X147460576Y-107057120D01*
X147660154Y-106964056D01*
X147840538Y-106837749D01*
X147840542Y-106837745D01*
X147845044Y-106834593D01*
X147846579Y-106836785D01*
X147901246Y-106812703D01*
X147971378Y-106823750D01*
X147989426Y-106835349D01*
X147989956Y-106834593D01*
X147994458Y-106837745D01*
X147994462Y-106837749D01*
X148174846Y-106964056D01*
X148374424Y-107057120D01*
X148587129Y-107114115D01*
X148806500Y-107133307D01*
X149025871Y-107114115D01*
X149238576Y-107057120D01*
X149438154Y-106964056D01*
X149618538Y-106837749D01*
X149618537Y-106837749D01*
X149623044Y-106834594D01*
X149624579Y-106836786D01*
X149679246Y-106812704D01*
X149749378Y-106823751D01*
X149767426Y-106835350D01*
X149767956Y-106834594D01*
X149772462Y-106837749D01*
X149952846Y-106964056D01*
X150152424Y-107057120D01*
X150365129Y-107114115D01*
X150584500Y-107133307D01*
X150803871Y-107114115D01*
X151016576Y-107057120D01*
X151216154Y-106964056D01*
X151396538Y-106837749D01*
X151552249Y-106682038D01*
X151678556Y-106501654D01*
X151771620Y-106302076D01*
X151828615Y-106089371D01*
X151845182Y-105900000D01*
X153236502Y-105900000D01*
X153256457Y-106128087D01*
X153262329Y-106150000D01*
X153315715Y-106349240D01*
X153315717Y-106349246D01*
X153412477Y-106556749D01*
X153500205Y-106682038D01*
X153543802Y-106744300D01*
X153705700Y-106906198D01*
X153893251Y-107037523D01*
X154100757Y-107134284D01*
X154321913Y-107193543D01*
X154550000Y-107213498D01*
X154778087Y-107193543D01*
X154999243Y-107134284D01*
X155206749Y-107037523D01*
X155394300Y-106906198D01*
X155556198Y-106744300D01*
X155687523Y-106556749D01*
X155731954Y-106461464D01*
X155778870Y-106408180D01*
X155847147Y-106388718D01*
X155915108Y-106409259D01*
X155961174Y-106463282D01*
X155967855Y-106482102D01*
X155971261Y-106494812D01*
X155990043Y-106564907D01*
X155990045Y-106564912D01*
X156079412Y-106756561D01*
X156200692Y-106929767D01*
X156200696Y-106929772D01*
X156200699Y-106929776D01*
X156350224Y-107079301D01*
X156350228Y-107079304D01*
X156350232Y-107079307D01*
X156523438Y-107200587D01*
X156523441Y-107200588D01*
X156523442Y-107200589D01*
X156715090Y-107289956D01*
X156919345Y-107344686D01*
X157130000Y-107363116D01*
X157340655Y-107344686D01*
X157544910Y-107289956D01*
X157736558Y-107200589D01*
X157909776Y-107079301D01*
X158059301Y-106929776D01*
X158180589Y-106756558D01*
X158269956Y-106564910D01*
X158278293Y-106533794D01*
X158315244Y-106473172D01*
X158379104Y-106442150D01*
X158449599Y-106450578D01*
X158504346Y-106495780D01*
X158521707Y-106533795D01*
X158530042Y-106564905D01*
X158530045Y-106564912D01*
X158619412Y-106756561D01*
X158740692Y-106929767D01*
X158740696Y-106929772D01*
X158740699Y-106929776D01*
X158890224Y-107079301D01*
X158890228Y-107079304D01*
X158890232Y-107079307D01*
X159063438Y-107200587D01*
X159063441Y-107200588D01*
X159063442Y-107200589D01*
X159255090Y-107289956D01*
X159459345Y-107344686D01*
X159670000Y-107363116D01*
X159880655Y-107344686D01*
X160084910Y-107289956D01*
X160276558Y-107200589D01*
X160449776Y-107079301D01*
X160599301Y-106929776D01*
X160720589Y-106756558D01*
X160809956Y-106564910D01*
X160864686Y-106360655D01*
X160874479Y-106248711D01*
X160900343Y-106182596D01*
X160946676Y-106149044D01*
X160909502Y-106127974D01*
X160876470Y-106065129D01*
X160874480Y-106051294D01*
X160864686Y-105939345D01*
X160809956Y-105735090D01*
X160720589Y-105543442D01*
X160720588Y-105543441D01*
X160720587Y-105543438D01*
X160599307Y-105370232D01*
X160599303Y-105370227D01*
X160599301Y-105370224D01*
X160449776Y-105220699D01*
X160439492Y-105213498D01*
X160405568Y-105189744D01*
X160361240Y-105134287D01*
X160353931Y-105063667D01*
X160385962Y-105000307D01*
X160405564Y-104983321D01*
X160444300Y-104956198D01*
X160606198Y-104794300D01*
X160737523Y-104606749D01*
X160834284Y-104399243D01*
X160837647Y-104386690D01*
X160874595Y-104326066D01*
X160938454Y-104295041D01*
X161008949Y-104303465D01*
X161063698Y-104348665D01*
X161073550Y-104366045D01*
X161162477Y-104556749D01*
X161275839Y-104718647D01*
X161293802Y-104744300D01*
X161455700Y-104906198D01*
X161455703Y-104906200D01*
X161455708Y-104906204D01*
X161580134Y-104993328D01*
X161624463Y-105048785D01*
X161631772Y-105119404D01*
X161599742Y-105182765D01*
X161580137Y-105199753D01*
X161550225Y-105220697D01*
X161400701Y-105370221D01*
X161400692Y-105370232D01*
X161279412Y-105543438D01*
X161190045Y-105735087D01*
X161190043Y-105735091D01*
X161157151Y-105857849D01*
X161135314Y-105939345D01*
X161125520Y-106051286D01*
X161099657Y-106117403D01*
X161053323Y-106150954D01*
X161090498Y-106172025D01*
X161123530Y-106234870D01*
X161125519Y-106248703D01*
X161135314Y-106360655D01*
X161153900Y-106430019D01*
X161190043Y-106564908D01*
X161190045Y-106564912D01*
X161279412Y-106756561D01*
X161400692Y-106929767D01*
X161400696Y-106929772D01*
X161400699Y-106929776D01*
X161550224Y-107079301D01*
X161550228Y-107079304D01*
X161550232Y-107079307D01*
X161723438Y-107200587D01*
X161723441Y-107200588D01*
X161723442Y-107200589D01*
X161915090Y-107289956D01*
X162119345Y-107344686D01*
X162330000Y-107363116D01*
X162540655Y-107344686D01*
X162744910Y-107289956D01*
X162936558Y-107200589D01*
X163109776Y-107079301D01*
X163259301Y-106929776D01*
X163380589Y-106756558D01*
X163469956Y-106564910D01*
X163478552Y-106532828D01*
X163515500Y-106472208D01*
X163579360Y-106441184D01*
X163649854Y-106449611D01*
X163704603Y-106494812D01*
X163721964Y-106532825D01*
X163730514Y-106564732D01*
X163730517Y-106564741D01*
X163819844Y-106756305D01*
X163941084Y-106929453D01*
X163941087Y-106929457D01*
X164090542Y-107078912D01*
X164090546Y-107078915D01*
X164263694Y-107200155D01*
X164455258Y-107289482D01*
X164455264Y-107289484D01*
X164616000Y-107332553D01*
X164616000Y-106609326D01*
X164636002Y-106541205D01*
X164689658Y-106494712D01*
X164759932Y-106484608D01*
X164782911Y-106490152D01*
X164811595Y-106500000D01*
X164899005Y-106500000D01*
X164977262Y-106486941D01*
X165047744Y-106495457D01*
X165102435Y-106540728D01*
X165123968Y-106608380D01*
X165124000Y-106611222D01*
X165124000Y-107332553D01*
X165284735Y-107289484D01*
X165284741Y-107289482D01*
X165476305Y-107200155D01*
X165645717Y-107081530D01*
X165712990Y-107058842D01*
X165781851Y-107076127D01*
X165830435Y-107127896D01*
X165839695Y-107152131D01*
X165865716Y-107249243D01*
X165865717Y-107249246D01*
X165962477Y-107456749D01*
X165988240Y-107493543D01*
X166093802Y-107644300D01*
X166255700Y-107806198D01*
X166443251Y-107937523D01*
X166650757Y-108034284D01*
X166871913Y-108093543D01*
X167100000Y-108113498D01*
X167328087Y-108093543D01*
X167549243Y-108034284D01*
X167756749Y-107937523D01*
X167944300Y-107806198D01*
X168106198Y-107644300D01*
X168237523Y-107456749D01*
X168334284Y-107249243D01*
X168393543Y-107028087D01*
X168413498Y-106800000D01*
X168393543Y-106571913D01*
X168376540Y-106508458D01*
X168378229Y-106437483D01*
X168409149Y-106386754D01*
X169238660Y-105557243D01*
X169251098Y-105547280D01*
X169250910Y-105547053D01*
X169257013Y-105542002D01*
X169257018Y-105542000D01*
X169304984Y-105490920D01*
X169326135Y-105469770D01*
X169330445Y-105464212D01*
X169334274Y-105459729D01*
X169366586Y-105425321D01*
X169376346Y-105407565D01*
X169387195Y-105391050D01*
X169399614Y-105375041D01*
X169418363Y-105331710D01*
X169420953Y-105326423D01*
X169443695Y-105285060D01*
X169448733Y-105265434D01*
X169455137Y-105246732D01*
X169463181Y-105228145D01*
X169470561Y-105181547D01*
X169471762Y-105175740D01*
X169483500Y-105130030D01*
X169483500Y-105109775D01*
X169485051Y-105090063D01*
X169488220Y-105070057D01*
X169484850Y-105034402D01*
X169483780Y-105023080D01*
X169483500Y-105017148D01*
X169483500Y-99014286D01*
X169485249Y-98998445D01*
X169484956Y-98998418D01*
X169485701Y-98990525D01*
X169485702Y-98990522D01*
X169483500Y-98920473D01*
X169483500Y-98890575D01*
X169482619Y-98883609D01*
X169482155Y-98877713D01*
X169480673Y-98830542D01*
X169475022Y-98811095D01*
X169471012Y-98791731D01*
X169468474Y-98771634D01*
X169451097Y-98727745D01*
X169449183Y-98722154D01*
X169436018Y-98676838D01*
X169425706Y-98659401D01*
X169417010Y-98641652D01*
X169409552Y-98622814D01*
X169381812Y-98584634D01*
X169378564Y-98579689D01*
X169354542Y-98539069D01*
X169340214Y-98524741D01*
X169327384Y-98509720D01*
X169315472Y-98493324D01*
X169315469Y-98493322D01*
X169315469Y-98493321D01*
X169279113Y-98463244D01*
X169274721Y-98459248D01*
X168848273Y-98032799D01*
X168814248Y-97970487D01*
X168819313Y-97899671D01*
X168834152Y-97871439D01*
X168900589Y-97776558D01*
X168989956Y-97584910D01*
X169044686Y-97380655D01*
X169063116Y-97170000D01*
X169044686Y-96959345D01*
X168989956Y-96755090D01*
X168900589Y-96563442D01*
X168900588Y-96563441D01*
X168900587Y-96563438D01*
X168779307Y-96390232D01*
X168779304Y-96390228D01*
X168779301Y-96390224D01*
X168629776Y-96240699D01*
X168629772Y-96240696D01*
X168629767Y-96240692D01*
X168456561Y-96119412D01*
X168264912Y-96030045D01*
X168264905Y-96030042D01*
X168241499Y-96023771D01*
X168233794Y-96021706D01*
X168173172Y-95984756D01*
X168142150Y-95920896D01*
X168150578Y-95850401D01*
X168195780Y-95795654D01*
X168233793Y-95778293D01*
X168264910Y-95769956D01*
X168456558Y-95680589D01*
X168629776Y-95559301D01*
X168779301Y-95409776D01*
X168897098Y-95241544D01*
X168900587Y-95236561D01*
X168900587Y-95236560D01*
X168900589Y-95236558D01*
X168989956Y-95044910D01*
X169044686Y-94840655D01*
X169063116Y-94630000D01*
X169044686Y-94419345D01*
X168989956Y-94215090D01*
X168900589Y-94023442D01*
X168900588Y-94023441D01*
X168900587Y-94023438D01*
X168779307Y-93850232D01*
X168779304Y-93850228D01*
X168779301Y-93850224D01*
X168629776Y-93700699D01*
X168629772Y-93700696D01*
X168629767Y-93700692D01*
X168456561Y-93579412D01*
X168264912Y-93490045D01*
X168264908Y-93490043D01*
X168156878Y-93461097D01*
X168060655Y-93435314D01*
X167850000Y-93416884D01*
X167639345Y-93435314D01*
X167627455Y-93438500D01*
X167435091Y-93490043D01*
X167435087Y-93490045D01*
X167243438Y-93579412D01*
X167070232Y-93700692D01*
X167070221Y-93700701D01*
X166920701Y-93850221D01*
X166920692Y-93850232D01*
X166799412Y-94023438D01*
X166710045Y-94215087D01*
X166710043Y-94215091D01*
X166677409Y-94336884D01*
X166657680Y-94410517D01*
X166655314Y-94419346D01*
X166636884Y-94630000D01*
X166655314Y-94840656D01*
X166656269Y-94846067D01*
X166654961Y-94846297D01*
X166653412Y-94910888D01*
X166622497Y-94961596D01*
X166436336Y-95147757D01*
X166423901Y-95157721D01*
X166424089Y-95157948D01*
X166417980Y-95163001D01*
X166370016Y-95214078D01*
X166248867Y-95335227D01*
X166248862Y-95335233D01*
X166175385Y-95429960D01*
X166175382Y-95429965D01*
X166145828Y-95498263D01*
X166100418Y-95552838D01*
X166032710Y-95574198D01*
X165964203Y-95555562D01*
X165916647Y-95502847D01*
X165904670Y-95459204D01*
X165894191Y-95339432D01*
X165839484Y-95135264D01*
X165839480Y-95135254D01*
X165750157Y-94943697D01*
X165750154Y-94943692D01*
X165715297Y-94893912D01*
X165715296Y-94893912D01*
X165204528Y-95404680D01*
X165142216Y-95438705D01*
X165071400Y-95433640D01*
X165014565Y-95391093D01*
X165009950Y-95384499D01*
X164961063Y-95309671D01*
X164860646Y-95231515D01*
X164863093Y-95228370D01*
X164826932Y-95192475D01*
X164811586Y-95123157D01*
X164836152Y-95056546D01*
X164848202Y-95042588D01*
X165356086Y-94534703D01*
X165356086Y-94534701D01*
X165306305Y-94499844D01*
X165306302Y-94499842D01*
X165114745Y-94410519D01*
X165114735Y-94410515D01*
X164910567Y-94355808D01*
X164700000Y-94337386D01*
X164489432Y-94355808D01*
X164285264Y-94410515D01*
X164285258Y-94410517D01*
X164093690Y-94499846D01*
X164043912Y-94534701D01*
X164043912Y-94534703D01*
X164555367Y-95046158D01*
X164589393Y-95108470D01*
X164584328Y-95179285D01*
X164541781Y-95236121D01*
X164526241Y-95246067D01*
X164482053Y-95269980D01*
X164482051Y-95269981D01*
X164402941Y-95355917D01*
X164402938Y-95355922D01*
X164398893Y-95365145D01*
X164353210Y-95419492D01*
X164285397Y-95440513D01*
X164216984Y-95421534D01*
X164194413Y-95403622D01*
X163684703Y-94893912D01*
X163684701Y-94893912D01*
X163649846Y-94943690D01*
X163560517Y-95135258D01*
X163560515Y-95135265D01*
X163551964Y-95167175D01*
X163515011Y-95227796D01*
X163451149Y-95258816D01*
X163380655Y-95250385D01*
X163325909Y-95205181D01*
X163308551Y-95167168D01*
X163299956Y-95135090D01*
X163210589Y-94943442D01*
X163210588Y-94943441D01*
X163210587Y-94943438D01*
X163089307Y-94770232D01*
X163089304Y-94770228D01*
X163089301Y-94770224D01*
X162939776Y-94620699D01*
X162939772Y-94620696D01*
X162939767Y-94620692D01*
X162766561Y-94499412D01*
X162574912Y-94410045D01*
X162574908Y-94410043D01*
X162480113Y-94384643D01*
X162370655Y-94355314D01*
X162160000Y-94336884D01*
X162159999Y-94336884D01*
X162054672Y-94346099D01*
X161949345Y-94355314D01*
X161904680Y-94367282D01*
X161745091Y-94410043D01*
X161745087Y-94410045D01*
X161553438Y-94499412D01*
X161380232Y-94620692D01*
X161380221Y-94620701D01*
X161230701Y-94770221D01*
X161230692Y-94770232D01*
X161109412Y-94943438D01*
X161020045Y-95135087D01*
X161020043Y-95135091D01*
X160991788Y-95240542D01*
X160965314Y-95339345D01*
X160946884Y-95550000D01*
X160965314Y-95760655D01*
X160989150Y-95849611D01*
X161019999Y-95964745D01*
X161020044Y-95964910D01*
X161025580Y-95976782D01*
X161109412Y-96156561D01*
X161230692Y-96329767D01*
X161230696Y-96329772D01*
X161230699Y-96329776D01*
X161380224Y-96479301D01*
X161380228Y-96479304D01*
X161380232Y-96479307D01*
X161553438Y-96600587D01*
X161553441Y-96600588D01*
X161553442Y-96600589D01*
X161745090Y-96689956D01*
X161949345Y-96744686D01*
X162160000Y-96763116D01*
X162370655Y-96744686D01*
X162574910Y-96689956D01*
X162766558Y-96600589D01*
X162767177Y-96600156D01*
X162904810Y-96503784D01*
X162939776Y-96479301D01*
X163089301Y-96329776D01*
X163188563Y-96188015D01*
X163210587Y-96156561D01*
X163210587Y-96156560D01*
X163210589Y-96156558D01*
X163299956Y-95964910D01*
X163308552Y-95932828D01*
X163345500Y-95872208D01*
X163409360Y-95841184D01*
X163479854Y-95849611D01*
X163534603Y-95894812D01*
X163551964Y-95932825D01*
X163560514Y-95964732D01*
X163560519Y-95964745D01*
X163649842Y-96156302D01*
X163649844Y-96156305D01*
X163684702Y-96206086D01*
X164195469Y-95695319D01*
X164257782Y-95661294D01*
X164328597Y-95666358D01*
X164385433Y-95708905D01*
X164390041Y-95715488D01*
X164438936Y-95790327D01*
X164438937Y-95790328D01*
X164438938Y-95790329D01*
X164539354Y-95868485D01*
X164536902Y-95871635D01*
X164573037Y-95907471D01*
X164588417Y-95976782D01*
X164563884Y-96043405D01*
X164551797Y-96057411D01*
X164043912Y-96565295D01*
X164043912Y-96565297D01*
X164093692Y-96600154D01*
X164093697Y-96600157D01*
X164285254Y-96689480D01*
X164285264Y-96689484D01*
X164489432Y-96744191D01*
X164700000Y-96762613D01*
X164910567Y-96744191D01*
X165114735Y-96689484D01*
X165114745Y-96689480D01*
X165306304Y-96600156D01*
X165306305Y-96600155D01*
X165356087Y-96565297D01*
X165356087Y-96565296D01*
X164844632Y-96053841D01*
X164810606Y-95991529D01*
X164815671Y-95920714D01*
X164858218Y-95863878D01*
X164873752Y-95853935D01*
X164917947Y-95830019D01*
X164921720Y-95825921D01*
X164958467Y-95786002D01*
X164997060Y-95744079D01*
X165001104Y-95734857D01*
X165046782Y-95680512D01*
X165114594Y-95659486D01*
X165183008Y-95678460D01*
X165205586Y-95696377D01*
X165715296Y-96206087D01*
X165715297Y-96206087D01*
X165750155Y-96156305D01*
X165750156Y-96156304D01*
X165839480Y-95964745D01*
X165839484Y-95964736D01*
X165858336Y-95894380D01*
X165895288Y-95833757D01*
X165959148Y-95802736D01*
X166029643Y-95811164D01*
X166084390Y-95856367D01*
X166097757Y-95887338D01*
X166099158Y-95886834D01*
X166156060Y-96044889D01*
X166169710Y-96064973D01*
X166191458Y-96132556D01*
X166191500Y-96135798D01*
X166191500Y-97510715D01*
X166189751Y-97526557D01*
X166190044Y-97526585D01*
X166189298Y-97534476D01*
X166191500Y-97604526D01*
X166191500Y-97634420D01*
X166191501Y-97634441D01*
X166192378Y-97641389D01*
X166192844Y-97647301D01*
X166194326Y-97694457D01*
X166194327Y-97694462D01*
X166199977Y-97713908D01*
X166203986Y-97733266D01*
X166206525Y-97753362D01*
X166206526Y-97753368D01*
X166223893Y-97797231D01*
X166225816Y-97802848D01*
X166238982Y-97848162D01*
X166249294Y-97865600D01*
X166257988Y-97883348D01*
X166265444Y-97902178D01*
X166265450Y-97902189D01*
X166293177Y-97940352D01*
X166296437Y-97945315D01*
X166320460Y-97985934D01*
X166334779Y-98000253D01*
X166347617Y-98015283D01*
X166357156Y-98028412D01*
X166359528Y-98031676D01*
X166387794Y-98055060D01*
X166395886Y-98061754D01*
X166400267Y-98065740D01*
X166602702Y-98268175D01*
X166801726Y-98467199D01*
X166835752Y-98529511D01*
X166830687Y-98600326D01*
X166815844Y-98628564D01*
X166749412Y-98723438D01*
X166660045Y-98915087D01*
X166660043Y-98915091D01*
X166633464Y-99014286D01*
X166605314Y-99119345D01*
X166602804Y-99148037D01*
X166586884Y-99329999D01*
X166605314Y-99540656D01*
X166606269Y-99546067D01*
X166604961Y-99546297D01*
X166603412Y-99610888D01*
X166572497Y-99661596D01*
X164604500Y-101629595D01*
X164542188Y-101663620D01*
X164515405Y-101666500D01*
X163983854Y-101666500D01*
X163968012Y-101664750D01*
X163967985Y-101665044D01*
X163960092Y-101664297D01*
X163890029Y-101666500D01*
X163860144Y-101666500D01*
X163860140Y-101666500D01*
X163860129Y-101666501D01*
X163853190Y-101667377D01*
X163847277Y-101667843D01*
X163800114Y-101669325D01*
X163800107Y-101669327D01*
X163780649Y-101674979D01*
X163761304Y-101678985D01*
X163741206Y-101681525D01*
X163741197Y-101681527D01*
X163697331Y-101698894D01*
X163691716Y-101700817D01*
X163646408Y-101713981D01*
X163628964Y-101724297D01*
X163611218Y-101732990D01*
X163592382Y-101740448D01*
X163554209Y-101768181D01*
X163549248Y-101771440D01*
X163508638Y-101795458D01*
X163494311Y-101809784D01*
X163479285Y-101822617D01*
X163462895Y-101834525D01*
X163462893Y-101834527D01*
X163432813Y-101870886D01*
X163428817Y-101875277D01*
X162713246Y-102590847D01*
X162650934Y-102624873D01*
X162591540Y-102623459D01*
X162528090Y-102606457D01*
X162300000Y-102586502D01*
X162071913Y-102606457D01*
X161850759Y-102665715D01*
X161850753Y-102665717D01*
X161643250Y-102762477D01*
X161455703Y-102893799D01*
X161455697Y-102893804D01*
X161293804Y-103055697D01*
X161293799Y-103055703D01*
X161162477Y-103243250D01*
X161065717Y-103450753D01*
X161065713Y-103450764D01*
X161062350Y-103463317D01*
X161025398Y-103523939D01*
X160961537Y-103554960D01*
X160891043Y-103546530D01*
X160836296Y-103501327D01*
X160826449Y-103483954D01*
X160793376Y-103413030D01*
X160737523Y-103293251D01*
X160606198Y-103105700D01*
X160444300Y-102943802D01*
X160411148Y-102920589D01*
X160256749Y-102812477D01*
X160049246Y-102715717D01*
X160049240Y-102715715D01*
X159886504Y-102672110D01*
X159828087Y-102656457D01*
X159600000Y-102636502D01*
X159371913Y-102656457D01*
X159150759Y-102715715D01*
X159150753Y-102715717D01*
X158943250Y-102812477D01*
X158755703Y-102943799D01*
X158755697Y-102943804D01*
X158593804Y-103105697D01*
X158593799Y-103105703D01*
X158462474Y-103293253D01*
X158459726Y-103298015D01*
X158457761Y-103296880D01*
X158417255Y-103342865D01*
X158348974Y-103362312D01*
X158281018Y-103341756D01*
X158242168Y-103296921D01*
X158240274Y-103298015D01*
X158237525Y-103293253D01*
X158106200Y-103105703D01*
X158106195Y-103105697D01*
X157944302Y-102943804D01*
X157944296Y-102943799D01*
X157756749Y-102812477D01*
X157549246Y-102715717D01*
X157549240Y-102715715D01*
X157386504Y-102672110D01*
X157328087Y-102656457D01*
X157100000Y-102636502D01*
X156871913Y-102656457D01*
X156650759Y-102715715D01*
X156650753Y-102715717D01*
X156443250Y-102812477D01*
X156255703Y-102943799D01*
X156255697Y-102943804D01*
X156093804Y-103105697D01*
X156093799Y-103105704D01*
X156054584Y-103161708D01*
X155999126Y-103206037D01*
X155928507Y-103213345D01*
X155865147Y-103181314D01*
X155829664Y-103122048D01*
X155783813Y-102950931D01*
X155783811Y-102950926D01*
X155687086Y-102743498D01*
X155637100Y-102672110D01*
X155637097Y-102672110D01*
X155091275Y-103217933D01*
X155028963Y-103251959D01*
X154958148Y-103246894D01*
X154901312Y-103204347D01*
X154889913Y-103186041D01*
X154889598Y-103185422D01*
X154877641Y-103161955D01*
X154877639Y-103161953D01*
X154877638Y-103161951D01*
X154788048Y-103072361D01*
X154788045Y-103072359D01*
X154763955Y-103060084D01*
X154712341Y-103011334D01*
X154695276Y-102942419D01*
X154718178Y-102875218D01*
X154732065Y-102858722D01*
X155277888Y-102312899D01*
X155277888Y-102312898D01*
X155206501Y-102262913D01*
X154999073Y-102166188D01*
X154999068Y-102166186D01*
X154778000Y-102106951D01*
X154778004Y-102106951D01*
X154550000Y-102087004D01*
X154321997Y-102106951D01*
X154100931Y-102166186D01*
X154100926Y-102166188D01*
X153893500Y-102262913D01*
X153822109Y-102312899D01*
X154367934Y-102858723D01*
X154401959Y-102921036D01*
X154396895Y-102991851D01*
X154354348Y-103048687D01*
X154336043Y-103060085D01*
X154311956Y-103072358D01*
X154311951Y-103072361D01*
X154222361Y-103161951D01*
X154222358Y-103161956D01*
X154210085Y-103186043D01*
X154161337Y-103237658D01*
X154092422Y-103254723D01*
X154025220Y-103231822D01*
X154008723Y-103217934D01*
X153462899Y-102672109D01*
X153412913Y-102743500D01*
X153316188Y-102950926D01*
X153316186Y-102950931D01*
X153256951Y-103171997D01*
X153237004Y-103400000D01*
X153256951Y-103628002D01*
X153316186Y-103849068D01*
X153316188Y-103849073D01*
X153412913Y-104056501D01*
X153462899Y-104127888D01*
X154008722Y-103582065D01*
X154071035Y-103548040D01*
X154141850Y-103553104D01*
X154198686Y-103595651D01*
X154210084Y-103613955D01*
X154222359Y-103638045D01*
X154222361Y-103638048D01*
X154311951Y-103727638D01*
X154311953Y-103727639D01*
X154311955Y-103727641D01*
X154336042Y-103739913D01*
X154387656Y-103788661D01*
X154404722Y-103857576D01*
X154381821Y-103924778D01*
X154367933Y-103941275D01*
X153822110Y-104487097D01*
X153822110Y-104487100D01*
X153893498Y-104537086D01*
X153898266Y-104539839D01*
X153897178Y-104541721D01*
X153943420Y-104582409D01*
X153962904Y-104650680D01*
X153942386Y-104718647D01*
X153897015Y-104757995D01*
X153898015Y-104759726D01*
X153893253Y-104762474D01*
X153705703Y-104893799D01*
X153705697Y-104893804D01*
X153543804Y-105055697D01*
X153543799Y-105055703D01*
X153412477Y-105243250D01*
X153315717Y-105450753D01*
X153315715Y-105450759D01*
X153256457Y-105671913D01*
X153248208Y-105766205D01*
X153236502Y-105900000D01*
X151845182Y-105900000D01*
X151847807Y-105870000D01*
X151828615Y-105650629D01*
X151771620Y-105437924D01*
X151678556Y-105238347D01*
X151552249Y-105057962D01*
X151396538Y-104902251D01*
X151384467Y-104893799D01*
X151266527Y-104811216D01*
X151222199Y-104755759D01*
X151214890Y-104685140D01*
X151246921Y-104621779D01*
X151308122Y-104585794D01*
X151349772Y-104582482D01*
X151473500Y-104593307D01*
X151692871Y-104574115D01*
X151905576Y-104517120D01*
X152105154Y-104424056D01*
X152285538Y-104297749D01*
X152441249Y-104142038D01*
X152567556Y-103961654D01*
X152660620Y-103762076D01*
X152717615Y-103549371D01*
X152736807Y-103330000D01*
X152717615Y-103110629D01*
X152660620Y-102897924D01*
X152567556Y-102698347D01*
X152441249Y-102517962D01*
X152285538Y-102362251D01*
X152174146Y-102284253D01*
X152129819Y-102228797D01*
X152122510Y-102158178D01*
X152154541Y-102094817D01*
X152215742Y-102058832D01*
X152235437Y-102055520D01*
X152378002Y-102043048D01*
X152599068Y-101983813D01*
X152599073Y-101983811D01*
X152806497Y-101887088D01*
X152877888Y-101837099D01*
X152877888Y-101837098D01*
X152332065Y-101291276D01*
X152298040Y-101228963D01*
X152303104Y-101158148D01*
X152345651Y-101101312D01*
X152363951Y-101089917D01*
X152388045Y-101077641D01*
X152477641Y-100988045D01*
X152489914Y-100963957D01*
X152538658Y-100912344D01*
X152607573Y-100895275D01*
X152674775Y-100918175D01*
X152691276Y-100932065D01*
X153237098Y-101477888D01*
X153237099Y-101477888D01*
X153287088Y-101406497D01*
X153383811Y-101199073D01*
X153383813Y-101199068D01*
X153443048Y-100978002D01*
X153462995Y-100750000D01*
X153443048Y-100521997D01*
X153383813Y-100300931D01*
X153383811Y-100300926D01*
X153287086Y-100093498D01*
X153237100Y-100022110D01*
X153237097Y-100022110D01*
X152691275Y-100567933D01*
X152628963Y-100601959D01*
X152558148Y-100596894D01*
X152501312Y-100554347D01*
X152489913Y-100536041D01*
X152477641Y-100511955D01*
X152477639Y-100511953D01*
X152477638Y-100511951D01*
X152388048Y-100422361D01*
X152388045Y-100422359D01*
X152363955Y-100410084D01*
X152312341Y-100361334D01*
X152295276Y-100292419D01*
X152318178Y-100225218D01*
X152332065Y-100208722D01*
X152877888Y-99662899D01*
X152877888Y-99662898D01*
X152806501Y-99612913D01*
X152599073Y-99516188D01*
X152599068Y-99516186D01*
X152378000Y-99456951D01*
X152378004Y-99456951D01*
X152150000Y-99437004D01*
X151921997Y-99456951D01*
X151700931Y-99516186D01*
X151700926Y-99516188D01*
X151493500Y-99612913D01*
X151422109Y-99662899D01*
X151967934Y-100208723D01*
X152001959Y-100271036D01*
X151996895Y-100341851D01*
X151954348Y-100398687D01*
X151936043Y-100410085D01*
X151911956Y-100422358D01*
X151911951Y-100422361D01*
X151822361Y-100511951D01*
X151822358Y-100511956D01*
X151810085Y-100536043D01*
X151761337Y-100587658D01*
X151692422Y-100604723D01*
X151625220Y-100581822D01*
X151608723Y-100567934D01*
X151062899Y-100022109D01*
X151012912Y-100093501D01*
X151010161Y-100098267D01*
X151008288Y-100097185D01*
X150967536Y-100143455D01*
X150899256Y-100162905D01*
X150831299Y-100142352D01*
X150792018Y-100097008D01*
X150790274Y-100098015D01*
X150787525Y-100093253D01*
X150656200Y-99905703D01*
X150656198Y-99905700D01*
X150494300Y-99743802D01*
X150378757Y-99662898D01*
X150306749Y-99612477D01*
X150099246Y-99515717D01*
X150099240Y-99515715D01*
X149990216Y-99486502D01*
X149878087Y-99456457D01*
X149650000Y-99436502D01*
X149421913Y-99456457D01*
X149200759Y-99515715D01*
X149200753Y-99515717D01*
X148993250Y-99612477D01*
X148805703Y-99743799D01*
X148643801Y-99905700D01*
X148643800Y-99905701D01*
X148632075Y-99922447D01*
X148576617Y-99966775D01*
X148505998Y-99974083D01*
X148442638Y-99942051D01*
X148439768Y-99939270D01*
X148294302Y-99793804D01*
X148294296Y-99793799D01*
X148106749Y-99662477D01*
X147899246Y-99565717D01*
X147899240Y-99565715D01*
X147805715Y-99540655D01*
X147678087Y-99506457D01*
X147450000Y-99486502D01*
X147221913Y-99506457D01*
X147000759Y-99565715D01*
X147000753Y-99565717D01*
X146793250Y-99662477D01*
X146605703Y-99793799D01*
X146605697Y-99793804D01*
X146443804Y-99955697D01*
X146443799Y-99955703D01*
X146312474Y-100143253D01*
X146309726Y-100148015D01*
X146307931Y-100146978D01*
X146266942Y-100193480D01*
X146198653Y-100212903D01*
X146130705Y-100192324D01*
X146091655Y-100147217D01*
X146089839Y-100148266D01*
X146087086Y-100143498D01*
X146037100Y-100072110D01*
X146037097Y-100072110D01*
X145491275Y-100617933D01*
X145428963Y-100651959D01*
X145358148Y-100646894D01*
X145301312Y-100604347D01*
X145289913Y-100586041D01*
X145277641Y-100561955D01*
X145277639Y-100561953D01*
X145277638Y-100561951D01*
X145188048Y-100472361D01*
X145188045Y-100472359D01*
X145163955Y-100460084D01*
X145112341Y-100411334D01*
X145095276Y-100342419D01*
X145118178Y-100275218D01*
X145132065Y-100258722D01*
X145677888Y-99712899D01*
X145677888Y-99712898D01*
X145606501Y-99662913D01*
X145399073Y-99566188D01*
X145399068Y-99566186D01*
X145178000Y-99506951D01*
X145178004Y-99506951D01*
X144950000Y-99487004D01*
X144721997Y-99506951D01*
X144500931Y-99566186D01*
X144500926Y-99566188D01*
X144293500Y-99662913D01*
X144222109Y-99712899D01*
X144767934Y-100258723D01*
X144801959Y-100321036D01*
X144796895Y-100391851D01*
X144754348Y-100448687D01*
X144736043Y-100460085D01*
X144711956Y-100472358D01*
X144711951Y-100472361D01*
X144622361Y-100561951D01*
X144622358Y-100561956D01*
X144610085Y-100586043D01*
X144561337Y-100637658D01*
X144492422Y-100654723D01*
X144425220Y-100631822D01*
X144408723Y-100617934D01*
X143862899Y-100072109D01*
X143812913Y-100143500D01*
X143716188Y-100350926D01*
X143716186Y-100350931D01*
X143656951Y-100571997D01*
X143637004Y-100800000D01*
X143656951Y-101028002D01*
X143716186Y-101249068D01*
X143716188Y-101249073D01*
X143812913Y-101456501D01*
X143862899Y-101527888D01*
X144408722Y-100982065D01*
X144471035Y-100948040D01*
X144541850Y-100953104D01*
X144598686Y-100995651D01*
X144610084Y-101013955D01*
X144622359Y-101038045D01*
X144622361Y-101038048D01*
X144711951Y-101127638D01*
X144711953Y-101127639D01*
X144711955Y-101127641D01*
X144736042Y-101139913D01*
X144787656Y-101188661D01*
X144804722Y-101257576D01*
X144781821Y-101324778D01*
X144767933Y-101341275D01*
X144222110Y-101887097D01*
X144224175Y-101910698D01*
X144228284Y-101915839D01*
X144235595Y-101986458D01*
X144203565Y-102049819D01*
X144144298Y-102085304D01*
X144142130Y-102085884D01*
X144142129Y-102085885D01*
X144069057Y-102105465D01*
X143929423Y-102142880D01*
X143929420Y-102142881D01*
X143729846Y-102235944D01*
X143544956Y-102365406D01*
X143543465Y-102363277D01*
X143488358Y-102387346D01*
X143418262Y-102376077D01*
X143400544Y-102364691D01*
X143400044Y-102365406D01*
X143370185Y-102344498D01*
X143215154Y-102235944D01*
X143215148Y-102235941D01*
X143015579Y-102142881D01*
X143015573Y-102142879D01*
X142925678Y-102118791D01*
X142802871Y-102085885D01*
X142583500Y-102066693D01*
X142364129Y-102085885D01*
X142151426Y-102142879D01*
X142151420Y-102142881D01*
X141951846Y-102235944D01*
X141766956Y-102365406D01*
X141765465Y-102363277D01*
X141710358Y-102387346D01*
X141640262Y-102376077D01*
X141622544Y-102364691D01*
X141622044Y-102365406D01*
X141592185Y-102344498D01*
X141437154Y-102235944D01*
X141437148Y-102235941D01*
X141237579Y-102142881D01*
X141237573Y-102142879D01*
X141147678Y-102118791D01*
X141024871Y-102085885D01*
X140805500Y-102066693D01*
X140805499Y-102066693D01*
X140586129Y-102085885D01*
X140373426Y-102142879D01*
X140373420Y-102142881D01*
X140173846Y-102235944D01*
X139988956Y-102365406D01*
X139987465Y-102363277D01*
X139932358Y-102387346D01*
X139862262Y-102376077D01*
X139844544Y-102364691D01*
X139844044Y-102365406D01*
X139814185Y-102344498D01*
X139659154Y-102235944D01*
X139659148Y-102235941D01*
X139459579Y-102142881D01*
X139459573Y-102142879D01*
X139369678Y-102118791D01*
X139246871Y-102085885D01*
X139027500Y-102066693D01*
X138808129Y-102085885D01*
X138595426Y-102142879D01*
X138595420Y-102142881D01*
X138395846Y-102235944D01*
X138210956Y-102365406D01*
X138209465Y-102363277D01*
X138154358Y-102387346D01*
X138084262Y-102376077D01*
X138066544Y-102364691D01*
X138066044Y-102365406D01*
X138036185Y-102344498D01*
X137881154Y-102235944D01*
X137881148Y-102235941D01*
X137681579Y-102142881D01*
X137681573Y-102142879D01*
X137591678Y-102118791D01*
X137468871Y-102085885D01*
X137249500Y-102066693D01*
X137030129Y-102085885D01*
X136817426Y-102142879D01*
X136817420Y-102142881D01*
X136617846Y-102235944D01*
X136432956Y-102365406D01*
X136431558Y-102363409D01*
X136375891Y-102387683D01*
X136305802Y-102376371D01*
X136288226Y-102365070D01*
X136287722Y-102365790D01*
X136102903Y-102236379D01*
X136102901Y-102236378D01*
X135903407Y-102143352D01*
X135903403Y-102143350D01*
X135725500Y-102095681D01*
X135725500Y-102817715D01*
X135705498Y-102885836D01*
X135651842Y-102932329D01*
X135581568Y-102942433D01*
X135579792Y-102942164D01*
X135502981Y-102930000D01*
X135440019Y-102930000D01*
X135363208Y-102942164D01*
X135292797Y-102933063D01*
X135238484Y-102887340D01*
X135217513Y-102819512D01*
X135217500Y-102817715D01*
X135217500Y-102095681D01*
X135039596Y-102143350D01*
X135039592Y-102143352D01*
X134840094Y-102236380D01*
X134655278Y-102365790D01*
X134653835Y-102363729D01*
X134598208Y-102387740D01*
X134528161Y-102376168D01*
X134510497Y-102364759D01*
X134510044Y-102365406D01*
X134480185Y-102344498D01*
X134325154Y-102235944D01*
X134325148Y-102235941D01*
X134125579Y-102142881D01*
X134125573Y-102142879D01*
X134035678Y-102118791D01*
X133912871Y-102085885D01*
X133693500Y-102066693D01*
X133474129Y-102085885D01*
X133261426Y-102142879D01*
X133261420Y-102142881D01*
X133061846Y-102235944D01*
X132876956Y-102365406D01*
X132875465Y-102363277D01*
X132820358Y-102387346D01*
X132750262Y-102376077D01*
X132732544Y-102364691D01*
X132732044Y-102365406D01*
X132711005Y-102350674D01*
X132547154Y-102235944D01*
X132547148Y-102235941D01*
X132547146Y-102235940D01*
X132514377Y-102220659D01*
X132461093Y-102173742D01*
X132441632Y-102105465D01*
X132462174Y-102037505D01*
X132478527Y-102017375D01*
X133200500Y-101295404D01*
X133262813Y-101261379D01*
X133289596Y-101258500D01*
X137553206Y-101258500D01*
X137576816Y-101260731D01*
X137584906Y-101262275D01*
X137642949Y-101258623D01*
X137646883Y-101258500D01*
X137664855Y-101258500D01*
X137664856Y-101258500D01*
X137682683Y-101256247D01*
X137686612Y-101255876D01*
X137744650Y-101252225D01*
X137752481Y-101249679D01*
X137775631Y-101244505D01*
X137783797Y-101243474D01*
X137837861Y-101222067D01*
X137841538Y-101220743D01*
X137896875Y-101202764D01*
X137903825Y-101198352D01*
X137924967Y-101187580D01*
X137932617Y-101184552D01*
X137979678Y-101150359D01*
X137982908Y-101148165D01*
X138032018Y-101117000D01*
X138037658Y-101110993D01*
X138055444Y-101095312D01*
X138062107Y-101090472D01*
X138099184Y-101045651D01*
X138101770Y-101042718D01*
X138141586Y-101000321D01*
X138145550Y-100993108D01*
X138158885Y-100973486D01*
X138164133Y-100967144D01*
X138188891Y-100914528D01*
X138190679Y-100911018D01*
X138218695Y-100860060D01*
X138220743Y-100852081D01*
X138228774Y-100829773D01*
X138232283Y-100822318D01*
X138243183Y-100765173D01*
X138244040Y-100761345D01*
X138246953Y-100750000D01*
X138258500Y-100705030D01*
X138258500Y-100696792D01*
X138260733Y-100673179D01*
X138262274Y-100665100D01*
X138262274Y-100665099D01*
X138262275Y-100665094D01*
X138258623Y-100607050D01*
X138258500Y-100603115D01*
X138258500Y-96381500D01*
X144201884Y-96381500D01*
X144220314Y-96592155D01*
X144229465Y-96626306D01*
X144275043Y-96796408D01*
X144275045Y-96796412D01*
X144364412Y-96988061D01*
X144485692Y-97161267D01*
X144485696Y-97161272D01*
X144485699Y-97161276D01*
X144635224Y-97310801D01*
X144635228Y-97310804D01*
X144635232Y-97310807D01*
X144808438Y-97432087D01*
X144808441Y-97432088D01*
X144808442Y-97432089D01*
X145000090Y-97521456D01*
X145204345Y-97576186D01*
X145415000Y-97594616D01*
X145625655Y-97576186D01*
X145829910Y-97521456D01*
X146021558Y-97432089D01*
X146194776Y-97310801D01*
X146344301Y-97161276D01*
X146465589Y-96988058D01*
X146554956Y-96796410D01*
X146609686Y-96592155D01*
X146619367Y-96481500D01*
X149281884Y-96481500D01*
X149300314Y-96692155D01*
X149317178Y-96755091D01*
X149355043Y-96896408D01*
X149355045Y-96896412D01*
X149444412Y-97088061D01*
X149565692Y-97261267D01*
X149565696Y-97261272D01*
X149565699Y-97261276D01*
X149715224Y-97410801D01*
X149715228Y-97410804D01*
X149715232Y-97410807D01*
X149888438Y-97532087D01*
X149888441Y-97532088D01*
X149888442Y-97532089D01*
X150080090Y-97621456D01*
X150284345Y-97676186D01*
X150495000Y-97694616D01*
X150705655Y-97676186D01*
X150909910Y-97621456D01*
X151101558Y-97532089D01*
X151116747Y-97521454D01*
X151228077Y-97443500D01*
X151274776Y-97410801D01*
X151424301Y-97261276D01*
X151545589Y-97088058D01*
X151634956Y-96896410D01*
X151689686Y-96692155D01*
X151708116Y-96481500D01*
X151699367Y-96381500D01*
X154361884Y-96381500D01*
X154380314Y-96592155D01*
X154389465Y-96626306D01*
X154435043Y-96796408D01*
X154435045Y-96796412D01*
X154524412Y-96988061D01*
X154645692Y-97161267D01*
X154645696Y-97161272D01*
X154645699Y-97161276D01*
X154795224Y-97310801D01*
X154795228Y-97310804D01*
X154795232Y-97310807D01*
X154968438Y-97432087D01*
X154968441Y-97432088D01*
X154968442Y-97432089D01*
X155160090Y-97521456D01*
X155364345Y-97576186D01*
X155575000Y-97594616D01*
X155785655Y-97576186D01*
X155989910Y-97521456D01*
X156181558Y-97432089D01*
X156354776Y-97310801D01*
X156504301Y-97161276D01*
X156625589Y-96988058D01*
X156714956Y-96796410D01*
X156769686Y-96592155D01*
X156788116Y-96381500D01*
X156769686Y-96170845D01*
X156714956Y-95966590D01*
X156625589Y-95774942D01*
X156625588Y-95774941D01*
X156625587Y-95774938D01*
X156504307Y-95601732D01*
X156504304Y-95601728D01*
X156504301Y-95601724D01*
X156354776Y-95452199D01*
X156354772Y-95452196D01*
X156354767Y-95452192D01*
X156181561Y-95330912D01*
X155989912Y-95241545D01*
X155989905Y-95241542D01*
X155966928Y-95235386D01*
X155958794Y-95233206D01*
X155898172Y-95196256D01*
X155867150Y-95132396D01*
X155875578Y-95061901D01*
X155920780Y-95007154D01*
X155958793Y-94989793D01*
X155989910Y-94981456D01*
X156181558Y-94892089D01*
X156198088Y-94880515D01*
X156246956Y-94846297D01*
X156354776Y-94770801D01*
X156504301Y-94621276D01*
X156625589Y-94448058D01*
X156714956Y-94256410D01*
X156769686Y-94052155D01*
X156788116Y-93841500D01*
X156769686Y-93630845D01*
X156714956Y-93426590D01*
X156625589Y-93234942D01*
X156625588Y-93234941D01*
X156625587Y-93234938D01*
X156504307Y-93061732D01*
X156504304Y-93061728D01*
X156504301Y-93061724D01*
X156354776Y-92912199D01*
X156354772Y-92912196D01*
X156354767Y-92912192D01*
X156181561Y-92790912D01*
X155998829Y-92705703D01*
X155989910Y-92701544D01*
X155989908Y-92701543D01*
X155895113Y-92676143D01*
X155785655Y-92646814D01*
X155575000Y-92628384D01*
X155364345Y-92646814D01*
X155309616Y-92661478D01*
X155160091Y-92701543D01*
X155160087Y-92701545D01*
X154968438Y-92790912D01*
X154795232Y-92912192D01*
X154795221Y-92912201D01*
X154645701Y-93061721D01*
X154645692Y-93061732D01*
X154524412Y-93234938D01*
X154435045Y-93426587D01*
X154435043Y-93426591D01*
X154418041Y-93490045D01*
X154384000Y-93617091D01*
X154380314Y-93630846D01*
X154366999Y-93783041D01*
X154361884Y-93841500D01*
X154380314Y-94052155D01*
X154395119Y-94107407D01*
X154435043Y-94256408D01*
X154435045Y-94256412D01*
X154524412Y-94448061D01*
X154645692Y-94621267D01*
X154645696Y-94621272D01*
X154645699Y-94621276D01*
X154795224Y-94770801D01*
X154795228Y-94770804D01*
X154795232Y-94770807D01*
X154968438Y-94892087D01*
X154968441Y-94892088D01*
X154968442Y-94892089D01*
X155160090Y-94981456D01*
X155191205Y-94989793D01*
X155251828Y-95026745D01*
X155282849Y-95090605D01*
X155274421Y-95161100D01*
X155229218Y-95215847D01*
X155191206Y-95233206D01*
X155183406Y-95235296D01*
X155160091Y-95241543D01*
X155160087Y-95241545D01*
X154968438Y-95330912D01*
X154795232Y-95452192D01*
X154795221Y-95452201D01*
X154645701Y-95601721D01*
X154645692Y-95601732D01*
X154524412Y-95774938D01*
X154435045Y-95966587D01*
X154435043Y-95966591D01*
X154408682Y-96064973D01*
X154380314Y-96170845D01*
X154361884Y-96381500D01*
X151699367Y-96381500D01*
X151689686Y-96270845D01*
X151634956Y-96066590D01*
X151545589Y-95874942D01*
X151545588Y-95874941D01*
X151545587Y-95874938D01*
X151424307Y-95701732D01*
X151424304Y-95701728D01*
X151424301Y-95701724D01*
X151274776Y-95552199D01*
X151274772Y-95552196D01*
X151274767Y-95552192D01*
X151101561Y-95430912D01*
X150909912Y-95341545D01*
X150909905Y-95341542D01*
X150886335Y-95335227D01*
X150878794Y-95333206D01*
X150818172Y-95296256D01*
X150787150Y-95232396D01*
X150795578Y-95161901D01*
X150840780Y-95107154D01*
X150878793Y-95089793D01*
X150909910Y-95081456D01*
X151101558Y-94992089D01*
X151116747Y-94981454D01*
X151185208Y-94933517D01*
X151274776Y-94870801D01*
X151424301Y-94721276D01*
X151539889Y-94556198D01*
X151545587Y-94548061D01*
X151545587Y-94548060D01*
X151545589Y-94548058D01*
X151634956Y-94356410D01*
X151689686Y-94152155D01*
X151708116Y-93941500D01*
X151689686Y-93730845D01*
X151634956Y-93526590D01*
X151545589Y-93334942D01*
X151545588Y-93334941D01*
X151545587Y-93334938D01*
X151424307Y-93161732D01*
X151424304Y-93161728D01*
X151424301Y-93161724D01*
X151274776Y-93012199D01*
X151274772Y-93012196D01*
X151274767Y-93012192D01*
X151101561Y-92890912D01*
X150909912Y-92801545D01*
X150909908Y-92801543D01*
X150815113Y-92776143D01*
X150705655Y-92746814D01*
X150495000Y-92728384D01*
X150284345Y-92746814D01*
X150275060Y-92749302D01*
X150080091Y-92801543D01*
X150080087Y-92801545D01*
X149888438Y-92890912D01*
X149715232Y-93012192D01*
X149715221Y-93012201D01*
X149565701Y-93161721D01*
X149565692Y-93161732D01*
X149444412Y-93334938D01*
X149355045Y-93526587D01*
X149355043Y-93526591D01*
X149317395Y-93667099D01*
X149300314Y-93730845D01*
X149295774Y-93782734D01*
X149282662Y-93932613D01*
X149281884Y-93941500D01*
X149300314Y-94152155D01*
X149317178Y-94215091D01*
X149355043Y-94356408D01*
X149355045Y-94356412D01*
X149444412Y-94548061D01*
X149565692Y-94721267D01*
X149565696Y-94721272D01*
X149565699Y-94721276D01*
X149715224Y-94870801D01*
X149715228Y-94870804D01*
X149715232Y-94870807D01*
X149888438Y-94992087D01*
X149888441Y-94992088D01*
X149888442Y-94992089D01*
X150080090Y-95081456D01*
X150111205Y-95089793D01*
X150171828Y-95126745D01*
X150202849Y-95190605D01*
X150194421Y-95261100D01*
X150149218Y-95315847D01*
X150111206Y-95333206D01*
X150103665Y-95335227D01*
X150080091Y-95341543D01*
X150080087Y-95341545D01*
X149888438Y-95430912D01*
X149715232Y-95552192D01*
X149715221Y-95552201D01*
X149565701Y-95701721D01*
X149565692Y-95701732D01*
X149444412Y-95874938D01*
X149355045Y-96066587D01*
X149355043Y-96066591D01*
X149322508Y-96188015D01*
X149300314Y-96270845D01*
X149281884Y-96481500D01*
X146619367Y-96481500D01*
X146628116Y-96381500D01*
X146609686Y-96170845D01*
X146554956Y-95966590D01*
X146465589Y-95774942D01*
X146465588Y-95774941D01*
X146465587Y-95774938D01*
X146344307Y-95601732D01*
X146344304Y-95601728D01*
X146344301Y-95601724D01*
X146194776Y-95452199D01*
X146194772Y-95452196D01*
X146194767Y-95452192D01*
X146021561Y-95330912D01*
X145829912Y-95241545D01*
X145829905Y-95241542D01*
X145806928Y-95235386D01*
X145798794Y-95233206D01*
X145738172Y-95196256D01*
X145707150Y-95132396D01*
X145715578Y-95061901D01*
X145760780Y-95007154D01*
X145798793Y-94989793D01*
X145829910Y-94981456D01*
X146021558Y-94892089D01*
X146038088Y-94880515D01*
X146086956Y-94846297D01*
X146194776Y-94770801D01*
X146344301Y-94621276D01*
X146465589Y-94448058D01*
X146554956Y-94256410D01*
X146609686Y-94052155D01*
X146628116Y-93841500D01*
X146609686Y-93630845D01*
X146554956Y-93426590D01*
X146465589Y-93234942D01*
X146465588Y-93234941D01*
X146465587Y-93234938D01*
X146344307Y-93061732D01*
X146344304Y-93061728D01*
X146344301Y-93061724D01*
X146194776Y-92912199D01*
X146194772Y-92912196D01*
X146194767Y-92912192D01*
X146021561Y-92790912D01*
X145838829Y-92705703D01*
X145829910Y-92701544D01*
X145829908Y-92701543D01*
X145735112Y-92676143D01*
X145625655Y-92646814D01*
X145415000Y-92628384D01*
X145204345Y-92646814D01*
X145149615Y-92661478D01*
X145000091Y-92701543D01*
X145000087Y-92701545D01*
X144808438Y-92790912D01*
X144635232Y-92912192D01*
X144635221Y-92912201D01*
X144485701Y-93061721D01*
X144485692Y-93061732D01*
X144364412Y-93234938D01*
X144275045Y-93426587D01*
X144275043Y-93426591D01*
X144258041Y-93490045D01*
X144224000Y-93617091D01*
X144220314Y-93630846D01*
X144206999Y-93783041D01*
X144201884Y-93841500D01*
X144220314Y-94052155D01*
X144235119Y-94107407D01*
X144275043Y-94256408D01*
X144275045Y-94256412D01*
X144364412Y-94448061D01*
X144485692Y-94621267D01*
X144485696Y-94621272D01*
X144485699Y-94621276D01*
X144635224Y-94770801D01*
X144635228Y-94770804D01*
X144635232Y-94770807D01*
X144808438Y-94892087D01*
X144808441Y-94892088D01*
X144808442Y-94892089D01*
X145000090Y-94981456D01*
X145031205Y-94989793D01*
X145091828Y-95026745D01*
X145122849Y-95090605D01*
X145114421Y-95161100D01*
X145069218Y-95215847D01*
X145031206Y-95233206D01*
X145023406Y-95235296D01*
X145000091Y-95241543D01*
X145000087Y-95241545D01*
X144808438Y-95330912D01*
X144635232Y-95452192D01*
X144635221Y-95452201D01*
X144485701Y-95601721D01*
X144485692Y-95601732D01*
X144364412Y-95774938D01*
X144275045Y-95966587D01*
X144275043Y-95966591D01*
X144248682Y-96064973D01*
X144220314Y-96170845D01*
X144201884Y-96381500D01*
X138258500Y-96381500D01*
X138258500Y-87808855D01*
X138260249Y-87793014D01*
X138259956Y-87792987D01*
X138260701Y-87785094D01*
X138260702Y-87785091D01*
X138258500Y-87715041D01*
X138258500Y-87685144D01*
X138257619Y-87678178D01*
X138257155Y-87672282D01*
X138255673Y-87625110D01*
X138250022Y-87605663D01*
X138246012Y-87586300D01*
X138243474Y-87566203D01*
X138226099Y-87522320D01*
X138224179Y-87516711D01*
X138219698Y-87501286D01*
X138211018Y-87471407D01*
X138200705Y-87453969D01*
X138192010Y-87436222D01*
X138184552Y-87417383D01*
X138156821Y-87379215D01*
X138153562Y-87374255D01*
X138129541Y-87333635D01*
X138115218Y-87319312D01*
X138102377Y-87304279D01*
X138090471Y-87287892D01*
X138083029Y-87281735D01*
X138054108Y-87257810D01*
X138049736Y-87253831D01*
X137809151Y-87013246D01*
X137775125Y-86950934D01*
X137776539Y-86891541D01*
X137793543Y-86828087D01*
X137813498Y-86600000D01*
X137793543Y-86371913D01*
X137734284Y-86150757D01*
X137637523Y-85943251D01*
X137506198Y-85755700D01*
X137344300Y-85593802D01*
X137344296Y-85593799D01*
X137156746Y-85462474D01*
X137151985Y-85459726D01*
X137153122Y-85457754D01*
X137107154Y-85417287D01*
X137087687Y-85349011D01*
X137108223Y-85281049D01*
X137153083Y-85242177D01*
X137151985Y-85240274D01*
X137156746Y-85237525D01*
X137165312Y-85231527D01*
X137344300Y-85106198D01*
X137506198Y-84944300D01*
X137637523Y-84756749D01*
X137734284Y-84549243D01*
X137793543Y-84328087D01*
X137813498Y-84100000D01*
X137793543Y-83871913D01*
X137734284Y-83650757D01*
X137637523Y-83443251D01*
X137506198Y-83255700D01*
X137344300Y-83093802D01*
X137309373Y-83069346D01*
X137156749Y-82962477D01*
X136949246Y-82865717D01*
X136949240Y-82865715D01*
X136855771Y-82840670D01*
X136728087Y-82806457D01*
X136500000Y-82786502D01*
X136271913Y-82806457D01*
X136050759Y-82865715D01*
X136050753Y-82865717D01*
X135843250Y-82962477D01*
X135655703Y-83093799D01*
X135655697Y-83093804D01*
X135493804Y-83255697D01*
X135493799Y-83255703D01*
X135362477Y-83443250D01*
X135294531Y-83588961D01*
X135247614Y-83642246D01*
X135179336Y-83661707D01*
X135111376Y-83641165D01*
X135066141Y-83588961D01*
X135042898Y-83539116D01*
X135035589Y-83523442D01*
X135035588Y-83523441D01*
X135035587Y-83523438D01*
X134914307Y-83350232D01*
X134914304Y-83350228D01*
X134914301Y-83350224D01*
X134764776Y-83200699D01*
X134764772Y-83200696D01*
X134764767Y-83200692D01*
X134591561Y-83079412D01*
X134399912Y-82990045D01*
X134399908Y-82990043D01*
X134305113Y-82964643D01*
X134195655Y-82935314D01*
X133985000Y-82916884D01*
X133774345Y-82935314D01*
X133719616Y-82949978D01*
X133570091Y-82990043D01*
X133570087Y-82990045D01*
X133378438Y-83079412D01*
X133205232Y-83200692D01*
X133205221Y-83200701D01*
X133055701Y-83350221D01*
X133055692Y-83350232D01*
X132934412Y-83523438D01*
X132845045Y-83715087D01*
X132845043Y-83715091D01*
X132822989Y-83797399D01*
X132790314Y-83919345D01*
X132771884Y-84130000D01*
X132790314Y-84340655D01*
X132812087Y-84421913D01*
X132845043Y-84544908D01*
X132845045Y-84544912D01*
X132934412Y-84736561D01*
X133055692Y-84909767D01*
X133055696Y-84909772D01*
X133055699Y-84909776D01*
X133205224Y-85059301D01*
X133205228Y-85059304D01*
X133205232Y-85059307D01*
X133378438Y-85180587D01*
X133378441Y-85180588D01*
X133378442Y-85180589D01*
X133570090Y-85269956D01*
X133602168Y-85278551D01*
X133662792Y-85315501D01*
X133693815Y-85379360D01*
X133685388Y-85449855D01*
X133640186Y-85504603D01*
X133602175Y-85521964D01*
X133570265Y-85530515D01*
X133570258Y-85530517D01*
X133378694Y-85619844D01*
X133205546Y-85741084D01*
X133205542Y-85741087D01*
X133056087Y-85890542D01*
X133056084Y-85890546D01*
X132934844Y-86063694D01*
X132845517Y-86255258D01*
X132845515Y-86255264D01*
X132802445Y-86416000D01*
X133521396Y-86416000D01*
X133589517Y-86436002D01*
X133636010Y-86489658D01*
X133646114Y-86559932D01*
X133643541Y-86572929D01*
X133641019Y-86582888D01*
X133641018Y-86582890D01*
X133641018Y-86582892D01*
X133631372Y-86699302D01*
X133646010Y-86757108D01*
X133648533Y-86767069D01*
X133645866Y-86838015D01*
X133605266Y-86896257D01*
X133539622Y-86923303D01*
X133526389Y-86924000D01*
X132802446Y-86924000D01*
X132845515Y-87084735D01*
X132845517Y-87084741D01*
X132934844Y-87276305D01*
X133056084Y-87449453D01*
X133056087Y-87449457D01*
X133205543Y-87598913D01*
X133260266Y-87637230D01*
X133304595Y-87692687D01*
X133311904Y-87763307D01*
X133279874Y-87826667D01*
X133260267Y-87843657D01*
X133205227Y-87882196D01*
X133205221Y-87882201D01*
X133055701Y-88031721D01*
X133055692Y-88031732D01*
X132934412Y-88204938D01*
X132845045Y-88396587D01*
X132845043Y-88396591D01*
X132826309Y-88466509D01*
X132790314Y-88600845D01*
X132771884Y-88811500D01*
X132790314Y-89022155D01*
X132819053Y-89129411D01*
X132845043Y-89226408D01*
X132845045Y-89226412D01*
X132934412Y-89418061D01*
X133055692Y-89591267D01*
X133055696Y-89591272D01*
X133055699Y-89591276D01*
X133205224Y-89740801D01*
X133205228Y-89740804D01*
X133205232Y-89740807D01*
X133378438Y-89862087D01*
X133378441Y-89862088D01*
X133378442Y-89862089D01*
X133570090Y-89951456D01*
X133602168Y-89960051D01*
X133662792Y-89997001D01*
X133693815Y-90060860D01*
X133685388Y-90131355D01*
X133640186Y-90186103D01*
X133602175Y-90203464D01*
X133570265Y-90212015D01*
X133570258Y-90212017D01*
X133378694Y-90301344D01*
X133205546Y-90422584D01*
X133205542Y-90422587D01*
X133056087Y-90572042D01*
X133056084Y-90572046D01*
X132934844Y-90745194D01*
X132845517Y-90936758D01*
X132845515Y-90936764D01*
X132802445Y-91097500D01*
X133521396Y-91097500D01*
X133589517Y-91117502D01*
X133636010Y-91171158D01*
X133646114Y-91241432D01*
X133643541Y-91254429D01*
X133641019Y-91264388D01*
X133641018Y-91264390D01*
X133641018Y-91264392D01*
X133631372Y-91380802D01*
X133646010Y-91438608D01*
X133648533Y-91448569D01*
X133645866Y-91519515D01*
X133605266Y-91577757D01*
X133539622Y-91604803D01*
X133526389Y-91605500D01*
X132802446Y-91605500D01*
X132845515Y-91766235D01*
X132845517Y-91766241D01*
X132934844Y-91957805D01*
X133056084Y-92130953D01*
X133056087Y-92130957D01*
X133205542Y-92280412D01*
X133205546Y-92280415D01*
X133258483Y-92317483D01*
X133302812Y-92372941D01*
X133310120Y-92443560D01*
X133278089Y-92506921D01*
X133258484Y-92523908D01*
X133220230Y-92550694D01*
X133220221Y-92550701D01*
X133070701Y-92700221D01*
X133070692Y-92700232D01*
X132949412Y-92873438D01*
X132860045Y-93065087D01*
X132860043Y-93065091D01*
X132820303Y-93213405D01*
X132805314Y-93269345D01*
X132786884Y-93480000D01*
X132805314Y-93690655D01*
X132817276Y-93735296D01*
X132860043Y-93894908D01*
X132860045Y-93894912D01*
X132949412Y-94086561D01*
X133070692Y-94259767D01*
X133070696Y-94259772D01*
X133070699Y-94259776D01*
X133220224Y-94409301D01*
X133220228Y-94409304D01*
X133220232Y-94409307D01*
X133393438Y-94530587D01*
X133393441Y-94530588D01*
X133393442Y-94530589D01*
X133585090Y-94619956D01*
X133617168Y-94628551D01*
X133677792Y-94665501D01*
X133708815Y-94729360D01*
X133700388Y-94799855D01*
X133655186Y-94854603D01*
X133617175Y-94871964D01*
X133585265Y-94880515D01*
X133585258Y-94880517D01*
X133393694Y-94969844D01*
X133220546Y-95091084D01*
X133220542Y-95091087D01*
X133071087Y-95240542D01*
X133071084Y-95240546D01*
X132949844Y-95413694D01*
X132860517Y-95605258D01*
X132860515Y-95605264D01*
X132817445Y-95766000D01*
X133536396Y-95766000D01*
X133604517Y-95786002D01*
X133651010Y-95839658D01*
X133661114Y-95909932D01*
X133658541Y-95922929D01*
X133656019Y-95932888D01*
X133656018Y-95932890D01*
X133656018Y-95932892D01*
X133646372Y-96049302D01*
X133661010Y-96107108D01*
X133663533Y-96117069D01*
X133660866Y-96188015D01*
X133620266Y-96246257D01*
X133554622Y-96273303D01*
X133541389Y-96274000D01*
X132817446Y-96274000D01*
X132860515Y-96434735D01*
X132860517Y-96434741D01*
X132949844Y-96626305D01*
X133071084Y-96799453D01*
X133071087Y-96799457D01*
X133220542Y-96948912D01*
X133220546Y-96948915D01*
X133393694Y-97070155D01*
X133585258Y-97159482D01*
X133585264Y-97159484D01*
X133746000Y-97202553D01*
X133746000Y-96479326D01*
X133766002Y-96411205D01*
X133819658Y-96364712D01*
X133889932Y-96354608D01*
X133912911Y-96360152D01*
X133941595Y-96370000D01*
X134029005Y-96370000D01*
X134107262Y-96356941D01*
X134177744Y-96365457D01*
X134232435Y-96410728D01*
X134253968Y-96478380D01*
X134254000Y-96481222D01*
X134254000Y-97202553D01*
X134414735Y-97159484D01*
X134414741Y-97159482D01*
X134606305Y-97070155D01*
X134779453Y-96948915D01*
X134779457Y-96948912D01*
X134928912Y-96799457D01*
X134928915Y-96799453D01*
X135050154Y-96626306D01*
X135073364Y-96576532D01*
X135120281Y-96523246D01*
X135188558Y-96503784D01*
X135256518Y-96524325D01*
X135301755Y-96576530D01*
X135362477Y-96706749D01*
X135401593Y-96762613D01*
X135493802Y-96894300D01*
X135655700Y-97056198D01*
X135843251Y-97187523D01*
X136050757Y-97284284D01*
X136271913Y-97343543D01*
X136500000Y-97363498D01*
X136728087Y-97343543D01*
X136832889Y-97315461D01*
X136903865Y-97317150D01*
X136962661Y-97356943D01*
X136990609Y-97422208D01*
X136991500Y-97437167D01*
X136991500Y-99865500D01*
X136971498Y-99933621D01*
X136917842Y-99980114D01*
X136865500Y-99991500D01*
X133058853Y-99991500D01*
X133043011Y-99989750D01*
X133042984Y-99990044D01*
X133035091Y-99989297D01*
X132965028Y-99991500D01*
X132935144Y-99991500D01*
X132935140Y-99991500D01*
X132935129Y-99991501D01*
X132928190Y-99992377D01*
X132922277Y-99992843D01*
X132875114Y-99994325D01*
X132875107Y-99994327D01*
X132855649Y-99999979D01*
X132836304Y-100003985D01*
X132816206Y-100006525D01*
X132816197Y-100006527D01*
X132772331Y-100023894D01*
X132766716Y-100025817D01*
X132721408Y-100038981D01*
X132703964Y-100049297D01*
X132686218Y-100057990D01*
X132667382Y-100065448D01*
X132629209Y-100093181D01*
X132624248Y-100096440D01*
X132583638Y-100120458D01*
X132569311Y-100134784D01*
X132554285Y-100147617D01*
X132537895Y-100159525D01*
X132537893Y-100159527D01*
X132507813Y-100195886D01*
X132503817Y-100200277D01*
X132165874Y-100538219D01*
X132103562Y-100572245D01*
X132032747Y-100567180D01*
X131975911Y-100524633D01*
X131951259Y-100460107D01*
X131943543Y-100371913D01*
X131884284Y-100150757D01*
X131787523Y-99943251D01*
X131656198Y-99755700D01*
X131494300Y-99593802D01*
X131471961Y-99578160D01*
X131306746Y-99462474D01*
X131301985Y-99459726D01*
X131303023Y-99457927D01*
X131256532Y-99416963D01*
X131237095Y-99348679D01*
X131257661Y-99280726D01*
X131302782Y-99241664D01*
X131301730Y-99239841D01*
X131306496Y-99237088D01*
X131377888Y-99187099D01*
X131377888Y-99187098D01*
X130832065Y-98641276D01*
X130798040Y-98578963D01*
X130803104Y-98508148D01*
X130845651Y-98451312D01*
X130863951Y-98439917D01*
X130888045Y-98427641D01*
X130977641Y-98338045D01*
X130989914Y-98313957D01*
X131038658Y-98262344D01*
X131107573Y-98245275D01*
X131174775Y-98268175D01*
X131191276Y-98282065D01*
X131737098Y-98827888D01*
X131737099Y-98827888D01*
X131787088Y-98756497D01*
X131883811Y-98549073D01*
X131883813Y-98549068D01*
X131943048Y-98328002D01*
X131962995Y-98100000D01*
X131943048Y-97871997D01*
X131883813Y-97650931D01*
X131883811Y-97650926D01*
X131787086Y-97443498D01*
X131737100Y-97372110D01*
X131737097Y-97372110D01*
X131191275Y-97917933D01*
X131128963Y-97951959D01*
X131058148Y-97946894D01*
X131001312Y-97904347D01*
X130989913Y-97886041D01*
X130988541Y-97883348D01*
X130977641Y-97861955D01*
X130977639Y-97861953D01*
X130977638Y-97861951D01*
X130888048Y-97772361D01*
X130888045Y-97772359D01*
X130863955Y-97760084D01*
X130812341Y-97711334D01*
X130795276Y-97642419D01*
X130818178Y-97575218D01*
X130832065Y-97558722D01*
X131377888Y-97012899D01*
X131377888Y-97012898D01*
X131306501Y-96962913D01*
X131099073Y-96866188D01*
X131099068Y-96866186D01*
X130878000Y-96806951D01*
X130878004Y-96806951D01*
X130649999Y-96787004D01*
X130421997Y-96806951D01*
X130200931Y-96866186D01*
X130200926Y-96866188D01*
X129993500Y-96962913D01*
X129922109Y-97012899D01*
X130467934Y-97558723D01*
X130501959Y-97621036D01*
X130496895Y-97691851D01*
X130454348Y-97748687D01*
X130436043Y-97760085D01*
X130411956Y-97772358D01*
X130411951Y-97772361D01*
X130322361Y-97861951D01*
X130322358Y-97861956D01*
X130310085Y-97886043D01*
X130261337Y-97937658D01*
X130192422Y-97954723D01*
X130125220Y-97931822D01*
X130108723Y-97917934D01*
X129562899Y-97372109D01*
X129512913Y-97443500D01*
X129416188Y-97650926D01*
X129416186Y-97650931D01*
X129356951Y-97871997D01*
X129337004Y-98100000D01*
X129356951Y-98328002D01*
X129416186Y-98549068D01*
X129416188Y-98549073D01*
X129512913Y-98756501D01*
X129562899Y-98827888D01*
X130108722Y-98282065D01*
X130171035Y-98248040D01*
X130241850Y-98253104D01*
X130298686Y-98295651D01*
X130310084Y-98313955D01*
X130322359Y-98338045D01*
X130322361Y-98338048D01*
X130411951Y-98427638D01*
X130411953Y-98427639D01*
X130411955Y-98427641D01*
X130436042Y-98439913D01*
X130487656Y-98488661D01*
X130504722Y-98557576D01*
X130481821Y-98624778D01*
X130467933Y-98641275D01*
X129922110Y-99187097D01*
X129922110Y-99187100D01*
X129993498Y-99237086D01*
X129998266Y-99239839D01*
X129997178Y-99241721D01*
X130043420Y-99282409D01*
X130062904Y-99350680D01*
X130042386Y-99418647D01*
X129997015Y-99457995D01*
X129998015Y-99459726D01*
X129993253Y-99462474D01*
X129805703Y-99593799D01*
X129805697Y-99593804D01*
X129643804Y-99755697D01*
X129643799Y-99755703D01*
X129512477Y-99943250D01*
X129415717Y-100150753D01*
X129415715Y-100150759D01*
X129364512Y-100341851D01*
X129356457Y-100371913D01*
X129336502Y-100600000D01*
X127934238Y-100600000D01*
X128073389Y-100546092D01*
X128073398Y-100546087D01*
X128160405Y-100492214D01*
X127685955Y-100017764D01*
X127651930Y-99955452D01*
X127656995Y-99884636D01*
X127699542Y-99827801D01*
X127708707Y-99821550D01*
X127783011Y-99775543D01*
X127850602Y-99686038D01*
X127850601Y-99686038D01*
X127857638Y-99676721D01*
X127860734Y-99679059D01*
X127894602Y-99642514D01*
X127963352Y-99624796D01*
X128030767Y-99647060D01*
X128048242Y-99661631D01*
X128523012Y-100136401D01*
X128523013Y-100136400D01*
X128523475Y-100135789D01*
X128523478Y-100135785D01*
X128615006Y-99951970D01*
X128615009Y-99951962D01*
X128671201Y-99754465D01*
X128671201Y-99754461D01*
X128690148Y-99550004D01*
X128690148Y-99549995D01*
X128671201Y-99345538D01*
X128671201Y-99345534D01*
X128615009Y-99148037D01*
X128615006Y-99148029D01*
X128523477Y-98964213D01*
X128523012Y-98963598D01*
X128044366Y-99442244D01*
X127982054Y-99476269D01*
X127911238Y-99471204D01*
X127854403Y-99428657D01*
X127842483Y-99409315D01*
X127820953Y-99366078D01*
X127820951Y-99366076D01*
X127820950Y-99366074D01*
X127738071Y-99290518D01*
X127738067Y-99290516D01*
X127730697Y-99287661D01*
X127674401Y-99244402D01*
X127650430Y-99177575D01*
X127666394Y-99108396D01*
X127687116Y-99081074D01*
X128160405Y-98607784D01*
X128073396Y-98553910D01*
X128073389Y-98553907D01*
X127881926Y-98479733D01*
X127881923Y-98479732D01*
X127680070Y-98442000D01*
X127474732Y-98442000D01*
X127272878Y-98479732D01*
X127272875Y-98479733D01*
X127090778Y-98550279D01*
X127020032Y-98556236D01*
X126969753Y-98533657D01*
X126948481Y-98517733D01*
X126923605Y-98499111D01*
X126923603Y-98499110D01*
X126923602Y-98499109D01*
X126786605Y-98448011D01*
X126786597Y-98448009D01*
X126726050Y-98441500D01*
X126726039Y-98441500D01*
X125428763Y-98441500D01*
X125428751Y-98441500D01*
X125368204Y-98448009D01*
X125368196Y-98448011D01*
X125231198Y-98499110D01*
X125231193Y-98499112D01*
X125114139Y-98586738D01*
X125026513Y-98703792D01*
X125026511Y-98703797D01*
X124975412Y-98840795D01*
X124975410Y-98840803D01*
X124968901Y-98901350D01*
X124968901Y-100198649D01*
X123017000Y-100198649D01*
X123017000Y-94232125D01*
X123037002Y-94164004D01*
X123090658Y-94117511D01*
X123160932Y-94107407D01*
X123225512Y-94136901D01*
X123260151Y-94185740D01*
X123265445Y-94199112D01*
X123265450Y-94199120D01*
X123293177Y-94237283D01*
X123296437Y-94242246D01*
X123320460Y-94282865D01*
X123334779Y-94297184D01*
X123347617Y-94312214D01*
X123357156Y-94325343D01*
X123359528Y-94328607D01*
X123370140Y-94337386D01*
X123395886Y-94358685D01*
X123400267Y-94362671D01*
X123683506Y-94645910D01*
X123952753Y-94915157D01*
X123962720Y-94927597D01*
X123962947Y-94927410D01*
X123967999Y-94933517D01*
X123968000Y-94933518D01*
X124019095Y-94981499D01*
X124040231Y-95002635D01*
X124045770Y-95006931D01*
X124050282Y-95010785D01*
X124084678Y-95043085D01*
X124084682Y-95043088D01*
X124102430Y-95052845D01*
X124118957Y-95063701D01*
X124134960Y-95076114D01*
X124178259Y-95094851D01*
X124183585Y-95097460D01*
X124224935Y-95120193D01*
X124224938Y-95120194D01*
X124224940Y-95120195D01*
X124244562Y-95125233D01*
X124263263Y-95131635D01*
X124275814Y-95137067D01*
X124281852Y-95139680D01*
X124281853Y-95139680D01*
X124281855Y-95139681D01*
X124328477Y-95147064D01*
X124334262Y-95148263D01*
X124379970Y-95160000D01*
X124400224Y-95160000D01*
X124419934Y-95161551D01*
X124422141Y-95161900D01*
X124439943Y-95164720D01*
X124473870Y-95161512D01*
X124486917Y-95160280D01*
X124492850Y-95160000D01*
X126809100Y-95160000D01*
X126877221Y-95180002D01*
X126923714Y-95233658D01*
X126924487Y-95235386D01*
X126939139Y-95268790D01*
X127062275Y-95457265D01*
X127062279Y-95457270D01*
X127214762Y-95622908D01*
X127261757Y-95659486D01*
X127392424Y-95761189D01*
X127590426Y-95868342D01*
X127590427Y-95868342D01*
X127590428Y-95868343D01*
X127682643Y-95900000D01*
X127803365Y-95941444D01*
X128025431Y-95978500D01*
X128025435Y-95978500D01*
X128250565Y-95978500D01*
X128250569Y-95978500D01*
X128472635Y-95941444D01*
X128685574Y-95868342D01*
X128883576Y-95761189D01*
X129061240Y-95622906D01*
X129213722Y-95457268D01*
X129302816Y-95320898D01*
X129356819Y-95274810D01*
X129427167Y-95265235D01*
X129491524Y-95295212D01*
X129513782Y-95320898D01*
X129602674Y-95456958D01*
X129755097Y-95622534D01*
X129932698Y-95760767D01*
X129932699Y-95760768D01*
X130130628Y-95867882D01*
X130130630Y-95867883D01*
X130343483Y-95940955D01*
X130343492Y-95940957D01*
X130424000Y-95954391D01*
X130424000Y-95234033D01*
X130444002Y-95165912D01*
X130497658Y-95119419D01*
X130567926Y-95109315D01*
X130642237Y-95120000D01*
X130713763Y-95120000D01*
X130788069Y-95109316D01*
X130858341Y-95119419D01*
X130911997Y-95165911D01*
X130932000Y-95234031D01*
X130932000Y-95954390D01*
X131012507Y-95940957D01*
X131012516Y-95940955D01*
X131225369Y-95867883D01*
X131225371Y-95867882D01*
X131423300Y-95760768D01*
X131423301Y-95760767D01*
X131600902Y-95622534D01*
X131753325Y-95456958D01*
X131876419Y-95268548D01*
X131966820Y-95062456D01*
X131966823Y-95062449D01*
X132014544Y-94874000D01*
X131292844Y-94874000D01*
X131224723Y-94853998D01*
X131178230Y-94800342D01*
X131168126Y-94730068D01*
X131171947Y-94712504D01*
X131175426Y-94700656D01*
X131178000Y-94691889D01*
X131178000Y-94548111D01*
X131174063Y-94534703D01*
X131171947Y-94527496D01*
X131171948Y-94456500D01*
X131210333Y-94396774D01*
X131274914Y-94367282D01*
X131292844Y-94366000D01*
X132014544Y-94366000D01*
X132014544Y-94365999D01*
X131966823Y-94177550D01*
X131966820Y-94177543D01*
X131876419Y-93971451D01*
X131753325Y-93783041D01*
X131600902Y-93617465D01*
X131423301Y-93479232D01*
X131423300Y-93479231D01*
X131389791Y-93461097D01*
X131339401Y-93411083D01*
X131324050Y-93341766D01*
X131348612Y-93275153D01*
X131389790Y-93239472D01*
X131423576Y-93221189D01*
X131601240Y-93082906D01*
X131753722Y-92917268D01*
X131755806Y-92914079D01*
X131782355Y-92873442D01*
X131876860Y-92728791D01*
X131967296Y-92522616D01*
X132022564Y-92304368D01*
X132041156Y-92080000D01*
X132022564Y-91855632D01*
X131984343Y-91704701D01*
X131967297Y-91637387D01*
X131967296Y-91637386D01*
X131967296Y-91637384D01*
X131876860Y-91431209D01*
X131833690Y-91365132D01*
X131753724Y-91242734D01*
X131753720Y-91242729D01*
X131601237Y-91077091D01*
X131504118Y-91001500D01*
X131423576Y-90938811D01*
X131419793Y-90936764D01*
X131390320Y-90920814D01*
X131339929Y-90870802D01*
X131324576Y-90801485D01*
X131349136Y-90734872D01*
X131390320Y-90699186D01*
X131423576Y-90681189D01*
X131601240Y-90542906D01*
X131753722Y-90377268D01*
X131876860Y-90188791D01*
X131967296Y-89982616D01*
X132022564Y-89764368D01*
X132041156Y-89540000D01*
X132022564Y-89315632D01*
X132009453Y-89263856D01*
X131967297Y-89097387D01*
X131967296Y-89097386D01*
X131967296Y-89097384D01*
X131876860Y-88891209D01*
X131870140Y-88880924D01*
X131753724Y-88702734D01*
X131753720Y-88702729D01*
X131601237Y-88537091D01*
X131510553Y-88466509D01*
X131423576Y-88398811D01*
X131419466Y-88396587D01*
X131390320Y-88380814D01*
X131339929Y-88330802D01*
X131324576Y-88261485D01*
X131349136Y-88194872D01*
X131390320Y-88159186D01*
X131423576Y-88141189D01*
X131601240Y-88002906D01*
X131753722Y-87837268D01*
X131876860Y-87648791D01*
X131967296Y-87442616D01*
X132022564Y-87224368D01*
X132041156Y-87000000D01*
X132022564Y-86775632D01*
X131967296Y-86557384D01*
X131876860Y-86351209D01*
X131870140Y-86340924D01*
X131753724Y-86162734D01*
X131753720Y-86162729D01*
X131632135Y-86030655D01*
X131601240Y-85997094D01*
X131601239Y-85997093D01*
X131601237Y-85997091D01*
X131492497Y-85912455D01*
X131423576Y-85858811D01*
X131390319Y-85840813D01*
X131339929Y-85790802D01*
X131324576Y-85721485D01*
X131349136Y-85654872D01*
X131390320Y-85619186D01*
X131423576Y-85601189D01*
X131601240Y-85462906D01*
X131753722Y-85297268D01*
X131876860Y-85108791D01*
X131967296Y-84902616D01*
X132022564Y-84684368D01*
X132041156Y-84460000D01*
X132022564Y-84235632D01*
X131987973Y-84099034D01*
X131967297Y-84017387D01*
X131967296Y-84017386D01*
X131967296Y-84017384D01*
X131876860Y-83811209D01*
X131870140Y-83800924D01*
X131753724Y-83622734D01*
X131753720Y-83622729D01*
X131632135Y-83490655D01*
X131601240Y-83457094D01*
X131601239Y-83457093D01*
X131601237Y-83457091D01*
X131481679Y-83364035D01*
X131423576Y-83318811D01*
X131395620Y-83303681D01*
X131377529Y-83293891D01*
X131327139Y-83243877D01*
X131311500Y-83183078D01*
X131311500Y-81711232D01*
X131331502Y-81643111D01*
X131365230Y-81608019D01*
X131458518Y-81542698D01*
X131539776Y-81485801D01*
X131689301Y-81336276D01*
X131802865Y-81174089D01*
X131810587Y-81163061D01*
X131810587Y-81163060D01*
X131810589Y-81163058D01*
X131897536Y-80976597D01*
X131944452Y-80923315D01*
X132012729Y-80903854D01*
X132080689Y-80924396D01*
X132126755Y-80978418D01*
X132133436Y-80997235D01*
X132135715Y-81005739D01*
X132135717Y-81005746D01*
X132232477Y-81213249D01*
X132358879Y-81393770D01*
X132363802Y-81400800D01*
X132525700Y-81562698D01*
X132713251Y-81694023D01*
X132920757Y-81790784D01*
X133141913Y-81850043D01*
X133370000Y-81869998D01*
X133598087Y-81850043D01*
X133819243Y-81790784D01*
X134026749Y-81694023D01*
X134214300Y-81562698D01*
X134376198Y-81400800D01*
X134507523Y-81213249D01*
X134507523Y-81213248D01*
X134507525Y-81213246D01*
X134510274Y-81208485D01*
X134512245Y-81209622D01*
X134552713Y-81163654D01*
X134620989Y-81144187D01*
X134688951Y-81164723D01*
X134727822Y-81209583D01*
X134729726Y-81208485D01*
X134732474Y-81213246D01*
X134863799Y-81400796D01*
X134863802Y-81400800D01*
X135025700Y-81562698D01*
X135213251Y-81694023D01*
X135420757Y-81790784D01*
X135641913Y-81850043D01*
X135870000Y-81869998D01*
X136098087Y-81850043D01*
X136319243Y-81790784D01*
X136526749Y-81694023D01*
X136714300Y-81562698D01*
X136876198Y-81400800D01*
X137007523Y-81213249D01*
X137104284Y-81005743D01*
X137163543Y-80784587D01*
X137183498Y-80556500D01*
X137163543Y-80328413D01*
X137104284Y-80107257D01*
X137007523Y-79899751D01*
X136876198Y-79712200D01*
X136714300Y-79550302D01*
X136526749Y-79418977D01*
X136404162Y-79361814D01*
X136319246Y-79322217D01*
X136319240Y-79322215D01*
X136181020Y-79285179D01*
X136098087Y-79262957D01*
X135870000Y-79243002D01*
X135869999Y-79243002D01*
X135641913Y-79262957D01*
X135420759Y-79322215D01*
X135420753Y-79322217D01*
X135213250Y-79418977D01*
X135025703Y-79550299D01*
X135025697Y-79550304D01*
X134863804Y-79712197D01*
X134863799Y-79712203D01*
X134732474Y-79899753D01*
X134729726Y-79904515D01*
X134727761Y-79903380D01*
X134687255Y-79949365D01*
X134618974Y-79968812D01*
X134551018Y-79948256D01*
X134512168Y-79903421D01*
X134510274Y-79904515D01*
X134507525Y-79899753D01*
X134376200Y-79712203D01*
X134376195Y-79712197D01*
X134214302Y-79550304D01*
X134214296Y-79550299D01*
X134026749Y-79418977D01*
X133819246Y-79322217D01*
X133819240Y-79322215D01*
X133681020Y-79285179D01*
X133598087Y-79262957D01*
X133370000Y-79243002D01*
X133141913Y-79262957D01*
X132920759Y-79322215D01*
X132920753Y-79322217D01*
X132713250Y-79418977D01*
X132525703Y-79550299D01*
X132525697Y-79550304D01*
X132363804Y-79712197D01*
X132363799Y-79712203D01*
X132232477Y-79899750D01*
X132135717Y-80107253D01*
X132135712Y-80107266D01*
X132133435Y-80115766D01*
X132096481Y-80176387D01*
X132032618Y-80207406D01*
X131962124Y-80198973D01*
X131907380Y-80153768D01*
X131897535Y-80136399D01*
X131891973Y-80124472D01*
X131810589Y-79949942D01*
X131810588Y-79949941D01*
X131810587Y-79949938D01*
X131689307Y-79776732D01*
X131689304Y-79776728D01*
X131689301Y-79776724D01*
X131539776Y-79627199D01*
X131539772Y-79627196D01*
X131539767Y-79627192D01*
X131366561Y-79505912D01*
X131184459Y-79420997D01*
X131174910Y-79416544D01*
X131174908Y-79416543D01*
X131060325Y-79385841D01*
X130970655Y-79361814D01*
X130760000Y-79343384D01*
X130549345Y-79361814D01*
X130504075Y-79373944D01*
X130345091Y-79416543D01*
X130345087Y-79416545D01*
X130153438Y-79505912D01*
X129980232Y-79627192D01*
X129980221Y-79627201D01*
X129830701Y-79776721D01*
X129830692Y-79776732D01*
X129709412Y-79949938D01*
X129620045Y-80141587D01*
X129620043Y-80141592D01*
X129611448Y-80173671D01*
X129574496Y-80234294D01*
X129510635Y-80265315D01*
X129440141Y-80256887D01*
X129385394Y-80211684D01*
X129368034Y-80173672D01*
X129359483Y-80141761D01*
X129359482Y-80141758D01*
X129270155Y-79950194D01*
X129148915Y-79777046D01*
X129148912Y-79777042D01*
X128999457Y-79627587D01*
X128999453Y-79627584D01*
X128826305Y-79506344D01*
X128634741Y-79417017D01*
X128634727Y-79417012D01*
X128474000Y-79373944D01*
X128473999Y-79373945D01*
X128473999Y-80097173D01*
X128453997Y-80165294D01*
X128400341Y-80211787D01*
X128330067Y-80221891D01*
X128307089Y-80216347D01*
X128291632Y-80211041D01*
X128278405Y-80206500D01*
X128190995Y-80206500D01*
X128112737Y-80219558D01*
X128042255Y-80211041D01*
X127987565Y-80165770D01*
X127966032Y-80098117D01*
X127966000Y-80095277D01*
X127966000Y-79373944D01*
X127965999Y-79373944D01*
X127805266Y-79417013D01*
X127613694Y-79506344D01*
X127440546Y-79627584D01*
X127440542Y-79627587D01*
X127291087Y-79777042D01*
X127291084Y-79777046D01*
X127169844Y-79950194D01*
X127080517Y-80141758D01*
X127080515Y-80141764D01*
X127037445Y-80302500D01*
X127756396Y-80302500D01*
X127824517Y-80322502D01*
X127871010Y-80376158D01*
X127881114Y-80446432D01*
X127878541Y-80459429D01*
X127876019Y-80469388D01*
X127876018Y-80469390D01*
X127876018Y-80469392D01*
X127866372Y-80585802D01*
X127881010Y-80643608D01*
X127883533Y-80653569D01*
X127880866Y-80724515D01*
X127840266Y-80782757D01*
X127774622Y-80809803D01*
X127761389Y-80810500D01*
X127037446Y-80810500D01*
X127080515Y-80971235D01*
X127080517Y-80971241D01*
X127169844Y-81162805D01*
X127291084Y-81335953D01*
X127291087Y-81335957D01*
X127440542Y-81485412D01*
X127440546Y-81485415D01*
X127613694Y-81606655D01*
X127805258Y-81695982D01*
X127805264Y-81695984D01*
X127965999Y-81739053D01*
X127966000Y-81015826D01*
X127986002Y-80947705D01*
X128039658Y-80901212D01*
X128109932Y-80891108D01*
X128132911Y-80896652D01*
X128161595Y-80906500D01*
X128249005Y-80906500D01*
X128327261Y-80893441D01*
X128397743Y-80901957D01*
X128452434Y-80947228D01*
X128473967Y-81014880D01*
X128473999Y-81017722D01*
X128473999Y-81739053D01*
X128634735Y-81695984D01*
X128634741Y-81695982D01*
X128826305Y-81606655D01*
X128999453Y-81485415D01*
X128999457Y-81485412D01*
X129148912Y-81335957D01*
X129148915Y-81335953D01*
X129270155Y-81162805D01*
X129359482Y-80971241D01*
X129359484Y-80971236D01*
X129368034Y-80939328D01*
X129404985Y-80878705D01*
X129468846Y-80847684D01*
X129539341Y-80856112D01*
X129594088Y-80901315D01*
X129611447Y-80939326D01*
X129613692Y-80947705D01*
X129620043Y-80971408D01*
X129620045Y-80971412D01*
X129709412Y-81163061D01*
X129830692Y-81336267D01*
X129830696Y-81336272D01*
X129830699Y-81336276D01*
X129916532Y-81422109D01*
X129980223Y-81485800D01*
X129990770Y-81493185D01*
X130035099Y-81548642D01*
X130044500Y-81596399D01*
X130044500Y-83183078D01*
X130024498Y-83251199D01*
X129978471Y-83293891D01*
X129932426Y-83318810D01*
X129932424Y-83318811D01*
X129754759Y-83457094D01*
X129693374Y-83523775D01*
X129632521Y-83560346D01*
X129561557Y-83558211D01*
X129503012Y-83518049D01*
X129482618Y-83482470D01*
X129438443Y-83364033D01*
X129350904Y-83247095D01*
X129233965Y-83159555D01*
X129097093Y-83108505D01*
X129036597Y-83102000D01*
X128392000Y-83102000D01*
X128391999Y-83845965D01*
X128371997Y-83914086D01*
X128318341Y-83960579D01*
X128248069Y-83970683D01*
X128186665Y-83961855D01*
X128173763Y-83960000D01*
X128102237Y-83960000D01*
X128102231Y-83960000D01*
X128027932Y-83970683D01*
X127957658Y-83960580D01*
X127904002Y-83914087D01*
X127884000Y-83845966D01*
X127884000Y-83102000D01*
X127239402Y-83102000D01*
X127178906Y-83108505D01*
X127042035Y-83159555D01*
X127042034Y-83159555D01*
X126925095Y-83247095D01*
X126837555Y-83364034D01*
X126837555Y-83364035D01*
X126786505Y-83500906D01*
X126780000Y-83561402D01*
X126780000Y-84206000D01*
X127523156Y-84206000D01*
X127591277Y-84226002D01*
X127637770Y-84279658D01*
X127647874Y-84349932D01*
X127644053Y-84367496D01*
X127638000Y-84388111D01*
X127638000Y-84531888D01*
X127644053Y-84552504D01*
X127644052Y-84623500D01*
X127605667Y-84683226D01*
X127541086Y-84712718D01*
X127523156Y-84714000D01*
X126780000Y-84714000D01*
X126780000Y-85358597D01*
X126786505Y-85419093D01*
X126837555Y-85555964D01*
X126837555Y-85555965D01*
X126925095Y-85672904D01*
X127042034Y-85760444D01*
X127157172Y-85803388D01*
X127214008Y-85845935D01*
X127238819Y-85912455D01*
X127223728Y-85981829D01*
X127205841Y-86006782D01*
X127062280Y-86162729D01*
X127062275Y-86162734D01*
X126939141Y-86351206D01*
X126848703Y-86557386D01*
X126848702Y-86557387D01*
X126793437Y-86775624D01*
X126793436Y-86775630D01*
X126793436Y-86775632D01*
X126774844Y-87000000D01*
X126789259Y-87173965D01*
X126793437Y-87224375D01*
X126848702Y-87442612D01*
X126848703Y-87442613D01*
X126848704Y-87442616D01*
X126928685Y-87624956D01*
X126939141Y-87648793D01*
X127062275Y-87837265D01*
X127062279Y-87837270D01*
X127214762Y-88002908D01*
X127251781Y-88031721D01*
X127392424Y-88141189D01*
X127425680Y-88159186D01*
X127476071Y-88209200D01*
X127491423Y-88278516D01*
X127466862Y-88345129D01*
X127425680Y-88380813D01*
X127392426Y-88398810D01*
X127392424Y-88398811D01*
X127214762Y-88537091D01*
X127062279Y-88702729D01*
X127062275Y-88702734D01*
X126939141Y-88891206D01*
X126848703Y-89097386D01*
X126848702Y-89097387D01*
X126793437Y-89315624D01*
X126793436Y-89315630D01*
X126793436Y-89315632D01*
X126774844Y-89540000D01*
X126792859Y-89757406D01*
X126793437Y-89764375D01*
X126834384Y-89926069D01*
X126831717Y-89997015D01*
X126791117Y-90055257D01*
X126725474Y-90082303D01*
X126712240Y-90083000D01*
X125483540Y-90083000D01*
X125415419Y-90062998D01*
X125368926Y-90009342D01*
X125357540Y-89957000D01*
X125357540Y-77433490D01*
X125377542Y-77365369D01*
X125394445Y-77344395D01*
X125692895Y-77045945D01*
X125755207Y-77011919D01*
X125781990Y-77009040D01*
X141755618Y-77009040D01*
X141823739Y-77029042D01*
X141870232Y-77082698D01*
X141880336Y-77152972D01*
X141858831Y-77207310D01*
X141737913Y-77379998D01*
X141641188Y-77587426D01*
X141641186Y-77587431D01*
X141581951Y-77808497D01*
X141562004Y-78036500D01*
X141581951Y-78264502D01*
X141641186Y-78485568D01*
X141641188Y-78485573D01*
X141737913Y-78693001D01*
X141787899Y-78764388D01*
X142333722Y-78218565D01*
X142396035Y-78184540D01*
X142466850Y-78189604D01*
X142523686Y-78232151D01*
X142535084Y-78250455D01*
X142547359Y-78274545D01*
X142547361Y-78274548D01*
X142636951Y-78364138D01*
X142636953Y-78364139D01*
X142636955Y-78364141D01*
X142661042Y-78376413D01*
X142712656Y-78425161D01*
X142729722Y-78494076D01*
X142706821Y-78561278D01*
X142692933Y-78577775D01*
X142147110Y-79123597D01*
X142147110Y-79123600D01*
X142218498Y-79173586D01*
X142223266Y-79176339D01*
X142222178Y-79178221D01*
X142268420Y-79218909D01*
X142287904Y-79287180D01*
X142267386Y-79355147D01*
X142222015Y-79394495D01*
X142223015Y-79396226D01*
X142218253Y-79398974D01*
X142030703Y-79530299D01*
X142030697Y-79530304D01*
X141868804Y-79692197D01*
X141868799Y-79692203D01*
X141737477Y-79879750D01*
X141640717Y-80087253D01*
X141640715Y-80087259D01*
X141601317Y-80234294D01*
X141581457Y-80308413D01*
X141561502Y-80536500D01*
X141581457Y-80764587D01*
X141595542Y-80817153D01*
X141640715Y-80985740D01*
X141640717Y-80985746D01*
X141737477Y-81193249D01*
X141837619Y-81336267D01*
X141868802Y-81380800D01*
X142030700Y-81542698D01*
X142218251Y-81674023D01*
X142425757Y-81770784D01*
X142646913Y-81830043D01*
X142875000Y-81849998D01*
X143103087Y-81830043D01*
X143324243Y-81770784D01*
X143531749Y-81674023D01*
X143719300Y-81542698D01*
X143881198Y-81380800D01*
X144012523Y-81193249D01*
X144069653Y-81070731D01*
X144116570Y-81017446D01*
X144184847Y-80997985D01*
X144252807Y-81018526D01*
X144298042Y-81070730D01*
X144304776Y-81085171D01*
X144364412Y-81213061D01*
X144485692Y-81386267D01*
X144485696Y-81386272D01*
X144485699Y-81386276D01*
X144635224Y-81535801D01*
X144635228Y-81535804D01*
X144635232Y-81535807D01*
X144808438Y-81657087D01*
X144808441Y-81657088D01*
X144808442Y-81657089D01*
X145000090Y-81746456D01*
X145204345Y-81801186D01*
X145415000Y-81819616D01*
X145625655Y-81801186D01*
X145829910Y-81746456D01*
X146021558Y-81657089D01*
X146194776Y-81535801D01*
X146344301Y-81386276D01*
X146465589Y-81213058D01*
X146554956Y-81021410D01*
X146609686Y-80817155D01*
X146628116Y-80606500D01*
X146609686Y-80395845D01*
X146554956Y-80191590D01*
X146465589Y-79999942D01*
X146465588Y-79999941D01*
X146465587Y-79999938D01*
X146344307Y-79826732D01*
X146344304Y-79826728D01*
X146344301Y-79826724D01*
X146194776Y-79677199D01*
X146194772Y-79677196D01*
X146194767Y-79677192D01*
X146021561Y-79555912D01*
X145829912Y-79466545D01*
X145829908Y-79466543D01*
X145811662Y-79461654D01*
X145797826Y-79457947D01*
X145737206Y-79420997D01*
X145706184Y-79357136D01*
X145714612Y-79286642D01*
X145759814Y-79231895D01*
X145797828Y-79214534D01*
X145829736Y-79205984D01*
X145829745Y-79205980D01*
X146021304Y-79116656D01*
X146021305Y-79116655D01*
X146071087Y-79081797D01*
X146071087Y-79081796D01*
X145559632Y-78570341D01*
X145525606Y-78508029D01*
X145530671Y-78437214D01*
X145573218Y-78380378D01*
X145588752Y-78370435D01*
X145632947Y-78346519D01*
X145712060Y-78260579D01*
X145716104Y-78251357D01*
X145761782Y-78197012D01*
X145829594Y-78175986D01*
X145898008Y-78194960D01*
X145920586Y-78212877D01*
X146430296Y-78722587D01*
X146430297Y-78722587D01*
X146465155Y-78672805D01*
X146465156Y-78672804D01*
X146554480Y-78481245D01*
X146554484Y-78481235D01*
X146609191Y-78277067D01*
X146627613Y-78066500D01*
X146609191Y-77855932D01*
X146554484Y-77651764D01*
X146554480Y-77651754D01*
X146465157Y-77460197D01*
X146465154Y-77460192D01*
X146430297Y-77410412D01*
X146430296Y-77410412D01*
X145919528Y-77921180D01*
X145857216Y-77955205D01*
X145786400Y-77950140D01*
X145729565Y-77907593D01*
X145724950Y-77900999D01*
X145676063Y-77826171D01*
X145575646Y-77748015D01*
X145578093Y-77744870D01*
X145541932Y-77708975D01*
X145526586Y-77639657D01*
X145551152Y-77573046D01*
X145563202Y-77559088D01*
X146076345Y-77045945D01*
X146138657Y-77011919D01*
X146165440Y-77009040D01*
X161238728Y-77009040D01*
X161306849Y-77029042D01*
X161327817Y-77045939D01*
X161440077Y-77158199D01*
X161474100Y-77220507D01*
X161476980Y-77247291D01*
X161476980Y-80653126D01*
X161475231Y-80668968D01*
X161475524Y-80668996D01*
X161474778Y-80676887D01*
X161476980Y-80746937D01*
X161476980Y-80776831D01*
X161476981Y-80776852D01*
X161477858Y-80783800D01*
X161478324Y-80789712D01*
X161479806Y-80836868D01*
X161479807Y-80836873D01*
X161485457Y-80856319D01*
X161489466Y-80875677D01*
X161492005Y-80895773D01*
X161492006Y-80895779D01*
X161509373Y-80939642D01*
X161511296Y-80945259D01*
X161524462Y-80990573D01*
X161534774Y-81008011D01*
X161543468Y-81025759D01*
X161550924Y-81044589D01*
X161550930Y-81044600D01*
X161578657Y-81082763D01*
X161581917Y-81087726D01*
X161605940Y-81128345D01*
X161620259Y-81142664D01*
X161633097Y-81157694D01*
X161642424Y-81170531D01*
X161645008Y-81174087D01*
X161668169Y-81193247D01*
X161681366Y-81204165D01*
X161685747Y-81208151D01*
X162413637Y-81936041D01*
X163116142Y-82638546D01*
X163150168Y-82700858D01*
X163149192Y-82758571D01*
X163120436Y-82872128D01*
X163110665Y-82990043D01*
X163101844Y-83096500D01*
X163120265Y-83318810D01*
X163120437Y-83320875D01*
X163175702Y-83539112D01*
X163175703Y-83539113D01*
X163175704Y-83539116D01*
X163266140Y-83745291D01*
X163266141Y-83745293D01*
X163312718Y-83816585D01*
X163333231Y-83884554D01*
X163313742Y-83952823D01*
X163260437Y-83999717D01*
X163207235Y-84011500D01*
X161190108Y-84011500D01*
X161121987Y-83991498D01*
X161075494Y-83937842D01*
X161065390Y-83867568D01*
X161075913Y-83832250D01*
X161083218Y-83816585D01*
X161139956Y-83694910D01*
X161194686Y-83490655D01*
X161213116Y-83280000D01*
X161194686Y-83069345D01*
X161139956Y-82865090D01*
X161050589Y-82673442D01*
X161050588Y-82673441D01*
X161050587Y-82673438D01*
X160929307Y-82500232D01*
X160929304Y-82500228D01*
X160929301Y-82500224D01*
X160779776Y-82350699D01*
X160779772Y-82350696D01*
X160779767Y-82350692D01*
X160606561Y-82229412D01*
X160414912Y-82140045D01*
X160414908Y-82140043D01*
X160320112Y-82114643D01*
X160210655Y-82085314D01*
X160000000Y-82066884D01*
X159999999Y-82066884D01*
X159894672Y-82076099D01*
X159789345Y-82085314D01*
X159758455Y-82093591D01*
X159585091Y-82140043D01*
X159585087Y-82140045D01*
X159393438Y-82229412D01*
X159220232Y-82350692D01*
X159220221Y-82350701D01*
X159070701Y-82500221D01*
X159070692Y-82500232D01*
X158949412Y-82673438D01*
X158860045Y-82865087D01*
X158860043Y-82865091D01*
X158833949Y-82962477D01*
X158805314Y-83069345D01*
X158786884Y-83280000D01*
X158805314Y-83490655D01*
X158818299Y-83539116D01*
X158846349Y-83643802D01*
X158860044Y-83694910D01*
X158907835Y-83797399D01*
X158924087Y-83832250D01*
X158934748Y-83902441D01*
X158905768Y-83967254D01*
X158846348Y-84006111D01*
X158809892Y-84011500D01*
X158659280Y-84011500D01*
X158643441Y-84009751D01*
X158643414Y-84010045D01*
X158635522Y-84009299D01*
X158565491Y-84011500D01*
X158535575Y-84011500D01*
X158528603Y-84012379D01*
X158522696Y-84012844D01*
X158475541Y-84014326D01*
X158475536Y-84014327D01*
X158456091Y-84019977D01*
X158436733Y-84023986D01*
X158416641Y-84026524D01*
X158416633Y-84026526D01*
X158372767Y-84043893D01*
X158367152Y-84045816D01*
X158321838Y-84058982D01*
X158321833Y-84058984D01*
X158304394Y-84069297D01*
X158286649Y-84077990D01*
X158267811Y-84085449D01*
X158247785Y-84100000D01*
X158229643Y-84113180D01*
X158224692Y-84116433D01*
X158184071Y-84140455D01*
X158169738Y-84154787D01*
X158154712Y-84167620D01*
X158138326Y-84179526D01*
X158138325Y-84179526D01*
X158108249Y-84215880D01*
X158104254Y-84220271D01*
X157852608Y-84471916D01*
X157790296Y-84505942D01*
X157719481Y-84500877D01*
X157662645Y-84458330D01*
X157641806Y-84415432D01*
X157634498Y-84388158D01*
X157584284Y-84200757D01*
X157487523Y-83993251D01*
X157356198Y-83805700D01*
X157194300Y-83643802D01*
X157192315Y-83642412D01*
X157006746Y-83512474D01*
X157001985Y-83509726D01*
X157003023Y-83507927D01*
X156956532Y-83466963D01*
X156937095Y-83398679D01*
X156957661Y-83330726D01*
X157002782Y-83291664D01*
X157001730Y-83289841D01*
X157006496Y-83287088D01*
X157077888Y-83237099D01*
X157077888Y-83237098D01*
X156532065Y-82691276D01*
X156498040Y-82628963D01*
X156503104Y-82558148D01*
X156545651Y-82501312D01*
X156563951Y-82489917D01*
X156588045Y-82477641D01*
X156677641Y-82388045D01*
X156689914Y-82363957D01*
X156738658Y-82312344D01*
X156807573Y-82295275D01*
X156874775Y-82318175D01*
X156891276Y-82332065D01*
X157437098Y-82877888D01*
X157437099Y-82877888D01*
X157487088Y-82806497D01*
X157583811Y-82599073D01*
X157583813Y-82599068D01*
X157643048Y-82378002D01*
X157662995Y-82150000D01*
X157643048Y-81921997D01*
X157583813Y-81700931D01*
X157583811Y-81700926D01*
X157487086Y-81493498D01*
X157437100Y-81422110D01*
X157437097Y-81422110D01*
X156891275Y-81967933D01*
X156828963Y-82001959D01*
X156758148Y-81996894D01*
X156701312Y-81954347D01*
X156689913Y-81936041D01*
X156677641Y-81911955D01*
X156677639Y-81911953D01*
X156677638Y-81911951D01*
X156588048Y-81822361D01*
X156588045Y-81822359D01*
X156563955Y-81810084D01*
X156512341Y-81761334D01*
X156495276Y-81692419D01*
X156518178Y-81625218D01*
X156532065Y-81608722D01*
X157077888Y-81062899D01*
X157077888Y-81062898D01*
X157006501Y-81012913D01*
X156799073Y-80916188D01*
X156799068Y-80916186D01*
X156578000Y-80856951D01*
X156578004Y-80856951D01*
X156350000Y-80837004D01*
X156121997Y-80856951D01*
X155900931Y-80916186D01*
X155900926Y-80916188D01*
X155693500Y-81012913D01*
X155622109Y-81062899D01*
X156167934Y-81608723D01*
X156201959Y-81671036D01*
X156196895Y-81741851D01*
X156154348Y-81798687D01*
X156136043Y-81810085D01*
X156111956Y-81822358D01*
X156111951Y-81822361D01*
X156022361Y-81911951D01*
X156022358Y-81911956D01*
X156010085Y-81936043D01*
X155961337Y-81987658D01*
X155892422Y-82004723D01*
X155825220Y-81981822D01*
X155808723Y-81967934D01*
X155262899Y-81422109D01*
X155212913Y-81493500D01*
X155116188Y-81700926D01*
X155116186Y-81700931D01*
X155056951Y-81921997D01*
X155037004Y-82150000D01*
X155056951Y-82378002D01*
X155116186Y-82599068D01*
X155116188Y-82599073D01*
X155212913Y-82806501D01*
X155262899Y-82877888D01*
X155808722Y-82332065D01*
X155871035Y-82298040D01*
X155941850Y-82303104D01*
X155998686Y-82345651D01*
X156010084Y-82363955D01*
X156022359Y-82388045D01*
X156022361Y-82388048D01*
X156111951Y-82477638D01*
X156111953Y-82477639D01*
X156111955Y-82477641D01*
X156136042Y-82489913D01*
X156187656Y-82538661D01*
X156204722Y-82607576D01*
X156181821Y-82674778D01*
X156167933Y-82691275D01*
X155622110Y-83237097D01*
X155622110Y-83237100D01*
X155693498Y-83287086D01*
X155698266Y-83289839D01*
X155697178Y-83291721D01*
X155743420Y-83332409D01*
X155762904Y-83400680D01*
X155742386Y-83468647D01*
X155697015Y-83507995D01*
X155698015Y-83509726D01*
X155693253Y-83512474D01*
X155505703Y-83643799D01*
X155505697Y-83643804D01*
X155343804Y-83805697D01*
X155343799Y-83805703D01*
X155212477Y-83993250D01*
X155115717Y-84200753D01*
X155115715Y-84200759D01*
X155065514Y-84388111D01*
X155056457Y-84421913D01*
X155036502Y-84650000D01*
X155056457Y-84878087D01*
X155063029Y-84902612D01*
X155104635Y-85057889D01*
X155102945Y-85128866D01*
X155063151Y-85187661D01*
X154997886Y-85215609D01*
X154982928Y-85216500D01*
X149713881Y-85216500D01*
X149698039Y-85214750D01*
X149698012Y-85215044D01*
X149690119Y-85214297D01*
X149620056Y-85216500D01*
X149590172Y-85216500D01*
X149590168Y-85216500D01*
X149590157Y-85216501D01*
X149583218Y-85217377D01*
X149577305Y-85217843D01*
X149530142Y-85219325D01*
X149530135Y-85219327D01*
X149510677Y-85224979D01*
X149491332Y-85228985D01*
X149471234Y-85231525D01*
X149471225Y-85231527D01*
X149427359Y-85248894D01*
X149421744Y-85250817D01*
X149376436Y-85263981D01*
X149358992Y-85274297D01*
X149341246Y-85282990D01*
X149322410Y-85290448D01*
X149284237Y-85318181D01*
X149279276Y-85321440D01*
X149238666Y-85345458D01*
X149224339Y-85359784D01*
X149209313Y-85372617D01*
X149192923Y-85384525D01*
X149192921Y-85384527D01*
X149162836Y-85420892D01*
X149158840Y-85425283D01*
X146259952Y-88324169D01*
X146197640Y-88358195D01*
X146126824Y-88353130D01*
X146090868Y-88331178D01*
X146090535Y-88331621D01*
X146086066Y-88328246D01*
X146085968Y-88328187D01*
X146085882Y-88328108D01*
X146079520Y-88324169D01*
X145911223Y-88219963D01*
X145911222Y-88219962D01*
X145911218Y-88219960D01*
X145793867Y-88174498D01*
X145719656Y-88145749D01*
X145669170Y-88136311D01*
X145517718Y-88108000D01*
X145312282Y-88108000D01*
X145191119Y-88130649D01*
X145110343Y-88145749D01*
X144983542Y-88194872D01*
X144918782Y-88219960D01*
X144918781Y-88219960D01*
X144918780Y-88219961D01*
X144918776Y-88219963D01*
X144744116Y-88328108D01*
X144592297Y-88466509D01*
X144468497Y-88630449D01*
X144468493Y-88630454D01*
X144376929Y-88814339D01*
X144376923Y-88814355D01*
X144320706Y-89011937D01*
X144301751Y-89216500D01*
X144320706Y-89421062D01*
X144376923Y-89618644D01*
X144376926Y-89618652D01*
X144412443Y-89689980D01*
X144412445Y-89689983D01*
X144424904Y-89759878D01*
X144400523Y-89821654D01*
X144364112Y-89870293D01*
X144364110Y-89870297D01*
X144313011Y-90007295D01*
X144313009Y-90007303D01*
X144306500Y-90067850D01*
X144306500Y-91365149D01*
X144313009Y-91425696D01*
X144313011Y-91425704D01*
X144364110Y-91562702D01*
X144364112Y-91562707D01*
X144451738Y-91679761D01*
X144568792Y-91767387D01*
X144568794Y-91767388D01*
X144568796Y-91767389D01*
X144627875Y-91789424D01*
X144705795Y-91818488D01*
X144705803Y-91818490D01*
X144766350Y-91824999D01*
X144766355Y-91824999D01*
X144766362Y-91825000D01*
X144766368Y-91825000D01*
X146063632Y-91825000D01*
X146063638Y-91825000D01*
X146063645Y-91824999D01*
X146063649Y-91824999D01*
X146124196Y-91818490D01*
X146124199Y-91818489D01*
X146124201Y-91818489D01*
X146140355Y-91812464D01*
X146143045Y-91811460D01*
X146261204Y-91767389D01*
X146344943Y-91704703D01*
X146378261Y-91679761D01*
X146465887Y-91562707D01*
X146465887Y-91562706D01*
X146465889Y-91562704D01*
X146516989Y-91425701D01*
X146523203Y-91367906D01*
X146523499Y-91365149D01*
X146523500Y-91365132D01*
X146523500Y-90067867D01*
X146523499Y-90067850D01*
X146516990Y-90007303D01*
X146516989Y-90007299D01*
X146513148Y-89997001D01*
X146491964Y-89940207D01*
X146486899Y-89869395D01*
X146520923Y-89807082D01*
X146563638Y-89779023D01*
X146571145Y-89776052D01*
X146609314Y-89748318D01*
X146614272Y-89745062D01*
X146654890Y-89721042D01*
X146669213Y-89706718D01*
X146684252Y-89693874D01*
X146689612Y-89689980D01*
X146700635Y-89681972D01*
X146730721Y-89645603D01*
X146734689Y-89641241D01*
X149855527Y-86520405D01*
X149917840Y-86486379D01*
X149944623Y-86483500D01*
X153527905Y-86483500D01*
X153596026Y-86503502D01*
X153642519Y-86557158D01*
X153652623Y-86627432D01*
X153623129Y-86692012D01*
X153617000Y-86698595D01*
X151646322Y-88669272D01*
X151584010Y-88703298D01*
X151513194Y-88698233D01*
X151456359Y-88655686D01*
X151444438Y-88636343D01*
X151441504Y-88630452D01*
X151441502Y-88630449D01*
X151317702Y-88466509D01*
X151165883Y-88328108D01*
X150991223Y-88219963D01*
X150991222Y-88219962D01*
X150991218Y-88219960D01*
X150873866Y-88174498D01*
X150799656Y-88145749D01*
X150749170Y-88136311D01*
X150597718Y-88108000D01*
X150392282Y-88108000D01*
X150271119Y-88130649D01*
X150190343Y-88145749D01*
X150063542Y-88194872D01*
X149998782Y-88219960D01*
X149998781Y-88219960D01*
X149998780Y-88219961D01*
X149998776Y-88219963D01*
X149824116Y-88328108D01*
X149672297Y-88466509D01*
X149548497Y-88630449D01*
X149548493Y-88630454D01*
X149456929Y-88814339D01*
X149456923Y-88814355D01*
X149400706Y-89011937D01*
X149381751Y-89216500D01*
X149400706Y-89421062D01*
X149456923Y-89618644D01*
X149456926Y-89618652D01*
X149492443Y-89689980D01*
X149492445Y-89689983D01*
X149504904Y-89759878D01*
X149480523Y-89821654D01*
X149444112Y-89870293D01*
X149444110Y-89870297D01*
X149393011Y-90007295D01*
X149393009Y-90007303D01*
X149386500Y-90067850D01*
X149386500Y-91365149D01*
X149393009Y-91425696D01*
X149393011Y-91425704D01*
X149444110Y-91562702D01*
X149444112Y-91562707D01*
X149531738Y-91679761D01*
X149648792Y-91767387D01*
X149648794Y-91767388D01*
X149648796Y-91767389D01*
X149707875Y-91789424D01*
X149785795Y-91818488D01*
X149785803Y-91818490D01*
X149846350Y-91824999D01*
X149846355Y-91824999D01*
X149846362Y-91825000D01*
X149846368Y-91825000D01*
X151143632Y-91825000D01*
X151143638Y-91825000D01*
X151143645Y-91824999D01*
X151143649Y-91824999D01*
X151204196Y-91818490D01*
X151204199Y-91818489D01*
X151204201Y-91818489D01*
X151220355Y-91812464D01*
X151223045Y-91811460D01*
X151341204Y-91767389D01*
X151424943Y-91704703D01*
X151458261Y-91679761D01*
X151545887Y-91562707D01*
X151545887Y-91562706D01*
X151545889Y-91562704D01*
X151596989Y-91425701D01*
X151603203Y-91367906D01*
X151603499Y-91365149D01*
X151603500Y-91365132D01*
X151603500Y-90556094D01*
X151623502Y-90487973D01*
X151640405Y-90466999D01*
X152890904Y-89216500D01*
X154461751Y-89216500D01*
X154480706Y-89421062D01*
X154536923Y-89618644D01*
X154536926Y-89618652D01*
X154572443Y-89689980D01*
X154572445Y-89689983D01*
X154584904Y-89759878D01*
X154560523Y-89821654D01*
X154524112Y-89870293D01*
X154524110Y-89870297D01*
X154473011Y-90007295D01*
X154473009Y-90007303D01*
X154466500Y-90067850D01*
X154466500Y-91365149D01*
X154473009Y-91425696D01*
X154473011Y-91425704D01*
X154524110Y-91562702D01*
X154524112Y-91562707D01*
X154611738Y-91679761D01*
X154728792Y-91767387D01*
X154728794Y-91767388D01*
X154728796Y-91767389D01*
X154787875Y-91789424D01*
X154865795Y-91818488D01*
X154865803Y-91818490D01*
X154926350Y-91824999D01*
X154926355Y-91824999D01*
X154926362Y-91825000D01*
X154926368Y-91825000D01*
X156223632Y-91825000D01*
X156223638Y-91825000D01*
X156223645Y-91824999D01*
X156223649Y-91824999D01*
X156284196Y-91818490D01*
X156284199Y-91818489D01*
X156284201Y-91818489D01*
X156300355Y-91812464D01*
X156303045Y-91811460D01*
X156421204Y-91767389D01*
X156504943Y-91704703D01*
X156538261Y-91679761D01*
X156625887Y-91562707D01*
X156625887Y-91562706D01*
X156625889Y-91562704D01*
X156676989Y-91425701D01*
X156683203Y-91367906D01*
X156683499Y-91365149D01*
X156683500Y-91365132D01*
X156683500Y-90180000D01*
X158636884Y-90180000D01*
X158655314Y-90390655D01*
X158675770Y-90466999D01*
X158710043Y-90594908D01*
X158710045Y-90594912D01*
X158799412Y-90786561D01*
X158920692Y-90959767D01*
X158920696Y-90959772D01*
X158920699Y-90959776D01*
X159070224Y-91109301D01*
X159070228Y-91109304D01*
X159070232Y-91109307D01*
X159243438Y-91230587D01*
X159243441Y-91230588D01*
X159243442Y-91230589D01*
X159435090Y-91319956D01*
X159467168Y-91328551D01*
X159527792Y-91365501D01*
X159558815Y-91429360D01*
X159550388Y-91499855D01*
X159505186Y-91554603D01*
X159467175Y-91571964D01*
X159435265Y-91580515D01*
X159435258Y-91580517D01*
X159243690Y-91669846D01*
X159193912Y-91704701D01*
X159193912Y-91704703D01*
X159705367Y-92216158D01*
X159739393Y-92278470D01*
X159734328Y-92349285D01*
X159691781Y-92406121D01*
X159676241Y-92416067D01*
X159632053Y-92439980D01*
X159632051Y-92439981D01*
X159552941Y-92525917D01*
X159552938Y-92525922D01*
X159548893Y-92535145D01*
X159503210Y-92589492D01*
X159435397Y-92610513D01*
X159366984Y-92591534D01*
X159344413Y-92573622D01*
X158834703Y-92063912D01*
X158834701Y-92063912D01*
X158799846Y-92113690D01*
X158710517Y-92305258D01*
X158710515Y-92305264D01*
X158655808Y-92509432D01*
X158637386Y-92720000D01*
X158655808Y-92930567D01*
X158710515Y-93134735D01*
X158710519Y-93134745D01*
X158799842Y-93326302D01*
X158799844Y-93326305D01*
X158834702Y-93376086D01*
X159345469Y-92865319D01*
X159407782Y-92831294D01*
X159478597Y-92836358D01*
X159535433Y-92878905D01*
X159540041Y-92885488D01*
X159588936Y-92960327D01*
X159588937Y-92960328D01*
X159588938Y-92960329D01*
X159689354Y-93038485D01*
X159686902Y-93041635D01*
X159723037Y-93077471D01*
X159738417Y-93146782D01*
X159713884Y-93213405D01*
X159701797Y-93227411D01*
X159193912Y-93735295D01*
X159193912Y-93735297D01*
X159243692Y-93770154D01*
X159243697Y-93770157D01*
X159435254Y-93859480D01*
X159435264Y-93859484D01*
X159639432Y-93914191D01*
X159850000Y-93932613D01*
X160060567Y-93914191D01*
X160264735Y-93859484D01*
X160264745Y-93859480D01*
X160456304Y-93770156D01*
X160456305Y-93770155D01*
X160506087Y-93735297D01*
X160506087Y-93735296D01*
X159994632Y-93223841D01*
X159960606Y-93161529D01*
X159965671Y-93090714D01*
X160008218Y-93033878D01*
X160023752Y-93023935D01*
X160067947Y-93000019D01*
X160147060Y-92914079D01*
X160151104Y-92904857D01*
X160196782Y-92850512D01*
X160264594Y-92829486D01*
X160333008Y-92848460D01*
X160355586Y-92866377D01*
X160865296Y-93376087D01*
X160865297Y-93376087D01*
X160900155Y-93326305D01*
X160900156Y-93326304D01*
X160989480Y-93134745D01*
X160989484Y-93134735D01*
X161044191Y-92930567D01*
X161062613Y-92720000D01*
X161044191Y-92509432D01*
X160989484Y-92305264D01*
X160989480Y-92305254D01*
X160900157Y-92113697D01*
X160900154Y-92113692D01*
X160865297Y-92063912D01*
X160865296Y-92063912D01*
X160354528Y-92574680D01*
X160292216Y-92608705D01*
X160221400Y-92603640D01*
X160164565Y-92561093D01*
X160159950Y-92554499D01*
X160157467Y-92550699D01*
X160111064Y-92479673D01*
X160111063Y-92479671D01*
X160010646Y-92401515D01*
X160013093Y-92398370D01*
X159976932Y-92362475D01*
X159961586Y-92293157D01*
X159986152Y-92226546D01*
X159998202Y-92212588D01*
X160506086Y-91704703D01*
X160506086Y-91704701D01*
X160456305Y-91669844D01*
X160456302Y-91669842D01*
X160264745Y-91580519D01*
X160264732Y-91580514D01*
X160232825Y-91571964D01*
X160172203Y-91535011D01*
X160141183Y-91471150D01*
X160149613Y-91400656D01*
X160194817Y-91345910D01*
X160232825Y-91328553D01*
X160264910Y-91319956D01*
X160456558Y-91230589D01*
X160629776Y-91109301D01*
X160779301Y-90959776D01*
X160900589Y-90786558D01*
X160989956Y-90594910D01*
X161044686Y-90390655D01*
X161063116Y-90180000D01*
X161044686Y-89969345D01*
X160989956Y-89765090D01*
X160900589Y-89573442D01*
X160900588Y-89573441D01*
X160900587Y-89573438D01*
X160779307Y-89400232D01*
X160779304Y-89400228D01*
X160779301Y-89400224D01*
X160629776Y-89250699D01*
X160629772Y-89250696D01*
X160629767Y-89250692D01*
X160456561Y-89129412D01*
X160264912Y-89040045D01*
X160264908Y-89040043D01*
X160166847Y-89013768D01*
X160060655Y-88985314D01*
X159850000Y-88966884D01*
X159639345Y-88985314D01*
X159584615Y-88999978D01*
X159435091Y-89040043D01*
X159435087Y-89040045D01*
X159243438Y-89129412D01*
X159070232Y-89250692D01*
X159070221Y-89250701D01*
X158920701Y-89400221D01*
X158920692Y-89400232D01*
X158799412Y-89573438D01*
X158710045Y-89765087D01*
X158710043Y-89765091D01*
X158679460Y-89879232D01*
X158655314Y-89969345D01*
X158636884Y-90180000D01*
X156683500Y-90180000D01*
X156683500Y-90067867D01*
X156683499Y-90067850D01*
X156676990Y-90007303D01*
X156676988Y-90007295D01*
X156625890Y-89870299D01*
X156625889Y-89870297D01*
X156625889Y-89870296D01*
X156589474Y-89821652D01*
X156564665Y-89755135D01*
X156577554Y-89689983D01*
X156613074Y-89618652D01*
X156669294Y-89421059D01*
X156688249Y-89216500D01*
X156669294Y-89011941D01*
X156613074Y-88814348D01*
X156611656Y-88811500D01*
X156521506Y-88630454D01*
X156521502Y-88630449D01*
X156397702Y-88466509D01*
X156245883Y-88328108D01*
X156071223Y-88219963D01*
X156071222Y-88219962D01*
X156071218Y-88219960D01*
X155953867Y-88174498D01*
X155879656Y-88145749D01*
X155829170Y-88136311D01*
X155677718Y-88108000D01*
X155472282Y-88108000D01*
X155351119Y-88130649D01*
X155270343Y-88145749D01*
X155143542Y-88194872D01*
X155078782Y-88219960D01*
X155078781Y-88219960D01*
X155078780Y-88219961D01*
X155078776Y-88219963D01*
X154904116Y-88328108D01*
X154752297Y-88466509D01*
X154628497Y-88630449D01*
X154628493Y-88630454D01*
X154536929Y-88814339D01*
X154536923Y-88814355D01*
X154480706Y-89011937D01*
X154461751Y-89216500D01*
X152890904Y-89216500D01*
X154447000Y-87660405D01*
X154509312Y-87626379D01*
X154536095Y-87623500D01*
X158746147Y-87623500D01*
X158761988Y-87625249D01*
X158762016Y-87624956D01*
X158769902Y-87625700D01*
X158769909Y-87625702D01*
X158839958Y-87623500D01*
X158869856Y-87623500D01*
X158876818Y-87622619D01*
X158882719Y-87622154D01*
X158929889Y-87620673D01*
X158949347Y-87615019D01*
X158968694Y-87611013D01*
X158988797Y-87608474D01*
X159032679Y-87591099D01*
X159038274Y-87589183D01*
X159066816Y-87580891D01*
X159083591Y-87576019D01*
X159083595Y-87576017D01*
X159101026Y-87565708D01*
X159118780Y-87557009D01*
X159137617Y-87549552D01*
X159175786Y-87521818D01*
X159180744Y-87518562D01*
X159221362Y-87494542D01*
X159235685Y-87480218D01*
X159250724Y-87467374D01*
X159267107Y-87455472D01*
X159297193Y-87419103D01*
X159301161Y-87414741D01*
X159668403Y-87047499D01*
X159730713Y-87013475D01*
X159783751Y-87014740D01*
X159783930Y-87013731D01*
X159789334Y-87014683D01*
X159789345Y-87014686D01*
X160000000Y-87033116D01*
X160210655Y-87014686D01*
X160414910Y-86959956D01*
X160606558Y-86870589D01*
X160779776Y-86749301D01*
X160929301Y-86599776D01*
X161050589Y-86426558D01*
X161139956Y-86234910D01*
X161194686Y-86030655D01*
X161213116Y-85820000D01*
X161194686Y-85609345D01*
X161148536Y-85437110D01*
X161150226Y-85366134D01*
X161190020Y-85307339D01*
X161255285Y-85279391D01*
X161270243Y-85278500D01*
X162994637Y-85278500D01*
X163062758Y-85298502D01*
X163109251Y-85352158D01*
X163120206Y-85414901D01*
X163101844Y-85636500D01*
X163120265Y-85858810D01*
X163120437Y-85860875D01*
X163175702Y-86079112D01*
X163175703Y-86079113D01*
X163175704Y-86079116D01*
X163266140Y-86285291D01*
X163266141Y-86285293D01*
X163389275Y-86473765D01*
X163389279Y-86473770D01*
X163541762Y-86639408D01*
X163596331Y-86681881D01*
X163719424Y-86777689D01*
X163752680Y-86795686D01*
X163803071Y-86845700D01*
X163818423Y-86915016D01*
X163793862Y-86981629D01*
X163752680Y-87017313D01*
X163719426Y-87035310D01*
X163719424Y-87035311D01*
X163541762Y-87173591D01*
X163389279Y-87339229D01*
X163389275Y-87339234D01*
X163266141Y-87527706D01*
X163175703Y-87733886D01*
X163175702Y-87733887D01*
X163120437Y-87952124D01*
X163120436Y-87952130D01*
X163120436Y-87952132D01*
X163101844Y-88176500D01*
X163120265Y-88398810D01*
X163120437Y-88400875D01*
X163175702Y-88619112D01*
X163175703Y-88619113D01*
X163175704Y-88619116D01*
X163266140Y-88825291D01*
X163266141Y-88825293D01*
X163389275Y-89013765D01*
X163389279Y-89013770D01*
X163466255Y-89097387D01*
X163532668Y-89169530D01*
X163541762Y-89179408D01*
X163561129Y-89194482D01*
X163719424Y-89317689D01*
X163742868Y-89330376D01*
X163752680Y-89335686D01*
X163803071Y-89385700D01*
X163818423Y-89455016D01*
X163793862Y-89521629D01*
X163752680Y-89557313D01*
X163719426Y-89575310D01*
X163719424Y-89575311D01*
X163541762Y-89713591D01*
X163389279Y-89879229D01*
X163389275Y-89879234D01*
X163266141Y-90067706D01*
X163175703Y-90273886D01*
X163175702Y-90273887D01*
X163120437Y-90492124D01*
X163120436Y-90492130D01*
X163120436Y-90492132D01*
X163101844Y-90716500D01*
X163120265Y-90938807D01*
X163120437Y-90940875D01*
X163175702Y-91159112D01*
X163175703Y-91159113D01*
X163175704Y-91159116D01*
X163250520Y-91329681D01*
X163266141Y-91365293D01*
X163389275Y-91553765D01*
X163389279Y-91553770D01*
X163541762Y-91719408D01*
X163580094Y-91749243D01*
X163719424Y-91857689D01*
X163917426Y-91964842D01*
X163917427Y-91964842D01*
X163917428Y-91964843D01*
X164029227Y-92003223D01*
X164130365Y-92037944D01*
X164352431Y-92075000D01*
X164352435Y-92075000D01*
X164577565Y-92075000D01*
X164577569Y-92075000D01*
X164799635Y-92037944D01*
X165012574Y-91964842D01*
X165210576Y-91857689D01*
X165388240Y-91719406D01*
X165449626Y-91652722D01*
X165510476Y-91616154D01*
X165581441Y-91618287D01*
X165639986Y-91658449D01*
X165660380Y-91694029D01*
X165704553Y-91812461D01*
X165704555Y-91812465D01*
X165792095Y-91929404D01*
X165909034Y-92016944D01*
X166045906Y-92067994D01*
X166106402Y-92074499D01*
X166106415Y-92074500D01*
X166751000Y-92074500D01*
X166751000Y-91330533D01*
X166771002Y-91262412D01*
X166824658Y-91215919D01*
X166894926Y-91205815D01*
X166969237Y-91216500D01*
X167040763Y-91216500D01*
X167115069Y-91205816D01*
X167185341Y-91215919D01*
X167238997Y-91262411D01*
X167259000Y-91330531D01*
X167259000Y-92074500D01*
X167903585Y-92074500D01*
X167903597Y-92074499D01*
X167964093Y-92067994D01*
X168100964Y-92016944D01*
X168100965Y-92016944D01*
X168217904Y-91929404D01*
X168305444Y-91812465D01*
X168305444Y-91812464D01*
X168356494Y-91675593D01*
X168362999Y-91615097D01*
X168363000Y-91615085D01*
X168363000Y-90970500D01*
X167619844Y-90970500D01*
X167551723Y-90950498D01*
X167505230Y-90896842D01*
X167495126Y-90826568D01*
X167498947Y-90809004D01*
X167505000Y-90788388D01*
X167505000Y-90644611D01*
X167498947Y-90623996D01*
X167498948Y-90553000D01*
X167537333Y-90493274D01*
X167601914Y-90463782D01*
X167619844Y-90462500D01*
X168363000Y-90462500D01*
X168363000Y-89817914D01*
X168362999Y-89817902D01*
X168356494Y-89757406D01*
X168305444Y-89620535D01*
X168305444Y-89620534D01*
X168217904Y-89503595D01*
X168100966Y-89416056D01*
X167985321Y-89372923D01*
X167928486Y-89330376D01*
X167903675Y-89263856D01*
X167918766Y-89194482D01*
X167936653Y-89169530D01*
X168080323Y-89013461D01*
X168203419Y-88825048D01*
X168293820Y-88618956D01*
X168293823Y-88618949D01*
X168341544Y-88430500D01*
X167619844Y-88430500D01*
X167551723Y-88410498D01*
X167505230Y-88356842D01*
X167495126Y-88286568D01*
X167498947Y-88269004D01*
X167505000Y-88248388D01*
X167505000Y-88104611D01*
X167498947Y-88083996D01*
X167498948Y-88013000D01*
X167537333Y-87953274D01*
X167601914Y-87923782D01*
X167619844Y-87922500D01*
X168341544Y-87922500D01*
X168341544Y-87922499D01*
X168293823Y-87734050D01*
X168293820Y-87734043D01*
X168203419Y-87527951D01*
X168080325Y-87339541D01*
X167927902Y-87173965D01*
X167750301Y-87035732D01*
X167750300Y-87035731D01*
X167716267Y-87017314D01*
X167665876Y-86967301D01*
X167650524Y-86897984D01*
X167675085Y-86831371D01*
X167716267Y-86795686D01*
X167750300Y-86777268D01*
X167750301Y-86777267D01*
X167927902Y-86639034D01*
X168080325Y-86473458D01*
X168203419Y-86285048D01*
X168293820Y-86078956D01*
X168293823Y-86078949D01*
X168341544Y-85890500D01*
X167619844Y-85890500D01*
X167551723Y-85870498D01*
X167505230Y-85816842D01*
X167495126Y-85746568D01*
X167498947Y-85729004D01*
X167505000Y-85708388D01*
X167505000Y-85564611D01*
X167498947Y-85543996D01*
X167498948Y-85473000D01*
X167537333Y-85413274D01*
X167601914Y-85383782D01*
X167619844Y-85382500D01*
X168341544Y-85382500D01*
X168341544Y-85382499D01*
X168293823Y-85194050D01*
X168293820Y-85194043D01*
X168203419Y-84987951D01*
X168080325Y-84799541D01*
X167927902Y-84633965D01*
X167750301Y-84495732D01*
X167750300Y-84495731D01*
X167716267Y-84477314D01*
X167665876Y-84427301D01*
X167650524Y-84357984D01*
X167675085Y-84291371D01*
X167716267Y-84255686D01*
X167750300Y-84237268D01*
X167750301Y-84237267D01*
X167927902Y-84099034D01*
X168080325Y-83933458D01*
X168203419Y-83745048D01*
X168293820Y-83538956D01*
X168293823Y-83538949D01*
X168341544Y-83350500D01*
X167619844Y-83350500D01*
X167551723Y-83330498D01*
X167505230Y-83276842D01*
X167495126Y-83206568D01*
X167498947Y-83189004D01*
X167505000Y-83168388D01*
X167505000Y-83024611D01*
X167498947Y-83003996D01*
X167498948Y-82933000D01*
X167537333Y-82873274D01*
X167601914Y-82843782D01*
X167619844Y-82842500D01*
X168341544Y-82842500D01*
X168341544Y-82842499D01*
X168293823Y-82654050D01*
X168293820Y-82654043D01*
X168203419Y-82447951D01*
X168080325Y-82259541D01*
X167927902Y-82093965D01*
X167750301Y-81955732D01*
X167750300Y-81955731D01*
X167716267Y-81937314D01*
X167665876Y-81887301D01*
X167650524Y-81817984D01*
X167675085Y-81751371D01*
X167716267Y-81715686D01*
X167750300Y-81697268D01*
X167750301Y-81697267D01*
X167927902Y-81559034D01*
X168080325Y-81393458D01*
X168203419Y-81205048D01*
X168293820Y-80998956D01*
X168293823Y-80998949D01*
X168341544Y-80810500D01*
X167619844Y-80810500D01*
X167551723Y-80790498D01*
X167505230Y-80736842D01*
X167495126Y-80666568D01*
X167498947Y-80649004D01*
X167505000Y-80628388D01*
X167505000Y-80484611D01*
X167498947Y-80463996D01*
X167498948Y-80393000D01*
X167537333Y-80333274D01*
X167601914Y-80303782D01*
X167619844Y-80302500D01*
X168341544Y-80302500D01*
X168341544Y-80302499D01*
X168293823Y-80114050D01*
X168293820Y-80114043D01*
X168203419Y-79907951D01*
X168080325Y-79719541D01*
X167927902Y-79553965D01*
X167750301Y-79415732D01*
X167750300Y-79415731D01*
X167716267Y-79397314D01*
X167665876Y-79347301D01*
X167650524Y-79277984D01*
X167675085Y-79211371D01*
X167716267Y-79175686D01*
X167750300Y-79157268D01*
X167750301Y-79157267D01*
X167927902Y-79019034D01*
X168080325Y-78853458D01*
X168203419Y-78665048D01*
X168293820Y-78458956D01*
X168293823Y-78458949D01*
X168341544Y-78270500D01*
X167619844Y-78270500D01*
X167551723Y-78250498D01*
X167505230Y-78196842D01*
X167495126Y-78126568D01*
X167498947Y-78109004D01*
X167505000Y-78088388D01*
X167505000Y-77944611D01*
X167498947Y-77923996D01*
X167498948Y-77853000D01*
X167537333Y-77793274D01*
X167601914Y-77763782D01*
X167619844Y-77762500D01*
X168341544Y-77762500D01*
X168341544Y-77762499D01*
X168293823Y-77574050D01*
X168293820Y-77574043D01*
X168203419Y-77367951D01*
X168080325Y-77179541D01*
X167927902Y-77013965D01*
X167750301Y-76875732D01*
X167750300Y-76875731D01*
X167552371Y-76768617D01*
X167552369Y-76768616D01*
X167339512Y-76695543D01*
X167339501Y-76695540D01*
X167259000Y-76682106D01*
X167259000Y-77402466D01*
X167238998Y-77470587D01*
X167185342Y-77517080D01*
X167115069Y-77527183D01*
X167115068Y-77527183D01*
X167040768Y-77516500D01*
X167040763Y-77516500D01*
X166969237Y-77516500D01*
X166969231Y-77516500D01*
X166894932Y-77527183D01*
X166824658Y-77517080D01*
X166771002Y-77470587D01*
X166751000Y-77402466D01*
X166751000Y-76682107D01*
X166750999Y-76682106D01*
X166670498Y-76695540D01*
X166670487Y-76695543D01*
X166457630Y-76768616D01*
X166457628Y-76768617D01*
X166259699Y-76875731D01*
X166259698Y-76875732D01*
X166082097Y-77013965D01*
X165929670Y-77179545D01*
X165840780Y-77315601D01*
X165786776Y-77361689D01*
X165716428Y-77371264D01*
X165652071Y-77341286D01*
X165629816Y-77315601D01*
X165585187Y-77247291D01*
X165540724Y-77179234D01*
X165540720Y-77179229D01*
X165396523Y-77022592D01*
X165388240Y-77013594D01*
X165388239Y-77013593D01*
X165388237Y-77013591D01*
X165306382Y-76949881D01*
X165210576Y-76875311D01*
X165012574Y-76768158D01*
X165012572Y-76768157D01*
X165012571Y-76768156D01*
X164799639Y-76695057D01*
X164799630Y-76695055D01*
X164722029Y-76682106D01*
X164577569Y-76658000D01*
X164352431Y-76658000D01*
X164130365Y-76695056D01*
X164130364Y-76695056D01*
X164125224Y-76695914D01*
X164125006Y-76694611D01*
X164060244Y-76692161D01*
X164011193Y-76661789D01*
X162533000Y-75183595D01*
X162498974Y-75121283D01*
X162504039Y-75050467D01*
X162546586Y-74993632D01*
X162613106Y-74968821D01*
X162622095Y-74968500D01*
X170342000Y-74968500D01*
X170410121Y-74988502D01*
G37*
%TD.AperFunction*%
%TA.AperFunction,Conductor*%
G36*
X166969237Y-88676500D02*
G01*
X167040763Y-88676500D01*
X167115069Y-88665816D01*
X167185341Y-88675919D01*
X167238997Y-88722411D01*
X167259000Y-88790531D01*
X167259000Y-90102466D01*
X167238998Y-90170587D01*
X167185342Y-90217080D01*
X167115069Y-90227183D01*
X167115068Y-90227183D01*
X167040768Y-90216500D01*
X167040763Y-90216500D01*
X166969237Y-90216500D01*
X166969231Y-90216500D01*
X166894932Y-90227183D01*
X166824658Y-90217080D01*
X166771002Y-90170587D01*
X166751000Y-90102466D01*
X166751000Y-89574500D01*
X166750999Y-88790533D01*
X166771001Y-88722412D01*
X166824657Y-88675919D01*
X166894926Y-88665815D01*
X166969237Y-88676500D01*
G37*
%TD.AperFunction*%
%TA.AperFunction,Conductor*%
G36*
X166969237Y-86136500D02*
G01*
X167040763Y-86136500D01*
X167115069Y-86125816D01*
X167185341Y-86135919D01*
X167238997Y-86182411D01*
X167259000Y-86250531D01*
X167259000Y-87562466D01*
X167238998Y-87630587D01*
X167185342Y-87677080D01*
X167115069Y-87687183D01*
X167115068Y-87687183D01*
X167040768Y-87676500D01*
X167040763Y-87676500D01*
X166969237Y-87676500D01*
X166969231Y-87676500D01*
X166894932Y-87687183D01*
X166824658Y-87677080D01*
X166771002Y-87630587D01*
X166751000Y-87562466D01*
X166751000Y-87034500D01*
X166750999Y-86250533D01*
X166771001Y-86182412D01*
X166824657Y-86135919D01*
X166894926Y-86125815D01*
X166969237Y-86136500D01*
G37*
%TD.AperFunction*%
%TA.AperFunction,Conductor*%
G36*
X166969237Y-83596500D02*
G01*
X167040763Y-83596500D01*
X167115069Y-83585816D01*
X167185341Y-83595919D01*
X167238997Y-83642411D01*
X167259000Y-83710531D01*
X167259000Y-85022466D01*
X167238998Y-85090587D01*
X167185342Y-85137080D01*
X167115069Y-85147183D01*
X167115068Y-85147183D01*
X167040768Y-85136500D01*
X167040763Y-85136500D01*
X166969237Y-85136500D01*
X166969231Y-85136500D01*
X166894932Y-85147183D01*
X166824658Y-85137080D01*
X166771002Y-85090587D01*
X166751000Y-85022466D01*
X166751000Y-84494500D01*
X166750999Y-83710533D01*
X166771001Y-83642412D01*
X166824657Y-83595919D01*
X166894926Y-83585815D01*
X166969237Y-83596500D01*
G37*
%TD.AperFunction*%
%TA.AperFunction,Conductor*%
G36*
X166969237Y-81056500D02*
G01*
X167040763Y-81056500D01*
X167115069Y-81045816D01*
X167185341Y-81055919D01*
X167238997Y-81102411D01*
X167259000Y-81170531D01*
X167259000Y-82482466D01*
X167238998Y-82550587D01*
X167185342Y-82597080D01*
X167115069Y-82607183D01*
X167115068Y-82607183D01*
X167040768Y-82596500D01*
X167040763Y-82596500D01*
X166969237Y-82596500D01*
X166969231Y-82596500D01*
X166894932Y-82607183D01*
X166824658Y-82597080D01*
X166771002Y-82550587D01*
X166751000Y-82482466D01*
X166751000Y-81954500D01*
X166750999Y-81170533D01*
X166771001Y-81102412D01*
X166824657Y-81055919D01*
X166894926Y-81045815D01*
X166969237Y-81056500D01*
G37*
%TD.AperFunction*%
%TA.AperFunction,Conductor*%
G36*
X145043597Y-78182858D02*
G01*
X145100433Y-78225405D01*
X145105041Y-78231988D01*
X145153936Y-78306827D01*
X145153937Y-78306828D01*
X145153938Y-78306829D01*
X145254354Y-78384985D01*
X145251902Y-78388135D01*
X145288037Y-78423971D01*
X145303417Y-78493282D01*
X145278884Y-78559905D01*
X145266797Y-78573911D01*
X144758912Y-79081795D01*
X144758912Y-79081797D01*
X144808692Y-79116654D01*
X144808697Y-79116657D01*
X145000254Y-79205980D01*
X145000261Y-79205983D01*
X145032172Y-79214534D01*
X145092794Y-79251486D01*
X145123816Y-79315347D01*
X145115387Y-79385841D01*
X145070184Y-79440588D01*
X145032171Y-79457948D01*
X145000092Y-79466543D01*
X145000087Y-79466545D01*
X144808438Y-79555912D01*
X144635232Y-79677192D01*
X144635221Y-79677201D01*
X144485701Y-79826721D01*
X144485692Y-79826732D01*
X144364412Y-79999938D01*
X144364409Y-79999942D01*
X144330683Y-80072269D01*
X144283766Y-80125554D01*
X144215488Y-80145014D01*
X144147529Y-80124472D01*
X144102294Y-80072267D01*
X144012524Y-79879752D01*
X143881200Y-79692203D01*
X143881195Y-79692197D01*
X143719302Y-79530304D01*
X143719296Y-79530299D01*
X143531746Y-79398974D01*
X143526985Y-79396226D01*
X143528023Y-79394427D01*
X143481532Y-79353463D01*
X143462095Y-79285179D01*
X143482661Y-79217226D01*
X143527782Y-79178164D01*
X143526730Y-79176341D01*
X143531496Y-79173588D01*
X143602888Y-79123599D01*
X143602888Y-79123598D01*
X143057065Y-78577776D01*
X143023040Y-78515463D01*
X143028104Y-78444648D01*
X143070651Y-78387812D01*
X143088951Y-78376417D01*
X143113045Y-78364141D01*
X143202641Y-78274545D01*
X143214914Y-78250457D01*
X143263658Y-78198844D01*
X143332573Y-78181775D01*
X143399775Y-78204675D01*
X143416276Y-78218565D01*
X143962098Y-78764388D01*
X143962099Y-78764388D01*
X144012088Y-78692996D01*
X144012090Y-78692993D01*
X144078979Y-78549549D01*
X144125896Y-78496263D01*
X144194173Y-78476802D01*
X144262133Y-78497343D01*
X144307369Y-78549549D01*
X144364842Y-78672802D01*
X144364844Y-78672805D01*
X144399702Y-78722586D01*
X144910469Y-78211819D01*
X144972782Y-78177794D01*
X145043597Y-78182858D01*
G37*
%TD.AperFunction*%
%TA.AperFunction,Conductor*%
G36*
X166969237Y-78516500D02*
G01*
X167040763Y-78516500D01*
X167115069Y-78505816D01*
X167185341Y-78515919D01*
X167238997Y-78562411D01*
X167259000Y-78630531D01*
X167259000Y-79942466D01*
X167238998Y-80010587D01*
X167185342Y-80057080D01*
X167115069Y-80067183D01*
X167115068Y-80067183D01*
X167040768Y-80056500D01*
X167040763Y-80056500D01*
X166969237Y-80056500D01*
X166969231Y-80056500D01*
X166894932Y-80067183D01*
X166824658Y-80057080D01*
X166771002Y-80010587D01*
X166751000Y-79942466D01*
X166751000Y-79414500D01*
X166750999Y-78630533D01*
X166771001Y-78562412D01*
X166824657Y-78515919D01*
X166894926Y-78505815D01*
X166969237Y-78516500D01*
G37*
%TD.AperFunction*%
%TA.AperFunction,Conductor*%
G36*
X144732680Y-77029042D02*
G01*
X144753654Y-77045945D01*
X145270367Y-77562658D01*
X145304393Y-77624970D01*
X145299328Y-77695785D01*
X145256781Y-77752621D01*
X145241241Y-77762567D01*
X145197053Y-77786480D01*
X145197051Y-77786481D01*
X145117941Y-77872417D01*
X145117938Y-77872422D01*
X145113893Y-77881645D01*
X145068210Y-77935992D01*
X145000397Y-77957013D01*
X144931984Y-77938034D01*
X144909413Y-77920122D01*
X144399703Y-77410412D01*
X144399701Y-77410412D01*
X144364846Y-77460190D01*
X144321358Y-77553451D01*
X144274440Y-77606736D01*
X144206163Y-77626197D01*
X144138203Y-77605655D01*
X144092968Y-77553451D01*
X144012086Y-77379998D01*
X143891169Y-77207310D01*
X143868481Y-77140036D01*
X143885766Y-77071176D01*
X143937536Y-77022592D01*
X143994382Y-77009040D01*
X144664559Y-77009040D01*
X144732680Y-77029042D01*
G37*
%TD.AperFunction*%
%TD*%
M02*
