  0
SECTION
  2
HEADER
  9
$ANGBASE
  50
0.0
  9
$ANGDIR
  70
1
  9
$MEASUREMENT
  70
0
  0
ENDSEC
  0
SECTION
  2
TABLES
  0
TABLE
  2
LTYPE
  70
4
  0
LTYPE
  5
40F
  2
CONTINUOUS
  70
0
  3
Solid line
  72
65
  73
0
  40
0.0
  0
LTYPE
  5
410
  2
DASHDOT
 70
0
  3
Dash Dot ____ _ ____ _
 72
65
 73
4
 40
2.0
 49
1.25
 49
-0.25
 49
0.25
 49
-0.25
  0
LTYPE
  5
411
  2
DASHED
 70
0
  3
Dashed __ __ __ __ __
 72
65
 73
2
 40
0.75
 49
0.5
 49
-0.25
  0
LTYPE
  5
43B
  2
DOTTED
 70
0
  3
Dotted .  .  .  .
 72
65
 73
2
 40
0.2
 49
0.0
 49
-0.2
  0
ENDTAB
  0
TABLE
  2
STYLE
  70
4
  0
STYLE
  2
KICAD
  70
0
  40
0
  41
1
  42
1
  50
0
  71
0
  3
isocp.shx
  0
STYLE
  2
KICADB
  70
0
  40
0
  41
1
  42
1
  50
0
  71
0
  3
isocp.shx
  0
STYLE
  2
KICADI
  70
0
  40
0
  41
1
  42
1
  50
15
  71
0
  3
isocp.shx
  0
STYLE
  2
KICADBI
  70
0
  40
0
  41
1
  42
1
  50
15
  71
0
  3
isocp.shx
  0
ENDTAB
  0
TABLE
  2
LAYER
  70
1
  0
LAYER
  2
BLACK
  70
0
  62
7
  6
CONTINUOUS
  0
ENDTAB
  0
ENDSEC
  0
SECTION
  2
ENTITIES
0
LINE
8
BLACK
6
CONTINUOUS
10
4.82425
20
-2.92486
11
6.72224
21
-2.92486
0
LINE
8
BLACK
6
CONTINUOUS
10
6.72224
20
-2.92486
11
6.72224
21
-4.28726
0
LINE
8
BLACK
6
CONTINUOUS
10
6.72224
20
-4.28726
11
4.82425
21
-4.28726
0
LINE
8
BLACK
6
CONTINUOUS
10
4.82425
20
-4.28726
11
4.82425
21
-2.92486
0
LINE
8
BLACK
6
CONTINUOUS
10
4.92495
20
-4.41186
11
4.92495
21
-4.33312
0
LINE
8
BLACK
6
CONTINUOUS
10
4.92495
20
-4.33312
11
4.9437
21
-4.33312
0
LINE
8
BLACK
6
CONTINUOUS
10
4.9437
20
-4.33312
11
4.95495
21
-4.33687
0
LINE
8
BLACK
6
CONTINUOUS
10
4.95495
20
-4.33687
11
4.96245
21
-4.34437
0
LINE
8
BLACK
6
CONTINUOUS
10
4.96245
20
-4.34437
11
4.9662
21
-4.35187
0
LINE
8
BLACK
6
CONTINUOUS
10
4.9662
20
-4.35187
11
4.96995
21
-4.36687
0
LINE
8
BLACK
6
CONTINUOUS
10
4.96995
20
-4.36687
11
4.96995
21
-4.37812
0
LINE
8
BLACK
6
CONTINUOUS
10
4.96995
20
-4.37812
11
4.9662
21
-4.39312
0
LINE
8
BLACK
6
CONTINUOUS
10
4.9662
20
-4.39312
11
4.96245
21
-4.40062
0
LINE
8
BLACK
6
CONTINUOUS
10
4.96245
20
-4.40062
11
4.95495
21
-4.40811
0
LINE
8
BLACK
6
CONTINUOUS
10
4.95495
20
-4.40811
11
4.9437
21
-4.41186
0
LINE
8
BLACK
6
CONTINUOUS
10
4.9437
20
-4.41186
11
4.92495
21
-4.41186
0
LINE
8
BLACK
6
CONTINUOUS
10
5.00369
20
-4.41186
11
5.00369
21
-4.35937
0
LINE
8
BLACK
6
CONTINUOUS
10
5.00369
20
-4.37437
11
5.00744
21
-4.36687
0
LINE
8
BLACK
6
CONTINUOUS
10
5.00744
20
-4.36687
11
5.01119
21
-4.36312
0
LINE
8
BLACK
6
CONTINUOUS
10
5.01119
20
-4.36312
11
5.01869
21
-4.35937
0
LINE
8
BLACK
6
CONTINUOUS
10
5.01869
20
-4.35937
11
5.02619
21
-4.35937
0
LINE
8
BLACK
6
CONTINUOUS
10
5.05244
20
-4.41186
11
5.05244
21
-4.35937
0
LINE
8
BLACK
6
CONTINUOUS
10
5.05244
20
-4.33312
11
5.04869
21
-4.33687
0
LINE
8
BLACK
6
CONTINUOUS
10
5.04869
20
-4.33687
11
5.05244
21
-4.34062
0
LINE
8
BLACK
6
CONTINUOUS
10
5.05244
20
-4.34062
11
5.05619
21
-4.33687
0
LINE
8
BLACK
6
CONTINUOUS
10
5.05619
20
-4.33687
11
5.05244
21
-4.33312
0
LINE
8
BLACK
6
CONTINUOUS
10
5.05244
20
-4.33312
11
5.05244
21
-4.34062
0
LINE
8
BLACK
6
CONTINUOUS
10
5.10118
20
-4.41186
11
5.09368
21
-4.40811
0
LINE
8
BLACK
6
CONTINUOUS
10
5.09368
20
-4.40811
11
5.08993
21
-4.40062
0
LINE
8
BLACK
6
CONTINUOUS
10
5.08993
20
-4.40062
11
5.08993
21
-4.33312
0
LINE
8
BLACK
6
CONTINUOUS
10
5.14242
20
-4.41186
11
5.13493
21
-4.40811
0
LINE
8
BLACK
6
CONTINUOUS
10
5.13493
20
-4.40811
11
5.13118
21
-4.40062
0
LINE
8
BLACK
6
CONTINUOUS
10
5.13118
20
-4.40062
11
5.13118
21
-4.33312
0
LINE
8
BLACK
6
CONTINUOUS
10
5.23241
20
-4.41186
11
5.23241
21
-4.33312
0
LINE
8
BLACK
6
CONTINUOUS
10
5.23241
20
-4.33312
11
5.25866
21
-4.38937
0
LINE
8
BLACK
6
CONTINUOUS
10
5.25866
20
-4.38937
11
5.28491
21
-4.33312
0
LINE
8
BLACK
6
CONTINUOUS
10
5.28491
20
-4.33312
11
5.28491
21
-4.41186
0
LINE
8
BLACK
6
CONTINUOUS
10
5.35615
20
-4.41186
11
5.35615
21
-4.37062
0
LINE
8
BLACK
6
CONTINUOUS
10
5.35615
20
-4.37062
11
5.3524
21
-4.36312
0
LINE
8
BLACK
6
CONTINUOUS
10
5.3524
20
-4.36312
11
5.3449
21
-4.35937
0
LINE
8
BLACK
6
CONTINUOUS
10
5.3449
20
-4.35937
11
5.3299
21
-4.35937
0
LINE
8
BLACK
6
CONTINUOUS
10
5.3299
20
-4.35937
11
5.3224
21
-4.36312
0
LINE
8
BLACK
6
CONTINUOUS
10
5.35615
20
-4.40811
11
5.34865
21
-4.41186
0
LINE
8
BLACK
6
CONTINUOUS
10
5.34865
20
-4.41186
11
5.3299
21
-4.41186
0
LINE
8
BLACK
6
CONTINUOUS
10
5.3299
20
-4.41186
11
5.3224
21
-4.40811
0
LINE
8
BLACK
6
CONTINUOUS
10
5.3224
20
-4.40811
11
5.31865
21
-4.40062
0
LINE
8
BLACK
6
CONTINUOUS
10
5.31865
20
-4.40062
11
5.31865
21
-4.39312
0
LINE
8
BLACK
6
CONTINUOUS
10
5.31865
20
-4.39312
11
5.3224
21
-4.38562
0
LINE
8
BLACK
6
CONTINUOUS
10
5.3224
20
-4.38562
11
5.3299
21
-4.38187
0
LINE
8
BLACK
6
CONTINUOUS
10
5.3299
20
-4.38187
11
5.34865
21
-4.38187
0
LINE
8
BLACK
6
CONTINUOUS
10
5.34865
20
-4.38187
11
5.35615
21
-4.37812
0
LINE
8
BLACK
6
CONTINUOUS
10
5.39364
20
-4.35937
11
5.39364
21
-4.43811
0
LINE
8
BLACK
6
CONTINUOUS
10
5.39364
20
-4.36312
11
5.40114
21
-4.35937
0
LINE
8
BLACK
6
CONTINUOUS
10
5.40114
20
-4.35937
11
5.41614
21
-4.35937
0
LINE
8
BLACK
6
CONTINUOUS
10
5.41614
20
-4.35937
11
5.42364
21
-4.36312
0
LINE
8
BLACK
6
CONTINUOUS
10
5.42364
20
-4.36312
11
5.42739
21
-4.36687
0
LINE
8
BLACK
6
CONTINUOUS
10
5.42739
20
-4.36687
11
5.43114
21
-4.37437
0
LINE
8
BLACK
6
CONTINUOUS
10
5.43114
20
-4.37437
11
5.43114
21
-4.39687
0
LINE
8
BLACK
6
CONTINUOUS
10
5.43114
20
-4.39687
11
5.42739
21
-4.40436
0
LINE
8
BLACK
6
CONTINUOUS
10
5.42739
20
-4.40436
11
5.42364
21
-4.40811
0
LINE
8
BLACK
6
CONTINUOUS
10
5.42364
20
-4.40811
11
5.41614
21
-4.41186
0
LINE
8
BLACK
6
CONTINUOUS
10
5.41614
20
-4.41186
11
5.40114
21
-4.41186
0
LINE
8
BLACK
6
CONTINUOUS
10
5.40114
20
-4.41186
11
5.39364
21
-4.40811
0
LINE
8
BLACK
6
CONTINUOUS
10
5.46488
20
-4.40436
11
5.46863
21
-4.40811
0
LINE
8
BLACK
6
CONTINUOUS
10
5.46863
20
-4.40811
11
5.46488
21
-4.41186
0
LINE
8
BLACK
6
CONTINUOUS
10
5.46488
20
-4.41186
11
5.46113
21
-4.40811
0
LINE
8
BLACK
6
CONTINUOUS
10
5.46113
20
-4.40811
11
5.46488
21
-4.40436
0
LINE
8
BLACK
6
CONTINUOUS
10
5.46488
20
-4.40436
11
5.46488
21
-4.41186
0
LINE
8
BLACK
6
CONTINUOUS
10
5.46488
20
-4.36312
11
5.46863
21
-4.36687
0
LINE
8
BLACK
6
CONTINUOUS
10
5.46863
20
-4.36687
11
5.46488
21
-4.37062
0
LINE
8
BLACK
6
CONTINUOUS
10
5.46488
20
-4.37062
11
5.46113
21
-4.36687
0
LINE
8
BLACK
6
CONTINUOUS
10
5.46113
20
-4.36687
11
5.46488
21
-4.36312
0
LINE
8
BLACK
6
CONTINUOUS
10
5.46488
20
-4.36312
11
5.46488
21
-4.37062
  0
ENDSEC
  0
EOF
