%TF.GenerationSoftware,KiCad,Pcbnew,7.0.7*%
%TF.CreationDate,2024-03-26T11:27:05-06:00*%
%TF.ProjectId,rgb2comp,72676232-636f-46d7-902e-6b696361645f,1.0*%
%TF.SameCoordinates,Original*%
%TF.FileFunction,Soldermask,Bot*%
%TF.FilePolarity,Negative*%
%FSLAX46Y46*%
G04 Gerber Fmt 4.6, Leading zero omitted, Abs format (unit mm)*
G04 Created by KiCad (PCBNEW 7.0.7) date 2024-03-26 11:27:05*
%MOMM*%
%LPD*%
G01*
G04 APERTURE LIST*
%ADD10R,1.700000X1.700000*%
%ADD11O,1.700000X1.700000*%
%ADD12C,1.400000*%
%ADD13O,1.400000X1.400000*%
%ADD14C,1.600000*%
%ADD15R,1.200000X1.200000*%
%ADD16C,1.200000*%
%ADD17O,1.500000X1.500000*%
G04 APERTURE END LIST*
D10*
%TO.C,J2*%
X167005000Y-90716500D03*
D11*
X164465000Y-90716500D03*
X167005000Y-88176500D03*
X164465000Y-88176500D03*
X167005000Y-85636500D03*
X164465000Y-85636500D03*
X167005000Y-83096500D03*
X164465000Y-83096500D03*
X167005000Y-80556500D03*
X164465000Y-80556500D03*
X167005000Y-78016500D03*
X164465000Y-78016500D03*
%TD*%
D12*
%TO.C,R3*%
X133985000Y-84130000D03*
D13*
X133985000Y-86670000D03*
%TD*%
D14*
%TO.C,C18*%
X156350000Y-82150000D03*
X156350000Y-84650000D03*
%TD*%
D12*
%TO.C,R1*%
X130760000Y-80556500D03*
D13*
X128220000Y-80556500D03*
%TD*%
D12*
%TO.C,R13*%
X155575000Y-96381500D03*
D13*
X155575000Y-93841500D03*
%TD*%
D12*
%TO.C,R4*%
X134000000Y-93480000D03*
D13*
X134000000Y-96020000D03*
%TD*%
D15*
%TO.C,C8*%
X126077401Y-99550000D03*
D16*
X127577401Y-99550000D03*
%TD*%
D12*
%TO.C,R6*%
X160000000Y-83280000D03*
D13*
X160000000Y-85820000D03*
%TD*%
D12*
%TO.C,R10*%
X162330000Y-106150000D03*
D13*
X164870000Y-106150000D03*
%TD*%
D12*
%TO.C,R7*%
X167800000Y-99330000D03*
D13*
X167800000Y-101870000D03*
%TD*%
D14*
%TO.C,C3*%
X136500000Y-86600000D03*
X136500000Y-84100000D03*
%TD*%
D12*
%TO.C,C19*%
X164700000Y-95550000D03*
D13*
X162160000Y-95550000D03*
%TD*%
D12*
%TO.C,R2*%
X133985000Y-88811500D03*
D13*
X133985000Y-91351500D03*
%TD*%
D17*
%TO.C,V1*%
X151473500Y-103330000D03*
X150584500Y-105870000D03*
X149695500Y-103330000D03*
X148806500Y-105870000D03*
X147917500Y-103330000D03*
X147028500Y-105870000D03*
X146139500Y-103330000D03*
X145250500Y-105870000D03*
X144361500Y-103330000D03*
X143472500Y-105870000D03*
X142583500Y-103330000D03*
X141694500Y-105870000D03*
X140805500Y-103330000D03*
X139916500Y-105870000D03*
X139027500Y-103330000D03*
X138138500Y-105870000D03*
X137249500Y-103330000D03*
X136360500Y-105870000D03*
X135471500Y-103330000D03*
X134582500Y-105870000D03*
X133693500Y-103330000D03*
X132804500Y-105870000D03*
X131915500Y-103330000D03*
X131026500Y-105870000D03*
%TD*%
D12*
%TO.C,R9*%
X157130000Y-106150000D03*
D13*
X159670000Y-106150000D03*
%TD*%
D14*
%TO.C,C4*%
X136500000Y-96050000D03*
X136500000Y-93550000D03*
%TD*%
D12*
%TO.C,R11*%
X145415000Y-96381500D03*
D13*
X145415000Y-93841500D03*
%TD*%
D14*
%TO.C,C1*%
X133370000Y-80556500D03*
X135870000Y-80556500D03*
%TD*%
%TO.C,C17*%
X149650000Y-100750000D03*
X152150000Y-100750000D03*
%TD*%
%TO.C,C7*%
X127600000Y-106200000D03*
X127600000Y-103700000D03*
%TD*%
D15*
%TO.C,C10*%
X155575000Y-90716500D03*
D16*
X155575000Y-89216500D03*
%TD*%
D14*
%TO.C,C12*%
X157100000Y-103950000D03*
X159600000Y-103950000D03*
%TD*%
%TO.C,C15*%
X154550000Y-105900000D03*
X154550000Y-103400000D03*
%TD*%
%TO.C,C5*%
X142875000Y-80536500D03*
X142875000Y-78036500D03*
%TD*%
D10*
%TO.C,J1*%
X128138000Y-84460000D03*
D11*
X130678000Y-84460000D03*
X128138000Y-87000000D03*
X130678000Y-87000000D03*
X128138000Y-89540000D03*
X130678000Y-89540000D03*
X128138000Y-92080000D03*
X130678000Y-92080000D03*
X128138000Y-94620000D03*
X130678000Y-94620000D03*
%TD*%
D15*
%TO.C,C9*%
X150495000Y-90716500D03*
D16*
X150495000Y-89216500D03*
%TD*%
D15*
%TO.C,C6*%
X145415000Y-90716500D03*
D16*
X145415000Y-89216500D03*
%TD*%
D12*
%TO.C,R12*%
X150495000Y-93941500D03*
D13*
X150495000Y-96481500D03*
%TD*%
D12*
%TO.C,R5*%
X145415000Y-78066500D03*
D13*
X145415000Y-80606500D03*
%TD*%
D14*
%TO.C,C14*%
X167100000Y-106800000D03*
X167100000Y-104300000D03*
%TD*%
%TO.C,C2*%
X136500000Y-91300000D03*
X136500000Y-88800000D03*
%TD*%
D12*
%TO.C,R14*%
X159850000Y-92720000D03*
D13*
X159850000Y-90180000D03*
%TD*%
D14*
%TO.C,C13*%
X162300000Y-103900000D03*
X164800000Y-103900000D03*
%TD*%
D12*
%TO.C,R8*%
X167850000Y-94630000D03*
D13*
X167850000Y-97170000D03*
%TD*%
D14*
%TO.C,C11*%
X130650000Y-100600000D03*
X130650000Y-98100000D03*
%TD*%
%TO.C,C16*%
X147450000Y-100800000D03*
X144950000Y-100800000D03*
%TD*%
M02*
