%TF.GenerationSoftware,KiCad,Pcbnew,7.0.7*%
%TF.CreationDate,2024-03-26T11:27:05-06:00*%
%TF.ProjectId,rgb2comp,72676232-636f-46d7-902e-6b696361645f,1.0*%
%TF.SameCoordinates,Original*%
%TF.FileFunction,Legend,Top*%
%TF.FilePolarity,Positive*%
%FSLAX46Y46*%
G04 Gerber Fmt 4.6, Leading zero omitted, Abs format (unit mm)*
G04 Created by KiCad (PCBNEW 7.0.7) date 2024-03-26 11:27:05*
%MOMM*%
%LPD*%
G01*
G04 APERTURE LIST*
%ADD10C,0.150000*%
%ADD11C,0.120000*%
G04 APERTURE END LIST*
D10*
X135250000Y-98700000D02*
X135250000Y-82900000D01*
X164479605Y-102150000D02*
G75*
G03*
X164479605Y-102150000I-179605J0D01*
G01*
X132684000Y-82899500D02*
X137935000Y-82899500D01*
X137935000Y-98702500D01*
X132684000Y-98702500D01*
X132684000Y-82899500D01*
X154399998Y-81445500D02*
G75*
G03*
X154399998Y-81445500I-199998J0D01*
G01*
X140970000Y-86779500D02*
X158242000Y-86779500D01*
X158242000Y-92748500D01*
X140970000Y-92748500D01*
X140970000Y-86779500D01*
X124404819Y-100242857D02*
X124404819Y-100814285D01*
X124404819Y-100528571D02*
X123404819Y-100528571D01*
X123404819Y-100528571D02*
X123547676Y-100623809D01*
X123547676Y-100623809D02*
X123642914Y-100719047D01*
X123642914Y-100719047D02*
X123690533Y-100814285D01*
X123404819Y-99623809D02*
X123404819Y-99528571D01*
X123404819Y-99528571D02*
X123452438Y-99433333D01*
X123452438Y-99433333D02*
X123500057Y-99385714D01*
X123500057Y-99385714D02*
X123595295Y-99338095D01*
X123595295Y-99338095D02*
X123785771Y-99290476D01*
X123785771Y-99290476D02*
X124023866Y-99290476D01*
X124023866Y-99290476D02*
X124214342Y-99338095D01*
X124214342Y-99338095D02*
X124309580Y-99385714D01*
X124309580Y-99385714D02*
X124357200Y-99433333D01*
X124357200Y-99433333D02*
X124404819Y-99528571D01*
X124404819Y-99528571D02*
X124404819Y-99623809D01*
X124404819Y-99623809D02*
X124357200Y-99719047D01*
X124357200Y-99719047D02*
X124309580Y-99766666D01*
X124309580Y-99766666D02*
X124214342Y-99814285D01*
X124214342Y-99814285D02*
X124023866Y-99861904D01*
X124023866Y-99861904D02*
X123785771Y-99861904D01*
X123785771Y-99861904D02*
X123595295Y-99814285D01*
X123595295Y-99814285D02*
X123500057Y-99766666D01*
X123500057Y-99766666D02*
X123452438Y-99719047D01*
X123452438Y-99719047D02*
X123404819Y-99623809D01*
X123738152Y-98433333D02*
X124404819Y-98433333D01*
X123738152Y-98861904D02*
X124261961Y-98861904D01*
X124261961Y-98861904D02*
X124357200Y-98814285D01*
X124357200Y-98814285D02*
X124404819Y-98719047D01*
X124404819Y-98719047D02*
X124404819Y-98576190D01*
X124404819Y-98576190D02*
X124357200Y-98480952D01*
X124357200Y-98480952D02*
X124309580Y-98433333D01*
X141663057Y-91390975D02*
X141615438Y-91343356D01*
X141615438Y-91343356D02*
X141567819Y-91248118D01*
X141567819Y-91248118D02*
X141567819Y-91010023D01*
X141567819Y-91010023D02*
X141615438Y-90914785D01*
X141615438Y-90914785D02*
X141663057Y-90867166D01*
X141663057Y-90867166D02*
X141758295Y-90819547D01*
X141758295Y-90819547D02*
X141853533Y-90819547D01*
X141853533Y-90819547D02*
X141996390Y-90867166D01*
X141996390Y-90867166D02*
X142567819Y-91438594D01*
X142567819Y-91438594D02*
X142567819Y-90819547D01*
X141663057Y-90438594D02*
X141615438Y-90390975D01*
X141615438Y-90390975D02*
X141567819Y-90295737D01*
X141567819Y-90295737D02*
X141567819Y-90057642D01*
X141567819Y-90057642D02*
X141615438Y-89962404D01*
X141615438Y-89962404D02*
X141663057Y-89914785D01*
X141663057Y-89914785D02*
X141758295Y-89867166D01*
X141758295Y-89867166D02*
X141853533Y-89867166D01*
X141853533Y-89867166D02*
X141996390Y-89914785D01*
X141996390Y-89914785D02*
X142567819Y-90486213D01*
X142567819Y-90486213D02*
X142567819Y-89867166D01*
X141567819Y-89248118D02*
X141567819Y-89152880D01*
X141567819Y-89152880D02*
X141615438Y-89057642D01*
X141615438Y-89057642D02*
X141663057Y-89010023D01*
X141663057Y-89010023D02*
X141758295Y-88962404D01*
X141758295Y-88962404D02*
X141948771Y-88914785D01*
X141948771Y-88914785D02*
X142186866Y-88914785D01*
X142186866Y-88914785D02*
X142377342Y-88962404D01*
X142377342Y-88962404D02*
X142472580Y-89010023D01*
X142472580Y-89010023D02*
X142520200Y-89057642D01*
X142520200Y-89057642D02*
X142567819Y-89152880D01*
X142567819Y-89152880D02*
X142567819Y-89248118D01*
X142567819Y-89248118D02*
X142520200Y-89343356D01*
X142520200Y-89343356D02*
X142472580Y-89390975D01*
X142472580Y-89390975D02*
X142377342Y-89438594D01*
X142377342Y-89438594D02*
X142186866Y-89486213D01*
X142186866Y-89486213D02*
X141948771Y-89486213D01*
X141948771Y-89486213D02*
X141758295Y-89438594D01*
X141758295Y-89438594D02*
X141663057Y-89390975D01*
X141663057Y-89390975D02*
X141615438Y-89343356D01*
X141615438Y-89343356D02*
X141567819Y-89248118D01*
X141901152Y-88057642D02*
X142567819Y-88057642D01*
X141901152Y-88486213D02*
X142424961Y-88486213D01*
X142424961Y-88486213D02*
X142520200Y-88438594D01*
X142520200Y-88438594D02*
X142567819Y-88343356D01*
X142567819Y-88343356D02*
X142567819Y-88200499D01*
X142567819Y-88200499D02*
X142520200Y-88105261D01*
X142520200Y-88105261D02*
X142472580Y-88057642D01*
X133190476Y-97254819D02*
X133857142Y-97254819D01*
X133857142Y-97254819D02*
X133428571Y-98254819D01*
X134714285Y-97254819D02*
X134238095Y-97254819D01*
X134238095Y-97254819D02*
X134190476Y-97731009D01*
X134190476Y-97731009D02*
X134238095Y-97683390D01*
X134238095Y-97683390D02*
X134333333Y-97635771D01*
X134333333Y-97635771D02*
X134571428Y-97635771D01*
X134571428Y-97635771D02*
X134666666Y-97683390D01*
X134666666Y-97683390D02*
X134714285Y-97731009D01*
X134714285Y-97731009D02*
X134761904Y-97826247D01*
X134761904Y-97826247D02*
X134761904Y-98064342D01*
X134761904Y-98064342D02*
X134714285Y-98159580D01*
X134714285Y-98159580D02*
X134666666Y-98207200D01*
X134666666Y-98207200D02*
X134571428Y-98254819D01*
X134571428Y-98254819D02*
X134333333Y-98254819D01*
X134333333Y-98254819D02*
X134238095Y-98207200D01*
X134238095Y-98207200D02*
X134190476Y-98159580D01*
X167450000Y-92304819D02*
X167640476Y-92304819D01*
X167640476Y-92304819D02*
X167735714Y-92352438D01*
X167735714Y-92352438D02*
X167830952Y-92447676D01*
X167830952Y-92447676D02*
X167878571Y-92638152D01*
X167878571Y-92638152D02*
X167878571Y-92971485D01*
X167878571Y-92971485D02*
X167830952Y-93161961D01*
X167830952Y-93161961D02*
X167735714Y-93257200D01*
X167735714Y-93257200D02*
X167640476Y-93304819D01*
X167640476Y-93304819D02*
X167450000Y-93304819D01*
X167450000Y-93304819D02*
X167354762Y-93257200D01*
X167354762Y-93257200D02*
X167259524Y-93161961D01*
X167259524Y-93161961D02*
X167211905Y-92971485D01*
X167211905Y-92971485D02*
X167211905Y-92638152D01*
X167211905Y-92638152D02*
X167259524Y-92447676D01*
X167259524Y-92447676D02*
X167354762Y-92352438D01*
X167354762Y-92352438D02*
X167450000Y-92304819D01*
X168307143Y-92304819D02*
X168307143Y-93114342D01*
X168307143Y-93114342D02*
X168354762Y-93209580D01*
X168354762Y-93209580D02*
X168402381Y-93257200D01*
X168402381Y-93257200D02*
X168497619Y-93304819D01*
X168497619Y-93304819D02*
X168688095Y-93304819D01*
X168688095Y-93304819D02*
X168783333Y-93257200D01*
X168783333Y-93257200D02*
X168830952Y-93209580D01*
X168830952Y-93209580D02*
X168878571Y-93114342D01*
X168878571Y-93114342D02*
X168878571Y-92304819D01*
X169211905Y-92304819D02*
X169783333Y-92304819D01*
X169497619Y-93304819D02*
X169497619Y-92304819D01*
X140352200Y-99207142D02*
X140399819Y-99064285D01*
X140399819Y-99064285D02*
X140399819Y-98826190D01*
X140399819Y-98826190D02*
X140352200Y-98730952D01*
X140352200Y-98730952D02*
X140304580Y-98683333D01*
X140304580Y-98683333D02*
X140209342Y-98635714D01*
X140209342Y-98635714D02*
X140114104Y-98635714D01*
X140114104Y-98635714D02*
X140018866Y-98683333D01*
X140018866Y-98683333D02*
X139971247Y-98730952D01*
X139971247Y-98730952D02*
X139923628Y-98826190D01*
X139923628Y-98826190D02*
X139876009Y-99016666D01*
X139876009Y-99016666D02*
X139828390Y-99111904D01*
X139828390Y-99111904D02*
X139780771Y-99159523D01*
X139780771Y-99159523D02*
X139685533Y-99207142D01*
X139685533Y-99207142D02*
X139590295Y-99207142D01*
X139590295Y-99207142D02*
X139495057Y-99159523D01*
X139495057Y-99159523D02*
X139447438Y-99111904D01*
X139447438Y-99111904D02*
X139399819Y-99016666D01*
X139399819Y-99016666D02*
X139399819Y-98778571D01*
X139399819Y-98778571D02*
X139447438Y-98635714D01*
X140399819Y-98207142D02*
X139399819Y-98207142D01*
X140399819Y-97778571D02*
X139876009Y-97778571D01*
X139876009Y-97778571D02*
X139780771Y-97826190D01*
X139780771Y-97826190D02*
X139733152Y-97921428D01*
X139733152Y-97921428D02*
X139733152Y-98064285D01*
X139733152Y-98064285D02*
X139780771Y-98159523D01*
X139780771Y-98159523D02*
X139828390Y-98207142D01*
X140399819Y-96873809D02*
X139876009Y-96873809D01*
X139876009Y-96873809D02*
X139780771Y-96921428D01*
X139780771Y-96921428D02*
X139733152Y-97016666D01*
X139733152Y-97016666D02*
X139733152Y-97207142D01*
X139733152Y-97207142D02*
X139780771Y-97302380D01*
X140352200Y-96873809D02*
X140399819Y-96969047D01*
X140399819Y-96969047D02*
X140399819Y-97207142D01*
X140399819Y-97207142D02*
X140352200Y-97302380D01*
X140352200Y-97302380D02*
X140256961Y-97349999D01*
X140256961Y-97349999D02*
X140161723Y-97349999D01*
X140161723Y-97349999D02*
X140066485Y-97302380D01*
X140066485Y-97302380D02*
X140018866Y-97207142D01*
X140018866Y-97207142D02*
X140018866Y-96969047D01*
X140018866Y-96969047D02*
X139971247Y-96873809D01*
X140399819Y-96254761D02*
X140352200Y-96349999D01*
X140352200Y-96349999D02*
X140256961Y-96397618D01*
X140256961Y-96397618D02*
X139399819Y-96397618D01*
X140399819Y-95969046D02*
X139733152Y-95445237D01*
X139733152Y-95969046D02*
X140399819Y-95445237D01*
X141105057Y-101016666D02*
X141057438Y-100969047D01*
X141057438Y-100969047D02*
X141009819Y-100873809D01*
X141009819Y-100873809D02*
X141009819Y-100635714D01*
X141009819Y-100635714D02*
X141057438Y-100540476D01*
X141057438Y-100540476D02*
X141105057Y-100492857D01*
X141105057Y-100492857D02*
X141200295Y-100445238D01*
X141200295Y-100445238D02*
X141295533Y-100445238D01*
X141295533Y-100445238D02*
X141438390Y-100492857D01*
X141438390Y-100492857D02*
X142009819Y-101064285D01*
X142009819Y-101064285D02*
X142009819Y-100445238D01*
X141009819Y-99826190D02*
X141009819Y-99730952D01*
X141009819Y-99730952D02*
X141057438Y-99635714D01*
X141057438Y-99635714D02*
X141105057Y-99588095D01*
X141105057Y-99588095D02*
X141200295Y-99540476D01*
X141200295Y-99540476D02*
X141390771Y-99492857D01*
X141390771Y-99492857D02*
X141628866Y-99492857D01*
X141628866Y-99492857D02*
X141819342Y-99540476D01*
X141819342Y-99540476D02*
X141914580Y-99588095D01*
X141914580Y-99588095D02*
X141962200Y-99635714D01*
X141962200Y-99635714D02*
X142009819Y-99730952D01*
X142009819Y-99730952D02*
X142009819Y-99826190D01*
X142009819Y-99826190D02*
X141962200Y-99921428D01*
X141962200Y-99921428D02*
X141914580Y-99969047D01*
X141914580Y-99969047D02*
X141819342Y-100016666D01*
X141819342Y-100016666D02*
X141628866Y-100064285D01*
X141628866Y-100064285D02*
X141390771Y-100064285D01*
X141390771Y-100064285D02*
X141200295Y-100016666D01*
X141200295Y-100016666D02*
X141105057Y-99969047D01*
X141105057Y-99969047D02*
X141057438Y-99921428D01*
X141057438Y-99921428D02*
X141009819Y-99826190D01*
X141105057Y-99111904D02*
X141057438Y-99064285D01*
X141057438Y-99064285D02*
X141009819Y-98969047D01*
X141009819Y-98969047D02*
X141009819Y-98730952D01*
X141009819Y-98730952D02*
X141057438Y-98635714D01*
X141057438Y-98635714D02*
X141105057Y-98588095D01*
X141105057Y-98588095D02*
X141200295Y-98540476D01*
X141200295Y-98540476D02*
X141295533Y-98540476D01*
X141295533Y-98540476D02*
X141438390Y-98588095D01*
X141438390Y-98588095D02*
X142009819Y-99159523D01*
X142009819Y-99159523D02*
X142009819Y-98540476D01*
X141105057Y-98159523D02*
X141057438Y-98111904D01*
X141057438Y-98111904D02*
X141009819Y-98016666D01*
X141009819Y-98016666D02*
X141009819Y-97778571D01*
X141009819Y-97778571D02*
X141057438Y-97683333D01*
X141057438Y-97683333D02*
X141105057Y-97635714D01*
X141105057Y-97635714D02*
X141200295Y-97588095D01*
X141200295Y-97588095D02*
X141295533Y-97588095D01*
X141295533Y-97588095D02*
X141438390Y-97635714D01*
X141438390Y-97635714D02*
X142009819Y-98207142D01*
X142009819Y-98207142D02*
X142009819Y-97588095D01*
X141343152Y-96492856D02*
X142009819Y-96254761D01*
X142009819Y-96254761D02*
X141343152Y-96016666D01*
X142009819Y-95111904D02*
X142009819Y-95683332D01*
X142009819Y-95397618D02*
X141009819Y-95397618D01*
X141009819Y-95397618D02*
X141152676Y-95492856D01*
X141152676Y-95492856D02*
X141247914Y-95588094D01*
X141247914Y-95588094D02*
X141295533Y-95683332D01*
X141914580Y-94683332D02*
X141962200Y-94635713D01*
X141962200Y-94635713D02*
X142009819Y-94683332D01*
X142009819Y-94683332D02*
X141962200Y-94730951D01*
X141962200Y-94730951D02*
X141914580Y-94683332D01*
X141914580Y-94683332D02*
X142009819Y-94683332D01*
X141009819Y-94016666D02*
X141009819Y-93921428D01*
X141009819Y-93921428D02*
X141057438Y-93826190D01*
X141057438Y-93826190D02*
X141105057Y-93778571D01*
X141105057Y-93778571D02*
X141200295Y-93730952D01*
X141200295Y-93730952D02*
X141390771Y-93683333D01*
X141390771Y-93683333D02*
X141628866Y-93683333D01*
X141628866Y-93683333D02*
X141819342Y-93730952D01*
X141819342Y-93730952D02*
X141914580Y-93778571D01*
X141914580Y-93778571D02*
X141962200Y-93826190D01*
X141962200Y-93826190D02*
X142009819Y-93921428D01*
X142009819Y-93921428D02*
X142009819Y-94016666D01*
X142009819Y-94016666D02*
X141962200Y-94111904D01*
X141962200Y-94111904D02*
X141914580Y-94159523D01*
X141914580Y-94159523D02*
X141819342Y-94207142D01*
X141819342Y-94207142D02*
X141628866Y-94254761D01*
X141628866Y-94254761D02*
X141390771Y-94254761D01*
X141390771Y-94254761D02*
X141200295Y-94207142D01*
X141200295Y-94207142D02*
X141105057Y-94159523D01*
X141105057Y-94159523D02*
X141057438Y-94111904D01*
X141057438Y-94111904D02*
X141009819Y-94016666D01*
X155321429Y-80759580D02*
X155369048Y-80807200D01*
X155369048Y-80807200D02*
X155321429Y-80854819D01*
X155321429Y-80854819D02*
X155273810Y-80807200D01*
X155273810Y-80807200D02*
X155321429Y-80759580D01*
X155321429Y-80759580D02*
X155321429Y-80854819D01*
X156321428Y-80854819D02*
X155750000Y-80854819D01*
X156035714Y-80854819D02*
X156035714Y-79854819D01*
X156035714Y-79854819D02*
X155940476Y-79997676D01*
X155940476Y-79997676D02*
X155845238Y-80092914D01*
X155845238Y-80092914D02*
X155750000Y-80140533D01*
X157178571Y-80188152D02*
X157178571Y-80854819D01*
X156750000Y-80188152D02*
X156750000Y-80711961D01*
X156750000Y-80711961D02*
X156797619Y-80807200D01*
X156797619Y-80807200D02*
X156892857Y-80854819D01*
X156892857Y-80854819D02*
X157035714Y-80854819D01*
X157035714Y-80854819D02*
X157130952Y-80807200D01*
X157130952Y-80807200D02*
X157178571Y-80759580D01*
X128680476Y-78091319D02*
X129347142Y-78091319D01*
X129347142Y-78091319D02*
X128918571Y-79091319D01*
X130204285Y-78091319D02*
X129728095Y-78091319D01*
X129728095Y-78091319D02*
X129680476Y-78567509D01*
X129680476Y-78567509D02*
X129728095Y-78519890D01*
X129728095Y-78519890D02*
X129823333Y-78472271D01*
X129823333Y-78472271D02*
X130061428Y-78472271D01*
X130061428Y-78472271D02*
X130156666Y-78519890D01*
X130156666Y-78519890D02*
X130204285Y-78567509D01*
X130204285Y-78567509D02*
X130251904Y-78662747D01*
X130251904Y-78662747D02*
X130251904Y-78900842D01*
X130251904Y-78900842D02*
X130204285Y-78996080D01*
X130204285Y-78996080D02*
X130156666Y-79043700D01*
X130156666Y-79043700D02*
X130061428Y-79091319D01*
X130061428Y-79091319D02*
X129823333Y-79091319D01*
X129823333Y-79091319D02*
X129728095Y-79043700D01*
X129728095Y-79043700D02*
X129680476Y-78996080D01*
X156949819Y-95801976D02*
X156949819Y-95135309D01*
X156949819Y-95135309D02*
X157949819Y-95688881D01*
X156949819Y-94278166D02*
X156949819Y-94754357D01*
X156949819Y-94754357D02*
X157426009Y-94861500D01*
X157426009Y-94861500D02*
X157378390Y-94807928D01*
X157378390Y-94807928D02*
X157330771Y-94706738D01*
X157330771Y-94706738D02*
X157330771Y-94468642D01*
X157330771Y-94468642D02*
X157378390Y-94379357D01*
X157378390Y-94379357D02*
X157426009Y-94337690D01*
X157426009Y-94337690D02*
X157521247Y-94301976D01*
X157521247Y-94301976D02*
X157759342Y-94331738D01*
X157759342Y-94331738D02*
X157854580Y-94391261D01*
X157854580Y-94391261D02*
X157902200Y-94444833D01*
X157902200Y-94444833D02*
X157949819Y-94546023D01*
X157949819Y-94546023D02*
X157949819Y-94784119D01*
X157949819Y-94784119D02*
X157902200Y-94873404D01*
X157902200Y-94873404D02*
X157854580Y-94915071D01*
X158764286Y-80954819D02*
X159383333Y-80954819D01*
X159383333Y-80954819D02*
X159050000Y-81335771D01*
X159050000Y-81335771D02*
X159192857Y-81335771D01*
X159192857Y-81335771D02*
X159288095Y-81383390D01*
X159288095Y-81383390D02*
X159335714Y-81431009D01*
X159335714Y-81431009D02*
X159383333Y-81526247D01*
X159383333Y-81526247D02*
X159383333Y-81764342D01*
X159383333Y-81764342D02*
X159335714Y-81859580D01*
X159335714Y-81859580D02*
X159288095Y-81907200D01*
X159288095Y-81907200D02*
X159192857Y-81954819D01*
X159192857Y-81954819D02*
X158907143Y-81954819D01*
X158907143Y-81954819D02*
X158811905Y-81907200D01*
X158811905Y-81907200D02*
X158764286Y-81859580D01*
X159716667Y-80954819D02*
X160335714Y-80954819D01*
X160335714Y-80954819D02*
X160002381Y-81335771D01*
X160002381Y-81335771D02*
X160145238Y-81335771D01*
X160145238Y-81335771D02*
X160240476Y-81383390D01*
X160240476Y-81383390D02*
X160288095Y-81431009D01*
X160288095Y-81431009D02*
X160335714Y-81526247D01*
X160335714Y-81526247D02*
X160335714Y-81764342D01*
X160335714Y-81764342D02*
X160288095Y-81859580D01*
X160288095Y-81859580D02*
X160240476Y-81907200D01*
X160240476Y-81907200D02*
X160145238Y-81954819D01*
X160145238Y-81954819D02*
X159859524Y-81954819D01*
X159859524Y-81954819D02*
X159764286Y-81907200D01*
X159764286Y-81907200D02*
X159716667Y-81859580D01*
X160954762Y-80954819D02*
X161050000Y-80954819D01*
X161050000Y-80954819D02*
X161145238Y-81002438D01*
X161145238Y-81002438D02*
X161192857Y-81050057D01*
X161192857Y-81050057D02*
X161240476Y-81145295D01*
X161240476Y-81145295D02*
X161288095Y-81335771D01*
X161288095Y-81335771D02*
X161288095Y-81573866D01*
X161288095Y-81573866D02*
X161240476Y-81764342D01*
X161240476Y-81764342D02*
X161192857Y-81859580D01*
X161192857Y-81859580D02*
X161145238Y-81907200D01*
X161145238Y-81907200D02*
X161050000Y-81954819D01*
X161050000Y-81954819D02*
X160954762Y-81954819D01*
X160954762Y-81954819D02*
X160859524Y-81907200D01*
X160859524Y-81907200D02*
X160811905Y-81859580D01*
X160811905Y-81859580D02*
X160764286Y-81764342D01*
X160764286Y-81764342D02*
X160716667Y-81573866D01*
X160716667Y-81573866D02*
X160716667Y-81335771D01*
X160716667Y-81335771D02*
X160764286Y-81145295D01*
X160764286Y-81145295D02*
X160811905Y-81050057D01*
X160811905Y-81050057D02*
X160859524Y-81002438D01*
X160859524Y-81002438D02*
X160954762Y-80954819D01*
X163435714Y-108254819D02*
X162864286Y-108254819D01*
X163150000Y-108254819D02*
X163150000Y-107254819D01*
X163150000Y-107254819D02*
X163054762Y-107397676D01*
X163054762Y-107397676D02*
X162959524Y-107492914D01*
X162959524Y-107492914D02*
X162864286Y-107540533D01*
X163864286Y-108254819D02*
X163864286Y-107254819D01*
X164435714Y-108254819D02*
X164007143Y-107683390D01*
X164435714Y-107254819D02*
X163864286Y-107826247D01*
X169050057Y-101826189D02*
X169002438Y-101772618D01*
X169002438Y-101772618D02*
X168954819Y-101671428D01*
X168954819Y-101671428D02*
X168954819Y-101433332D01*
X168954819Y-101433332D02*
X169002438Y-101344047D01*
X169002438Y-101344047D02*
X169050057Y-101302380D01*
X169050057Y-101302380D02*
X169145295Y-101266666D01*
X169145295Y-101266666D02*
X169240533Y-101278570D01*
X169240533Y-101278570D02*
X169383390Y-101344047D01*
X169383390Y-101344047D02*
X169954819Y-101986904D01*
X169954819Y-101986904D02*
X169954819Y-101367856D01*
X169954819Y-100939285D02*
X168954819Y-100814285D01*
X168954819Y-100814285D02*
X169669104Y-100570237D01*
X169669104Y-100570237D02*
X168954819Y-100147618D01*
X168954819Y-100147618D02*
X169954819Y-100272618D01*
X169050057Y-99730951D02*
X169002438Y-99677380D01*
X169002438Y-99677380D02*
X168954819Y-99576190D01*
X168954819Y-99576190D02*
X168954819Y-99338094D01*
X168954819Y-99338094D02*
X169002438Y-99248809D01*
X169002438Y-99248809D02*
X169050057Y-99207142D01*
X169050057Y-99207142D02*
X169145295Y-99171428D01*
X169145295Y-99171428D02*
X169240533Y-99183332D01*
X169240533Y-99183332D02*
X169383390Y-99248809D01*
X169383390Y-99248809D02*
X169954819Y-99891666D01*
X169954819Y-99891666D02*
X169954819Y-99272618D01*
X162221429Y-94209580D02*
X162269048Y-94257200D01*
X162269048Y-94257200D02*
X162221429Y-94304819D01*
X162221429Y-94304819D02*
X162173810Y-94257200D01*
X162173810Y-94257200D02*
X162221429Y-94209580D01*
X162221429Y-94209580D02*
X162221429Y-94304819D01*
X163221428Y-94304819D02*
X162650000Y-94304819D01*
X162935714Y-94304819D02*
X162935714Y-93304819D01*
X162935714Y-93304819D02*
X162840476Y-93447676D01*
X162840476Y-93447676D02*
X162745238Y-93542914D01*
X162745238Y-93542914D02*
X162650000Y-93590533D01*
X164078571Y-93638152D02*
X164078571Y-94304819D01*
X163650000Y-93638152D02*
X163650000Y-94161961D01*
X163650000Y-94161961D02*
X163697619Y-94257200D01*
X163697619Y-94257200D02*
X163792857Y-94304819D01*
X163792857Y-94304819D02*
X163935714Y-94304819D01*
X163935714Y-94304819D02*
X164030952Y-94257200D01*
X164030952Y-94257200D02*
X164078571Y-94209580D01*
X158185714Y-108304819D02*
X157614286Y-108304819D01*
X157900000Y-108304819D02*
X157900000Y-107304819D01*
X157900000Y-107304819D02*
X157804762Y-107447676D01*
X157804762Y-107447676D02*
X157709524Y-107542914D01*
X157709524Y-107542914D02*
X157614286Y-107590533D01*
X158614286Y-108304819D02*
X158614286Y-107304819D01*
X159185714Y-108304819D02*
X158757143Y-107733390D01*
X159185714Y-107304819D02*
X158614286Y-107876247D01*
X135571429Y-98309580D02*
X135619048Y-98357200D01*
X135619048Y-98357200D02*
X135571429Y-98404819D01*
X135571429Y-98404819D02*
X135523810Y-98357200D01*
X135523810Y-98357200D02*
X135571429Y-98309580D01*
X135571429Y-98309580D02*
X135571429Y-98404819D01*
X136571428Y-98404819D02*
X136000000Y-98404819D01*
X136285714Y-98404819D02*
X136285714Y-97404819D01*
X136285714Y-97404819D02*
X136190476Y-97547676D01*
X136190476Y-97547676D02*
X136095238Y-97642914D01*
X136095238Y-97642914D02*
X136000000Y-97690533D01*
X137428571Y-97738152D02*
X137428571Y-98404819D01*
X137000000Y-97738152D02*
X137000000Y-98261961D01*
X137000000Y-98261961D02*
X137047619Y-98357200D01*
X137047619Y-98357200D02*
X137142857Y-98404819D01*
X137142857Y-98404819D02*
X137285714Y-98404819D01*
X137285714Y-98404819D02*
X137380952Y-98357200D01*
X137380952Y-98357200D02*
X137428571Y-98309580D01*
X146789819Y-95921023D02*
X146789819Y-95254357D01*
X146789819Y-95254357D02*
X147789819Y-95682928D01*
X146789819Y-94397214D02*
X146789819Y-94873404D01*
X146789819Y-94873404D02*
X147266009Y-94921023D01*
X147266009Y-94921023D02*
X147218390Y-94873404D01*
X147218390Y-94873404D02*
X147170771Y-94778166D01*
X147170771Y-94778166D02*
X147170771Y-94540071D01*
X147170771Y-94540071D02*
X147218390Y-94444833D01*
X147218390Y-94444833D02*
X147266009Y-94397214D01*
X147266009Y-94397214D02*
X147361247Y-94349595D01*
X147361247Y-94349595D02*
X147599342Y-94349595D01*
X147599342Y-94349595D02*
X147694580Y-94397214D01*
X147694580Y-94397214D02*
X147742200Y-94444833D01*
X147742200Y-94444833D02*
X147789819Y-94540071D01*
X147789819Y-94540071D02*
X147789819Y-94778166D01*
X147789819Y-94778166D02*
X147742200Y-94873404D01*
X147742200Y-94873404D02*
X147694580Y-94921023D01*
X133691429Y-79011080D02*
X133739048Y-79058700D01*
X133739048Y-79058700D02*
X133691429Y-79106319D01*
X133691429Y-79106319D02*
X133643810Y-79058700D01*
X133643810Y-79058700D02*
X133691429Y-79011080D01*
X133691429Y-79011080D02*
X133691429Y-79106319D01*
X134691428Y-79106319D02*
X134120000Y-79106319D01*
X134405714Y-79106319D02*
X134405714Y-78106319D01*
X134405714Y-78106319D02*
X134310476Y-78249176D01*
X134310476Y-78249176D02*
X134215238Y-78344414D01*
X134215238Y-78344414D02*
X134120000Y-78392033D01*
X135548571Y-78439652D02*
X135548571Y-79106319D01*
X135120000Y-78439652D02*
X135120000Y-78963461D01*
X135120000Y-78963461D02*
X135167619Y-79058700D01*
X135167619Y-79058700D02*
X135262857Y-79106319D01*
X135262857Y-79106319D02*
X135405714Y-79106319D01*
X135405714Y-79106319D02*
X135500952Y-79058700D01*
X135500952Y-79058700D02*
X135548571Y-79011080D01*
X149283333Y-99454819D02*
X148711905Y-99454819D01*
X148997619Y-99454819D02*
X148997619Y-98454819D01*
X148997619Y-98454819D02*
X148902381Y-98597676D01*
X148902381Y-98597676D02*
X148807143Y-98692914D01*
X148807143Y-98692914D02*
X148711905Y-98740533D01*
X150140476Y-98788152D02*
X150140476Y-99454819D01*
X149711905Y-98788152D02*
X149711905Y-99311961D01*
X149711905Y-99311961D02*
X149759524Y-99407200D01*
X149759524Y-99407200D02*
X149854762Y-99454819D01*
X149854762Y-99454819D02*
X149997619Y-99454819D01*
X149997619Y-99454819D02*
X150092857Y-99407200D01*
X150092857Y-99407200D02*
X150140476Y-99359580D01*
X126209580Y-106030951D02*
X126257200Y-105983332D01*
X126257200Y-105983332D02*
X126304819Y-106030951D01*
X126304819Y-106030951D02*
X126257200Y-106078570D01*
X126257200Y-106078570D02*
X126209580Y-106030951D01*
X126209580Y-106030951D02*
X126304819Y-106030951D01*
X125304819Y-105364285D02*
X125304819Y-105269047D01*
X125304819Y-105269047D02*
X125352438Y-105173809D01*
X125352438Y-105173809D02*
X125400057Y-105126190D01*
X125400057Y-105126190D02*
X125495295Y-105078571D01*
X125495295Y-105078571D02*
X125685771Y-105030952D01*
X125685771Y-105030952D02*
X125923866Y-105030952D01*
X125923866Y-105030952D02*
X126114342Y-105078571D01*
X126114342Y-105078571D02*
X126209580Y-105126190D01*
X126209580Y-105126190D02*
X126257200Y-105173809D01*
X126257200Y-105173809D02*
X126304819Y-105269047D01*
X126304819Y-105269047D02*
X126304819Y-105364285D01*
X126304819Y-105364285D02*
X126257200Y-105459523D01*
X126257200Y-105459523D02*
X126209580Y-105507142D01*
X126209580Y-105507142D02*
X126114342Y-105554761D01*
X126114342Y-105554761D02*
X125923866Y-105602380D01*
X125923866Y-105602380D02*
X125685771Y-105602380D01*
X125685771Y-105602380D02*
X125495295Y-105554761D01*
X125495295Y-105554761D02*
X125400057Y-105507142D01*
X125400057Y-105507142D02*
X125352438Y-105459523D01*
X125352438Y-105459523D02*
X125304819Y-105364285D01*
X125638152Y-104173809D02*
X126304819Y-104173809D01*
X125257200Y-104411904D02*
X125971485Y-104649999D01*
X125971485Y-104649999D02*
X125971485Y-104030952D01*
X125304819Y-103745237D02*
X125304819Y-103078571D01*
X125304819Y-103078571D02*
X126304819Y-103507142D01*
X125638152Y-102269047D02*
X126304819Y-102269047D01*
X125638152Y-102697618D02*
X126161961Y-102697618D01*
X126161961Y-102697618D02*
X126257200Y-102649999D01*
X126257200Y-102649999D02*
X126304819Y-102554761D01*
X126304819Y-102554761D02*
X126304819Y-102411904D01*
X126304819Y-102411904D02*
X126257200Y-102316666D01*
X126257200Y-102316666D02*
X126209580Y-102269047D01*
X157333333Y-102804819D02*
X156761905Y-102804819D01*
X157047619Y-102804819D02*
X157047619Y-101804819D01*
X157047619Y-101804819D02*
X156952381Y-101947676D01*
X156952381Y-101947676D02*
X156857143Y-102042914D01*
X156857143Y-102042914D02*
X156761905Y-102090533D01*
X158190476Y-102138152D02*
X158190476Y-102804819D01*
X157761905Y-102138152D02*
X157761905Y-102661961D01*
X157761905Y-102661961D02*
X157809524Y-102757200D01*
X157809524Y-102757200D02*
X157904762Y-102804819D01*
X157904762Y-102804819D02*
X158047619Y-102804819D01*
X158047619Y-102804819D02*
X158142857Y-102757200D01*
X158142857Y-102757200D02*
X158190476Y-102709580D01*
X154804819Y-101516666D02*
X154804819Y-102088094D01*
X154804819Y-101802380D02*
X153804819Y-101802380D01*
X153804819Y-101802380D02*
X153947676Y-101897618D01*
X153947676Y-101897618D02*
X154042914Y-101992856D01*
X154042914Y-101992856D02*
X154090533Y-102088094D01*
X154138152Y-100659523D02*
X154804819Y-100659523D01*
X154138152Y-101088094D02*
X154661961Y-101088094D01*
X154661961Y-101088094D02*
X154757200Y-101040475D01*
X154757200Y-101040475D02*
X154804819Y-100945237D01*
X154804819Y-100945237D02*
X154804819Y-100802380D01*
X154804819Y-100802380D02*
X154757200Y-100707142D01*
X154757200Y-100707142D02*
X154709580Y-100659523D01*
X141329580Y-80215070D02*
X141377200Y-80167451D01*
X141377200Y-80167451D02*
X141424819Y-80215070D01*
X141424819Y-80215070D02*
X141377200Y-80262689D01*
X141377200Y-80262689D02*
X141329580Y-80215070D01*
X141329580Y-80215070D02*
X141424819Y-80215070D01*
X141424819Y-79215071D02*
X141424819Y-79786499D01*
X141424819Y-79500785D02*
X140424819Y-79500785D01*
X140424819Y-79500785D02*
X140567676Y-79596023D01*
X140567676Y-79596023D02*
X140662914Y-79691261D01*
X140662914Y-79691261D02*
X140710533Y-79786499D01*
X140758152Y-78357928D02*
X141424819Y-78357928D01*
X140758152Y-78786499D02*
X141281961Y-78786499D01*
X141281961Y-78786499D02*
X141377200Y-78738880D01*
X141377200Y-78738880D02*
X141424819Y-78643642D01*
X141424819Y-78643642D02*
X141424819Y-78500785D01*
X141424819Y-78500785D02*
X141377200Y-78405547D01*
X141377200Y-78405547D02*
X141329580Y-78357928D01*
X125326191Y-95954819D02*
X125326191Y-94954819D01*
X125802381Y-95954819D02*
X125802381Y-94954819D01*
X125802381Y-94954819D02*
X126373809Y-95954819D01*
X126373809Y-95954819D02*
X126373809Y-94954819D01*
X151854819Y-96021023D02*
X151854819Y-95354357D01*
X151854819Y-95354357D02*
X152854819Y-95782928D01*
X151854819Y-94497214D02*
X151854819Y-94973404D01*
X151854819Y-94973404D02*
X152331009Y-95021023D01*
X152331009Y-95021023D02*
X152283390Y-94973404D01*
X152283390Y-94973404D02*
X152235771Y-94878166D01*
X152235771Y-94878166D02*
X152235771Y-94640071D01*
X152235771Y-94640071D02*
X152283390Y-94544833D01*
X152283390Y-94544833D02*
X152331009Y-94497214D01*
X152331009Y-94497214D02*
X152426247Y-94449595D01*
X152426247Y-94449595D02*
X152664342Y-94449595D01*
X152664342Y-94449595D02*
X152759580Y-94497214D01*
X152759580Y-94497214D02*
X152807200Y-94544833D01*
X152807200Y-94544833D02*
X152854819Y-94640071D01*
X152854819Y-94640071D02*
X152854819Y-94878166D01*
X152854819Y-94878166D02*
X152807200Y-94973404D01*
X152807200Y-94973404D02*
X152759580Y-95021023D01*
X144504819Y-84761904D02*
X144504819Y-84952380D01*
X144504819Y-84952380D02*
X144552438Y-85047618D01*
X144552438Y-85047618D02*
X144600057Y-85095237D01*
X144600057Y-85095237D02*
X144742914Y-85190475D01*
X144742914Y-85190475D02*
X144933390Y-85238094D01*
X144933390Y-85238094D02*
X145314342Y-85238094D01*
X145314342Y-85238094D02*
X145409580Y-85190475D01*
X145409580Y-85190475D02*
X145457200Y-85142856D01*
X145457200Y-85142856D02*
X145504819Y-85047618D01*
X145504819Y-85047618D02*
X145504819Y-84857142D01*
X145504819Y-84857142D02*
X145457200Y-84761904D01*
X145457200Y-84761904D02*
X145409580Y-84714285D01*
X145409580Y-84714285D02*
X145314342Y-84666666D01*
X145314342Y-84666666D02*
X145076247Y-84666666D01*
X145076247Y-84666666D02*
X144981009Y-84714285D01*
X144981009Y-84714285D02*
X144933390Y-84761904D01*
X144933390Y-84761904D02*
X144885771Y-84857142D01*
X144885771Y-84857142D02*
X144885771Y-85047618D01*
X144885771Y-85047618D02*
X144933390Y-85142856D01*
X144933390Y-85142856D02*
X144981009Y-85190475D01*
X144981009Y-85190475D02*
X145076247Y-85238094D01*
X144933390Y-84095237D02*
X144885771Y-84190475D01*
X144885771Y-84190475D02*
X144838152Y-84238094D01*
X144838152Y-84238094D02*
X144742914Y-84285713D01*
X144742914Y-84285713D02*
X144695295Y-84285713D01*
X144695295Y-84285713D02*
X144600057Y-84238094D01*
X144600057Y-84238094D02*
X144552438Y-84190475D01*
X144552438Y-84190475D02*
X144504819Y-84095237D01*
X144504819Y-84095237D02*
X144504819Y-83904761D01*
X144504819Y-83904761D02*
X144552438Y-83809523D01*
X144552438Y-83809523D02*
X144600057Y-83761904D01*
X144600057Y-83761904D02*
X144695295Y-83714285D01*
X144695295Y-83714285D02*
X144742914Y-83714285D01*
X144742914Y-83714285D02*
X144838152Y-83761904D01*
X144838152Y-83761904D02*
X144885771Y-83809523D01*
X144885771Y-83809523D02*
X144933390Y-83904761D01*
X144933390Y-83904761D02*
X144933390Y-84095237D01*
X144933390Y-84095237D02*
X144981009Y-84190475D01*
X144981009Y-84190475D02*
X145028628Y-84238094D01*
X145028628Y-84238094D02*
X145123866Y-84285713D01*
X145123866Y-84285713D02*
X145314342Y-84285713D01*
X145314342Y-84285713D02*
X145409580Y-84238094D01*
X145409580Y-84238094D02*
X145457200Y-84190475D01*
X145457200Y-84190475D02*
X145504819Y-84095237D01*
X145504819Y-84095237D02*
X145504819Y-83904761D01*
X145504819Y-83904761D02*
X145457200Y-83809523D01*
X145457200Y-83809523D02*
X145409580Y-83761904D01*
X145409580Y-83761904D02*
X145314342Y-83714285D01*
X145314342Y-83714285D02*
X145123866Y-83714285D01*
X145123866Y-83714285D02*
X145028628Y-83761904D01*
X145028628Y-83761904D02*
X144981009Y-83809523D01*
X144981009Y-83809523D02*
X144933390Y-83904761D01*
X144504819Y-83095237D02*
X144504819Y-82999999D01*
X144504819Y-82999999D02*
X144552438Y-82904761D01*
X144552438Y-82904761D02*
X144600057Y-82857142D01*
X144600057Y-82857142D02*
X144695295Y-82809523D01*
X144695295Y-82809523D02*
X144885771Y-82761904D01*
X144885771Y-82761904D02*
X145123866Y-82761904D01*
X145123866Y-82761904D02*
X145314342Y-82809523D01*
X145314342Y-82809523D02*
X145409580Y-82857142D01*
X145409580Y-82857142D02*
X145457200Y-82904761D01*
X145457200Y-82904761D02*
X145504819Y-82999999D01*
X145504819Y-82999999D02*
X145504819Y-83095237D01*
X145504819Y-83095237D02*
X145457200Y-83190475D01*
X145457200Y-83190475D02*
X145409580Y-83238094D01*
X145409580Y-83238094D02*
X145314342Y-83285713D01*
X145314342Y-83285713D02*
X145123866Y-83333332D01*
X145123866Y-83333332D02*
X144885771Y-83333332D01*
X144885771Y-83333332D02*
X144695295Y-83285713D01*
X144695295Y-83285713D02*
X144600057Y-83238094D01*
X144600057Y-83238094D02*
X144552438Y-83190475D01*
X144552438Y-83190475D02*
X144504819Y-83095237D01*
X145504819Y-82333332D02*
X144504819Y-82333332D01*
X145504819Y-81761904D02*
X144933390Y-82190475D01*
X144504819Y-81761904D02*
X145076247Y-82333332D01*
X169304819Y-106866666D02*
X169304819Y-107438094D01*
X169304819Y-107152380D02*
X168304819Y-107152380D01*
X168304819Y-107152380D02*
X168447676Y-107247618D01*
X168447676Y-107247618D02*
X168542914Y-107342856D01*
X168542914Y-107342856D02*
X168590533Y-107438094D01*
X168638152Y-106009523D02*
X169304819Y-106009523D01*
X168638152Y-106438094D02*
X169161961Y-106438094D01*
X169161961Y-106438094D02*
X169257200Y-106390475D01*
X169257200Y-106390475D02*
X169304819Y-106295237D01*
X169304819Y-106295237D02*
X169304819Y-106152380D01*
X169304819Y-106152380D02*
X169257200Y-106057142D01*
X169257200Y-106057142D02*
X169209580Y-106009523D01*
X162054819Y-92216666D02*
X162054819Y-92788094D01*
X162054819Y-92502380D02*
X161054819Y-92502380D01*
X161054819Y-92502380D02*
X161197676Y-92597618D01*
X161197676Y-92597618D02*
X161292914Y-92692856D01*
X161292914Y-92692856D02*
X161340533Y-92788094D01*
X161388152Y-91359523D02*
X162054819Y-91359523D01*
X161007200Y-91597618D02*
X161721485Y-91835713D01*
X161721485Y-91835713D02*
X161721485Y-91216666D01*
X161054819Y-90645237D02*
X161054819Y-90549999D01*
X161054819Y-90549999D02*
X161102438Y-90454761D01*
X161102438Y-90454761D02*
X161150057Y-90407142D01*
X161150057Y-90407142D02*
X161245295Y-90359523D01*
X161245295Y-90359523D02*
X161435771Y-90311904D01*
X161435771Y-90311904D02*
X161673866Y-90311904D01*
X161673866Y-90311904D02*
X161864342Y-90359523D01*
X161864342Y-90359523D02*
X161959580Y-90407142D01*
X161959580Y-90407142D02*
X162007200Y-90454761D01*
X162007200Y-90454761D02*
X162054819Y-90549999D01*
X162054819Y-90549999D02*
X162054819Y-90645237D01*
X162054819Y-90645237D02*
X162007200Y-90740475D01*
X162007200Y-90740475D02*
X161959580Y-90788094D01*
X161959580Y-90788094D02*
X161864342Y-90835713D01*
X161864342Y-90835713D02*
X161673866Y-90883332D01*
X161673866Y-90883332D02*
X161435771Y-90883332D01*
X161435771Y-90883332D02*
X161245295Y-90835713D01*
X161245295Y-90835713D02*
X161150057Y-90788094D01*
X161150057Y-90788094D02*
X161102438Y-90740475D01*
X161102438Y-90740475D02*
X161054819Y-90645237D01*
X161983333Y-102504819D02*
X161411905Y-102504819D01*
X161697619Y-102504819D02*
X161697619Y-101504819D01*
X161697619Y-101504819D02*
X161602381Y-101647676D01*
X161602381Y-101647676D02*
X161507143Y-101742914D01*
X161507143Y-101742914D02*
X161411905Y-101790533D01*
X162840476Y-101838152D02*
X162840476Y-102504819D01*
X162411905Y-101838152D02*
X162411905Y-102361961D01*
X162411905Y-102361961D02*
X162459524Y-102457200D01*
X162459524Y-102457200D02*
X162554762Y-102504819D01*
X162554762Y-102504819D02*
X162697619Y-102504819D01*
X162697619Y-102504819D02*
X162792857Y-102457200D01*
X162792857Y-102457200D02*
X162840476Y-102409580D01*
X169200057Y-97533332D02*
X169152438Y-97485713D01*
X169152438Y-97485713D02*
X169104819Y-97390475D01*
X169104819Y-97390475D02*
X169104819Y-97152380D01*
X169104819Y-97152380D02*
X169152438Y-97057142D01*
X169152438Y-97057142D02*
X169200057Y-97009523D01*
X169200057Y-97009523D02*
X169295295Y-96961904D01*
X169295295Y-96961904D02*
X169390533Y-96961904D01*
X169390533Y-96961904D02*
X169533390Y-97009523D01*
X169533390Y-97009523D02*
X170104819Y-97580951D01*
X170104819Y-97580951D02*
X170104819Y-96961904D01*
X170104819Y-96533332D02*
X169104819Y-96533332D01*
X169104819Y-96533332D02*
X169819104Y-96199999D01*
X169819104Y-96199999D02*
X169104819Y-95866666D01*
X169104819Y-95866666D02*
X170104819Y-95866666D01*
X169200057Y-95438094D02*
X169152438Y-95390475D01*
X169152438Y-95390475D02*
X169104819Y-95295237D01*
X169104819Y-95295237D02*
X169104819Y-95057142D01*
X169104819Y-95057142D02*
X169152438Y-94961904D01*
X169152438Y-94961904D02*
X169200057Y-94914285D01*
X169200057Y-94914285D02*
X169295295Y-94866666D01*
X169295295Y-94866666D02*
X169390533Y-94866666D01*
X169390533Y-94866666D02*
X169533390Y-94914285D01*
X169533390Y-94914285D02*
X170104819Y-95485713D01*
X170104819Y-95485713D02*
X170104819Y-94866666D01*
X129354819Y-97266666D02*
X129354819Y-97838094D01*
X129354819Y-97552380D02*
X128354819Y-97552380D01*
X128354819Y-97552380D02*
X128497676Y-97647618D01*
X128497676Y-97647618D02*
X128592914Y-97742856D01*
X128592914Y-97742856D02*
X128640533Y-97838094D01*
X128688152Y-96409523D02*
X129354819Y-96409523D01*
X128688152Y-96838094D02*
X129211961Y-96838094D01*
X129211961Y-96838094D02*
X129307200Y-96790475D01*
X129307200Y-96790475D02*
X129354819Y-96695237D01*
X129354819Y-96695237D02*
X129354819Y-96552380D01*
X129354819Y-96552380D02*
X129307200Y-96457142D01*
X129307200Y-96457142D02*
X129259580Y-96409523D01*
X144683333Y-99504819D02*
X144111905Y-99504819D01*
X144397619Y-99504819D02*
X144397619Y-98504819D01*
X144397619Y-98504819D02*
X144302381Y-98647676D01*
X144302381Y-98647676D02*
X144207143Y-98742914D01*
X144207143Y-98742914D02*
X144111905Y-98790533D01*
X145540476Y-98838152D02*
X145540476Y-99504819D01*
X145111905Y-98838152D02*
X145111905Y-99361961D01*
X145111905Y-99361961D02*
X145159524Y-99457200D01*
X145159524Y-99457200D02*
X145254762Y-99504819D01*
X145254762Y-99504819D02*
X145397619Y-99504819D01*
X145397619Y-99504819D02*
X145492857Y-99457200D01*
X145492857Y-99457200D02*
X145540476Y-99409580D01*
D11*
%TO.C,J2*%
X168335000Y-92046500D02*
X167005000Y-92046500D01*
X168335000Y-90716500D02*
X168335000Y-92046500D01*
X168335000Y-89446500D02*
X168335000Y-76686500D01*
X168335000Y-89446500D02*
X165735000Y-89446500D01*
X168335000Y-76686500D02*
X163135000Y-76686500D01*
X165735000Y-92046500D02*
X163135000Y-92046500D01*
X165735000Y-89446500D02*
X165735000Y-92046500D01*
X163135000Y-92046500D02*
X163135000Y-76686500D01*
%TO.C,U1*%
X154960000Y-82461500D02*
X154960000Y-79011500D01*
X154960000Y-82461500D02*
X154960000Y-84411500D01*
X149840000Y-82461500D02*
X149840000Y-80511500D01*
X149840000Y-82461500D02*
X149840000Y-84411500D01*
%TO.C,R3*%
X133985000Y-85050000D02*
X133985000Y-85670000D01*
X134905000Y-84130000D02*
G75*
G03*
X134905000Y-84130000I-920000J0D01*
G01*
%TO.C,C18*%
X157270000Y-82771000D02*
X157270000Y-84029000D01*
X155430000Y-82771000D02*
X155430000Y-84029000D01*
%TO.C,R1*%
X129840000Y-80556500D02*
X129220000Y-80556500D01*
X131680000Y-80556500D02*
G75*
G03*
X131680000Y-80556500I-920000J0D01*
G01*
%TO.C,R13*%
X155575000Y-95461500D02*
X155575000Y-94841500D01*
X156495000Y-96381500D02*
G75*
G03*
X156495000Y-96381500I-920000J0D01*
G01*
%TO.C,R4*%
X134000000Y-94400000D02*
X134000000Y-95020000D01*
X134920000Y-93480000D02*
G75*
G03*
X134920000Y-93480000I-920000J0D01*
G01*
%TO.C,C8*%
X124557600Y-98355000D02*
X124957600Y-98355000D01*
X124757600Y-98155000D02*
X124757600Y-98555000D01*
X126827401Y-97470000D02*
X126827401Y-98710000D01*
X126827401Y-100390000D02*
X126827401Y-101630000D01*
X126867401Y-97470000D02*
X126867401Y-98710000D01*
X126867401Y-100390000D02*
X126867401Y-101630000D01*
X126907401Y-97471000D02*
X126907401Y-98710000D01*
X126907401Y-100390000D02*
X126907401Y-101629000D01*
X126947401Y-97473000D02*
X126947401Y-98710000D01*
X126947401Y-100390000D02*
X126947401Y-101627000D01*
X126987401Y-97476000D02*
X126987401Y-98710000D01*
X126987401Y-100390000D02*
X126987401Y-101624000D01*
X127027401Y-97479000D02*
X127027401Y-98710000D01*
X127027401Y-100390000D02*
X127027401Y-101621000D01*
X127067401Y-97483000D02*
X127067401Y-98710000D01*
X127067401Y-100390000D02*
X127067401Y-101617000D01*
X127107401Y-97488000D02*
X127107401Y-98710000D01*
X127107401Y-100390000D02*
X127107401Y-101612000D01*
X127147401Y-97494000D02*
X127147401Y-98710000D01*
X127147401Y-100390000D02*
X127147401Y-101606000D01*
X127187401Y-97500000D02*
X127187401Y-98710000D01*
X127187401Y-100390000D02*
X127187401Y-101600000D01*
X127227401Y-97508000D02*
X127227401Y-98710000D01*
X127227401Y-100390000D02*
X127227401Y-101592000D01*
X127267401Y-97516000D02*
X127267401Y-98710000D01*
X127267401Y-100390000D02*
X127267401Y-101584000D01*
X127307401Y-97525000D02*
X127307401Y-98710000D01*
X127307401Y-100390000D02*
X127307401Y-101575000D01*
X127347401Y-97534000D02*
X127347401Y-98710000D01*
X127347401Y-100390000D02*
X127347401Y-101566000D01*
X127387401Y-97545000D02*
X127387401Y-98710000D01*
X127387401Y-100390000D02*
X127387401Y-101555000D01*
X127427401Y-97556000D02*
X127427401Y-98710000D01*
X127427401Y-100390000D02*
X127427401Y-101544000D01*
X127467401Y-97568000D02*
X127467401Y-98710000D01*
X127467401Y-100390000D02*
X127467401Y-101532000D01*
X127507401Y-97582000D02*
X127507401Y-98710000D01*
X127507401Y-100390000D02*
X127507401Y-101518000D01*
X127548401Y-97596000D02*
X127548401Y-98710000D01*
X127548401Y-100390000D02*
X127548401Y-101504000D01*
X127588401Y-97610000D02*
X127588401Y-98710000D01*
X127588401Y-100390000D02*
X127588401Y-101490000D01*
X127628401Y-97626000D02*
X127628401Y-98710000D01*
X127628401Y-100390000D02*
X127628401Y-101474000D01*
X127668401Y-97643000D02*
X127668401Y-98710000D01*
X127668401Y-100390000D02*
X127668401Y-101457000D01*
X127708401Y-97661000D02*
X127708401Y-98710000D01*
X127708401Y-100390000D02*
X127708401Y-101439000D01*
X127748401Y-97680000D02*
X127748401Y-98710000D01*
X127748401Y-100390000D02*
X127748401Y-101420000D01*
X127788401Y-97699000D02*
X127788401Y-98710000D01*
X127788401Y-100390000D02*
X127788401Y-101401000D01*
X127828401Y-97720000D02*
X127828401Y-98710000D01*
X127828401Y-100390000D02*
X127828401Y-101380000D01*
X127868401Y-97742000D02*
X127868401Y-98710000D01*
X127868401Y-100390000D02*
X127868401Y-101358000D01*
X127908401Y-97765000D02*
X127908401Y-98710000D01*
X127908401Y-100390000D02*
X127908401Y-101335000D01*
X127948401Y-97790000D02*
X127948401Y-98710000D01*
X127948401Y-100390000D02*
X127948401Y-101310000D01*
X127988401Y-97815000D02*
X127988401Y-98710000D01*
X127988401Y-100390000D02*
X127988401Y-101285000D01*
X128028401Y-97842000D02*
X128028401Y-98710000D01*
X128028401Y-100390000D02*
X128028401Y-101258000D01*
X128068401Y-97870000D02*
X128068401Y-98710000D01*
X128068401Y-100390000D02*
X128068401Y-101230000D01*
X128108401Y-97900000D02*
X128108401Y-98710000D01*
X128108401Y-100390000D02*
X128108401Y-101200000D01*
X128148401Y-97931000D02*
X128148401Y-98710000D01*
X128148401Y-100390000D02*
X128148401Y-101169000D01*
X128188401Y-97963000D02*
X128188401Y-98710000D01*
X128188401Y-100390000D02*
X128188401Y-101137000D01*
X128228401Y-97998000D02*
X128228401Y-98710000D01*
X128228401Y-100390000D02*
X128228401Y-101102000D01*
X128268401Y-98034000D02*
X128268401Y-98710000D01*
X128268401Y-100390000D02*
X128268401Y-101066000D01*
X128308401Y-98072000D02*
X128308401Y-98710000D01*
X128308401Y-100390000D02*
X128308401Y-101028000D01*
X128348401Y-98112000D02*
X128348401Y-98710000D01*
X128348401Y-100390000D02*
X128348401Y-100988000D01*
X128388401Y-98154000D02*
X128388401Y-98710000D01*
X128388401Y-100390000D02*
X128388401Y-100946000D01*
X128428401Y-98199000D02*
X128428401Y-100901000D01*
X128468401Y-98246000D02*
X128468401Y-100854000D01*
X128508401Y-98296000D02*
X128508401Y-100804000D01*
X128548401Y-98350000D02*
X128548401Y-100750000D01*
X128588401Y-98408000D02*
X128588401Y-100692000D01*
X128628401Y-98470000D02*
X128628401Y-100630000D01*
X128668401Y-98537000D02*
X128668401Y-100563000D01*
X128708401Y-98610000D02*
X128708401Y-100490000D01*
X128748401Y-98691000D02*
X128748401Y-100409000D01*
X128788401Y-98782000D02*
X128788401Y-100318000D01*
X128828401Y-98886000D02*
X128828401Y-100214000D01*
X128868401Y-99013000D02*
X128868401Y-100087000D01*
X128908401Y-99180000D02*
X128908401Y-99920000D01*
X128947401Y-99550000D02*
G75*
G03*
X128947401Y-99550000I-2120000J0D01*
G01*
%TO.C,R6*%
X160000000Y-84200000D02*
X160000000Y-84820000D01*
X160920000Y-83280000D02*
G75*
G03*
X160920000Y-83280000I-920000J0D01*
G01*
%TO.C,R10*%
X163250000Y-106150000D02*
X163870000Y-106150000D01*
X163250000Y-106150000D02*
G75*
G03*
X163250000Y-106150000I-920000J0D01*
G01*
%TO.C,R7*%
X167800000Y-100250000D02*
X167800000Y-100870000D01*
X168720000Y-99330000D02*
G75*
G03*
X168720000Y-99330000I-920000J0D01*
G01*
%TO.C,C3*%
X135580000Y-85979000D02*
X135580000Y-84721000D01*
X137420000Y-85979000D02*
X137420000Y-84721000D01*
%TO.C,C19*%
X163780000Y-95550000D02*
X163160000Y-95550000D01*
X165620000Y-95550000D02*
G75*
G03*
X165620000Y-95550000I-920000J0D01*
G01*
%TO.C,R2*%
X133985000Y-89731500D02*
X133985000Y-90351500D01*
X134905000Y-88811500D02*
G75*
G03*
X134905000Y-88811500I-920000J0D01*
G01*
%TO.C,V1*%
X153223500Y-107120000D02*
X129276500Y-107120000D01*
X153223500Y-103080000D02*
X153223500Y-107120000D01*
X152223500Y-102080000D02*
X153223500Y-103080000D01*
X129276500Y-107120000D02*
X129276500Y-102080000D01*
X129276500Y-102080000D02*
X152223500Y-102080000D01*
%TO.C,R9*%
X158050000Y-106150000D02*
X158670000Y-106150000D01*
X158050000Y-106150000D02*
G75*
G03*
X158050000Y-106150000I-920000J0D01*
G01*
%TO.C,C4*%
X135580000Y-95429000D02*
X135580000Y-94171000D01*
X137420000Y-95429000D02*
X137420000Y-94171000D01*
%TO.C,R11*%
X145415000Y-95461500D02*
X145415000Y-94841500D01*
X146335000Y-96381500D02*
G75*
G03*
X146335000Y-96381500I-920000J0D01*
G01*
%TO.C,C1*%
X133991000Y-79636500D02*
X135249000Y-79636500D01*
X133991000Y-81476500D02*
X135249000Y-81476500D01*
%TO.C,C17*%
X150271000Y-99830000D02*
X151529000Y-99830000D01*
X150271000Y-101670000D02*
X151529000Y-101670000D01*
%TO.C,C7*%
X126680000Y-105579000D02*
X126680000Y-104321000D01*
X128520000Y-105579000D02*
X128520000Y-104321000D01*
%TO.C,C10*%
X154380000Y-92236301D02*
X154380000Y-91836301D01*
X154180000Y-92036301D02*
X154580000Y-92036301D01*
X153495000Y-89966500D02*
X154735000Y-89966500D01*
X156415000Y-89966500D02*
X157655000Y-89966500D01*
X153495000Y-89926500D02*
X154735000Y-89926500D01*
X156415000Y-89926500D02*
X157655000Y-89926500D01*
X153496000Y-89886500D02*
X154735000Y-89886500D01*
X156415000Y-89886500D02*
X157654000Y-89886500D01*
X153498000Y-89846500D02*
X154735000Y-89846500D01*
X156415000Y-89846500D02*
X157652000Y-89846500D01*
X153501000Y-89806500D02*
X154735000Y-89806500D01*
X156415000Y-89806500D02*
X157649000Y-89806500D01*
X153504000Y-89766500D02*
X154735000Y-89766500D01*
X156415000Y-89766500D02*
X157646000Y-89766500D01*
X153508000Y-89726500D02*
X154735000Y-89726500D01*
X156415000Y-89726500D02*
X157642000Y-89726500D01*
X153513000Y-89686500D02*
X154735000Y-89686500D01*
X156415000Y-89686500D02*
X157637000Y-89686500D01*
X153519000Y-89646500D02*
X154735000Y-89646500D01*
X156415000Y-89646500D02*
X157631000Y-89646500D01*
X153525000Y-89606500D02*
X154735000Y-89606500D01*
X156415000Y-89606500D02*
X157625000Y-89606500D01*
X153533000Y-89566500D02*
X154735000Y-89566500D01*
X156415000Y-89566500D02*
X157617000Y-89566500D01*
X153541000Y-89526500D02*
X154735000Y-89526500D01*
X156415000Y-89526500D02*
X157609000Y-89526500D01*
X153550000Y-89486500D02*
X154735000Y-89486500D01*
X156415000Y-89486500D02*
X157600000Y-89486500D01*
X153559000Y-89446500D02*
X154735000Y-89446500D01*
X156415000Y-89446500D02*
X157591000Y-89446500D01*
X153570000Y-89406500D02*
X154735000Y-89406500D01*
X156415000Y-89406500D02*
X157580000Y-89406500D01*
X153581000Y-89366500D02*
X154735000Y-89366500D01*
X156415000Y-89366500D02*
X157569000Y-89366500D01*
X153593000Y-89326500D02*
X154735000Y-89326500D01*
X156415000Y-89326500D02*
X157557000Y-89326500D01*
X153607000Y-89286500D02*
X154735000Y-89286500D01*
X156415000Y-89286500D02*
X157543000Y-89286500D01*
X153621000Y-89245500D02*
X154735000Y-89245500D01*
X156415000Y-89245500D02*
X157529000Y-89245500D01*
X153635000Y-89205500D02*
X154735000Y-89205500D01*
X156415000Y-89205500D02*
X157515000Y-89205500D01*
X153651000Y-89165500D02*
X154735000Y-89165500D01*
X156415000Y-89165500D02*
X157499000Y-89165500D01*
X153668000Y-89125500D02*
X154735000Y-89125500D01*
X156415000Y-89125500D02*
X157482000Y-89125500D01*
X153686000Y-89085500D02*
X154735000Y-89085500D01*
X156415000Y-89085500D02*
X157464000Y-89085500D01*
X153705000Y-89045500D02*
X154735000Y-89045500D01*
X156415000Y-89045500D02*
X157445000Y-89045500D01*
X153724000Y-89005500D02*
X154735000Y-89005500D01*
X156415000Y-89005500D02*
X157426000Y-89005500D01*
X153745000Y-88965500D02*
X154735000Y-88965500D01*
X156415000Y-88965500D02*
X157405000Y-88965500D01*
X153767000Y-88925500D02*
X154735000Y-88925500D01*
X156415000Y-88925500D02*
X157383000Y-88925500D01*
X153790000Y-88885500D02*
X154735000Y-88885500D01*
X156415000Y-88885500D02*
X157360000Y-88885500D01*
X153815000Y-88845500D02*
X154735000Y-88845500D01*
X156415000Y-88845500D02*
X157335000Y-88845500D01*
X153840000Y-88805500D02*
X154735000Y-88805500D01*
X156415000Y-88805500D02*
X157310000Y-88805500D01*
X153867000Y-88765500D02*
X154735000Y-88765500D01*
X156415000Y-88765500D02*
X157283000Y-88765500D01*
X153895000Y-88725500D02*
X154735000Y-88725500D01*
X156415000Y-88725500D02*
X157255000Y-88725500D01*
X153925000Y-88685500D02*
X154735000Y-88685500D01*
X156415000Y-88685500D02*
X157225000Y-88685500D01*
X153956000Y-88645500D02*
X154735000Y-88645500D01*
X156415000Y-88645500D02*
X157194000Y-88645500D01*
X153988000Y-88605500D02*
X154735000Y-88605500D01*
X156415000Y-88605500D02*
X157162000Y-88605500D01*
X154023000Y-88565500D02*
X154735000Y-88565500D01*
X156415000Y-88565500D02*
X157127000Y-88565500D01*
X154059000Y-88525500D02*
X154735000Y-88525500D01*
X156415000Y-88525500D02*
X157091000Y-88525500D01*
X154097000Y-88485500D02*
X154735000Y-88485500D01*
X156415000Y-88485500D02*
X157053000Y-88485500D01*
X154137000Y-88445500D02*
X154735000Y-88445500D01*
X156415000Y-88445500D02*
X157013000Y-88445500D01*
X154179000Y-88405500D02*
X154735000Y-88405500D01*
X156415000Y-88405500D02*
X156971000Y-88405500D01*
X154224000Y-88365500D02*
X156926000Y-88365500D01*
X154271000Y-88325500D02*
X156879000Y-88325500D01*
X154321000Y-88285500D02*
X156829000Y-88285500D01*
X154375000Y-88245500D02*
X156775000Y-88245500D01*
X154433000Y-88205500D02*
X156717000Y-88205500D01*
X154495000Y-88165500D02*
X156655000Y-88165500D01*
X154562000Y-88125500D02*
X156588000Y-88125500D01*
X154635000Y-88085500D02*
X156515000Y-88085500D01*
X154716000Y-88045500D02*
X156434000Y-88045500D01*
X154807000Y-88005500D02*
X156343000Y-88005500D01*
X154911000Y-87965500D02*
X156239000Y-87965500D01*
X155038000Y-87925500D02*
X156112000Y-87925500D01*
X155205000Y-87885500D02*
X155945000Y-87885500D01*
X157695000Y-89966500D02*
G75*
G03*
X157695000Y-89966500I-2120000J0D01*
G01*
%TO.C,D1*%
X162650000Y-102660000D02*
X166250000Y-102660000D01*
X162650000Y-102660000D02*
X160450000Y-102660000D01*
X162650000Y-97440000D02*
X164850000Y-97440000D01*
X162650000Y-97440000D02*
X160450000Y-97440000D01*
%TO.C,C12*%
X157721000Y-103030000D02*
X158979000Y-103030000D01*
X157721000Y-104870000D02*
X158979000Y-104870000D01*
%TO.C,C15*%
X153630000Y-105279000D02*
X153630000Y-104021000D01*
X155470000Y-105279000D02*
X155470000Y-104021000D01*
%TO.C,C5*%
X141955000Y-79915500D02*
X141955000Y-78657500D01*
X143795000Y-79915500D02*
X143795000Y-78657500D01*
%TO.C,J1*%
X126808000Y-83130000D02*
X128138000Y-83130000D01*
X126808000Y-84460000D02*
X126808000Y-83130000D01*
X126808000Y-85730000D02*
X126808000Y-95950000D01*
X126808000Y-85730000D02*
X129408000Y-85730000D01*
X126808000Y-95950000D02*
X132008000Y-95950000D01*
X129408000Y-83130000D02*
X132008000Y-83130000D01*
X129408000Y-85730000D02*
X129408000Y-83130000D01*
X132008000Y-83130000D02*
X132008000Y-95950000D01*
%TO.C,C9*%
X149300000Y-92236301D02*
X149300000Y-91836301D01*
X149100000Y-92036301D02*
X149500000Y-92036301D01*
X148415000Y-89966500D02*
X149655000Y-89966500D01*
X151335000Y-89966500D02*
X152575000Y-89966500D01*
X148415000Y-89926500D02*
X149655000Y-89926500D01*
X151335000Y-89926500D02*
X152575000Y-89926500D01*
X148416000Y-89886500D02*
X149655000Y-89886500D01*
X151335000Y-89886500D02*
X152574000Y-89886500D01*
X148418000Y-89846500D02*
X149655000Y-89846500D01*
X151335000Y-89846500D02*
X152572000Y-89846500D01*
X148421000Y-89806500D02*
X149655000Y-89806500D01*
X151335000Y-89806500D02*
X152569000Y-89806500D01*
X148424000Y-89766500D02*
X149655000Y-89766500D01*
X151335000Y-89766500D02*
X152566000Y-89766500D01*
X148428000Y-89726500D02*
X149655000Y-89726500D01*
X151335000Y-89726500D02*
X152562000Y-89726500D01*
X148433000Y-89686500D02*
X149655000Y-89686500D01*
X151335000Y-89686500D02*
X152557000Y-89686500D01*
X148439000Y-89646500D02*
X149655000Y-89646500D01*
X151335000Y-89646500D02*
X152551000Y-89646500D01*
X148445000Y-89606500D02*
X149655000Y-89606500D01*
X151335000Y-89606500D02*
X152545000Y-89606500D01*
X148453000Y-89566500D02*
X149655000Y-89566500D01*
X151335000Y-89566500D02*
X152537000Y-89566500D01*
X148461000Y-89526500D02*
X149655000Y-89526500D01*
X151335000Y-89526500D02*
X152529000Y-89526500D01*
X148470000Y-89486500D02*
X149655000Y-89486500D01*
X151335000Y-89486500D02*
X152520000Y-89486500D01*
X148479000Y-89446500D02*
X149655000Y-89446500D01*
X151335000Y-89446500D02*
X152511000Y-89446500D01*
X148490000Y-89406500D02*
X149655000Y-89406500D01*
X151335000Y-89406500D02*
X152500000Y-89406500D01*
X148501000Y-89366500D02*
X149655000Y-89366500D01*
X151335000Y-89366500D02*
X152489000Y-89366500D01*
X148513000Y-89326500D02*
X149655000Y-89326500D01*
X151335000Y-89326500D02*
X152477000Y-89326500D01*
X148527000Y-89286500D02*
X149655000Y-89286500D01*
X151335000Y-89286500D02*
X152463000Y-89286500D01*
X148541000Y-89245500D02*
X149655000Y-89245500D01*
X151335000Y-89245500D02*
X152449000Y-89245500D01*
X148555000Y-89205500D02*
X149655000Y-89205500D01*
X151335000Y-89205500D02*
X152435000Y-89205500D01*
X148571000Y-89165500D02*
X149655000Y-89165500D01*
X151335000Y-89165500D02*
X152419000Y-89165500D01*
X148588000Y-89125500D02*
X149655000Y-89125500D01*
X151335000Y-89125500D02*
X152402000Y-89125500D01*
X148606000Y-89085500D02*
X149655000Y-89085500D01*
X151335000Y-89085500D02*
X152384000Y-89085500D01*
X148625000Y-89045500D02*
X149655000Y-89045500D01*
X151335000Y-89045500D02*
X152365000Y-89045500D01*
X148644000Y-89005500D02*
X149655000Y-89005500D01*
X151335000Y-89005500D02*
X152346000Y-89005500D01*
X148665000Y-88965500D02*
X149655000Y-88965500D01*
X151335000Y-88965500D02*
X152325000Y-88965500D01*
X148687000Y-88925500D02*
X149655000Y-88925500D01*
X151335000Y-88925500D02*
X152303000Y-88925500D01*
X148710000Y-88885500D02*
X149655000Y-88885500D01*
X151335000Y-88885500D02*
X152280000Y-88885500D01*
X148735000Y-88845500D02*
X149655000Y-88845500D01*
X151335000Y-88845500D02*
X152255000Y-88845500D01*
X148760000Y-88805500D02*
X149655000Y-88805500D01*
X151335000Y-88805500D02*
X152230000Y-88805500D01*
X148787000Y-88765500D02*
X149655000Y-88765500D01*
X151335000Y-88765500D02*
X152203000Y-88765500D01*
X148815000Y-88725500D02*
X149655000Y-88725500D01*
X151335000Y-88725500D02*
X152175000Y-88725500D01*
X148845000Y-88685500D02*
X149655000Y-88685500D01*
X151335000Y-88685500D02*
X152145000Y-88685500D01*
X148876000Y-88645500D02*
X149655000Y-88645500D01*
X151335000Y-88645500D02*
X152114000Y-88645500D01*
X148908000Y-88605500D02*
X149655000Y-88605500D01*
X151335000Y-88605500D02*
X152082000Y-88605500D01*
X148943000Y-88565500D02*
X149655000Y-88565500D01*
X151335000Y-88565500D02*
X152047000Y-88565500D01*
X148979000Y-88525500D02*
X149655000Y-88525500D01*
X151335000Y-88525500D02*
X152011000Y-88525500D01*
X149017000Y-88485500D02*
X149655000Y-88485500D01*
X151335000Y-88485500D02*
X151973000Y-88485500D01*
X149057000Y-88445500D02*
X149655000Y-88445500D01*
X151335000Y-88445500D02*
X151933000Y-88445500D01*
X149099000Y-88405500D02*
X149655000Y-88405500D01*
X151335000Y-88405500D02*
X151891000Y-88405500D01*
X149144000Y-88365500D02*
X151846000Y-88365500D01*
X149191000Y-88325500D02*
X151799000Y-88325500D01*
X149241000Y-88285500D02*
X151749000Y-88285500D01*
X149295000Y-88245500D02*
X151695000Y-88245500D01*
X149353000Y-88205500D02*
X151637000Y-88205500D01*
X149415000Y-88165500D02*
X151575000Y-88165500D01*
X149482000Y-88125500D02*
X151508000Y-88125500D01*
X149555000Y-88085500D02*
X151435000Y-88085500D01*
X149636000Y-88045500D02*
X151354000Y-88045500D01*
X149727000Y-88005500D02*
X151263000Y-88005500D01*
X149831000Y-87965500D02*
X151159000Y-87965500D01*
X149958000Y-87925500D02*
X151032000Y-87925500D01*
X150125000Y-87885500D02*
X150865000Y-87885500D01*
X152615000Y-89966500D02*
G75*
G03*
X152615000Y-89966500I-2120000J0D01*
G01*
%TO.C,C6*%
X144220000Y-92236301D02*
X144220000Y-91836301D01*
X144020000Y-92036301D02*
X144420000Y-92036301D01*
X143335000Y-89966500D02*
X144575000Y-89966500D01*
X146255000Y-89966500D02*
X147495000Y-89966500D01*
X143335000Y-89926500D02*
X144575000Y-89926500D01*
X146255000Y-89926500D02*
X147495000Y-89926500D01*
X143336000Y-89886500D02*
X144575000Y-89886500D01*
X146255000Y-89886500D02*
X147494000Y-89886500D01*
X143338000Y-89846500D02*
X144575000Y-89846500D01*
X146255000Y-89846500D02*
X147492000Y-89846500D01*
X143341000Y-89806500D02*
X144575000Y-89806500D01*
X146255000Y-89806500D02*
X147489000Y-89806500D01*
X143344000Y-89766500D02*
X144575000Y-89766500D01*
X146255000Y-89766500D02*
X147486000Y-89766500D01*
X143348000Y-89726500D02*
X144575000Y-89726500D01*
X146255000Y-89726500D02*
X147482000Y-89726500D01*
X143353000Y-89686500D02*
X144575000Y-89686500D01*
X146255000Y-89686500D02*
X147477000Y-89686500D01*
X143359000Y-89646500D02*
X144575000Y-89646500D01*
X146255000Y-89646500D02*
X147471000Y-89646500D01*
X143365000Y-89606500D02*
X144575000Y-89606500D01*
X146255000Y-89606500D02*
X147465000Y-89606500D01*
X143373000Y-89566500D02*
X144575000Y-89566500D01*
X146255000Y-89566500D02*
X147457000Y-89566500D01*
X143381000Y-89526500D02*
X144575000Y-89526500D01*
X146255000Y-89526500D02*
X147449000Y-89526500D01*
X143390000Y-89486500D02*
X144575000Y-89486500D01*
X146255000Y-89486500D02*
X147440000Y-89486500D01*
X143399000Y-89446500D02*
X144575000Y-89446500D01*
X146255000Y-89446500D02*
X147431000Y-89446500D01*
X143410000Y-89406500D02*
X144575000Y-89406500D01*
X146255000Y-89406500D02*
X147420000Y-89406500D01*
X143421000Y-89366500D02*
X144575000Y-89366500D01*
X146255000Y-89366500D02*
X147409000Y-89366500D01*
X143433000Y-89326500D02*
X144575000Y-89326500D01*
X146255000Y-89326500D02*
X147397000Y-89326500D01*
X143447000Y-89286500D02*
X144575000Y-89286500D01*
X146255000Y-89286500D02*
X147383000Y-89286500D01*
X143461000Y-89245500D02*
X144575000Y-89245500D01*
X146255000Y-89245500D02*
X147369000Y-89245500D01*
X143475000Y-89205500D02*
X144575000Y-89205500D01*
X146255000Y-89205500D02*
X147355000Y-89205500D01*
X143491000Y-89165500D02*
X144575000Y-89165500D01*
X146255000Y-89165500D02*
X147339000Y-89165500D01*
X143508000Y-89125500D02*
X144575000Y-89125500D01*
X146255000Y-89125500D02*
X147322000Y-89125500D01*
X143526000Y-89085500D02*
X144575000Y-89085500D01*
X146255000Y-89085500D02*
X147304000Y-89085500D01*
X143545000Y-89045500D02*
X144575000Y-89045500D01*
X146255000Y-89045500D02*
X147285000Y-89045500D01*
X143564000Y-89005500D02*
X144575000Y-89005500D01*
X146255000Y-89005500D02*
X147266000Y-89005500D01*
X143585000Y-88965500D02*
X144575000Y-88965500D01*
X146255000Y-88965500D02*
X147245000Y-88965500D01*
X143607000Y-88925500D02*
X144575000Y-88925500D01*
X146255000Y-88925500D02*
X147223000Y-88925500D01*
X143630000Y-88885500D02*
X144575000Y-88885500D01*
X146255000Y-88885500D02*
X147200000Y-88885500D01*
X143655000Y-88845500D02*
X144575000Y-88845500D01*
X146255000Y-88845500D02*
X147175000Y-88845500D01*
X143680000Y-88805500D02*
X144575000Y-88805500D01*
X146255000Y-88805500D02*
X147150000Y-88805500D01*
X143707000Y-88765500D02*
X144575000Y-88765500D01*
X146255000Y-88765500D02*
X147123000Y-88765500D01*
X143735000Y-88725500D02*
X144575000Y-88725500D01*
X146255000Y-88725500D02*
X147095000Y-88725500D01*
X143765000Y-88685500D02*
X144575000Y-88685500D01*
X146255000Y-88685500D02*
X147065000Y-88685500D01*
X143796000Y-88645500D02*
X144575000Y-88645500D01*
X146255000Y-88645500D02*
X147034000Y-88645500D01*
X143828000Y-88605500D02*
X144575000Y-88605500D01*
X146255000Y-88605500D02*
X147002000Y-88605500D01*
X143863000Y-88565500D02*
X144575000Y-88565500D01*
X146255000Y-88565500D02*
X146967000Y-88565500D01*
X143899000Y-88525500D02*
X144575000Y-88525500D01*
X146255000Y-88525500D02*
X146931000Y-88525500D01*
X143937000Y-88485500D02*
X144575000Y-88485500D01*
X146255000Y-88485500D02*
X146893000Y-88485500D01*
X143977000Y-88445500D02*
X144575000Y-88445500D01*
X146255000Y-88445500D02*
X146853000Y-88445500D01*
X144019000Y-88405500D02*
X144575000Y-88405500D01*
X146255000Y-88405500D02*
X146811000Y-88405500D01*
X144064000Y-88365500D02*
X146766000Y-88365500D01*
X144111000Y-88325500D02*
X146719000Y-88325500D01*
X144161000Y-88285500D02*
X146669000Y-88285500D01*
X144215000Y-88245500D02*
X146615000Y-88245500D01*
X144273000Y-88205500D02*
X146557000Y-88205500D01*
X144335000Y-88165500D02*
X146495000Y-88165500D01*
X144402000Y-88125500D02*
X146428000Y-88125500D01*
X144475000Y-88085500D02*
X146355000Y-88085500D01*
X144556000Y-88045500D02*
X146274000Y-88045500D01*
X144647000Y-88005500D02*
X146183000Y-88005500D01*
X144751000Y-87965500D02*
X146079000Y-87965500D01*
X144878000Y-87925500D02*
X145952000Y-87925500D01*
X145045000Y-87885500D02*
X145785000Y-87885500D01*
X147535000Y-89966500D02*
G75*
G03*
X147535000Y-89966500I-2120000J0D01*
G01*
%TO.C,R12*%
X150495000Y-94861500D02*
X150495000Y-95481500D01*
X151415000Y-93941500D02*
G75*
G03*
X151415000Y-93941500I-920000J0D01*
G01*
%TO.C,R5*%
X145415000Y-78986500D02*
X145415000Y-79606500D01*
X146335000Y-78066500D02*
G75*
G03*
X146335000Y-78066500I-920000J0D01*
G01*
%TO.C,C14*%
X166180000Y-106179000D02*
X166180000Y-104921000D01*
X168020000Y-106179000D02*
X168020000Y-104921000D01*
%TO.C,C2*%
X135580000Y-90679000D02*
X135580000Y-89421000D01*
X137420000Y-90679000D02*
X137420000Y-89421000D01*
%TO.C,R14*%
X159850000Y-91800000D02*
X159850000Y-91180000D01*
X160770000Y-92720000D02*
G75*
G03*
X160770000Y-92720000I-920000J0D01*
G01*
%TO.C,C13*%
X162921000Y-102980000D02*
X164179000Y-102980000D01*
X162921000Y-104820000D02*
X164179000Y-104820000D01*
%TO.C,R8*%
X167850000Y-95550000D02*
X167850000Y-96170000D01*
X168770000Y-94630000D02*
G75*
G03*
X168770000Y-94630000I-920000J0D01*
G01*
%TO.C,C11*%
X129730000Y-99979000D02*
X129730000Y-98721000D01*
X131570000Y-99979000D02*
X131570000Y-98721000D01*
%TO.C,C16*%
X146829000Y-101720000D02*
X145571000Y-101720000D01*
X146829000Y-99880000D02*
X145571000Y-99880000D01*
%TD*%
M02*
