  0
SECTION
  2
HEADER
  9
$ANGBASE
  50
0.0
  9
$ANGDIR
  70
1
  9
$MEASUREMENT
  70
0
  0
ENDSEC
  0
SECTION
  2
TABLES
  0
TABLE
  2
LTYPE
  70
4
  0
LTYPE
  5
40F
  2
CONTINUOUS
  70
0
  3
Solid line
  72
65
  73
0
  40
0.0
  0
LTYPE
  5
410
  2
DASHDOT
 70
0
  3
Dash Dot ____ _ ____ _
 72
65
 73
4
 40
2.0
 49
1.25
 49
-0.25
 49
0.25
 49
-0.25
  0
LTYPE
  5
411
  2
DASHED
 70
0
  3
Dashed __ __ __ __ __
 72
65
 73
2
 40
0.75
 49
0.5
 49
-0.25
  0
LTYPE
  5
43B
  2
DOTTED
 70
0
  3
Dotted .  .  .  .
 72
65
 73
2
 40
0.2
 49
0.0
 49
-0.2
  0
ENDTAB
  0
TABLE
  2
STYLE
  70
4
  0
STYLE
  2
KICAD
  70
0
  40
0
  41
1
  42
1
  50
0
  71
0
  3
isocp.shx
  0
STYLE
  2
KICADB
  70
0
  40
0
  41
1
  42
1
  50
0
  71
0
  3
isocp.shx
  0
STYLE
  2
KICADI
  70
0
  40
0
  41
1
  42
1
  50
15
  71
0
  3
isocp.shx
  0
STYLE
  2
KICADBI
  70
0
  40
0
  41
1
  42
1
  50
15
  71
0
  3
isocp.shx
  0
ENDTAB
  0
TABLE
  2
LAYER
  70
1
  0
LAYER
  2
BLACK
  70
0
  62
7
  6
CONTINUOUS
  0
ENDTAB
  0
ENDSEC
  0
SECTION
  2
ENTITIES
0
LINE
8
BLACK
6
CONTINUOUS
10
4.82425
20
-2.92486
11
6.72224
21
-2.92486
0
LINE
8
BLACK
6
CONTINUOUS
10
6.72224
20
-2.92486
11
6.72224
21
-4.28726
0
LINE
8
BLACK
6
CONTINUOUS
10
6.72224
20
-4.28726
11
4.82425
21
-4.28726
0
LINE
8
BLACK
6
CONTINUOUS
10
4.82425
20
-4.28726
11
4.82425
21
-2.92486
0
LINE
8
BLACK
6
CONTINUOUS
10
4.95187
20
-3.90748
11
4.97549
21
-3.9311
0
LINE
8
BLACK
6
CONTINUOUS
10
4.97549
20
-3.90748
11
4.95187
21
-3.9311
0
LINE
8
BLACK
6
CONTINUOUS
10
5.01092
20
-3.90748
11
5.03454
21
-3.9311
0
LINE
8
BLACK
6
CONTINUOUS
10
5.03454
20
-3.90748
11
5.01092
21
-3.9311
0
LINE
8
BLACK
6
CONTINUOUS
10
5.71319
20
-3.50065
11
5.73681
21
-3.52427
0
LINE
8
BLACK
6
CONTINUOUS
10
5.73681
20
-3.50065
11
5.71319
21
-3.52427
0
LINE
8
BLACK
6
CONTINUOUS
10
5.71319
20
-3.5597
11
5.73681
21
-3.58333
0
LINE
8
BLACK
6
CONTINUOUS
10
5.73681
20
-3.5597
11
5.71319
21
-3.58333
0
LINE
8
BLACK
6
CONTINUOUS
10
5.91319
20
-3.50065
11
5.93681
21
-3.52427
0
LINE
8
BLACK
6
CONTINUOUS
10
5.93681
20
-3.50065
11
5.91319
21
-3.52427
0
LINE
8
BLACK
6
CONTINUOUS
10
5.91319
20
-3.5597
11
5.93681
21
-3.58333
0
LINE
8
BLACK
6
CONTINUOUS
10
5.93681
20
-3.5597
11
5.91319
21
-3.58333
0
LINE
8
BLACK
6
CONTINUOUS
10
6.11319
20
-3.50065
11
6.13681
21
-3.52427
0
LINE
8
BLACK
6
CONTINUOUS
10
6.13681
20
-3.50065
11
6.11319
21
-3.52427
0
LINE
8
BLACK
6
CONTINUOUS
10
6.11319
20
-3.5597
11
6.13681
21
-3.58333
0
LINE
8
BLACK
6
CONTINUOUS
10
6.13681
20
-3.5597
11
6.11319
21
-3.58333
0
CIRCLE
8
BLACK
10
5.04803
20
-3.17152
40
0.0137795
0
CIRCLE
8
BLACK
10
5.14803
20
-3.17152
40
0.0137795
0
CIRCLE
8
BLACK
10
5.275
20
-3.3122
40
0.0137795
0
CIRCLE
8
BLACK
10
5.275
20
-3.4122
40
0.0137795
0
CIRCLE
8
BLACK
10
5.275
20
-3.49652
40
0.0137795
0
CIRCLE
8
BLACK
10
5.275
20
-3.59652
40
0.0137795
0
CIRCLE
8
BLACK
10
5.27559
20
-3.68031
40
0.0137795
0
CIRCLE
8
BLACK
10
5.27559
20
-3.78031
40
0.0137795
0
CIRCLE
8
BLACK
10
5.725
20
-3.07348
40
0.0137795
0
CIRCLE
8
BLACK
10
5.725
20
-3.17348
40
0.0137795
0
CIRCLE
8
BLACK
10
5.725
20
-3.69455
40
0.0137795
0
CIRCLE
8
BLACK
10
5.725
20
-3.79455
40
0.0137795
0
CIRCLE
8
BLACK
10
5.925
20
-3.69848
40
0.0137795
0
CIRCLE
8
BLACK
10
5.925
20
-3.79848
40
0.0137795
0
CIRCLE
8
BLACK
10
6.125
20
-3.69455
40
0.0137795
0
CIRCLE
8
BLACK
10
6.125
20
-3.79455
40
0.0137795
0
CIRCLE
8
BLACK
10
6.18622
20
-4.17913
40
0.0137795
0
CIRCLE
8
BLACK
10
6.28622
20
-4.17913
40
0.0137795
0
CIRCLE
8
BLACK
10
6.29331
20
-3.55039
40
0.0137795
0
CIRCLE
8
BLACK
10
6.29331
20
-3.65039
40
0.0137795
0
CIRCLE
8
BLACK
10
6.29921
20
-3.27874
40
0.0137795
0
CIRCLE
8
BLACK
10
6.29921
20
-3.37874
40
0.0137795
0
CIRCLE
8
BLACK
10
6.38425
20
-3.76181
40
0.0137795
0
CIRCLE
8
BLACK
10
6.39094
20
-4.17913
40
0.0137795
0
CIRCLE
8
BLACK
10
6.48425
20
-3.76181
40
0.0137795
0
CIRCLE
8
BLACK
10
6.49094
20
-4.17913
40
0.0137795
0
CIRCLE
8
BLACK
10
6.6063
20
-3.91063
40
0.0137795
0
CIRCLE
8
BLACK
10
6.6063
20
-4.01063
40
0.0137795
0
CIRCLE
8
BLACK
10
6.60827
20
-3.72559
40
0.0137795
0
CIRCLE
8
BLACK
10
6.60827
20
-3.82559
40
0.0137795
0
LINE
8
BLACK
6
CONTINUOUS
10
5.02362
20
-4.06693
11
5.02362
21
-4.09843
0
LINE
8
BLACK
6
CONTINUOUS
10
5.00787
20
-4.08268
11
5.03937
21
-4.08268
0
LINE
8
BLACK
6
CONTINUOUS
10
5.02362
20
-4.16535
11
5.02362
21
-4.19685
0
LINE
8
BLACK
6
CONTINUOUS
10
5.00787
20
-4.1811
11
5.03937
21
-4.1811
0
LINE
8
BLACK
6
CONTINUOUS
10
5.1437
20
-3.84646
11
5.1437
21
-3.87795
0
LINE
8
BLACK
6
CONTINUOUS
10
5.12795
20
-3.8622
11
5.15945
21
-3.8622
0
LINE
8
BLACK
6
CONTINUOUS
10
5.1437
20
-3.94488
11
5.1437
21
-3.97638
0
LINE
8
BLACK
6
CONTINUOUS
10
5.12795
20
-3.96063
11
5.15945
21
-3.96063
0
LINE
8
BLACK
6
CONTINUOUS
10
5.15852
20
-4.15236
11
5.15852
21
-4.18386
0
LINE
8
BLACK
6
CONTINUOUS
10
5.14278
20
-4.16811
11
5.17427
21
-4.16811
0
LINE
8
BLACK
6
CONTINUOUS
10
5.19352
20
-4.05236
11
5.19352
21
-4.08386
0
LINE
8
BLACK
6
CONTINUOUS
10
5.17778
20
-4.06811
11
5.20927
21
-4.06811
0
LINE
8
BLACK
6
CONTINUOUS
10
5.22852
20
-4.15236
11
5.22852
21
-4.18386
0
LINE
8
BLACK
6
CONTINUOUS
10
5.21278
20
-4.16811
11
5.24427
21
-4.16811
0
LINE
8
BLACK
6
CONTINUOUS
10
5.25079
20
-3.15577
11
5.25079
21
-3.18726
0
LINE
8
BLACK
6
CONTINUOUS
10
5.23504
20
-3.17152
11
5.26654
21
-3.17152
0
LINE
8
BLACK
6
CONTINUOUS
10
5.26352
20
-4.05236
11
5.26352
21
-4.08386
0
LINE
8
BLACK
6
CONTINUOUS
10
5.24778
20
-4.06811
11
5.27927
21
-4.06811
0
LINE
8
BLACK
6
CONTINUOUS
10
5.29852
20
-4.15236
11
5.29852
21
-4.18386
0
LINE
8
BLACK
6
CONTINUOUS
10
5.28278
20
-4.16811
11
5.31427
21
-4.16811
0
LINE
8
BLACK
6
CONTINUOUS
10
5.33352
20
-4.05236
11
5.33352
21
-4.08386
0
LINE
8
BLACK
6
CONTINUOUS
10
5.31778
20
-4.06811
11
5.34927
21
-4.06811
0
LINE
8
BLACK
6
CONTINUOUS
10
5.34921
20
-3.15577
11
5.34921
21
-3.18726
0
LINE
8
BLACK
6
CONTINUOUS
10
5.33346
20
-3.17152
11
5.36496
21
-3.17152
0
LINE
8
BLACK
6
CONTINUOUS
10
5.36852
20
-4.15236
11
5.36852
21
-4.18386
0
LINE
8
BLACK
6
CONTINUOUS
10
5.35278
20
-4.16811
11
5.38427
21
-4.16811
0
LINE
8
BLACK
6
CONTINUOUS
10
5.37402
20
-3.29528
11
5.37402
21
-3.32677
0
LINE
8
BLACK
6
CONTINUOUS
10
5.35827
20
-3.31102
11
5.38976
21
-3.31102
0
LINE
8
BLACK
6
CONTINUOUS
10
5.37402
20
-3.3937
11
5.37402
21
-3.4252
0
LINE
8
BLACK
6
CONTINUOUS
10
5.35827
20
-3.40945
11
5.38976
21
-3.40945
0
LINE
8
BLACK
6
CONTINUOUS
10
5.37402
20
-3.48031
11
5.37402
21
-3.51181
0
LINE
8
BLACK
6
CONTINUOUS
10
5.35827
20
-3.49606
11
5.38976
21
-3.49606
0
LINE
8
BLACK
6
CONTINUOUS
10
5.37402
20
-3.57874
11
5.37402
21
-3.61024
0
LINE
8
BLACK
6
CONTINUOUS
10
5.35827
20
-3.59449
11
5.38976
21
-3.59449
0
LINE
8
BLACK
6
CONTINUOUS
10
5.37402
20
-3.66732
11
5.37402
21
-3.69882
0
LINE
8
BLACK
6
CONTINUOUS
10
5.35827
20
-3.68307
11
5.38976
21
-3.68307
0
LINE
8
BLACK
6
CONTINUOUS
10
5.37402
20
-3.76575
11
5.37402
21
-3.79724
0
LINE
8
BLACK
6
CONTINUOUS
10
5.35827
20
-3.7815
11
5.38976
21
-3.7815
0
LINE
8
BLACK
6
CONTINUOUS
10
5.40352
20
-4.05236
11
5.40352
21
-4.08386
0
LINE
8
BLACK
6
CONTINUOUS
10
5.38778
20
-4.06811
11
5.41927
21
-4.06811
0
LINE
8
BLACK
6
CONTINUOUS
10
5.43852
20
-4.15236
11
5.43852
21
-4.18386
0
LINE
8
BLACK
6
CONTINUOUS
10
5.42278
20
-4.16811
11
5.45427
21
-4.16811
0
LINE
8
BLACK
6
CONTINUOUS
10
5.47352
20
-4.05236
11
5.47352
21
-4.08386
0
LINE
8
BLACK
6
CONTINUOUS
10
5.45778
20
-4.06811
11
5.48927
21
-4.06811
0
LINE
8
BLACK
6
CONTINUOUS
10
5.50852
20
-4.15236
11
5.50852
21
-4.18386
0
LINE
8
BLACK
6
CONTINUOUS
10
5.49278
20
-4.16811
11
5.52427
21
-4.16811
0
LINE
8
BLACK
6
CONTINUOUS
10
5.54352
20
-4.05236
11
5.54352
21
-4.08386
0
LINE
8
BLACK
6
CONTINUOUS
10
5.52778
20
-4.06811
11
5.55927
21
-4.06811
0
LINE
8
BLACK
6
CONTINUOUS
10
5.57852
20
-4.15236
11
5.57852
21
-4.18386
0
LINE
8
BLACK
6
CONTINUOUS
10
5.56278
20
-4.16811
11
5.59427
21
-4.16811
0
LINE
8
BLACK
6
CONTINUOUS
10
5.61352
20
-4.05236
11
5.61352
21
-4.08386
0
LINE
8
BLACK
6
CONTINUOUS
10
5.59778
20
-4.06811
11
5.62927
21
-4.06811
0
LINE
8
BLACK
6
CONTINUOUS
10
5.625
20
-3.05656
11
5.625
21
-3.08805
0
LINE
8
BLACK
6
CONTINUOUS
10
5.60925
20
-3.0723
11
5.64075
21
-3.0723
0
LINE
8
BLACK
6
CONTINUOUS
10
5.625
20
-3.15498
11
5.625
21
-3.18648
0
LINE
8
BLACK
6
CONTINUOUS
10
5.60925
20
-3.17073
11
5.64075
21
-3.17073
0
LINE
8
BLACK
6
CONTINUOUS
10
5.64852
20
-4.15236
11
5.64852
21
-4.18386
0
LINE
8
BLACK
6
CONTINUOUS
10
5.63278
20
-4.16811
11
5.66427
21
-4.16811
0
LINE
8
BLACK
6
CONTINUOUS
10
5.68352
20
-4.05236
11
5.68352
21
-4.08386
0
LINE
8
BLACK
6
CONTINUOUS
10
5.66778
20
-4.06811
11
5.69927
21
-4.06811
0
LINE
8
BLACK
6
CONTINUOUS
10
5.70669
20
-3.95276
11
5.70669
21
-3.98425
0
LINE
8
BLACK
6
CONTINUOUS
10
5.69094
20
-3.9685
11
5.72244
21
-3.9685
0
LINE
8
BLACK
6
CONTINUOUS
10
5.71852
20
-4.15236
11
5.71852
21
-4.18386
0
LINE
8
BLACK
6
CONTINUOUS
10
5.70278
20
-4.16811
11
5.73427
21
-4.16811
0
LINE
8
BLACK
6
CONTINUOUS
10
5.75352
20
-4.05236
11
5.75352
21
-4.08386
0
LINE
8
BLACK
6
CONTINUOUS
10
5.73778
20
-4.06811
11
5.76927
21
-4.06811
0
LINE
8
BLACK
6
CONTINUOUS
10
5.78852
20
-4.15236
11
5.78852
21
-4.18386
0
LINE
8
BLACK
6
CONTINUOUS
10
5.77278
20
-4.16811
11
5.80427
21
-4.16811
0
LINE
8
BLACK
6
CONTINUOUS
10
5.80512
20
-3.95276
11
5.80512
21
-3.98425
0
LINE
8
BLACK
6
CONTINUOUS
10
5.78937
20
-3.9685
11
5.82087
21
-3.9685
0
LINE
8
BLACK
6
CONTINUOUS
10
5.82352
20
-4.05236
11
5.82352
21
-4.08386
0
LINE
8
BLACK
6
CONTINUOUS
10
5.80778
20
-4.06811
11
5.83927
21
-4.06811
0
LINE
8
BLACK
6
CONTINUOUS
10
5.85852
20
-4.15236
11
5.85852
21
-4.18386
0
LINE
8
BLACK
6
CONTINUOUS
10
5.84278
20
-4.16811
11
5.87427
21
-4.16811
0
LINE
8
BLACK
6
CONTINUOUS
10
5.89173
20
-3.95079
11
5.89173
21
-3.98228
0
LINE
8
BLACK
6
CONTINUOUS
10
5.87598
20
-3.96654
11
5.90748
21
-3.96654
0
LINE
8
BLACK
6
CONTINUOUS
10
5.89352
20
-4.05236
11
5.89352
21
-4.08386
0
LINE
8
BLACK
6
CONTINUOUS
10
5.87778
20
-4.06811
11
5.90927
21
-4.06811
0
LINE
8
BLACK
6
CONTINUOUS
10
5.92852
20
-4.15236
11
5.92852
21
-4.18386
0
LINE
8
BLACK
6
CONTINUOUS
10
5.91278
20
-4.16811
11
5.94427
21
-4.16811
0
LINE
8
BLACK
6
CONTINUOUS
10
5.96352
20
-4.05236
11
5.96352
21
-4.08386
0
LINE
8
BLACK
6
CONTINUOUS
10
5.94778
20
-4.06811
11
5.97927
21
-4.06811
0
LINE
8
BLACK
6
CONTINUOUS
10
5.99016
20
-3.95079
11
5.99016
21
-3.98228
0
LINE
8
BLACK
6
CONTINUOUS
10
5.97441
20
-3.96654
11
6.00591
21
-3.96654
0
LINE
8
BLACK
6
CONTINUOUS
10
6.08465
20
-4.05512
11
6.08465
21
-4.08661
0
LINE
8
BLACK
6
CONTINUOUS
10
6.0689
20
-4.07087
11
6.10039
21
-4.07087
0
LINE
8
BLACK
6
CONTINUOUS
10
6.08465
20
-4.15354
11
6.08465
21
-4.18504
0
LINE
8
BLACK
6
CONTINUOUS
10
6.0689
20
-4.16929
11
6.10039
21
-4.16929
0
LINE
8
BLACK
6
CONTINUOUS
10
6.15551
20
-3.2185
11
6.15551
21
-3.25
0
LINE
8
BLACK
6
CONTINUOUS
10
6.13976
20
-3.23425
11
6.17126
21
-3.23425
0
LINE
8
BLACK
6
CONTINUOUS
10
6.15551
20
-3.31693
11
6.15551
21
-3.34843
0
LINE
8
BLACK
6
CONTINUOUS
10
6.13976
20
-3.33268
11
6.17126
21
-3.33268
0
LINE
8
BLACK
6
CONTINUOUS
10
6.18504
20
-4.07677
11
6.18504
21
-4.10827
0
LINE
8
BLACK
6
CONTINUOUS
10
6.16929
20
-4.09252
11
6.20079
21
-4.09252
0
LINE
8
BLACK
6
CONTINUOUS
10
6.28346
20
-4.07677
11
6.28346
21
-4.10827
0
LINE
8
BLACK
6
CONTINUOUS
10
6.26772
20
-4.09252
11
6.29921
21
-4.09252
0
LINE
8
BLACK
6
CONTINUOUS
10
6.38976
20
-4.0748
11
6.38976
21
-4.1063
0
LINE
8
BLACK
6
CONTINUOUS
10
6.37402
20
-4.09055
11
6.40551
21
-4.09055
0
LINE
8
BLACK
6
CONTINUOUS
10
6.48819
20
-4.0748
11
6.48819
21
-4.1063
0
LINE
8
BLACK
6
CONTINUOUS
10
6.47244
20
-4.09055
11
6.50394
21
-4.09055
0
LINE
8
BLACK
6
CONTINUOUS
10
6.57874
20
-4.09055
11
6.57874
21
-4.12205
0
LINE
8
BLACK
6
CONTINUOUS
10
6.56299
20
-4.1063
11
6.59449
21
-4.1063
0
LINE
8
BLACK
6
CONTINUOUS
10
6.57874
20
-4.18898
11
6.57874
21
-4.22047
0
LINE
8
BLACK
6
CONTINUOUS
10
6.56299
20
-4.20472
11
6.59449
21
-4.20472
0
LINE
8
BLACK
6
CONTINUOUS
10
5.05872
20
-3.33912
11
5.05872
21
-3.31128
0
LINE
8
BLACK
6
CONTINUOUS
10
5.05872
20
-3.31128
11
5.03088
21
-3.31128
0
LINE
8
BLACK
6
CONTINUOUS
10
5.03088
20
-3.31128
11
5.03088
21
-3.33912
0
LINE
8
BLACK
6
CONTINUOUS
10
5.03088
20
-3.33912
11
5.05872
21
-3.33912
0
LINE
8
BLACK
6
CONTINUOUS
10
5.05872
20
-3.43912
11
5.05872
21
-3.41128
0
LINE
8
BLACK
6
CONTINUOUS
10
5.05872
20
-3.41128
11
5.03088
21
-3.41128
0
LINE
8
BLACK
6
CONTINUOUS
10
5.03088
20
-3.41128
11
5.03088
21
-3.43912
0
LINE
8
BLACK
6
CONTINUOUS
10
5.03088
20
-3.43912
11
5.05872
21
-3.43912
0
LINE
8
BLACK
6
CONTINUOUS
10
5.05872
20
-3.53912
11
5.05872
21
-3.51128
0
LINE
8
BLACK
6
CONTINUOUS
10
5.05872
20
-3.51128
11
5.03088
21
-3.51128
0
LINE
8
BLACK
6
CONTINUOUS
10
5.03088
20
-3.51128
11
5.03088
21
-3.53912
0
LINE
8
BLACK
6
CONTINUOUS
10
5.03088
20
-3.53912
11
5.05872
21
-3.53912
0
LINE
8
BLACK
6
CONTINUOUS
10
5.05872
20
-3.63912
11
5.05872
21
-3.61128
0
LINE
8
BLACK
6
CONTINUOUS
10
5.05872
20
-3.61128
11
5.03088
21
-3.61128
0
LINE
8
BLACK
6
CONTINUOUS
10
5.03088
20
-3.61128
11
5.03088
21
-3.63912
0
LINE
8
BLACK
6
CONTINUOUS
10
5.03088
20
-3.63912
11
5.05872
21
-3.63912
0
LINE
8
BLACK
6
CONTINUOUS
10
5.05872
20
-3.73912
11
5.05872
21
-3.71128
0
LINE
8
BLACK
6
CONTINUOUS
10
5.05872
20
-3.71128
11
5.03088
21
-3.71128
0
LINE
8
BLACK
6
CONTINUOUS
10
5.03088
20
-3.71128
11
5.03088
21
-3.73912
0
LINE
8
BLACK
6
CONTINUOUS
10
5.03088
20
-3.73912
11
5.05872
21
-3.73912
0
LINE
8
BLACK
6
CONTINUOUS
10
5.15872
20
-3.33912
11
5.15872
21
-3.31128
0
LINE
8
BLACK
6
CONTINUOUS
10
5.15872
20
-3.31128
11
5.13088
21
-3.31128
0
LINE
8
BLACK
6
CONTINUOUS
10
5.13088
20
-3.31128
11
5.13088
21
-3.33912
0
LINE
8
BLACK
6
CONTINUOUS
10
5.13088
20
-3.33912
11
5.15872
21
-3.33912
0
LINE
8
BLACK
6
CONTINUOUS
10
5.15872
20
-3.43912
11
5.15872
21
-3.41128
0
LINE
8
BLACK
6
CONTINUOUS
10
5.15872
20
-3.41128
11
5.13088
21
-3.41128
0
LINE
8
BLACK
6
CONTINUOUS
10
5.13088
20
-3.41128
11
5.13088
21
-3.43912
0
LINE
8
BLACK
6
CONTINUOUS
10
5.13088
20
-3.43912
11
5.15872
21
-3.43912
0
LINE
8
BLACK
6
CONTINUOUS
10
5.15872
20
-3.53912
11
5.15872
21
-3.51128
0
LINE
8
BLACK
6
CONTINUOUS
10
5.15872
20
-3.51128
11
5.13088
21
-3.51128
0
LINE
8
BLACK
6
CONTINUOUS
10
5.13088
20
-3.51128
11
5.13088
21
-3.53912
0
LINE
8
BLACK
6
CONTINUOUS
10
5.13088
20
-3.53912
11
5.15872
21
-3.53912
0
LINE
8
BLACK
6
CONTINUOUS
10
5.15872
20
-3.63912
11
5.15872
21
-3.61128
0
LINE
8
BLACK
6
CONTINUOUS
10
5.15872
20
-3.61128
11
5.13088
21
-3.61128
0
LINE
8
BLACK
6
CONTINUOUS
10
5.13088
20
-3.61128
11
5.13088
21
-3.63912
0
LINE
8
BLACK
6
CONTINUOUS
10
5.13088
20
-3.63912
11
5.15872
21
-3.63912
0
LINE
8
BLACK
6
CONTINUOUS
10
5.15872
20
-3.73912
11
5.15872
21
-3.71128
0
LINE
8
BLACK
6
CONTINUOUS
10
5.15872
20
-3.71128
11
5.13088
21
-3.71128
0
LINE
8
BLACK
6
CONTINUOUS
10
5.13088
20
-3.71128
11
5.13088
21
-3.73912
0
LINE
8
BLACK
6
CONTINUOUS
10
5.13088
20
-3.73912
11
5.15872
21
-3.73912
0
LINE
8
BLACK
6
CONTINUOUS
10
6.48892
20
-3.08544
11
6.48892
21
-3.0576
0
LINE
8
BLACK
6
CONTINUOUS
10
6.48892
20
-3.0576
11
6.46108
21
-3.0576
0
LINE
8
BLACK
6
CONTINUOUS
10
6.46108
20
-3.0576
11
6.46108
21
-3.08544
0
LINE
8
BLACK
6
CONTINUOUS
10
6.46108
20
-3.08544
11
6.48892
21
-3.08544
0
LINE
8
BLACK
6
CONTINUOUS
10
6.48892
20
-3.18544
11
6.48892
21
-3.1576
0
LINE
8
BLACK
6
CONTINUOUS
10
6.48892
20
-3.1576
11
6.46108
21
-3.1576
0
LINE
8
BLACK
6
CONTINUOUS
10
6.46108
20
-3.1576
11
6.46108
21
-3.18544
0
LINE
8
BLACK
6
CONTINUOUS
10
6.46108
20
-3.18544
11
6.48892
21
-3.18544
0
LINE
8
BLACK
6
CONTINUOUS
10
6.48892
20
-3.28544
11
6.48892
21
-3.2576
0
LINE
8
BLACK
6
CONTINUOUS
10
6.48892
20
-3.2576
11
6.46108
21
-3.2576
0
LINE
8
BLACK
6
CONTINUOUS
10
6.46108
20
-3.2576
11
6.46108
21
-3.28544
0
LINE
8
BLACK
6
CONTINUOUS
10
6.46108
20
-3.28544
11
6.48892
21
-3.28544
0
LINE
8
BLACK
6
CONTINUOUS
10
6.48892
20
-3.38544
11
6.48892
21
-3.3576
0
LINE
8
BLACK
6
CONTINUOUS
10
6.48892
20
-3.3576
11
6.46108
21
-3.3576
0
LINE
8
BLACK
6
CONTINUOUS
10
6.46108
20
-3.3576
11
6.46108
21
-3.38544
0
LINE
8
BLACK
6
CONTINUOUS
10
6.46108
20
-3.38544
11
6.48892
21
-3.38544
0
LINE
8
BLACK
6
CONTINUOUS
10
6.48892
20
-3.48544
11
6.48892
21
-3.4576
0
LINE
8
BLACK
6
CONTINUOUS
10
6.48892
20
-3.4576
11
6.46108
21
-3.4576
0
LINE
8
BLACK
6
CONTINUOUS
10
6.46108
20
-3.4576
11
6.46108
21
-3.48544
0
LINE
8
BLACK
6
CONTINUOUS
10
6.46108
20
-3.48544
11
6.48892
21
-3.48544
0
LINE
8
BLACK
6
CONTINUOUS
10
6.48892
20
-3.58544
11
6.48892
21
-3.5576
0
LINE
8
BLACK
6
CONTINUOUS
10
6.48892
20
-3.5576
11
6.46108
21
-3.5576
0
LINE
8
BLACK
6
CONTINUOUS
10
6.46108
20
-3.5576
11
6.46108
21
-3.58544
0
LINE
8
BLACK
6
CONTINUOUS
10
6.46108
20
-3.58544
11
6.48892
21
-3.58544
0
LINE
8
BLACK
6
CONTINUOUS
10
6.58892
20
-3.08544
11
6.58892
21
-3.0576
0
LINE
8
BLACK
6
CONTINUOUS
10
6.58892
20
-3.0576
11
6.56108
21
-3.0576
0
LINE
8
BLACK
6
CONTINUOUS
10
6.56108
20
-3.0576
11
6.56108
21
-3.08544
0
LINE
8
BLACK
6
CONTINUOUS
10
6.56108
20
-3.08544
11
6.58892
21
-3.08544
0
LINE
8
BLACK
6
CONTINUOUS
10
6.58892
20
-3.18544
11
6.58892
21
-3.1576
0
LINE
8
BLACK
6
CONTINUOUS
10
6.58892
20
-3.1576
11
6.56108
21
-3.1576
0
LINE
8
BLACK
6
CONTINUOUS
10
6.56108
20
-3.1576
11
6.56108
21
-3.18544
0
LINE
8
BLACK
6
CONTINUOUS
10
6.56108
20
-3.18544
11
6.58892
21
-3.18544
0
LINE
8
BLACK
6
CONTINUOUS
10
6.58892
20
-3.28544
11
6.58892
21
-3.2576
0
LINE
8
BLACK
6
CONTINUOUS
10
6.58892
20
-3.2576
11
6.56108
21
-3.2576
0
LINE
8
BLACK
6
CONTINUOUS
10
6.56108
20
-3.2576
11
6.56108
21
-3.28544
0
LINE
8
BLACK
6
CONTINUOUS
10
6.56108
20
-3.28544
11
6.58892
21
-3.28544
0
LINE
8
BLACK
6
CONTINUOUS
10
6.58892
20
-3.38544
11
6.58892
21
-3.3576
0
LINE
8
BLACK
6
CONTINUOUS
10
6.58892
20
-3.3576
11
6.56108
21
-3.3576
0
LINE
8
BLACK
6
CONTINUOUS
10
6.56108
20
-3.3576
11
6.56108
21
-3.38544
0
LINE
8
BLACK
6
CONTINUOUS
10
6.56108
20
-3.38544
11
6.58892
21
-3.38544
0
LINE
8
BLACK
6
CONTINUOUS
10
6.58892
20
-3.48544
11
6.58892
21
-3.4576
0
LINE
8
BLACK
6
CONTINUOUS
10
6.58892
20
-3.4576
11
6.56108
21
-3.4576
0
LINE
8
BLACK
6
CONTINUOUS
10
6.56108
20
-3.4576
11
6.56108
21
-3.48544
0
LINE
8
BLACK
6
CONTINUOUS
10
6.56108
20
-3.48544
11
6.58892
21
-3.48544
0
LINE
8
BLACK
6
CONTINUOUS
10
6.58892
20
-3.58544
11
6.58892
21
-3.5576
0
LINE
8
BLACK
6
CONTINUOUS
10
6.58892
20
-3.5576
11
6.56108
21
-3.5576
0
LINE
8
BLACK
6
CONTINUOUS
10
6.56108
20
-3.5576
11
6.56108
21
-3.58544
0
LINE
8
BLACK
6
CONTINUOUS
10
6.56108
20
-3.58544
11
6.58892
21
-3.58544
0
LINE
8
BLACK
6
CONTINUOUS
10
4.91
20
-4.24589
11
4.94937
21
-4.20652
0
LINE
8
BLACK
6
CONTINUOUS
10
4.94937
20
-4.20652
11
4.91
21
-4.16715
0
LINE
8
BLACK
6
CONTINUOUS
10
4.91
20
-4.16715
11
4.87063
21
-4.20652
0
LINE
8
BLACK
6
CONTINUOUS
10
4.87063
20
-4.20652
11
4.91
21
-4.24589
0
LINE
8
BLACK
6
CONTINUOUS
10
4.985
20
-3.11589
11
5.02437
21
-3.07652
0
LINE
8
BLACK
6
CONTINUOUS
10
5.02437
20
-3.07652
11
4.985
21
-3.03715
0
LINE
8
BLACK
6
CONTINUOUS
10
4.985
20
-3.03715
11
4.94563
21
-3.07652
0
LINE
8
BLACK
6
CONTINUOUS
10
4.94563
20
-3.07652
11
4.985
21
-3.11589
0
LINE
8
BLACK
6
CONTINUOUS
10
5.83543
20
-3.38465
11
5.8748
21
-3.34528
0
LINE
8
BLACK
6
CONTINUOUS
10
5.8748
20
-3.34528
11
5.83543
21
-3.30591
0
LINE
8
BLACK
6
CONTINUOUS
10
5.83543
20
-3.30591
11
5.79606
21
-3.34528
0
LINE
8
BLACK
6
CONTINUOUS
10
5.79606
20
-3.34528
11
5.83543
21
-3.38465
0
LINE
8
BLACK
6
CONTINUOUS
10
6.295
20
-3.79589
11
6.33437
21
-3.75652
0
LINE
8
BLACK
6
CONTINUOUS
10
6.33437
20
-3.75652
11
6.295
21
-3.71715
0
LINE
8
BLACK
6
CONTINUOUS
10
6.295
20
-3.71715
11
6.25563
21
-3.75652
0
LINE
8
BLACK
6
CONTINUOUS
10
6.25563
20
-3.75652
11
6.295
21
-3.79589
0
LINE
8
BLACK
6
CONTINUOUS
10
4.92495
20
-4.41186
11
4.92495
21
-4.33312
0
LINE
8
BLACK
6
CONTINUOUS
10
4.92495
20
-4.33312
11
4.9437
21
-4.33312
0
LINE
8
BLACK
6
CONTINUOUS
10
4.9437
20
-4.33312
11
4.95495
21
-4.33687
0
LINE
8
BLACK
6
CONTINUOUS
10
4.95495
20
-4.33687
11
4.96245
21
-4.34437
0
LINE
8
BLACK
6
CONTINUOUS
10
4.96245
20
-4.34437
11
4.9662
21
-4.35187
0
LINE
8
BLACK
6
CONTINUOUS
10
4.9662
20
-4.35187
11
4.96995
21
-4.36687
0
LINE
8
BLACK
6
CONTINUOUS
10
4.96995
20
-4.36687
11
4.96995
21
-4.37812
0
LINE
8
BLACK
6
CONTINUOUS
10
4.96995
20
-4.37812
11
4.9662
21
-4.39312
0
LINE
8
BLACK
6
CONTINUOUS
10
4.9662
20
-4.39312
11
4.96245
21
-4.40062
0
LINE
8
BLACK
6
CONTINUOUS
10
4.96245
20
-4.40062
11
4.95495
21
-4.40811
0
LINE
8
BLACK
6
CONTINUOUS
10
4.95495
20
-4.40811
11
4.9437
21
-4.41186
0
LINE
8
BLACK
6
CONTINUOUS
10
4.9437
20
-4.41186
11
4.92495
21
-4.41186
0
LINE
8
BLACK
6
CONTINUOUS
10
5.00369
20
-4.41186
11
5.00369
21
-4.35937
0
LINE
8
BLACK
6
CONTINUOUS
10
5.00369
20
-4.37437
11
5.00744
21
-4.36687
0
LINE
8
BLACK
6
CONTINUOUS
10
5.00744
20
-4.36687
11
5.01119
21
-4.36312
0
LINE
8
BLACK
6
CONTINUOUS
10
5.01119
20
-4.36312
11
5.01869
21
-4.35937
0
LINE
8
BLACK
6
CONTINUOUS
10
5.01869
20
-4.35937
11
5.02619
21
-4.35937
0
LINE
8
BLACK
6
CONTINUOUS
10
5.05244
20
-4.41186
11
5.05244
21
-4.35937
0
LINE
8
BLACK
6
CONTINUOUS
10
5.05244
20
-4.33312
11
5.04869
21
-4.33687
0
LINE
8
BLACK
6
CONTINUOUS
10
5.04869
20
-4.33687
11
5.05244
21
-4.34062
0
LINE
8
BLACK
6
CONTINUOUS
10
5.05244
20
-4.34062
11
5.05619
21
-4.33687
0
LINE
8
BLACK
6
CONTINUOUS
10
5.05619
20
-4.33687
11
5.05244
21
-4.33312
0
LINE
8
BLACK
6
CONTINUOUS
10
5.05244
20
-4.33312
11
5.05244
21
-4.34062
0
LINE
8
BLACK
6
CONTINUOUS
10
5.10118
20
-4.41186
11
5.09368
21
-4.40811
0
LINE
8
BLACK
6
CONTINUOUS
10
5.09368
20
-4.40811
11
5.08993
21
-4.40062
0
LINE
8
BLACK
6
CONTINUOUS
10
5.08993
20
-4.40062
11
5.08993
21
-4.33312
0
LINE
8
BLACK
6
CONTINUOUS
10
5.14242
20
-4.41186
11
5.13493
21
-4.40811
0
LINE
8
BLACK
6
CONTINUOUS
10
5.13493
20
-4.40811
11
5.13118
21
-4.40062
0
LINE
8
BLACK
6
CONTINUOUS
10
5.13118
20
-4.40062
11
5.13118
21
-4.33312
0
LINE
8
BLACK
6
CONTINUOUS
10
5.23241
20
-4.41186
11
5.23241
21
-4.33312
0
LINE
8
BLACK
6
CONTINUOUS
10
5.23241
20
-4.33312
11
5.25866
21
-4.38937
0
LINE
8
BLACK
6
CONTINUOUS
10
5.25866
20
-4.38937
11
5.28491
21
-4.33312
0
LINE
8
BLACK
6
CONTINUOUS
10
5.28491
20
-4.33312
11
5.28491
21
-4.41186
0
LINE
8
BLACK
6
CONTINUOUS
10
5.35615
20
-4.41186
11
5.35615
21
-4.37062
0
LINE
8
BLACK
6
CONTINUOUS
10
5.35615
20
-4.37062
11
5.3524
21
-4.36312
0
LINE
8
BLACK
6
CONTINUOUS
10
5.3524
20
-4.36312
11
5.3449
21
-4.35937
0
LINE
8
BLACK
6
CONTINUOUS
10
5.3449
20
-4.35937
11
5.3299
21
-4.35937
0
LINE
8
BLACK
6
CONTINUOUS
10
5.3299
20
-4.35937
11
5.3224
21
-4.36312
0
LINE
8
BLACK
6
CONTINUOUS
10
5.35615
20
-4.40811
11
5.34865
21
-4.41186
0
LINE
8
BLACK
6
CONTINUOUS
10
5.34865
20
-4.41186
11
5.3299
21
-4.41186
0
LINE
8
BLACK
6
CONTINUOUS
10
5.3299
20
-4.41186
11
5.3224
21
-4.40811
0
LINE
8
BLACK
6
CONTINUOUS
10
5.3224
20
-4.40811
11
5.31865
21
-4.40062
0
LINE
8
BLACK
6
CONTINUOUS
10
5.31865
20
-4.40062
11
5.31865
21
-4.39312
0
LINE
8
BLACK
6
CONTINUOUS
10
5.31865
20
-4.39312
11
5.3224
21
-4.38562
0
LINE
8
BLACK
6
CONTINUOUS
10
5.3224
20
-4.38562
11
5.3299
21
-4.38187
0
LINE
8
BLACK
6
CONTINUOUS
10
5.3299
20
-4.38187
11
5.34865
21
-4.38187
0
LINE
8
BLACK
6
CONTINUOUS
10
5.34865
20
-4.38187
11
5.35615
21
-4.37812
0
LINE
8
BLACK
6
CONTINUOUS
10
5.39364
20
-4.35937
11
5.39364
21
-4.43811
0
LINE
8
BLACK
6
CONTINUOUS
10
5.39364
20
-4.36312
11
5.40114
21
-4.35937
0
LINE
8
BLACK
6
CONTINUOUS
10
5.40114
20
-4.35937
11
5.41614
21
-4.35937
0
LINE
8
BLACK
6
CONTINUOUS
10
5.41614
20
-4.35937
11
5.42364
21
-4.36312
0
LINE
8
BLACK
6
CONTINUOUS
10
5.42364
20
-4.36312
11
5.42739
21
-4.36687
0
LINE
8
BLACK
6
CONTINUOUS
10
5.42739
20
-4.36687
11
5.43114
21
-4.37437
0
LINE
8
BLACK
6
CONTINUOUS
10
5.43114
20
-4.37437
11
5.43114
21
-4.39687
0
LINE
8
BLACK
6
CONTINUOUS
10
5.43114
20
-4.39687
11
5.42739
21
-4.40436
0
LINE
8
BLACK
6
CONTINUOUS
10
5.42739
20
-4.40436
11
5.42364
21
-4.40811
0
LINE
8
BLACK
6
CONTINUOUS
10
5.42364
20
-4.40811
11
5.41614
21
-4.41186
0
LINE
8
BLACK
6
CONTINUOUS
10
5.41614
20
-4.41186
11
5.40114
21
-4.41186
0
LINE
8
BLACK
6
CONTINUOUS
10
5.40114
20
-4.41186
11
5.39364
21
-4.40811
0
LINE
8
BLACK
6
CONTINUOUS
10
5.46488
20
-4.40436
11
5.46863
21
-4.40811
0
LINE
8
BLACK
6
CONTINUOUS
10
5.46863
20
-4.40811
11
5.46488
21
-4.41186
0
LINE
8
BLACK
6
CONTINUOUS
10
5.46488
20
-4.41186
11
5.46113
21
-4.40811
0
LINE
8
BLACK
6
CONTINUOUS
10
5.46113
20
-4.40811
11
5.46488
21
-4.40436
0
LINE
8
BLACK
6
CONTINUOUS
10
5.46488
20
-4.40436
11
5.46488
21
-4.41186
0
LINE
8
BLACK
6
CONTINUOUS
10
5.46488
20
-4.36312
11
5.46863
21
-4.36687
0
LINE
8
BLACK
6
CONTINUOUS
10
5.46863
20
-4.36687
11
5.46488
21
-4.37062
0
LINE
8
BLACK
6
CONTINUOUS
10
5.46488
20
-4.37062
11
5.46113
21
-4.36687
0
LINE
8
BLACK
6
CONTINUOUS
10
5.46113
20
-4.36687
11
5.46488
21
-4.36312
0
LINE
8
BLACK
6
CONTINUOUS
10
5.46488
20
-4.36312
11
5.46488
21
-4.37062
0
LINE
8
BLACK
6
CONTINUOUS
10
4.79866
20
-4.52939
11
4.82228
21
-4.55301
0
LINE
8
BLACK
6
CONTINUOUS
10
4.82228
20
-4.52939
11
4.79866
21
-4.55301
0
LINE
8
BLACK
6
CONTINUOUS
10
4.93995
20
-4.49848
11
4.94745
21
-4.49848
0
LINE
8
BLACK
6
CONTINUOUS
10
4.94745
20
-4.49848
11
4.95495
21
-4.50223
0
LINE
8
BLACK
6
CONTINUOUS
10
4.95495
20
-4.50223
11
4.9587
21
-4.50598
0
LINE
8
BLACK
6
CONTINUOUS
10
4.9587
20
-4.50598
11
4.96245
21
-4.51348
0
LINE
8
BLACK
6
CONTINUOUS
10
4.96245
20
-4.51348
11
4.9662
21
-4.52847
0
LINE
8
BLACK
6
CONTINUOUS
10
4.9662
20
-4.52847
11
4.9662
21
-4.54722
0
LINE
8
BLACK
6
CONTINUOUS
10
4.9662
20
-4.54722
11
4.96245
21
-4.56222
0
LINE
8
BLACK
6
CONTINUOUS
10
4.96245
20
-4.56222
11
4.9587
21
-4.56972
0
LINE
8
BLACK
6
CONTINUOUS
10
4.9587
20
-4.56972
11
4.95495
21
-4.57347
0
LINE
8
BLACK
6
CONTINUOUS
10
4.95495
20
-4.57347
11
4.94745
21
-4.57722
0
LINE
8
BLACK
6
CONTINUOUS
10
4.94745
20
-4.57722
11
4.93995
21
-4.57722
0
LINE
8
BLACK
6
CONTINUOUS
10
4.93995
20
-4.57722
11
4.93245
21
-4.57347
0
LINE
8
BLACK
6
CONTINUOUS
10
4.93245
20
-4.57347
11
4.9287
21
-4.56972
0
LINE
8
BLACK
6
CONTINUOUS
10
4.9287
20
-4.56972
11
4.92495
21
-4.56222
0
LINE
8
BLACK
6
CONTINUOUS
10
4.92495
20
-4.56222
11
4.9212
21
-4.54722
0
LINE
8
BLACK
6
CONTINUOUS
10
4.9212
20
-4.54722
11
4.9212
21
-4.52847
0
LINE
8
BLACK
6
CONTINUOUS
10
4.9212
20
-4.52847
11
4.92495
21
-4.51348
0
LINE
8
BLACK
6
CONTINUOUS
10
4.92495
20
-4.51348
11
4.9287
21
-4.50598
0
LINE
8
BLACK
6
CONTINUOUS
10
4.9287
20
-4.50598
11
4.93245
21
-4.50223
0
LINE
8
BLACK
6
CONTINUOUS
10
4.93245
20
-4.50223
11
4.93995
21
-4.49848
0
LINE
8
BLACK
6
CONTINUOUS
10
4.99994
20
-4.56972
11
5.00369
21
-4.57347
0
LINE
8
BLACK
6
CONTINUOUS
10
5.00369
20
-4.57347
11
4.99994
21
-4.57722
0
LINE
8
BLACK
6
CONTINUOUS
10
4.99994
20
-4.57722
11
4.99619
21
-4.57347
0
LINE
8
BLACK
6
CONTINUOUS
10
4.99619
20
-4.57347
11
4.99994
21
-4.56972
0
LINE
8
BLACK
6
CONTINUOUS
10
4.99994
20
-4.56972
11
4.99994
21
-4.57722
0
LINE
8
BLACK
6
CONTINUOUS
10
5.07118
20
-4.49848
11
5.05619
21
-4.49848
0
LINE
8
BLACK
6
CONTINUOUS
10
5.05619
20
-4.49848
11
5.04869
21
-4.50223
0
LINE
8
BLACK
6
CONTINUOUS
10
5.04869
20
-4.50223
11
5.04494
21
-4.50598
0
LINE
8
BLACK
6
CONTINUOUS
10
5.04494
20
-4.50598
11
5.03744
21
-4.51723
0
LINE
8
BLACK
6
CONTINUOUS
10
5.03744
20
-4.51723
11
5.03369
21
-4.53222
0
LINE
8
BLACK
6
CONTINUOUS
10
5.03369
20
-4.53222
11
5.03369
21
-4.56222
0
LINE
8
BLACK
6
CONTINUOUS
10
5.03369
20
-4.56222
11
5.03744
21
-4.56972
0
LINE
8
BLACK
6
CONTINUOUS
10
5.03744
20
-4.56972
11
5.04119
21
-4.57347
0
LINE
8
BLACK
6
CONTINUOUS
10
5.04119
20
-4.57347
11
5.04869
21
-4.57722
0
LINE
8
BLACK
6
CONTINUOUS
10
5.04869
20
-4.57722
11
5.06368
21
-4.57722
0
LINE
8
BLACK
6
CONTINUOUS
10
5.06368
20
-4.57722
11
5.07118
21
-4.57347
0
LINE
8
BLACK
6
CONTINUOUS
10
5.07118
20
-4.57347
11
5.07493
21
-4.56972
0
LINE
8
BLACK
6
CONTINUOUS
10
5.07493
20
-4.56972
11
5.07868
21
-4.56222
0
LINE
8
BLACK
6
CONTINUOUS
10
5.07868
20
-4.56222
11
5.07868
21
-4.54347
0
LINE
8
BLACK
6
CONTINUOUS
10
5.07868
20
-4.54347
11
5.07493
21
-4.53597
0
LINE
8
BLACK
6
CONTINUOUS
10
5.07493
20
-4.53597
11
5.07118
21
-4.53222
0
LINE
8
BLACK
6
CONTINUOUS
10
5.07118
20
-4.53222
11
5.06368
21
-4.52847
0
LINE
8
BLACK
6
CONTINUOUS
10
5.06368
20
-4.52847
11
5.04869
21
-4.52847
0
LINE
8
BLACK
6
CONTINUOUS
10
5.04869
20
-4.52847
11
5.04119
21
-4.53222
0
LINE
8
BLACK
6
CONTINUOUS
10
5.04119
20
-4.53222
11
5.03744
21
-4.53597
0
LINE
8
BLACK
6
CONTINUOUS
10
5.03744
20
-4.53597
11
5.03369
21
-4.54347
0
LINE
8
BLACK
6
CONTINUOUS
10
5.12743
20
-4.49848
11
5.13493
21
-4.49848
0
LINE
8
BLACK
6
CONTINUOUS
10
5.13493
20
-4.49848
11
5.14242
21
-4.50223
0
LINE
8
BLACK
6
CONTINUOUS
10
5.14242
20
-4.50223
11
5.14617
21
-4.50598
0
LINE
8
BLACK
6
CONTINUOUS
10
5.14617
20
-4.50598
11
5.14992
21
-4.51348
0
LINE
8
BLACK
6
CONTINUOUS
10
5.14992
20
-4.51348
11
5.15367
21
-4.52847
0
LINE
8
BLACK
6
CONTINUOUS
10
5.15367
20
-4.52847
11
5.15367
21
-4.54722
0
LINE
8
BLACK
6
CONTINUOUS
10
5.15367
20
-4.54722
11
5.14992
21
-4.56222
0
LINE
8
BLACK
6
CONTINUOUS
10
5.14992
20
-4.56222
11
5.14617
21
-4.56972
0
LINE
8
BLACK
6
CONTINUOUS
10
5.14617
20
-4.56972
11
5.14242
21
-4.57347
0
LINE
8
BLACK
6
CONTINUOUS
10
5.14242
20
-4.57347
11
5.13493
21
-4.57722
0
LINE
8
BLACK
6
CONTINUOUS
10
5.13493
20
-4.57722
11
5.12743
21
-4.57722
0
LINE
8
BLACK
6
CONTINUOUS
10
5.12743
20
-4.57722
11
5.11993
21
-4.57347
0
LINE
8
BLACK
6
CONTINUOUS
10
5.11993
20
-4.57347
11
5.11618
21
-4.56972
0
LINE
8
BLACK
6
CONTINUOUS
10
5.11618
20
-4.56972
11
5.11243
21
-4.56222
0
LINE
8
BLACK
6
CONTINUOUS
10
5.11243
20
-4.56222
11
5.10868
21
-4.54722
0
LINE
8
BLACK
6
CONTINUOUS
10
5.10868
20
-4.54722
11
5.10868
21
-4.52847
0
LINE
8
BLACK
6
CONTINUOUS
10
5.10868
20
-4.52847
11
5.11243
21
-4.51348
0
LINE
8
BLACK
6
CONTINUOUS
10
5.11243
20
-4.51348
11
5.11618
21
-4.50598
0
LINE
8
BLACK
6
CONTINUOUS
10
5.11618
20
-4.50598
11
5.11993
21
-4.50223
0
LINE
8
BLACK
6
CONTINUOUS
10
5.11993
20
-4.50223
11
5.12743
21
-4.49848
0
LINE
8
BLACK
6
CONTINUOUS
10
5.20242
20
-4.49848
11
5.20992
21
-4.49848
0
LINE
8
BLACK
6
CONTINUOUS
10
5.20992
20
-4.49848
11
5.21741
21
-4.50223
0
LINE
8
BLACK
6
CONTINUOUS
10
5.21741
20
-4.50223
11
5.22116
21
-4.50598
0
LINE
8
BLACK
6
CONTINUOUS
10
5.22116
20
-4.50598
11
5.22491
21
-4.51348
0
LINE
8
BLACK
6
CONTINUOUS
10
5.22491
20
-4.51348
11
5.22866
21
-4.52847
0
LINE
8
BLACK
6
CONTINUOUS
10
5.22866
20
-4.52847
11
5.22866
21
-4.54722
0
LINE
8
BLACK
6
CONTINUOUS
10
5.22866
20
-4.54722
11
5.22491
21
-4.56222
0
LINE
8
BLACK
6
CONTINUOUS
10
5.22491
20
-4.56222
11
5.22116
21
-4.56972
0
LINE
8
BLACK
6
CONTINUOUS
10
5.22116
20
-4.56972
11
5.21741
21
-4.57347
0
LINE
8
BLACK
6
CONTINUOUS
10
5.21741
20
-4.57347
11
5.20992
21
-4.57722
0
LINE
8
BLACK
6
CONTINUOUS
10
5.20992
20
-4.57722
11
5.20242
21
-4.57722
0
LINE
8
BLACK
6
CONTINUOUS
10
5.20242
20
-4.57722
11
5.19492
21
-4.57347
0
LINE
8
BLACK
6
CONTINUOUS
10
5.19492
20
-4.57347
11
5.19117
21
-4.56972
0
LINE
8
BLACK
6
CONTINUOUS
10
5.19117
20
-4.56972
11
5.18742
21
-4.56222
0
LINE
8
BLACK
6
CONTINUOUS
10
5.18742
20
-4.56222
11
5.18367
21
-4.54722
0
LINE
8
BLACK
6
CONTINUOUS
10
5.18367
20
-4.54722
11
5.18367
21
-4.52847
0
LINE
8
BLACK
6
CONTINUOUS
10
5.18367
20
-4.52847
11
5.18742
21
-4.51348
0
LINE
8
BLACK
6
CONTINUOUS
10
5.18742
20
-4.51348
11
5.19117
21
-4.50598
0
LINE
8
BLACK
6
CONTINUOUS
10
5.19117
20
-4.50598
11
5.19492
21
-4.50223
0
LINE
8
BLACK
6
CONTINUOUS
10
5.19492
20
-4.50223
11
5.20242
21
-4.49848
0
LINE
8
BLACK
6
CONTINUOUS
10
5.26241
20
-4.57722
11
5.26241
21
-4.52472
0
LINE
8
BLACK
6
CONTINUOUS
10
5.26241
20
-4.53222
11
5.26616
21
-4.52847
0
LINE
8
BLACK
6
CONTINUOUS
10
5.26616
20
-4.52847
11
5.27366
21
-4.52472
0
LINE
8
BLACK
6
CONTINUOUS
10
5.27366
20
-4.52472
11
5.28491
21
-4.52472
0
LINE
8
BLACK
6
CONTINUOUS
10
5.28491
20
-4.52472
11
5.29241
21
-4.52847
0
LINE
8
BLACK
6
CONTINUOUS
10
5.29241
20
-4.52847
11
5.29616
21
-4.53597
0
LINE
8
BLACK
6
CONTINUOUS
10
5.29616
20
-4.53597
11
5.29616
21
-4.57722
0
LINE
8
BLACK
6
CONTINUOUS
10
5.29616
20
-4.53597
11
5.2999
21
-4.52847
0
LINE
8
BLACK
6
CONTINUOUS
10
5.2999
20
-4.52847
11
5.3074
21
-4.52472
0
LINE
8
BLACK
6
CONTINUOUS
10
5.3074
20
-4.52472
11
5.31865
21
-4.52472
0
LINE
8
BLACK
6
CONTINUOUS
10
5.31865
20
-4.52472
11
5.32615
21
-4.52847
0
LINE
8
BLACK
6
CONTINUOUS
10
5.32615
20
-4.52847
11
5.3299
21
-4.53597
0
LINE
8
BLACK
6
CONTINUOUS
10
5.3299
20
-4.53597
11
5.3299
21
-4.57722
0
LINE
8
BLACK
6
CONTINUOUS
10
5.3674
20
-4.57722
11
5.3674
21
-4.52472
0
LINE
8
BLACK
6
CONTINUOUS
10
5.3674
20
-4.53222
11
5.37115
21
-4.52847
0
LINE
8
BLACK
6
CONTINUOUS
10
5.37115
20
-4.52847
11
5.37864
21
-4.52472
0
LINE
8
BLACK
6
CONTINUOUS
10
5.37864
20
-4.52472
11
5.38989
21
-4.52472
0
LINE
8
BLACK
6
CONTINUOUS
10
5.38989
20
-4.52472
11
5.39739
21
-4.52847
0
LINE
8
BLACK
6
CONTINUOUS
10
5.39739
20
-4.52847
11
5.40114
21
-4.53597
0
LINE
8
BLACK
6
CONTINUOUS
10
5.40114
20
-4.53597
11
5.40114
21
-4.57722
0
LINE
8
BLACK
6
CONTINUOUS
10
5.40114
20
-4.53597
11
5.40489
21
-4.52847
0
LINE
8
BLACK
6
CONTINUOUS
10
5.40489
20
-4.52847
11
5.41239
21
-4.52472
0
LINE
8
BLACK
6
CONTINUOUS
10
5.41239
20
-4.52472
11
5.42364
21
-4.52472
0
LINE
8
BLACK
6
CONTINUOUS
10
5.42364
20
-4.52472
11
5.43114
21
-4.52847
0
LINE
8
BLACK
6
CONTINUOUS
10
5.43114
20
-4.52847
11
5.43489
21
-4.53597
0
LINE
8
BLACK
6
CONTINUOUS
10
5.43489
20
-4.53597
11
5.43489
21
-4.57722
0
LINE
8
BLACK
6
CONTINUOUS
10
5.58862
20
-4.49473
11
5.52113
21
-4.59597
0
LINE
8
BLACK
6
CONTINUOUS
10
5.68986
20
-4.49848
11
5.69736
21
-4.49848
0
LINE
8
BLACK
6
CONTINUOUS
10
5.69736
20
-4.49848
11
5.70485
21
-4.50223
0
LINE
8
BLACK
6
CONTINUOUS
10
5.70485
20
-4.50223
11
5.7086
21
-4.50598
0
LINE
8
BLACK
6
CONTINUOUS
10
5.7086
20
-4.50598
11
5.71235
21
-4.51348
0
LINE
8
BLACK
6
CONTINUOUS
10
5.71235
20
-4.51348
11
5.7161
21
-4.52847
0
LINE
8
BLACK
6
CONTINUOUS
10
5.7161
20
-4.52847
11
5.7161
21
-4.54722
0
LINE
8
BLACK
6
CONTINUOUS
10
5.7161
20
-4.54722
11
5.71235
21
-4.56222
0
LINE
8
BLACK
6
CONTINUOUS
10
5.71235
20
-4.56222
11
5.7086
21
-4.56972
0
LINE
8
BLACK
6
CONTINUOUS
10
5.7086
20
-4.56972
11
5.70485
21
-4.57347
0
LINE
8
BLACK
6
CONTINUOUS
10
5.70485
20
-4.57347
11
5.69736
21
-4.57722
0
LINE
8
BLACK
6
CONTINUOUS
10
5.69736
20
-4.57722
11
5.68986
21
-4.57722
0
LINE
8
BLACK
6
CONTINUOUS
10
5.68986
20
-4.57722
11
5.68236
21
-4.57347
0
LINE
8
BLACK
6
CONTINUOUS
10
5.68236
20
-4.57347
11
5.67861
21
-4.56972
0
LINE
8
BLACK
6
CONTINUOUS
10
5.67861
20
-4.56972
11
5.67486
21
-4.56222
0
LINE
8
BLACK
6
CONTINUOUS
10
5.67486
20
-4.56222
11
5.67111
21
-4.54722
0
LINE
8
BLACK
6
CONTINUOUS
10
5.67111
20
-4.54722
11
5.67111
21
-4.52847
0
LINE
8
BLACK
6
CONTINUOUS
10
5.67111
20
-4.52847
11
5.67486
21
-4.51348
0
LINE
8
BLACK
6
CONTINUOUS
10
5.67486
20
-4.51348
11
5.67861
21
-4.50598
0
LINE
8
BLACK
6
CONTINUOUS
10
5.67861
20
-4.50598
11
5.68236
21
-4.50223
0
LINE
8
BLACK
6
CONTINUOUS
10
5.68236
20
-4.50223
11
5.68986
21
-4.49848
0
LINE
8
BLACK
6
CONTINUOUS
10
5.74985
20
-4.56972
11
5.7536
21
-4.57347
0
LINE
8
BLACK
6
CONTINUOUS
10
5.7536
20
-4.57347
11
5.74985
21
-4.57722
0
LINE
8
BLACK
6
CONTINUOUS
10
5.74985
20
-4.57722
11
5.7461
21
-4.57347
0
LINE
8
BLACK
6
CONTINUOUS
10
5.7461
20
-4.57347
11
5.74985
21
-4.56972
0
LINE
8
BLACK
6
CONTINUOUS
10
5.74985
20
-4.56972
11
5.74985
21
-4.57722
0
LINE
8
BLACK
6
CONTINUOUS
10
5.80234
20
-4.49848
11
5.80984
21
-4.49848
0
LINE
8
BLACK
6
CONTINUOUS
10
5.80984
20
-4.49848
11
5.81734
21
-4.50223
0
LINE
8
BLACK
6
CONTINUOUS
10
5.81734
20
-4.50223
11
5.82109
21
-4.50598
0
LINE
8
BLACK
6
CONTINUOUS
10
5.82109
20
-4.50598
11
5.82484
21
-4.51348
0
LINE
8
BLACK
6
CONTINUOUS
10
5.82484
20
-4.51348
11
5.82859
21
-4.52847
0
LINE
8
BLACK
6
CONTINUOUS
10
5.82859
20
-4.52847
11
5.82859
21
-4.54722
0
LINE
8
BLACK
6
CONTINUOUS
10
5.82859
20
-4.54722
11
5.82484
21
-4.56222
0
LINE
8
BLACK
6
CONTINUOUS
10
5.82484
20
-4.56222
11
5.82109
21
-4.56972
0
LINE
8
BLACK
6
CONTINUOUS
10
5.82109
20
-4.56972
11
5.81734
21
-4.57347
0
LINE
8
BLACK
6
CONTINUOUS
10
5.81734
20
-4.57347
11
5.80984
21
-4.57722
0
LINE
8
BLACK
6
CONTINUOUS
10
5.80984
20
-4.57722
11
5.80234
21
-4.57722
0
LINE
8
BLACK
6
CONTINUOUS
10
5.80234
20
-4.57722
11
5.79484
21
-4.57347
0
LINE
8
BLACK
6
CONTINUOUS
10
5.79484
20
-4.57347
11
5.79109
21
-4.56972
0
LINE
8
BLACK
6
CONTINUOUS
10
5.79109
20
-4.56972
11
5.78734
21
-4.56222
0
LINE
8
BLACK
6
CONTINUOUS
10
5.78734
20
-4.56222
11
5.78359
21
-4.54722
0
LINE
8
BLACK
6
CONTINUOUS
10
5.78359
20
-4.54722
11
5.78359
21
-4.52847
0
LINE
8
BLACK
6
CONTINUOUS
10
5.78359
20
-4.52847
11
5.78734
21
-4.51348
0
LINE
8
BLACK
6
CONTINUOUS
10
5.78734
20
-4.51348
11
5.79109
21
-4.50598
0
LINE
8
BLACK
6
CONTINUOUS
10
5.79109
20
-4.50598
11
5.79484
21
-4.50223
0
LINE
8
BLACK
6
CONTINUOUS
10
5.79484
20
-4.50223
11
5.80234
21
-4.49848
0
LINE
8
BLACK
6
CONTINUOUS
10
5.85858
20
-4.50598
11
5.86233
21
-4.50223
0
LINE
8
BLACK
6
CONTINUOUS
10
5.86233
20
-4.50223
11
5.86983
21
-4.49848
0
LINE
8
BLACK
6
CONTINUOUS
10
5.86983
20
-4.49848
11
5.88858
21
-4.49848
0
LINE
8
BLACK
6
CONTINUOUS
10
5.88858
20
-4.49848
11
5.89608
21
-4.50223
0
LINE
8
BLACK
6
CONTINUOUS
10
5.89608
20
-4.50223
11
5.89983
21
-4.50598
0
LINE
8
BLACK
6
CONTINUOUS
10
5.89983
20
-4.50598
11
5.90358
21
-4.51348
0
LINE
8
BLACK
6
CONTINUOUS
10
5.90358
20
-4.51348
11
5.90358
21
-4.52098
0
LINE
8
BLACK
6
CONTINUOUS
10
5.90358
20
-4.52098
11
5.89983
21
-4.53222
0
LINE
8
BLACK
6
CONTINUOUS
10
5.89983
20
-4.53222
11
5.85484
21
-4.57722
0
LINE
8
BLACK
6
CONTINUOUS
10
5.85484
20
-4.57722
11
5.90358
21
-4.57722
0
LINE
8
BLACK
6
CONTINUOUS
10
5.92983
20
-4.49848
11
5.97857
21
-4.49848
0
LINE
8
BLACK
6
CONTINUOUS
10
5.97857
20
-4.49848
11
5.95232
21
-4.52847
0
LINE
8
BLACK
6
CONTINUOUS
10
5.95232
20
-4.52847
11
5.96357
21
-4.52847
0
LINE
8
BLACK
6
CONTINUOUS
10
5.96357
20
-4.52847
11
5.97107
21
-4.53222
0
LINE
8
BLACK
6
CONTINUOUS
10
5.97107
20
-4.53222
11
5.97482
21
-4.53597
0
LINE
8
BLACK
6
CONTINUOUS
10
5.97482
20
-4.53597
11
5.97857
21
-4.54347
0
LINE
8
BLACK
6
CONTINUOUS
10
5.97857
20
-4.54347
11
5.97857
21
-4.56222
0
LINE
8
BLACK
6
CONTINUOUS
10
5.97857
20
-4.56222
11
5.97482
21
-4.56972
0
LINE
8
BLACK
6
CONTINUOUS
10
5.97482
20
-4.56972
11
5.97107
21
-4.57347
0
LINE
8
BLACK
6
CONTINUOUS
10
5.97107
20
-4.57347
11
5.96357
21
-4.57722
0
LINE
8
BLACK
6
CONTINUOUS
10
5.96357
20
-4.57722
11
5.94107
21
-4.57722
0
LINE
8
BLACK
6
CONTINUOUS
10
5.94107
20
-4.57722
11
5.93358
21
-4.57347
0
LINE
8
BLACK
6
CONTINUOUS
10
5.93358
20
-4.57347
11
5.92983
21
-4.56972
0
LINE
8
BLACK
6
CONTINUOUS
10
6.04606
20
-4.49848
11
6.03106
21
-4.49848
0
LINE
8
BLACK
6
CONTINUOUS
10
6.03106
20
-4.49848
11
6.02356
21
-4.50223
0
LINE
8
BLACK
6
CONTINUOUS
10
6.02356
20
-4.50223
11
6.01981
21
-4.50598
0
LINE
8
BLACK
6
CONTINUOUS
10
6.01981
20
-4.50598
11
6.01232
21
-4.51723
0
LINE
8
BLACK
6
CONTINUOUS
10
6.01232
20
-4.51723
11
6.00857
21
-4.53222
0
LINE
8
BLACK
6
CONTINUOUS
10
6.00857
20
-4.53222
11
6.00857
21
-4.56222
0
LINE
8
BLACK
6
CONTINUOUS
10
6.00857
20
-4.56222
11
6.01232
21
-4.56972
0
LINE
8
BLACK
6
CONTINUOUS
10
6.01232
20
-4.56972
11
6.01607
21
-4.57347
0
LINE
8
BLACK
6
CONTINUOUS
10
6.01607
20
-4.57347
11
6.02356
21
-4.57722
0
LINE
8
BLACK
6
CONTINUOUS
10
6.02356
20
-4.57722
11
6.03856
21
-4.57722
0
LINE
8
BLACK
6
CONTINUOUS
10
6.03856
20
-4.57722
11
6.04606
21
-4.57347
0
LINE
8
BLACK
6
CONTINUOUS
10
6.04606
20
-4.57347
11
6.04981
21
-4.56972
0
LINE
8
BLACK
6
CONTINUOUS
10
6.04981
20
-4.56972
11
6.05356
21
-4.56222
0
LINE
8
BLACK
6
CONTINUOUS
10
6.05356
20
-4.56222
11
6.05356
21
-4.54347
0
LINE
8
BLACK
6
CONTINUOUS
10
6.05356
20
-4.54347
11
6.04981
21
-4.53597
0
LINE
8
BLACK
6
CONTINUOUS
10
6.04981
20
-4.53597
11
6.04606
21
-4.53222
0
LINE
8
BLACK
6
CONTINUOUS
10
6.04606
20
-4.53222
11
6.03856
21
-4.52847
0
LINE
8
BLACK
6
CONTINUOUS
10
6.03856
20
-4.52847
11
6.02356
21
-4.52847
0
LINE
8
BLACK
6
CONTINUOUS
10
6.02356
20
-4.52847
11
6.01607
21
-4.53222
0
LINE
8
BLACK
6
CONTINUOUS
10
6.01607
20
-4.53222
11
6.01232
21
-4.53597
0
LINE
8
BLACK
6
CONTINUOUS
10
6.01232
20
-4.53597
11
6.00857
21
-4.54347
0
LINE
8
BLACK
6
CONTINUOUS
10
6.08356
20
-4.49848
11
6.08356
21
-4.51348
0
LINE
8
BLACK
6
CONTINUOUS
10
6.11355
20
-4.49848
11
6.11355
21
-4.51348
0
LINE
8
BLACK
6
CONTINUOUS
10
6.22979
20
-4.60721
11
6.22604
21
-4.60346
0
LINE
8
BLACK
6
CONTINUOUS
10
6.22604
20
-4.60346
11
6.21854
21
-4.59222
0
LINE
8
BLACK
6
CONTINUOUS
10
6.21854
20
-4.59222
11
6.21479
21
-4.58472
0
LINE
8
BLACK
6
CONTINUOUS
10
6.21479
20
-4.58472
11
6.21104
21
-4.57347
0
LINE
8
BLACK
6
CONTINUOUS
10
6.21104
20
-4.57347
11
6.20729
21
-4.55472
0
LINE
8
BLACK
6
CONTINUOUS
10
6.20729
20
-4.55472
11
6.20729
21
-4.53972
0
LINE
8
BLACK
6
CONTINUOUS
10
6.20729
20
-4.53972
11
6.21104
21
-4.52098
0
LINE
8
BLACK
6
CONTINUOUS
10
6.21104
20
-4.52098
11
6.21479
21
-4.50973
0
LINE
8
BLACK
6
CONTINUOUS
10
6.21479
20
-4.50973
11
6.21854
21
-4.50223
0
LINE
8
BLACK
6
CONTINUOUS
10
6.21854
20
-4.50223
11
6.22604
21
-4.49098
0
LINE
8
BLACK
6
CONTINUOUS
10
6.22604
20
-4.49098
11
6.22979
21
-4.48723
0
LINE
8
BLACK
6
CONTINUOUS
10
6.27103
20
-4.53222
11
6.26353
21
-4.52847
0
LINE
8
BLACK
6
CONTINUOUS
10
6.26353
20
-4.52847
11
6.25978
21
-4.52472
0
LINE
8
BLACK
6
CONTINUOUS
10
6.25978
20
-4.52472
11
6.25604
21
-4.51723
0
LINE
8
BLACK
6
CONTINUOUS
10
6.25604
20
-4.51723
11
6.25604
21
-4.51348
0
LINE
8
BLACK
6
CONTINUOUS
10
6.25604
20
-4.51348
11
6.25978
21
-4.50598
0
LINE
8
BLACK
6
CONTINUOUS
10
6.25978
20
-4.50598
11
6.26353
21
-4.50223
0
LINE
8
BLACK
6
CONTINUOUS
10
6.26353
20
-4.50223
11
6.27103
21
-4.49848
0
LINE
8
BLACK
6
CONTINUOUS
10
6.27103
20
-4.49848
11
6.28603
21
-4.49848
0
LINE
8
BLACK
6
CONTINUOUS
10
6.28603
20
-4.49848
11
6.29353
21
-4.50223
0
LINE
8
BLACK
6
CONTINUOUS
10
6.29353
20
-4.50223
11
6.29728
21
-4.50598
0
LINE
8
BLACK
6
CONTINUOUS
10
6.29728
20
-4.50598
11
6.30103
21
-4.51348
0
LINE
8
BLACK
6
CONTINUOUS
10
6.30103
20
-4.51348
11
6.30103
21
-4.51723
0
LINE
8
BLACK
6
CONTINUOUS
10
6.30103
20
-4.51723
11
6.29728
21
-4.52472
0
LINE
8
BLACK
6
CONTINUOUS
10
6.29728
20
-4.52472
11
6.29353
21
-4.52847
0
LINE
8
BLACK
6
CONTINUOUS
10
6.29353
20
-4.52847
11
6.28603
21
-4.53222
0
LINE
8
BLACK
6
CONTINUOUS
10
6.28603
20
-4.53222
11
6.27103
21
-4.53222
0
LINE
8
BLACK
6
CONTINUOUS
10
6.27103
20
-4.53222
11
6.26353
21
-4.53597
0
LINE
8
BLACK
6
CONTINUOUS
10
6.26353
20
-4.53597
11
6.25978
21
-4.53972
0
LINE
8
BLACK
6
CONTINUOUS
10
6.25978
20
-4.53972
11
6.25604
21
-4.54722
0
LINE
8
BLACK
6
CONTINUOUS
10
6.25604
20
-4.54722
11
6.25604
21
-4.56222
0
LINE
8
BLACK
6
CONTINUOUS
10
6.25604
20
-4.56222
11
6.25978
21
-4.56972
0
LINE
8
BLACK
6
CONTINUOUS
10
6.25978
20
-4.56972
11
6.26353
21
-4.57347
0
LINE
8
BLACK
6
CONTINUOUS
10
6.26353
20
-4.57347
11
6.27103
21
-4.57722
0
LINE
8
BLACK
6
CONTINUOUS
10
6.27103
20
-4.57722
11
6.28603
21
-4.57722
0
LINE
8
BLACK
6
CONTINUOUS
10
6.28603
20
-4.57722
11
6.29353
21
-4.57347
0
LINE
8
BLACK
6
CONTINUOUS
10
6.29353
20
-4.57347
11
6.29728
21
-4.56972
0
LINE
8
BLACK
6
CONTINUOUS
10
6.29728
20
-4.56972
11
6.30103
21
-4.56222
0
LINE
8
BLACK
6
CONTINUOUS
10
6.30103
20
-4.56222
11
6.30103
21
-4.54722
0
LINE
8
BLACK
6
CONTINUOUS
10
6.30103
20
-4.54722
11
6.29728
21
-4.53972
0
LINE
8
BLACK
6
CONTINUOUS
10
6.29728
20
-4.53972
11
6.29353
21
-4.53597
0
LINE
8
BLACK
6
CONTINUOUS
10
6.29353
20
-4.53597
11
6.28603
21
-4.53222
0
LINE
8
BLACK
6
CONTINUOUS
10
6.39477
20
-4.57722
11
6.39477
21
-4.49848
0
LINE
8
BLACK
6
CONTINUOUS
10
6.42851
20
-4.57722
11
6.42851
21
-4.53597
0
LINE
8
BLACK
6
CONTINUOUS
10
6.42851
20
-4.53597
11
6.42476
21
-4.52847
0
LINE
8
BLACK
6
CONTINUOUS
10
6.42476
20
-4.52847
11
6.41727
21
-4.52472
0
LINE
8
BLACK
6
CONTINUOUS
10
6.41727
20
-4.52472
11
6.40602
21
-4.52472
0
LINE
8
BLACK
6
CONTINUOUS
10
6.40602
20
-4.52472
11
6.39852
21
-4.52847
0
LINE
8
BLACK
6
CONTINUOUS
10
6.39852
20
-4.52847
11
6.39477
21
-4.53222
0
LINE
8
BLACK
6
CONTINUOUS
10
6.47726
20
-4.57722
11
6.46976
21
-4.57347
0
LINE
8
BLACK
6
CONTINUOUS
10
6.46976
20
-4.57347
11
6.46601
21
-4.56972
0
LINE
8
BLACK
6
CONTINUOUS
10
6.46601
20
-4.56972
11
6.46226
21
-4.56222
0
LINE
8
BLACK
6
CONTINUOUS
10
6.46226
20
-4.56222
11
6.46226
21
-4.53972
0
LINE
8
BLACK
6
CONTINUOUS
10
6.46226
20
-4.53972
11
6.46601
21
-4.53222
0
LINE
8
BLACK
6
CONTINUOUS
10
6.46601
20
-4.53222
11
6.46976
21
-4.52847
0
LINE
8
BLACK
6
CONTINUOUS
10
6.46976
20
-4.52847
11
6.47726
21
-4.52472
0
LINE
8
BLACK
6
CONTINUOUS
10
6.47726
20
-4.52472
11
6.48851
21
-4.52472
0
LINE
8
BLACK
6
CONTINUOUS
10
6.48851
20
-4.52472
11
6.49601
21
-4.52847
0
LINE
8
BLACK
6
CONTINUOUS
10
6.49601
20
-4.52847
11
6.49975
21
-4.53222
0
LINE
8
BLACK
6
CONTINUOUS
10
6.49975
20
-4.53222
11
6.5035
21
-4.53972
0
LINE
8
BLACK
6
CONTINUOUS
10
6.5035
20
-4.53972
11
6.5035
21
-4.56222
0
LINE
8
BLACK
6
CONTINUOUS
10
6.5035
20
-4.56222
11
6.49975
21
-4.56972
0
LINE
8
BLACK
6
CONTINUOUS
10
6.49975
20
-4.56972
11
6.49601
21
-4.57347
0
LINE
8
BLACK
6
CONTINUOUS
10
6.49601
20
-4.57347
11
6.48851
21
-4.57722
0
LINE
8
BLACK
6
CONTINUOUS
10
6.48851
20
-4.57722
11
6.47726
21
-4.57722
0
LINE
8
BLACK
6
CONTINUOUS
10
6.5485
20
-4.57722
11
6.541
21
-4.57347
0
LINE
8
BLACK
6
CONTINUOUS
10
6.541
20
-4.57347
11
6.53725
21
-4.56597
0
LINE
8
BLACK
6
CONTINUOUS
10
6.53725
20
-4.56597
11
6.53725
21
-4.49848
0
LINE
8
BLACK
6
CONTINUOUS
10
6.60849
20
-4.57347
11
6.60099
21
-4.57722
0
LINE
8
BLACK
6
CONTINUOUS
10
6.60099
20
-4.57722
11
6.58599
21
-4.57722
0
LINE
8
BLACK
6
CONTINUOUS
10
6.58599
20
-4.57722
11
6.57849
21
-4.57347
0
LINE
8
BLACK
6
CONTINUOUS
10
6.57849
20
-4.57347
11
6.57475
21
-4.56597
0
LINE
8
BLACK
6
CONTINUOUS
10
6.57475
20
-4.56597
11
6.57475
21
-4.53597
0
LINE
8
BLACK
6
CONTINUOUS
10
6.57475
20
-4.53597
11
6.57849
21
-4.52847
0
LINE
8
BLACK
6
CONTINUOUS
10
6.57849
20
-4.52847
11
6.58599
21
-4.52472
0
LINE
8
BLACK
6
CONTINUOUS
10
6.58599
20
-4.52472
11
6.60099
21
-4.52472
0
LINE
8
BLACK
6
CONTINUOUS
10
6.60099
20
-4.52472
11
6.60849
21
-4.52847
0
LINE
8
BLACK
6
CONTINUOUS
10
6.60849
20
-4.52847
11
6.61224
21
-4.53597
0
LINE
8
BLACK
6
CONTINUOUS
10
6.61224
20
-4.53597
11
6.61224
21
-4.54347
0
LINE
8
BLACK
6
CONTINUOUS
10
6.61224
20
-4.54347
11
6.57475
21
-4.55097
0
LINE
8
BLACK
6
CONTINUOUS
10
6.64224
20
-4.57347
11
6.64974
21
-4.57722
0
LINE
8
BLACK
6
CONTINUOUS
10
6.64974
20
-4.57722
11
6.66473
21
-4.57722
0
LINE
8
BLACK
6
CONTINUOUS
10
6.66473
20
-4.57722
11
6.67223
21
-4.57347
0
LINE
8
BLACK
6
CONTINUOUS
10
6.67223
20
-4.57347
11
6.67598
21
-4.56597
0
LINE
8
BLACK
6
CONTINUOUS
10
6.67598
20
-4.56597
11
6.67598
21
-4.56222
0
LINE
8
BLACK
6
CONTINUOUS
10
6.67598
20
-4.56222
11
6.67223
21
-4.55472
0
LINE
8
BLACK
6
CONTINUOUS
10
6.67223
20
-4.55472
11
6.66473
21
-4.55097
0
LINE
8
BLACK
6
CONTINUOUS
10
6.66473
20
-4.55097
11
6.65349
21
-4.55097
0
LINE
8
BLACK
6
CONTINUOUS
10
6.65349
20
-4.55097
11
6.64599
21
-4.54722
0
LINE
8
BLACK
6
CONTINUOUS
10
6.64599
20
-4.54722
11
6.64224
21
-4.53972
0
LINE
8
BLACK
6
CONTINUOUS
10
6.64224
20
-4.53972
11
6.64224
21
-4.53597
0
LINE
8
BLACK
6
CONTINUOUS
10
6.64224
20
-4.53597
11
6.64599
21
-4.52847
0
LINE
8
BLACK
6
CONTINUOUS
10
6.64599
20
-4.52847
11
6.65349
21
-4.52472
0
LINE
8
BLACK
6
CONTINUOUS
10
6.65349
20
-4.52472
11
6.66473
21
-4.52472
0
LINE
8
BLACK
6
CONTINUOUS
10
6.66473
20
-4.52472
11
6.67223
21
-4.52847
0
LINE
8
BLACK
6
CONTINUOUS
10
6.70223
20
-4.60721
11
6.70598
21
-4.60346
0
LINE
8
BLACK
6
CONTINUOUS
10
6.70598
20
-4.60346
11
6.71348
21
-4.59222
0
LINE
8
BLACK
6
CONTINUOUS
10
6.71348
20
-4.59222
11
6.71723
21
-4.58472
0
LINE
8
BLACK
6
CONTINUOUS
10
6.71723
20
-4.58472
11
6.72098
21
-4.57347
0
LINE
8
BLACK
6
CONTINUOUS
10
6.72098
20
-4.57347
11
6.72473
21
-4.55472
0
LINE
8
BLACK
6
CONTINUOUS
10
6.72473
20
-4.55472
11
6.72473
21
-4.53972
0
LINE
8
BLACK
6
CONTINUOUS
10
6.72473
20
-4.53972
11
6.72098
21
-4.52098
0
LINE
8
BLACK
6
CONTINUOUS
10
6.72098
20
-4.52098
11
6.71723
21
-4.50973
0
LINE
8
BLACK
6
CONTINUOUS
10
6.71723
20
-4.50973
11
6.71348
21
-4.50223
0
LINE
8
BLACK
6
CONTINUOUS
10
6.71348
20
-4.50223
11
6.70598
21
-4.49098
0
LINE
8
BLACK
6
CONTINUOUS
10
6.70598
20
-4.49098
11
6.70223
21
-4.48723
0
CIRCLE
8
BLACK
10
4.8085
20
-4.64514
40
0.0137795
0
LINE
8
BLACK
6
CONTINUOUS
10
4.93995
20
-4.60241
11
4.94745
21
-4.60241
0
LINE
8
BLACK
6
CONTINUOUS
10
4.94745
20
-4.60241
11
4.95495
21
-4.60616
0
LINE
8
BLACK
6
CONTINUOUS
10
4.95495
20
-4.60616
11
4.9587
21
-4.60991
0
LINE
8
BLACK
6
CONTINUOUS
10
4.9587
20
-4.60991
11
4.96245
21
-4.61741
0
LINE
8
BLACK
6
CONTINUOUS
10
4.96245
20
-4.61741
11
4.9662
21
-4.63241
0
LINE
8
BLACK
6
CONTINUOUS
10
4.9662
20
-4.63241
11
4.9662
21
-4.65116
0
LINE
8
BLACK
6
CONTINUOUS
10
4.9662
20
-4.65116
11
4.96245
21
-4.66616
0
LINE
8
BLACK
6
CONTINUOUS
10
4.96245
20
-4.66616
11
4.9587
21
-4.67366
0
LINE
8
BLACK
6
CONTINUOUS
10
4.9587
20
-4.67366
11
4.95495
21
-4.67741
0
LINE
8
BLACK
6
CONTINUOUS
10
4.95495
20
-4.67741
11
4.94745
21
-4.68116
0
LINE
8
BLACK
6
CONTINUOUS
10
4.94745
20
-4.68116
11
4.93995
21
-4.68116
0
LINE
8
BLACK
6
CONTINUOUS
10
4.93995
20
-4.68116
11
4.93245
21
-4.67741
0
LINE
8
BLACK
6
CONTINUOUS
10
4.93245
20
-4.67741
11
4.9287
21
-4.67366
0
LINE
8
BLACK
6
CONTINUOUS
10
4.9287
20
-4.67366
11
4.92495
21
-4.66616
0
LINE
8
BLACK
6
CONTINUOUS
10
4.92495
20
-4.66616
11
4.9212
21
-4.65116
0
LINE
8
BLACK
6
CONTINUOUS
10
4.9212
20
-4.65116
11
4.9212
21
-4.63241
0
LINE
8
BLACK
6
CONTINUOUS
10
4.9212
20
-4.63241
11
4.92495
21
-4.61741
0
LINE
8
BLACK
6
CONTINUOUS
10
4.92495
20
-4.61741
11
4.9287
21
-4.60991
0
LINE
8
BLACK
6
CONTINUOUS
10
4.9287
20
-4.60991
11
4.93245
21
-4.60616
0
LINE
8
BLACK
6
CONTINUOUS
10
4.93245
20
-4.60616
11
4.93995
21
-4.60241
0
LINE
8
BLACK
6
CONTINUOUS
10
4.99994
20
-4.67366
11
5.00369
21
-4.67741
0
LINE
8
BLACK
6
CONTINUOUS
10
5.00369
20
-4.67741
11
4.99994
21
-4.68116
0
LINE
8
BLACK
6
CONTINUOUS
10
4.99994
20
-4.68116
11
4.99619
21
-4.67741
0
LINE
8
BLACK
6
CONTINUOUS
10
4.99619
20
-4.67741
11
4.99994
21
-4.67366
0
LINE
8
BLACK
6
CONTINUOUS
10
4.99994
20
-4.67366
11
4.99994
21
-4.68116
0
LINE
8
BLACK
6
CONTINUOUS
10
5.02994
20
-4.60241
11
5.08243
21
-4.60241
0
LINE
8
BLACK
6
CONTINUOUS
10
5.08243
20
-4.60241
11
5.04869
21
-4.68116
0
LINE
8
BLACK
6
CONTINUOUS
10
5.12743
20
-4.60241
11
5.13493
21
-4.60241
0
LINE
8
BLACK
6
CONTINUOUS
10
5.13493
20
-4.60241
11
5.14242
21
-4.60616
0
LINE
8
BLACK
6
CONTINUOUS
10
5.14242
20
-4.60616
11
5.14617
21
-4.60991
0
LINE
8
BLACK
6
CONTINUOUS
10
5.14617
20
-4.60991
11
5.14992
21
-4.61741
0
LINE
8
BLACK
6
CONTINUOUS
10
5.14992
20
-4.61741
11
5.15367
21
-4.63241
0
LINE
8
BLACK
6
CONTINUOUS
10
5.15367
20
-4.63241
11
5.15367
21
-4.65116
0
LINE
8
BLACK
6
CONTINUOUS
10
5.15367
20
-4.65116
11
5.14992
21
-4.66616
0
LINE
8
BLACK
6
CONTINUOUS
10
5.14992
20
-4.66616
11
5.14617
21
-4.67366
0
LINE
8
BLACK
6
CONTINUOUS
10
5.14617
20
-4.67366
11
5.14242
21
-4.67741
0
LINE
8
BLACK
6
CONTINUOUS
10
5.14242
20
-4.67741
11
5.13493
21
-4.68116
0
LINE
8
BLACK
6
CONTINUOUS
10
5.13493
20
-4.68116
11
5.12743
21
-4.68116
0
LINE
8
BLACK
6
CONTINUOUS
10
5.12743
20
-4.68116
11
5.11993
21
-4.67741
0
LINE
8
BLACK
6
CONTINUOUS
10
5.11993
20
-4.67741
11
5.11618
21
-4.67366
0
LINE
8
BLACK
6
CONTINUOUS
10
5.11618
20
-4.67366
11
5.11243
21
-4.66616
0
LINE
8
BLACK
6
CONTINUOUS
10
5.11243
20
-4.66616
11
5.10868
21
-4.65116
0
LINE
8
BLACK
6
CONTINUOUS
10
5.10868
20
-4.65116
11
5.10868
21
-4.63241
0
LINE
8
BLACK
6
CONTINUOUS
10
5.10868
20
-4.63241
11
5.11243
21
-4.61741
0
LINE
8
BLACK
6
CONTINUOUS
10
5.11243
20
-4.61741
11
5.11618
21
-4.60991
0
LINE
8
BLACK
6
CONTINUOUS
10
5.11618
20
-4.60991
11
5.11993
21
-4.60616
0
LINE
8
BLACK
6
CONTINUOUS
10
5.11993
20
-4.60616
11
5.12743
21
-4.60241
0
LINE
8
BLACK
6
CONTINUOUS
10
5.20242
20
-4.60241
11
5.20992
21
-4.60241
0
LINE
8
BLACK
6
CONTINUOUS
10
5.20992
20
-4.60241
11
5.21741
21
-4.60616
0
LINE
8
BLACK
6
CONTINUOUS
10
5.21741
20
-4.60616
11
5.22116
21
-4.60991
0
LINE
8
BLACK
6
CONTINUOUS
10
5.22116
20
-4.60991
11
5.22491
21
-4.61741
0
LINE
8
BLACK
6
CONTINUOUS
10
5.22491
20
-4.61741
11
5.22866
21
-4.63241
0
LINE
8
BLACK
6
CONTINUOUS
10
5.22866
20
-4.63241
11
5.22866
21
-4.65116
0
LINE
8
BLACK
6
CONTINUOUS
10
5.22866
20
-4.65116
11
5.22491
21
-4.66616
0
LINE
8
BLACK
6
CONTINUOUS
10
5.22491
20
-4.66616
11
5.22116
21
-4.67366
0
LINE
8
BLACK
6
CONTINUOUS
10
5.22116
20
-4.67366
11
5.21741
21
-4.67741
0
LINE
8
BLACK
6
CONTINUOUS
10
5.21741
20
-4.67741
11
5.20992
21
-4.68116
0
LINE
8
BLACK
6
CONTINUOUS
10
5.20992
20
-4.68116
11
5.20242
21
-4.68116
0
LINE
8
BLACK
6
CONTINUOUS
10
5.20242
20
-4.68116
11
5.19492
21
-4.67741
0
LINE
8
BLACK
6
CONTINUOUS
10
5.19492
20
-4.67741
11
5.19117
21
-4.67366
0
LINE
8
BLACK
6
CONTINUOUS
10
5.19117
20
-4.67366
11
5.18742
21
-4.66616
0
LINE
8
BLACK
6
CONTINUOUS
10
5.18742
20
-4.66616
11
5.18367
21
-4.65116
0
LINE
8
BLACK
6
CONTINUOUS
10
5.18367
20
-4.65116
11
5.18367
21
-4.63241
0
LINE
8
BLACK
6
CONTINUOUS
10
5.18367
20
-4.63241
11
5.18742
21
-4.61741
0
LINE
8
BLACK
6
CONTINUOUS
10
5.18742
20
-4.61741
11
5.19117
21
-4.60991
0
LINE
8
BLACK
6
CONTINUOUS
10
5.19117
20
-4.60991
11
5.19492
21
-4.60616
0
LINE
8
BLACK
6
CONTINUOUS
10
5.19492
20
-4.60616
11
5.20242
21
-4.60241
0
LINE
8
BLACK
6
CONTINUOUS
10
5.26241
20
-4.68116
11
5.26241
21
-4.62866
0
LINE
8
BLACK
6
CONTINUOUS
10
5.26241
20
-4.63616
11
5.26616
21
-4.63241
0
LINE
8
BLACK
6
CONTINUOUS
10
5.26616
20
-4.63241
11
5.27366
21
-4.62866
0
LINE
8
BLACK
6
CONTINUOUS
10
5.27366
20
-4.62866
11
5.28491
21
-4.62866
0
LINE
8
BLACK
6
CONTINUOUS
10
5.28491
20
-4.62866
11
5.29241
21
-4.63241
0
LINE
8
BLACK
6
CONTINUOUS
10
5.29241
20
-4.63241
11
5.29616
21
-4.63991
0
LINE
8
BLACK
6
CONTINUOUS
10
5.29616
20
-4.63991
11
5.29616
21
-4.68116
0
LINE
8
BLACK
6
CONTINUOUS
10
5.29616
20
-4.63991
11
5.2999
21
-4.63241
0
LINE
8
BLACK
6
CONTINUOUS
10
5.2999
20
-4.63241
11
5.3074
21
-4.62866
0
LINE
8
BLACK
6
CONTINUOUS
10
5.3074
20
-4.62866
11
5.31865
21
-4.62866
0
LINE
8
BLACK
6
CONTINUOUS
10
5.31865
20
-4.62866
11
5.32615
21
-4.63241
0
LINE
8
BLACK
6
CONTINUOUS
10
5.32615
20
-4.63241
11
5.3299
21
-4.63991
0
LINE
8
BLACK
6
CONTINUOUS
10
5.3299
20
-4.63991
11
5.3299
21
-4.68116
0
LINE
8
BLACK
6
CONTINUOUS
10
5.3674
20
-4.68116
11
5.3674
21
-4.62866
0
LINE
8
BLACK
6
CONTINUOUS
10
5.3674
20
-4.63616
11
5.37115
21
-4.63241
0
LINE
8
BLACK
6
CONTINUOUS
10
5.37115
20
-4.63241
11
5.37864
21
-4.62866
0
LINE
8
BLACK
6
CONTINUOUS
10
5.37864
20
-4.62866
11
5.38989
21
-4.62866
0
LINE
8
BLACK
6
CONTINUOUS
10
5.38989
20
-4.62866
11
5.39739
21
-4.63241
0
LINE
8
BLACK
6
CONTINUOUS
10
5.39739
20
-4.63241
11
5.40114
21
-4.63991
0
LINE
8
BLACK
6
CONTINUOUS
10
5.40114
20
-4.63991
11
5.40114
21
-4.68116
0
LINE
8
BLACK
6
CONTINUOUS
10
5.40114
20
-4.63991
11
5.40489
21
-4.63241
0
LINE
8
BLACK
6
CONTINUOUS
10
5.40489
20
-4.63241
11
5.41239
21
-4.62866
0
LINE
8
BLACK
6
CONTINUOUS
10
5.41239
20
-4.62866
11
5.42364
21
-4.62866
0
LINE
8
BLACK
6
CONTINUOUS
10
5.42364
20
-4.62866
11
5.43114
21
-4.63241
0
LINE
8
BLACK
6
CONTINUOUS
10
5.43114
20
-4.63241
11
5.43489
21
-4.63991
0
LINE
8
BLACK
6
CONTINUOUS
10
5.43489
20
-4.63991
11
5.43489
21
-4.68116
0
LINE
8
BLACK
6
CONTINUOUS
10
5.58862
20
-4.59867
11
5.52113
21
-4.6999
0
LINE
8
BLACK
6
CONTINUOUS
10
5.68986
20
-4.60241
11
5.69736
21
-4.60241
0
LINE
8
BLACK
6
CONTINUOUS
10
5.69736
20
-4.60241
11
5.70485
21
-4.60616
0
LINE
8
BLACK
6
CONTINUOUS
10
5.70485
20
-4.60616
11
5.7086
21
-4.60991
0
LINE
8
BLACK
6
CONTINUOUS
10
5.7086
20
-4.60991
11
5.71235
21
-4.61741
0
LINE
8
BLACK
6
CONTINUOUS
10
5.71235
20
-4.61741
11
5.7161
21
-4.63241
0
LINE
8
BLACK
6
CONTINUOUS
10
5.7161
20
-4.63241
11
5.7161
21
-4.65116
0
LINE
8
BLACK
6
CONTINUOUS
10
5.7161
20
-4.65116
11
5.71235
21
-4.66616
0
LINE
8
BLACK
6
CONTINUOUS
10
5.71235
20
-4.66616
11
5.7086
21
-4.67366
0
LINE
8
BLACK
6
CONTINUOUS
10
5.7086
20
-4.67366
11
5.70485
21
-4.67741
0
LINE
8
BLACK
6
CONTINUOUS
10
5.70485
20
-4.67741
11
5.69736
21
-4.68116
0
LINE
8
BLACK
6
CONTINUOUS
10
5.69736
20
-4.68116
11
5.68986
21
-4.68116
0
LINE
8
BLACK
6
CONTINUOUS
10
5.68986
20
-4.68116
11
5.68236
21
-4.67741
0
LINE
8
BLACK
6
CONTINUOUS
10
5.68236
20
-4.67741
11
5.67861
21
-4.67366
0
LINE
8
BLACK
6
CONTINUOUS
10
5.67861
20
-4.67366
11
5.67486
21
-4.66616
0
LINE
8
BLACK
6
CONTINUOUS
10
5.67486
20
-4.66616
11
5.67111
21
-4.65116
0
LINE
8
BLACK
6
CONTINUOUS
10
5.67111
20
-4.65116
11
5.67111
21
-4.63241
0
LINE
8
BLACK
6
CONTINUOUS
10
5.67111
20
-4.63241
11
5.67486
21
-4.61741
0
LINE
8
BLACK
6
CONTINUOUS
10
5.67486
20
-4.61741
11
5.67861
21
-4.60991
0
LINE
8
BLACK
6
CONTINUOUS
10
5.67861
20
-4.60991
11
5.68236
21
-4.60616
0
LINE
8
BLACK
6
CONTINUOUS
10
5.68236
20
-4.60616
11
5.68986
21
-4.60241
0
LINE
8
BLACK
6
CONTINUOUS
10
5.74985
20
-4.67366
11
5.7536
21
-4.67741
0
LINE
8
BLACK
6
CONTINUOUS
10
5.7536
20
-4.67741
11
5.74985
21
-4.68116
0
LINE
8
BLACK
6
CONTINUOUS
10
5.74985
20
-4.68116
11
5.7461
21
-4.67741
0
LINE
8
BLACK
6
CONTINUOUS
10
5.7461
20
-4.67741
11
5.74985
21
-4.67366
0
LINE
8
BLACK
6
CONTINUOUS
10
5.74985
20
-4.67366
11
5.74985
21
-4.68116
0
LINE
8
BLACK
6
CONTINUOUS
10
5.80234
20
-4.60241
11
5.80984
21
-4.60241
0
LINE
8
BLACK
6
CONTINUOUS
10
5.80984
20
-4.60241
11
5.81734
21
-4.60616
0
LINE
8
BLACK
6
CONTINUOUS
10
5.81734
20
-4.60616
11
5.82109
21
-4.60991
0
LINE
8
BLACK
6
CONTINUOUS
10
5.82109
20
-4.60991
11
5.82484
21
-4.61741
0
LINE
8
BLACK
6
CONTINUOUS
10
5.82484
20
-4.61741
11
5.82859
21
-4.63241
0
LINE
8
BLACK
6
CONTINUOUS
10
5.82859
20
-4.63241
11
5.82859
21
-4.65116
0
LINE
8
BLACK
6
CONTINUOUS
10
5.82859
20
-4.65116
11
5.82484
21
-4.66616
0
LINE
8
BLACK
6
CONTINUOUS
10
5.82484
20
-4.66616
11
5.82109
21
-4.67366
0
LINE
8
BLACK
6
CONTINUOUS
10
5.82109
20
-4.67366
11
5.81734
21
-4.67741
0
LINE
8
BLACK
6
CONTINUOUS
10
5.81734
20
-4.67741
11
5.80984
21
-4.68116
0
LINE
8
BLACK
6
CONTINUOUS
10
5.80984
20
-4.68116
11
5.80234
21
-4.68116
0
LINE
8
BLACK
6
CONTINUOUS
10
5.80234
20
-4.68116
11
5.79484
21
-4.67741
0
LINE
8
BLACK
6
CONTINUOUS
10
5.79484
20
-4.67741
11
5.79109
21
-4.67366
0
LINE
8
BLACK
6
CONTINUOUS
10
5.79109
20
-4.67366
11
5.78734
21
-4.66616
0
LINE
8
BLACK
6
CONTINUOUS
10
5.78734
20
-4.66616
11
5.78359
21
-4.65116
0
LINE
8
BLACK
6
CONTINUOUS
10
5.78359
20
-4.65116
11
5.78359
21
-4.63241
0
LINE
8
BLACK
6
CONTINUOUS
10
5.78359
20
-4.63241
11
5.78734
21
-4.61741
0
LINE
8
BLACK
6
CONTINUOUS
10
5.78734
20
-4.61741
11
5.79109
21
-4.60991
0
LINE
8
BLACK
6
CONTINUOUS
10
5.79109
20
-4.60991
11
5.79484
21
-4.60616
0
LINE
8
BLACK
6
CONTINUOUS
10
5.79484
20
-4.60616
11
5.80234
21
-4.60241
0
LINE
8
BLACK
6
CONTINUOUS
10
5.85858
20
-4.60991
11
5.86233
21
-4.60616
0
LINE
8
BLACK
6
CONTINUOUS
10
5.86233
20
-4.60616
11
5.86983
21
-4.60241
0
LINE
8
BLACK
6
CONTINUOUS
10
5.86983
20
-4.60241
11
5.88858
21
-4.60241
0
LINE
8
BLACK
6
CONTINUOUS
10
5.88858
20
-4.60241
11
5.89608
21
-4.60616
0
LINE
8
BLACK
6
CONTINUOUS
10
5.89608
20
-4.60616
11
5.89983
21
-4.60991
0
LINE
8
BLACK
6
CONTINUOUS
10
5.89983
20
-4.60991
11
5.90358
21
-4.61741
0
LINE
8
BLACK
6
CONTINUOUS
10
5.90358
20
-4.61741
11
5.90358
21
-4.62491
0
LINE
8
BLACK
6
CONTINUOUS
10
5.90358
20
-4.62491
11
5.89983
21
-4.63616
0
LINE
8
BLACK
6
CONTINUOUS
10
5.89983
20
-4.63616
11
5.85484
21
-4.68116
0
LINE
8
BLACK
6
CONTINUOUS
10
5.85484
20
-4.68116
11
5.90358
21
-4.68116
0
LINE
8
BLACK
6
CONTINUOUS
10
5.92983
20
-4.60241
11
5.98232
21
-4.60241
0
LINE
8
BLACK
6
CONTINUOUS
10
5.98232
20
-4.60241
11
5.94857
21
-4.68116
0
LINE
8
BLACK
6
CONTINUOUS
10
6.04606
20
-4.60241
11
6.03106
21
-4.60241
0
LINE
8
BLACK
6
CONTINUOUS
10
6.03106
20
-4.60241
11
6.02356
21
-4.60616
0
LINE
8
BLACK
6
CONTINUOUS
10
6.02356
20
-4.60616
11
6.01981
21
-4.60991
0
LINE
8
BLACK
6
CONTINUOUS
10
6.01981
20
-4.60991
11
6.01232
21
-4.62116
0
LINE
8
BLACK
6
CONTINUOUS
10
6.01232
20
-4.62116
11
6.00857
21
-4.63616
0
LINE
8
BLACK
6
CONTINUOUS
10
6.00857
20
-4.63616
11
6.00857
21
-4.66616
0
LINE
8
BLACK
6
CONTINUOUS
10
6.00857
20
-4.66616
11
6.01232
21
-4.67366
0
LINE
8
BLACK
6
CONTINUOUS
10
6.01232
20
-4.67366
11
6.01607
21
-4.67741
0
LINE
8
BLACK
6
CONTINUOUS
10
6.01607
20
-4.67741
11
6.02356
21
-4.68116
0
LINE
8
BLACK
6
CONTINUOUS
10
6.02356
20
-4.68116
11
6.03856
21
-4.68116
0
LINE
8
BLACK
6
CONTINUOUS
10
6.03856
20
-4.68116
11
6.04606
21
-4.67741
0
LINE
8
BLACK
6
CONTINUOUS
10
6.04606
20
-4.67741
11
6.04981
21
-4.67366
0
LINE
8
BLACK
6
CONTINUOUS
10
6.04981
20
-4.67366
11
6.05356
21
-4.66616
0
LINE
8
BLACK
6
CONTINUOUS
10
6.05356
20
-4.66616
11
6.05356
21
-4.64741
0
LINE
8
BLACK
6
CONTINUOUS
10
6.05356
20
-4.64741
11
6.04981
21
-4.63991
0
LINE
8
BLACK
6
CONTINUOUS
10
6.04981
20
-4.63991
11
6.04606
21
-4.63616
0
LINE
8
BLACK
6
CONTINUOUS
10
6.04606
20
-4.63616
11
6.03856
21
-4.63241
0
LINE
8
BLACK
6
CONTINUOUS
10
6.03856
20
-4.63241
11
6.02356
21
-4.63241
0
LINE
8
BLACK
6
CONTINUOUS
10
6.02356
20
-4.63241
11
6.01607
21
-4.63616
0
LINE
8
BLACK
6
CONTINUOUS
10
6.01607
20
-4.63616
11
6.01232
21
-4.63991
0
LINE
8
BLACK
6
CONTINUOUS
10
6.01232
20
-4.63991
11
6.00857
21
-4.64741
0
LINE
8
BLACK
6
CONTINUOUS
10
6.08356
20
-4.60241
11
6.08356
21
-4.61741
0
LINE
8
BLACK
6
CONTINUOUS
10
6.11355
20
-4.60241
11
6.11355
21
-4.61741
0
LINE
8
BLACK
6
CONTINUOUS
10
6.22979
20
-4.71115
11
6.22604
21
-4.7074
0
LINE
8
BLACK
6
CONTINUOUS
10
6.22604
20
-4.7074
11
6.21854
21
-4.69615
0
LINE
8
BLACK
6
CONTINUOUS
10
6.21854
20
-4.69615
11
6.21479
21
-4.68865
0
LINE
8
BLACK
6
CONTINUOUS
10
6.21479
20
-4.68865
11
6.21104
21
-4.67741
0
LINE
8
BLACK
6
CONTINUOUS
10
6.21104
20
-4.67741
11
6.20729
21
-4.65866
0
LINE
8
BLACK
6
CONTINUOUS
10
6.20729
20
-4.65866
11
6.20729
21
-4.64366
0
LINE
8
BLACK
6
CONTINUOUS
10
6.20729
20
-4.64366
11
6.21104
21
-4.62491
0
LINE
8
BLACK
6
CONTINUOUS
10
6.21104
20
-4.62491
11
6.21479
21
-4.61366
0
LINE
8
BLACK
6
CONTINUOUS
10
6.21479
20
-4.61366
11
6.21854
21
-4.60616
0
LINE
8
BLACK
6
CONTINUOUS
10
6.21854
20
-4.60616
11
6.22604
21
-4.59492
0
LINE
8
BLACK
6
CONTINUOUS
10
6.22604
20
-4.59492
11
6.22979
21
-4.59117
0
LINE
8
BLACK
6
CONTINUOUS
10
6.25229
20
-4.60241
11
6.30103
21
-4.60241
0
LINE
8
BLACK
6
CONTINUOUS
10
6.30103
20
-4.60241
11
6.27478
21
-4.63241
0
LINE
8
BLACK
6
CONTINUOUS
10
6.27478
20
-4.63241
11
6.28603
21
-4.63241
0
LINE
8
BLACK
6
CONTINUOUS
10
6.28603
20
-4.63241
11
6.29353
21
-4.63616
0
LINE
8
BLACK
6
CONTINUOUS
10
6.29353
20
-4.63616
11
6.29728
21
-4.63991
0
LINE
8
BLACK
6
CONTINUOUS
10
6.29728
20
-4.63991
11
6.30103
21
-4.64741
0
LINE
8
BLACK
6
CONTINUOUS
10
6.30103
20
-4.64741
11
6.30103
21
-4.66616
0
LINE
8
BLACK
6
CONTINUOUS
10
6.30103
20
-4.66616
11
6.29728
21
-4.67366
0
LINE
8
BLACK
6
CONTINUOUS
10
6.29728
20
-4.67366
11
6.29353
21
-4.67741
0
LINE
8
BLACK
6
CONTINUOUS
10
6.29353
20
-4.67741
11
6.28603
21
-4.68116
0
LINE
8
BLACK
6
CONTINUOUS
10
6.28603
20
-4.68116
11
6.26353
21
-4.68116
0
LINE
8
BLACK
6
CONTINUOUS
10
6.26353
20
-4.68116
11
6.25604
21
-4.67741
0
LINE
8
BLACK
6
CONTINUOUS
10
6.25604
20
-4.67741
11
6.25229
21
-4.67366
0
LINE
8
BLACK
6
CONTINUOUS
10
6.34977
20
-4.60241
11
6.35727
21
-4.60241
0
LINE
8
BLACK
6
CONTINUOUS
10
6.35727
20
-4.60241
11
6.36477
21
-4.60616
0
LINE
8
BLACK
6
CONTINUOUS
10
6.36477
20
-4.60616
11
6.36852
21
-4.60991
0
LINE
8
BLACK
6
CONTINUOUS
10
6.36852
20
-4.60991
11
6.37227
21
-4.61741
0
LINE
8
BLACK
6
CONTINUOUS
10
6.37227
20
-4.61741
11
6.37602
21
-4.63241
0
LINE
8
BLACK
6
CONTINUOUS
10
6.37602
20
-4.63241
11
6.37602
21
-4.65116
0
LINE
8
BLACK
6
CONTINUOUS
10
6.37602
20
-4.65116
11
6.37227
21
-4.66616
0
LINE
8
BLACK
6
CONTINUOUS
10
6.37227
20
-4.66616
11
6.36852
21
-4.67366
0
LINE
8
BLACK
6
CONTINUOUS
10
6.36852
20
-4.67366
11
6.36477
21
-4.67741
0
LINE
8
BLACK
6
CONTINUOUS
10
6.36477
20
-4.67741
11
6.35727
21
-4.68116
0
LINE
8
BLACK
6
CONTINUOUS
10
6.35727
20
-4.68116
11
6.34977
21
-4.68116
0
LINE
8
BLACK
6
CONTINUOUS
10
6.34977
20
-4.68116
11
6.34227
21
-4.67741
0
LINE
8
BLACK
6
CONTINUOUS
10
6.34227
20
-4.67741
11
6.33852
21
-4.67366
0
LINE
8
BLACK
6
CONTINUOUS
10
6.33852
20
-4.67366
11
6.33478
21
-4.66616
0
LINE
8
BLACK
6
CONTINUOUS
10
6.33478
20
-4.66616
11
6.33103
21
-4.65116
0
LINE
8
BLACK
6
CONTINUOUS
10
6.33103
20
-4.65116
11
6.33103
21
-4.63241
0
LINE
8
BLACK
6
CONTINUOUS
10
6.33103
20
-4.63241
11
6.33478
21
-4.61741
0
LINE
8
BLACK
6
CONTINUOUS
10
6.33478
20
-4.61741
11
6.33852
21
-4.60991
0
LINE
8
BLACK
6
CONTINUOUS
10
6.33852
20
-4.60991
11
6.34227
21
-4.60616
0
LINE
8
BLACK
6
CONTINUOUS
10
6.34227
20
-4.60616
11
6.34977
21
-4.60241
0
LINE
8
BLACK
6
CONTINUOUS
10
6.46976
20
-4.68116
11
6.46976
21
-4.60241
0
LINE
8
BLACK
6
CONTINUOUS
10
6.5035
20
-4.68116
11
6.5035
21
-4.63991
0
LINE
8
BLACK
6
CONTINUOUS
10
6.5035
20
-4.63991
11
6.49975
21
-4.63241
0
LINE
8
BLACK
6
CONTINUOUS
10
6.49975
20
-4.63241
11
6.49226
21
-4.62866
0
LINE
8
BLACK
6
CONTINUOUS
10
6.49226
20
-4.62866
11
6.48101
21
-4.62866
0
LINE
8
BLACK
6
CONTINUOUS
10
6.48101
20
-4.62866
11
6.47351
21
-4.63241
0
LINE
8
BLACK
6
CONTINUOUS
10
6.47351
20
-4.63241
11
6.46976
21
-4.63616
0
LINE
8
BLACK
6
CONTINUOUS
10
6.55225
20
-4.68116
11
6.54475
21
-4.67741
0
LINE
8
BLACK
6
CONTINUOUS
10
6.54475
20
-4.67741
11
6.541
21
-4.67366
0
LINE
8
BLACK
6
CONTINUOUS
10
6.541
20
-4.67366
11
6.53725
21
-4.66616
0
LINE
8
BLACK
6
CONTINUOUS
10
6.53725
20
-4.66616
11
6.53725
21
-4.64366
0
LINE
8
BLACK
6
CONTINUOUS
10
6.53725
20
-4.64366
11
6.541
21
-4.63616
0
LINE
8
BLACK
6
CONTINUOUS
10
6.541
20
-4.63616
11
6.54475
21
-4.63241
0
LINE
8
BLACK
6
CONTINUOUS
10
6.54475
20
-4.63241
11
6.55225
21
-4.62866
0
LINE
8
BLACK
6
CONTINUOUS
10
6.55225
20
-4.62866
11
6.5635
21
-4.62866
0
LINE
8
BLACK
6
CONTINUOUS
10
6.5635
20
-4.62866
11
6.571
21
-4.63241
0
LINE
8
BLACK
6
CONTINUOUS
10
6.571
20
-4.63241
11
6.57475
21
-4.63616
0
LINE
8
BLACK
6
CONTINUOUS
10
6.57475
20
-4.63616
11
6.57849
21
-4.64366
0
LINE
8
BLACK
6
CONTINUOUS
10
6.57849
20
-4.64366
11
6.57849
21
-4.66616
0
LINE
8
BLACK
6
CONTINUOUS
10
6.57849
20
-4.66616
11
6.57475
21
-4.67366
0
LINE
8
BLACK
6
CONTINUOUS
10
6.57475
20
-4.67366
11
6.571
21
-4.67741
0
LINE
8
BLACK
6
CONTINUOUS
10
6.571
20
-4.67741
11
6.5635
21
-4.68116
0
LINE
8
BLACK
6
CONTINUOUS
10
6.5635
20
-4.68116
11
6.55225
21
-4.68116
0
LINE
8
BLACK
6
CONTINUOUS
10
6.62349
20
-4.68116
11
6.61599
21
-4.67741
0
LINE
8
BLACK
6
CONTINUOUS
10
6.61599
20
-4.67741
11
6.61224
21
-4.66991
0
LINE
8
BLACK
6
CONTINUOUS
10
6.61224
20
-4.66991
11
6.61224
21
-4.60241
0
LINE
8
BLACK
6
CONTINUOUS
10
6.68348
20
-4.67741
11
6.67598
21
-4.68116
0
LINE
8
BLACK
6
CONTINUOUS
10
6.67598
20
-4.68116
11
6.66098
21
-4.68116
0
LINE
8
BLACK
6
CONTINUOUS
10
6.66098
20
-4.68116
11
6.65349
21
-4.67741
0
LINE
8
BLACK
6
CONTINUOUS
10
6.65349
20
-4.67741
11
6.64974
21
-4.66991
0
LINE
8
BLACK
6
CONTINUOUS
10
6.64974
20
-4.66991
11
6.64974
21
-4.63991
0
LINE
8
BLACK
6
CONTINUOUS
10
6.64974
20
-4.63991
11
6.65349
21
-4.63241
0
LINE
8
BLACK
6
CONTINUOUS
10
6.65349
20
-4.63241
11
6.66098
21
-4.62866
0
LINE
8
BLACK
6
CONTINUOUS
10
6.66098
20
-4.62866
11
6.67598
21
-4.62866
0
LINE
8
BLACK
6
CONTINUOUS
10
6.67598
20
-4.62866
11
6.68348
21
-4.63241
0
LINE
8
BLACK
6
CONTINUOUS
10
6.68348
20
-4.63241
11
6.68723
21
-4.63991
0
LINE
8
BLACK
6
CONTINUOUS
10
6.68723
20
-4.63991
11
6.68723
21
-4.64741
0
LINE
8
BLACK
6
CONTINUOUS
10
6.68723
20
-4.64741
11
6.64974
21
-4.65491
0
LINE
8
BLACK
6
CONTINUOUS
10
6.71723
20
-4.67741
11
6.72473
21
-4.68116
0
LINE
8
BLACK
6
CONTINUOUS
10
6.72473
20
-4.68116
11
6.73972
21
-4.68116
0
LINE
8
BLACK
6
CONTINUOUS
10
6.73972
20
-4.68116
11
6.74722
21
-4.67741
0
LINE
8
BLACK
6
CONTINUOUS
10
6.74722
20
-4.67741
11
6.75097
21
-4.66991
0
LINE
8
BLACK
6
CONTINUOUS
10
6.75097
20
-4.66991
11
6.75097
21
-4.66616
0
LINE
8
BLACK
6
CONTINUOUS
10
6.75097
20
-4.66616
11
6.74722
21
-4.65866
0
LINE
8
BLACK
6
CONTINUOUS
10
6.74722
20
-4.65866
11
6.73972
21
-4.65491
0
LINE
8
BLACK
6
CONTINUOUS
10
6.73972
20
-4.65491
11
6.72848
21
-4.65491
0
LINE
8
BLACK
6
CONTINUOUS
10
6.72848
20
-4.65491
11
6.72098
21
-4.65116
0
LINE
8
BLACK
6
CONTINUOUS
10
6.72098
20
-4.65116
11
6.71723
21
-4.64366
0
LINE
8
BLACK
6
CONTINUOUS
10
6.71723
20
-4.64366
11
6.71723
21
-4.63991
0
LINE
8
BLACK
6
CONTINUOUS
10
6.71723
20
-4.63991
11
6.72098
21
-4.63241
0
LINE
8
BLACK
6
CONTINUOUS
10
6.72098
20
-4.63241
11
6.72848
21
-4.62866
0
LINE
8
BLACK
6
CONTINUOUS
10
6.72848
20
-4.62866
11
6.73972
21
-4.62866
0
LINE
8
BLACK
6
CONTINUOUS
10
6.73972
20
-4.62866
11
6.74722
21
-4.63241
0
LINE
8
BLACK
6
CONTINUOUS
10
6.77722
20
-4.71115
11
6.78097
21
-4.7074
0
LINE
8
BLACK
6
CONTINUOUS
10
6.78097
20
-4.7074
11
6.78847
21
-4.69615
0
LINE
8
BLACK
6
CONTINUOUS
10
6.78847
20
-4.69615
11
6.79222
21
-4.68865
0
LINE
8
BLACK
6
CONTINUOUS
10
6.79222
20
-4.68865
11
6.79597
21
-4.67741
0
LINE
8
BLACK
6
CONTINUOUS
10
6.79597
20
-4.67741
11
6.79972
21
-4.65866
0
LINE
8
BLACK
6
CONTINUOUS
10
6.79972
20
-4.65866
11
6.79972
21
-4.64366
0
LINE
8
BLACK
6
CONTINUOUS
10
6.79972
20
-4.64366
11
6.79597
21
-4.62491
0
LINE
8
BLACK
6
CONTINUOUS
10
6.79597
20
-4.62491
11
6.79222
21
-4.61366
0
LINE
8
BLACK
6
CONTINUOUS
10
6.79222
20
-4.61366
11
6.78847
21
-4.60616
0
LINE
8
BLACK
6
CONTINUOUS
10
6.78847
20
-4.60616
11
6.78097
21
-4.59492
0
LINE
8
BLACK
6
CONTINUOUS
10
6.78097
20
-4.59492
11
6.77722
21
-4.59117
0
LINE
8
BLACK
6
CONTINUOUS
10
4.80654
20
-4.73333
11
4.80654
21
-4.76482
0
LINE
8
BLACK
6
CONTINUOUS
10
4.79079
20
-4.74907
11
4.82228
21
-4.74907
0
LINE
8
BLACK
6
CONTINUOUS
10
4.93995
20
-4.70635
11
4.94745
21
-4.70635
0
LINE
8
BLACK
6
CONTINUOUS
10
4.94745
20
-4.70635
11
4.95495
21
-4.7101
0
LINE
8
BLACK
6
CONTINUOUS
10
4.95495
20
-4.7101
11
4.9587
21
-4.71385
0
LINE
8
BLACK
6
CONTINUOUS
10
4.9587
20
-4.71385
11
4.96245
21
-4.72135
0
LINE
8
BLACK
6
CONTINUOUS
10
4.96245
20
-4.72135
11
4.9662
21
-4.73635
0
LINE
8
BLACK
6
CONTINUOUS
10
4.9662
20
-4.73635
11
4.9662
21
-4.7551
0
LINE
8
BLACK
6
CONTINUOUS
10
4.9662
20
-4.7551
11
4.96245
21
-4.77009
0
LINE
8
BLACK
6
CONTINUOUS
10
4.96245
20
-4.77009
11
4.9587
21
-4.77759
0
LINE
8
BLACK
6
CONTINUOUS
10
4.9587
20
-4.77759
11
4.95495
21
-4.78134
0
LINE
8
BLACK
6
CONTINUOUS
10
4.95495
20
-4.78134
11
4.94745
21
-4.78509
0
LINE
8
BLACK
6
CONTINUOUS
10
4.94745
20
-4.78509
11
4.93995
21
-4.78509
0
LINE
8
BLACK
6
CONTINUOUS
10
4.93995
20
-4.78509
11
4.93245
21
-4.78134
0
LINE
8
BLACK
6
CONTINUOUS
10
4.93245
20
-4.78134
11
4.9287
21
-4.77759
0
LINE
8
BLACK
6
CONTINUOUS
10
4.9287
20
-4.77759
11
4.92495
21
-4.77009
0
LINE
8
BLACK
6
CONTINUOUS
10
4.92495
20
-4.77009
11
4.9212
21
-4.7551
0
LINE
8
BLACK
6
CONTINUOUS
10
4.9212
20
-4.7551
11
4.9212
21
-4.73635
0
LINE
8
BLACK
6
CONTINUOUS
10
4.9212
20
-4.73635
11
4.92495
21
-4.72135
0
LINE
8
BLACK
6
CONTINUOUS
10
4.92495
20
-4.72135
11
4.9287
21
-4.71385
0
LINE
8
BLACK
6
CONTINUOUS
10
4.9287
20
-4.71385
11
4.93245
21
-4.7101
0
LINE
8
BLACK
6
CONTINUOUS
10
4.93245
20
-4.7101
11
4.93995
21
-4.70635
0
LINE
8
BLACK
6
CONTINUOUS
10
4.99994
20
-4.77759
11
5.00369
21
-4.78134
0
LINE
8
BLACK
6
CONTINUOUS
10
5.00369
20
-4.78134
11
4.99994
21
-4.78509
0
LINE
8
BLACK
6
CONTINUOUS
10
4.99994
20
-4.78509
11
4.99619
21
-4.78134
0
LINE
8
BLACK
6
CONTINUOUS
10
4.99619
20
-4.78134
11
4.99994
21
-4.77759
0
LINE
8
BLACK
6
CONTINUOUS
10
4.99994
20
-4.77759
11
4.99994
21
-4.78509
0
LINE
8
BLACK
6
CONTINUOUS
10
5.04869
20
-4.7401
11
5.04119
21
-4.73635
0
LINE
8
BLACK
6
CONTINUOUS
10
5.04119
20
-4.73635
11
5.03744
21
-4.7326
0
LINE
8
BLACK
6
CONTINUOUS
10
5.03744
20
-4.7326
11
5.03369
21
-4.7251
0
LINE
8
BLACK
6
CONTINUOUS
10
5.03369
20
-4.7251
11
5.03369
21
-4.72135
0
LINE
8
BLACK
6
CONTINUOUS
10
5.03369
20
-4.72135
11
5.03744
21
-4.71385
0
LINE
8
BLACK
6
CONTINUOUS
10
5.03744
20
-4.71385
11
5.04119
21
-4.7101
0
LINE
8
BLACK
6
CONTINUOUS
10
5.04119
20
-4.7101
11
5.04869
21
-4.70635
0
LINE
8
BLACK
6
CONTINUOUS
10
5.04869
20
-4.70635
11
5.06368
21
-4.70635
0
LINE
8
BLACK
6
CONTINUOUS
10
5.06368
20
-4.70635
11
5.07118
21
-4.7101
0
LINE
8
BLACK
6
CONTINUOUS
10
5.07118
20
-4.7101
11
5.07493
21
-4.71385
0
LINE
8
BLACK
6
CONTINUOUS
10
5.07493
20
-4.71385
11
5.07868
21
-4.72135
0
LINE
8
BLACK
6
CONTINUOUS
10
5.07868
20
-4.72135
11
5.07868
21
-4.7251
0
LINE
8
BLACK
6
CONTINUOUS
10
5.07868
20
-4.7251
11
5.07493
21
-4.7326
0
LINE
8
BLACK
6
CONTINUOUS
10
5.07493
20
-4.7326
11
5.07118
21
-4.73635
0
LINE
8
BLACK
6
CONTINUOUS
10
5.07118
20
-4.73635
11
5.06368
21
-4.7401
0
LINE
8
BLACK
6
CONTINUOUS
10
5.06368
20
-4.7401
11
5.04869
21
-4.7401
0
LINE
8
BLACK
6
CONTINUOUS
10
5.04869
20
-4.7401
11
5.04119
21
-4.74385
0
LINE
8
BLACK
6
CONTINUOUS
10
5.04119
20
-4.74385
11
5.03744
21
-4.7476
0
LINE
8
BLACK
6
CONTINUOUS
10
5.03744
20
-4.7476
11
5.03369
21
-4.7551
0
LINE
8
BLACK
6
CONTINUOUS
10
5.03369
20
-4.7551
11
5.03369
21
-4.77009
0
LINE
8
BLACK
6
CONTINUOUS
10
5.03369
20
-4.77009
11
5.03744
21
-4.77759
0
LINE
8
BLACK
6
CONTINUOUS
10
5.03744
20
-4.77759
11
5.04119
21
-4.78134
0
LINE
8
BLACK
6
CONTINUOUS
10
5.04119
20
-4.78134
11
5.04869
21
-4.78509
0
LINE
8
BLACK
6
CONTINUOUS
10
5.04869
20
-4.78509
11
5.06368
21
-4.78509
0
LINE
8
BLACK
6
CONTINUOUS
10
5.06368
20
-4.78509
11
5.07118
21
-4.78134
0
LINE
8
BLACK
6
CONTINUOUS
10
5.07118
20
-4.78134
11
5.07493
21
-4.77759
0
LINE
8
BLACK
6
CONTINUOUS
10
5.07493
20
-4.77759
11
5.07868
21
-4.77009
0
LINE
8
BLACK
6
CONTINUOUS
10
5.07868
20
-4.77009
11
5.07868
21
-4.7551
0
LINE
8
BLACK
6
CONTINUOUS
10
5.07868
20
-4.7551
11
5.07493
21
-4.7476
0
LINE
8
BLACK
6
CONTINUOUS
10
5.07493
20
-4.7476
11
5.07118
21
-4.74385
0
LINE
8
BLACK
6
CONTINUOUS
10
5.07118
20
-4.74385
11
5.06368
21
-4.7401
0
LINE
8
BLACK
6
CONTINUOUS
10
5.12743
20
-4.70635
11
5.13493
21
-4.70635
0
LINE
8
BLACK
6
CONTINUOUS
10
5.13493
20
-4.70635
11
5.14242
21
-4.7101
0
LINE
8
BLACK
6
CONTINUOUS
10
5.14242
20
-4.7101
11
5.14617
21
-4.71385
0
LINE
8
BLACK
6
CONTINUOUS
10
5.14617
20
-4.71385
11
5.14992
21
-4.72135
0
LINE
8
BLACK
6
CONTINUOUS
10
5.14992
20
-4.72135
11
5.15367
21
-4.73635
0
LINE
8
BLACK
6
CONTINUOUS
10
5.15367
20
-4.73635
11
5.15367
21
-4.7551
0
LINE
8
BLACK
6
CONTINUOUS
10
5.15367
20
-4.7551
11
5.14992
21
-4.77009
0
LINE
8
BLACK
6
CONTINUOUS
10
5.14992
20
-4.77009
11
5.14617
21
-4.77759
0
LINE
8
BLACK
6
CONTINUOUS
10
5.14617
20
-4.77759
11
5.14242
21
-4.78134
0
LINE
8
BLACK
6
CONTINUOUS
10
5.14242
20
-4.78134
11
5.13493
21
-4.78509
0
LINE
8
BLACK
6
CONTINUOUS
10
5.13493
20
-4.78509
11
5.12743
21
-4.78509
0
LINE
8
BLACK
6
CONTINUOUS
10
5.12743
20
-4.78509
11
5.11993
21
-4.78134
0
LINE
8
BLACK
6
CONTINUOUS
10
5.11993
20
-4.78134
11
5.11618
21
-4.77759
0
LINE
8
BLACK
6
CONTINUOUS
10
5.11618
20
-4.77759
11
5.11243
21
-4.77009
0
LINE
8
BLACK
6
CONTINUOUS
10
5.11243
20
-4.77009
11
5.10868
21
-4.7551
0
LINE
8
BLACK
6
CONTINUOUS
10
5.10868
20
-4.7551
11
5.10868
21
-4.73635
0
LINE
8
BLACK
6
CONTINUOUS
10
5.10868
20
-4.73635
11
5.11243
21
-4.72135
0
LINE
8
BLACK
6
CONTINUOUS
10
5.11243
20
-4.72135
11
5.11618
21
-4.71385
0
LINE
8
BLACK
6
CONTINUOUS
10
5.11618
20
-4.71385
11
5.11993
21
-4.7101
0
LINE
8
BLACK
6
CONTINUOUS
10
5.11993
20
-4.7101
11
5.12743
21
-4.70635
0
LINE
8
BLACK
6
CONTINUOUS
10
5.20242
20
-4.70635
11
5.20992
21
-4.70635
0
LINE
8
BLACK
6
CONTINUOUS
10
5.20992
20
-4.70635
11
5.21741
21
-4.7101
0
LINE
8
BLACK
6
CONTINUOUS
10
5.21741
20
-4.7101
11
5.22116
21
-4.71385
0
LINE
8
BLACK
6
CONTINUOUS
10
5.22116
20
-4.71385
11
5.22491
21
-4.72135
0
LINE
8
BLACK
6
CONTINUOUS
10
5.22491
20
-4.72135
11
5.22866
21
-4.73635
0
LINE
8
BLACK
6
CONTINUOUS
10
5.22866
20
-4.73635
11
5.22866
21
-4.7551
0
LINE
8
BLACK
6
CONTINUOUS
10
5.22866
20
-4.7551
11
5.22491
21
-4.77009
0
LINE
8
BLACK
6
CONTINUOUS
10
5.22491
20
-4.77009
11
5.22116
21
-4.77759
0
LINE
8
BLACK
6
CONTINUOUS
10
5.22116
20
-4.77759
11
5.21741
21
-4.78134
0
LINE
8
BLACK
6
CONTINUOUS
10
5.21741
20
-4.78134
11
5.20992
21
-4.78509
0
LINE
8
BLACK
6
CONTINUOUS
10
5.20992
20
-4.78509
11
5.20242
21
-4.78509
0
LINE
8
BLACK
6
CONTINUOUS
10
5.20242
20
-4.78509
11
5.19492
21
-4.78134
0
LINE
8
BLACK
6
CONTINUOUS
10
5.19492
20
-4.78134
11
5.19117
21
-4.77759
0
LINE
8
BLACK
6
CONTINUOUS
10
5.19117
20
-4.77759
11
5.18742
21
-4.77009
0
LINE
8
BLACK
6
CONTINUOUS
10
5.18742
20
-4.77009
11
5.18367
21
-4.7551
0
LINE
8
BLACK
6
CONTINUOUS
10
5.18367
20
-4.7551
11
5.18367
21
-4.73635
0
LINE
8
BLACK
6
CONTINUOUS
10
5.18367
20
-4.73635
11
5.18742
21
-4.72135
0
LINE
8
BLACK
6
CONTINUOUS
10
5.18742
20
-4.72135
11
5.19117
21
-4.71385
0
LINE
8
BLACK
6
CONTINUOUS
10
5.19117
20
-4.71385
11
5.19492
21
-4.7101
0
LINE
8
BLACK
6
CONTINUOUS
10
5.19492
20
-4.7101
11
5.20242
21
-4.70635
0
LINE
8
BLACK
6
CONTINUOUS
10
5.26241
20
-4.78509
11
5.26241
21
-4.7326
0
LINE
8
BLACK
6
CONTINUOUS
10
5.26241
20
-4.7401
11
5.26616
21
-4.73635
0
LINE
8
BLACK
6
CONTINUOUS
10
5.26616
20
-4.73635
11
5.27366
21
-4.7326
0
LINE
8
BLACK
6
CONTINUOUS
10
5.27366
20
-4.7326
11
5.28491
21
-4.7326
0
LINE
8
BLACK
6
CONTINUOUS
10
5.28491
20
-4.7326
11
5.29241
21
-4.73635
0
LINE
8
BLACK
6
CONTINUOUS
10
5.29241
20
-4.73635
11
5.29616
21
-4.74385
0
LINE
8
BLACK
6
CONTINUOUS
10
5.29616
20
-4.74385
11
5.29616
21
-4.78509
0
LINE
8
BLACK
6
CONTINUOUS
10
5.29616
20
-4.74385
11
5.2999
21
-4.73635
0
LINE
8
BLACK
6
CONTINUOUS
10
5.2999
20
-4.73635
11
5.3074
21
-4.7326
0
LINE
8
BLACK
6
CONTINUOUS
10
5.3074
20
-4.7326
11
5.31865
21
-4.7326
0
LINE
8
BLACK
6
CONTINUOUS
10
5.31865
20
-4.7326
11
5.32615
21
-4.73635
0
LINE
8
BLACK
6
CONTINUOUS
10
5.32615
20
-4.73635
11
5.3299
21
-4.74385
0
LINE
8
BLACK
6
CONTINUOUS
10
5.3299
20
-4.74385
11
5.3299
21
-4.78509
0
LINE
8
BLACK
6
CONTINUOUS
10
5.3674
20
-4.78509
11
5.3674
21
-4.7326
0
LINE
8
BLACK
6
CONTINUOUS
10
5.3674
20
-4.7401
11
5.37115
21
-4.73635
0
LINE
8
BLACK
6
CONTINUOUS
10
5.37115
20
-4.73635
11
5.37864
21
-4.7326
0
LINE
8
BLACK
6
CONTINUOUS
10
5.37864
20
-4.7326
11
5.38989
21
-4.7326
0
LINE
8
BLACK
6
CONTINUOUS
10
5.38989
20
-4.7326
11
5.39739
21
-4.73635
0
LINE
8
BLACK
6
CONTINUOUS
10
5.39739
20
-4.73635
11
5.40114
21
-4.74385
0
LINE
8
BLACK
6
CONTINUOUS
10
5.40114
20
-4.74385
11
5.40114
21
-4.78509
0
LINE
8
BLACK
6
CONTINUOUS
10
5.40114
20
-4.74385
11
5.40489
21
-4.73635
0
LINE
8
BLACK
6
CONTINUOUS
10
5.40489
20
-4.73635
11
5.41239
21
-4.7326
0
LINE
8
BLACK
6
CONTINUOUS
10
5.41239
20
-4.7326
11
5.42364
21
-4.7326
0
LINE
8
BLACK
6
CONTINUOUS
10
5.42364
20
-4.7326
11
5.43114
21
-4.73635
0
LINE
8
BLACK
6
CONTINUOUS
10
5.43114
20
-4.73635
11
5.43489
21
-4.74385
0
LINE
8
BLACK
6
CONTINUOUS
10
5.43489
20
-4.74385
11
5.43489
21
-4.78509
0
LINE
8
BLACK
6
CONTINUOUS
10
5.58862
20
-4.7026
11
5.52113
21
-4.80384
0
LINE
8
BLACK
6
CONTINUOUS
10
5.68986
20
-4.70635
11
5.69736
21
-4.70635
0
LINE
8
BLACK
6
CONTINUOUS
10
5.69736
20
-4.70635
11
5.70485
21
-4.7101
0
LINE
8
BLACK
6
CONTINUOUS
10
5.70485
20
-4.7101
11
5.7086
21
-4.71385
0
LINE
8
BLACK
6
CONTINUOUS
10
5.7086
20
-4.71385
11
5.71235
21
-4.72135
0
LINE
8
BLACK
6
CONTINUOUS
10
5.71235
20
-4.72135
11
5.7161
21
-4.73635
0
LINE
8
BLACK
6
CONTINUOUS
10
5.7161
20
-4.73635
11
5.7161
21
-4.7551
0
LINE
8
BLACK
6
CONTINUOUS
10
5.7161
20
-4.7551
11
5.71235
21
-4.77009
0
LINE
8
BLACK
6
CONTINUOUS
10
5.71235
20
-4.77009
11
5.7086
21
-4.77759
0
LINE
8
BLACK
6
CONTINUOUS
10
5.7086
20
-4.77759
11
5.70485
21
-4.78134
0
LINE
8
BLACK
6
CONTINUOUS
10
5.70485
20
-4.78134
11
5.69736
21
-4.78509
0
LINE
8
BLACK
6
CONTINUOUS
10
5.69736
20
-4.78509
11
5.68986
21
-4.78509
0
LINE
8
BLACK
6
CONTINUOUS
10
5.68986
20
-4.78509
11
5.68236
21
-4.78134
0
LINE
8
BLACK
6
CONTINUOUS
10
5.68236
20
-4.78134
11
5.67861
21
-4.77759
0
LINE
8
BLACK
6
CONTINUOUS
10
5.67861
20
-4.77759
11
5.67486
21
-4.77009
0
LINE
8
BLACK
6
CONTINUOUS
10
5.67486
20
-4.77009
11
5.67111
21
-4.7551
0
LINE
8
BLACK
6
CONTINUOUS
10
5.67111
20
-4.7551
11
5.67111
21
-4.73635
0
LINE
8
BLACK
6
CONTINUOUS
10
5.67111
20
-4.73635
11
5.67486
21
-4.72135
0
LINE
8
BLACK
6
CONTINUOUS
10
5.67486
20
-4.72135
11
5.67861
21
-4.71385
0
LINE
8
BLACK
6
CONTINUOUS
10
5.67861
20
-4.71385
11
5.68236
21
-4.7101
0
LINE
8
BLACK
6
CONTINUOUS
10
5.68236
20
-4.7101
11
5.68986
21
-4.70635
0
LINE
8
BLACK
6
CONTINUOUS
10
5.74985
20
-4.77759
11
5.7536
21
-4.78134
0
LINE
8
BLACK
6
CONTINUOUS
10
5.7536
20
-4.78134
11
5.74985
21
-4.78509
0
LINE
8
BLACK
6
CONTINUOUS
10
5.74985
20
-4.78509
11
5.7461
21
-4.78134
0
LINE
8
BLACK
6
CONTINUOUS
10
5.7461
20
-4.78134
11
5.74985
21
-4.77759
0
LINE
8
BLACK
6
CONTINUOUS
10
5.74985
20
-4.77759
11
5.74985
21
-4.78509
0
LINE
8
BLACK
6
CONTINUOUS
10
5.80234
20
-4.70635
11
5.80984
21
-4.70635
0
LINE
8
BLACK
6
CONTINUOUS
10
5.80984
20
-4.70635
11
5.81734
21
-4.7101
0
LINE
8
BLACK
6
CONTINUOUS
10
5.81734
20
-4.7101
11
5.82109
21
-4.71385
0
LINE
8
BLACK
6
CONTINUOUS
10
5.82109
20
-4.71385
11
5.82484
21
-4.72135
0
LINE
8
BLACK
6
CONTINUOUS
10
5.82484
20
-4.72135
11
5.82859
21
-4.73635
0
LINE
8
BLACK
6
CONTINUOUS
10
5.82859
20
-4.73635
11
5.82859
21
-4.7551
0
LINE
8
BLACK
6
CONTINUOUS
10
5.82859
20
-4.7551
11
5.82484
21
-4.77009
0
LINE
8
BLACK
6
CONTINUOUS
10
5.82484
20
-4.77009
11
5.82109
21
-4.77759
0
LINE
8
BLACK
6
CONTINUOUS
10
5.82109
20
-4.77759
11
5.81734
21
-4.78134
0
LINE
8
BLACK
6
CONTINUOUS
10
5.81734
20
-4.78134
11
5.80984
21
-4.78509
0
LINE
8
BLACK
6
CONTINUOUS
10
5.80984
20
-4.78509
11
5.80234
21
-4.78509
0
LINE
8
BLACK
6
CONTINUOUS
10
5.80234
20
-4.78509
11
5.79484
21
-4.78134
0
LINE
8
BLACK
6
CONTINUOUS
10
5.79484
20
-4.78134
11
5.79109
21
-4.77759
0
LINE
8
BLACK
6
CONTINUOUS
10
5.79109
20
-4.77759
11
5.78734
21
-4.77009
0
LINE
8
BLACK
6
CONTINUOUS
10
5.78734
20
-4.77009
11
5.78359
21
-4.7551
0
LINE
8
BLACK
6
CONTINUOUS
10
5.78359
20
-4.7551
11
5.78359
21
-4.73635
0
LINE
8
BLACK
6
CONTINUOUS
10
5.78359
20
-4.73635
11
5.78734
21
-4.72135
0
LINE
8
BLACK
6
CONTINUOUS
10
5.78734
20
-4.72135
11
5.79109
21
-4.71385
0
LINE
8
BLACK
6
CONTINUOUS
10
5.79109
20
-4.71385
11
5.79484
21
-4.7101
0
LINE
8
BLACK
6
CONTINUOUS
10
5.79484
20
-4.7101
11
5.80234
21
-4.70635
0
LINE
8
BLACK
6
CONTINUOUS
10
5.85484
20
-4.70635
11
5.90358
21
-4.70635
0
LINE
8
BLACK
6
CONTINUOUS
10
5.90358
20
-4.70635
11
5.87733
21
-4.73635
0
LINE
8
BLACK
6
CONTINUOUS
10
5.87733
20
-4.73635
11
5.88858
21
-4.73635
0
LINE
8
BLACK
6
CONTINUOUS
10
5.88858
20
-4.73635
11
5.89608
21
-4.7401
0
LINE
8
BLACK
6
CONTINUOUS
10
5.89608
20
-4.7401
11
5.89983
21
-4.74385
0
LINE
8
BLACK
6
CONTINUOUS
10
5.89983
20
-4.74385
11
5.90358
21
-4.75135
0
LINE
8
BLACK
6
CONTINUOUS
10
5.90358
20
-4.75135
11
5.90358
21
-4.77009
0
LINE
8
BLACK
6
CONTINUOUS
10
5.90358
20
-4.77009
11
5.89983
21
-4.77759
0
LINE
8
BLACK
6
CONTINUOUS
10
5.89983
20
-4.77759
11
5.89608
21
-4.78134
0
LINE
8
BLACK
6
CONTINUOUS
10
5.89608
20
-4.78134
11
5.88858
21
-4.78509
0
LINE
8
BLACK
6
CONTINUOUS
10
5.88858
20
-4.78509
11
5.86608
21
-4.78509
0
LINE
8
BLACK
6
CONTINUOUS
10
5.86608
20
-4.78509
11
5.85858
21
-4.78134
0
LINE
8
BLACK
6
CONTINUOUS
10
5.85858
20
-4.78134
11
5.85484
21
-4.77759
0
LINE
8
BLACK
6
CONTINUOUS
10
5.97857
20
-4.78509
11
5.93358
21
-4.78509
0
LINE
8
BLACK
6
CONTINUOUS
10
5.95607
20
-4.78509
11
5.95607
21
-4.70635
0
LINE
8
BLACK
6
CONTINUOUS
10
5.95607
20
-4.70635
11
5.94857
21
-4.7176
0
LINE
8
BLACK
6
CONTINUOUS
10
5.94857
20
-4.7176
11
5.94107
21
-4.7251
0
LINE
8
BLACK
6
CONTINUOUS
10
5.94107
20
-4.7251
11
5.93358
21
-4.72885
0
LINE
8
BLACK
6
CONTINUOUS
10
6.04981
20
-4.70635
11
6.01232
21
-4.70635
0
LINE
8
BLACK
6
CONTINUOUS
10
6.01232
20
-4.70635
11
6.00857
21
-4.74385
0
LINE
8
BLACK
6
CONTINUOUS
10
6.00857
20
-4.74385
11
6.01232
21
-4.7401
0
LINE
8
BLACK
6
CONTINUOUS
10
6.01232
20
-4.7401
11
6.01981
21
-4.73635
0
LINE
8
BLACK
6
CONTINUOUS
10
6.01981
20
-4.73635
11
6.03856
21
-4.73635
0
LINE
8
BLACK
6
CONTINUOUS
10
6.03856
20
-4.73635
11
6.04606
21
-4.7401
0
LINE
8
BLACK
6
CONTINUOUS
10
6.04606
20
-4.7401
11
6.04981
21
-4.74385
0
LINE
8
BLACK
6
CONTINUOUS
10
6.04981
20
-4.74385
11
6.05356
21
-4.75135
0
LINE
8
BLACK
6
CONTINUOUS
10
6.05356
20
-4.75135
11
6.05356
21
-4.77009
0
LINE
8
BLACK
6
CONTINUOUS
10
6.05356
20
-4.77009
11
6.04981
21
-4.77759
0
LINE
8
BLACK
6
CONTINUOUS
10
6.04981
20
-4.77759
11
6.04606
21
-4.78134
0
LINE
8
BLACK
6
CONTINUOUS
10
6.04606
20
-4.78134
11
6.03856
21
-4.78509
0
LINE
8
BLACK
6
CONTINUOUS
10
6.03856
20
-4.78509
11
6.01981
21
-4.78509
0
LINE
8
BLACK
6
CONTINUOUS
10
6.01981
20
-4.78509
11
6.01232
21
-4.78134
0
LINE
8
BLACK
6
CONTINUOUS
10
6.01232
20
-4.78134
11
6.00857
21
-4.77759
0
LINE
8
BLACK
6
CONTINUOUS
10
6.08356
20
-4.70635
11
6.08356
21
-4.72135
0
LINE
8
BLACK
6
CONTINUOUS
10
6.11355
20
-4.70635
11
6.11355
21
-4.72135
0
LINE
8
BLACK
6
CONTINUOUS
10
6.22979
20
-4.81509
11
6.22604
21
-4.81134
0
LINE
8
BLACK
6
CONTINUOUS
10
6.22604
20
-4.81134
11
6.21854
21
-4.80009
0
LINE
8
BLACK
6
CONTINUOUS
10
6.21854
20
-4.80009
11
6.21479
21
-4.79259
0
LINE
8
BLACK
6
CONTINUOUS
10
6.21479
20
-4.79259
11
6.21104
21
-4.78134
0
LINE
8
BLACK
6
CONTINUOUS
10
6.21104
20
-4.78134
11
6.20729
21
-4.76259
0
LINE
8
BLACK
6
CONTINUOUS
10
6.20729
20
-4.76259
11
6.20729
21
-4.7476
0
LINE
8
BLACK
6
CONTINUOUS
10
6.20729
20
-4.7476
11
6.21104
21
-4.72885
0
LINE
8
BLACK
6
CONTINUOUS
10
6.21104
20
-4.72885
11
6.21479
21
-4.7176
0
LINE
8
BLACK
6
CONTINUOUS
10
6.21479
20
-4.7176
11
6.21854
21
-4.7101
0
LINE
8
BLACK
6
CONTINUOUS
10
6.21854
20
-4.7101
11
6.22604
21
-4.69885
0
LINE
8
BLACK
6
CONTINUOUS
10
6.22604
20
-4.69885
11
6.22979
21
-4.6951
0
LINE
8
BLACK
6
CONTINUOUS
10
6.29728
20
-4.70635
11
6.25978
21
-4.70635
0
LINE
8
BLACK
6
CONTINUOUS
10
6.25978
20
-4.70635
11
6.25604
21
-4.74385
0
LINE
8
BLACK
6
CONTINUOUS
10
6.25604
20
-4.74385
11
6.25978
21
-4.7401
0
LINE
8
BLACK
6
CONTINUOUS
10
6.25978
20
-4.7401
11
6.26728
21
-4.73635
0
LINE
8
BLACK
6
CONTINUOUS
10
6.26728
20
-4.73635
11
6.28603
21
-4.73635
0
LINE
8
BLACK
6
CONTINUOUS
10
6.28603
20
-4.73635
11
6.29353
21
-4.7401
0
LINE
8
BLACK
6
CONTINUOUS
10
6.29353
20
-4.7401
11
6.29728
21
-4.74385
0
LINE
8
BLACK
6
CONTINUOUS
10
6.29728
20
-4.74385
11
6.30103
21
-4.75135
0
LINE
8
BLACK
6
CONTINUOUS
10
6.30103
20
-4.75135
11
6.30103
21
-4.77009
0
LINE
8
BLACK
6
CONTINUOUS
10
6.30103
20
-4.77009
11
6.29728
21
-4.77759
0
LINE
8
BLACK
6
CONTINUOUS
10
6.29728
20
-4.77759
11
6.29353
21
-4.78134
0
LINE
8
BLACK
6
CONTINUOUS
10
6.29353
20
-4.78134
11
6.28603
21
-4.78509
0
LINE
8
BLACK
6
CONTINUOUS
10
6.28603
20
-4.78509
11
6.26728
21
-4.78509
0
LINE
8
BLACK
6
CONTINUOUS
10
6.26728
20
-4.78509
11
6.25978
21
-4.78134
0
LINE
8
BLACK
6
CONTINUOUS
10
6.25978
20
-4.78134
11
6.25604
21
-4.77759
0
LINE
8
BLACK
6
CONTINUOUS
10
6.33103
20
-4.71385
11
6.33478
21
-4.7101
0
LINE
8
BLACK
6
CONTINUOUS
10
6.33478
20
-4.7101
11
6.34227
21
-4.70635
0
LINE
8
BLACK
6
CONTINUOUS
10
6.34227
20
-4.70635
11
6.36102
21
-4.70635
0
LINE
8
BLACK
6
CONTINUOUS
10
6.36102
20
-4.70635
11
6.36852
21
-4.7101
0
LINE
8
BLACK
6
CONTINUOUS
10
6.36852
20
-4.7101
11
6.37227
21
-4.71385
0
LINE
8
BLACK
6
CONTINUOUS
10
6.37227
20
-4.71385
11
6.37602
21
-4.72135
0
LINE
8
BLACK
6
CONTINUOUS
10
6.37602
20
-4.72135
11
6.37602
21
-4.72885
0
LINE
8
BLACK
6
CONTINUOUS
10
6.37602
20
-4.72885
11
6.37227
21
-4.7401
0
LINE
8
BLACK
6
CONTINUOUS
10
6.37227
20
-4.7401
11
6.32728
21
-4.78509
0
LINE
8
BLACK
6
CONTINUOUS
10
6.32728
20
-4.78509
11
6.37602
21
-4.78509
0
LINE
8
BLACK
6
CONTINUOUS
10
6.46976
20
-4.78509
11
6.46976
21
-4.70635
0
LINE
8
BLACK
6
CONTINUOUS
10
6.5035
20
-4.78509
11
6.5035
21
-4.74385
0
LINE
8
BLACK
6
CONTINUOUS
10
6.5035
20
-4.74385
11
6.49975
21
-4.73635
0
LINE
8
BLACK
6
CONTINUOUS
10
6.49975
20
-4.73635
11
6.49226
21
-4.7326
0
LINE
8
BLACK
6
CONTINUOUS
10
6.49226
20
-4.7326
11
6.48101
21
-4.7326
0
LINE
8
BLACK
6
CONTINUOUS
10
6.48101
20
-4.7326
11
6.47351
21
-4.73635
0
LINE
8
BLACK
6
CONTINUOUS
10
6.47351
20
-4.73635
11
6.46976
21
-4.7401
0
LINE
8
BLACK
6
CONTINUOUS
10
6.55225
20
-4.78509
11
6.54475
21
-4.78134
0
LINE
8
BLACK
6
CONTINUOUS
10
6.54475
20
-4.78134
11
6.541
21
-4.77759
0
LINE
8
BLACK
6
CONTINUOUS
10
6.541
20
-4.77759
11
6.53725
21
-4.77009
0
LINE
8
BLACK
6
CONTINUOUS
10
6.53725
20
-4.77009
11
6.53725
21
-4.7476
0
LINE
8
BLACK
6
CONTINUOUS
10
6.53725
20
-4.7476
11
6.541
21
-4.7401
0
LINE
8
BLACK
6
CONTINUOUS
10
6.541
20
-4.7401
11
6.54475
21
-4.73635
0
LINE
8
BLACK
6
CONTINUOUS
10
6.54475
20
-4.73635
11
6.55225
21
-4.7326
0
LINE
8
BLACK
6
CONTINUOUS
10
6.55225
20
-4.7326
11
6.5635
21
-4.7326
0
LINE
8
BLACK
6
CONTINUOUS
10
6.5635
20
-4.7326
11
6.571
21
-4.73635
0
LINE
8
BLACK
6
CONTINUOUS
10
6.571
20
-4.73635
11
6.57475
21
-4.7401
0
LINE
8
BLACK
6
CONTINUOUS
10
6.57475
20
-4.7401
11
6.57849
21
-4.7476
0
LINE
8
BLACK
6
CONTINUOUS
10
6.57849
20
-4.7476
11
6.57849
21
-4.77009
0
LINE
8
BLACK
6
CONTINUOUS
10
6.57849
20
-4.77009
11
6.57475
21
-4.77759
0
LINE
8
BLACK
6
CONTINUOUS
10
6.57475
20
-4.77759
11
6.571
21
-4.78134
0
LINE
8
BLACK
6
CONTINUOUS
10
6.571
20
-4.78134
11
6.5635
21
-4.78509
0
LINE
8
BLACK
6
CONTINUOUS
10
6.5635
20
-4.78509
11
6.55225
21
-4.78509
0
LINE
8
BLACK
6
CONTINUOUS
10
6.62349
20
-4.78509
11
6.61599
21
-4.78134
0
LINE
8
BLACK
6
CONTINUOUS
10
6.61599
20
-4.78134
11
6.61224
21
-4.77384
0
LINE
8
BLACK
6
CONTINUOUS
10
6.61224
20
-4.77384
11
6.61224
21
-4.70635
0
LINE
8
BLACK
6
CONTINUOUS
10
6.68348
20
-4.78134
11
6.67598
21
-4.78509
0
LINE
8
BLACK
6
CONTINUOUS
10
6.67598
20
-4.78509
11
6.66098
21
-4.78509
0
LINE
8
BLACK
6
CONTINUOUS
10
6.66098
20
-4.78509
11
6.65349
21
-4.78134
0
LINE
8
BLACK
6
CONTINUOUS
10
6.65349
20
-4.78134
11
6.64974
21
-4.77384
0
LINE
8
BLACK
6
CONTINUOUS
10
6.64974
20
-4.77384
11
6.64974
21
-4.74385
0
LINE
8
BLACK
6
CONTINUOUS
10
6.64974
20
-4.74385
11
6.65349
21
-4.73635
0
LINE
8
BLACK
6
CONTINUOUS
10
6.65349
20
-4.73635
11
6.66098
21
-4.7326
0
LINE
8
BLACK
6
CONTINUOUS
10
6.66098
20
-4.7326
11
6.67598
21
-4.7326
0
LINE
8
BLACK
6
CONTINUOUS
10
6.67598
20
-4.7326
11
6.68348
21
-4.73635
0
LINE
8
BLACK
6
CONTINUOUS
10
6.68348
20
-4.73635
11
6.68723
21
-4.74385
0
LINE
8
BLACK
6
CONTINUOUS
10
6.68723
20
-4.74385
11
6.68723
21
-4.75135
0
LINE
8
BLACK
6
CONTINUOUS
10
6.68723
20
-4.75135
11
6.64974
21
-4.75885
0
LINE
8
BLACK
6
CONTINUOUS
10
6.71723
20
-4.78134
11
6.72473
21
-4.78509
0
LINE
8
BLACK
6
CONTINUOUS
10
6.72473
20
-4.78509
11
6.73972
21
-4.78509
0
LINE
8
BLACK
6
CONTINUOUS
10
6.73972
20
-4.78509
11
6.74722
21
-4.78134
0
LINE
8
BLACK
6
CONTINUOUS
10
6.74722
20
-4.78134
11
6.75097
21
-4.77384
0
LINE
8
BLACK
6
CONTINUOUS
10
6.75097
20
-4.77384
11
6.75097
21
-4.77009
0
LINE
8
BLACK
6
CONTINUOUS
10
6.75097
20
-4.77009
11
6.74722
21
-4.76259
0
LINE
8
BLACK
6
CONTINUOUS
10
6.74722
20
-4.76259
11
6.73972
21
-4.75885
0
LINE
8
BLACK
6
CONTINUOUS
10
6.73972
20
-4.75885
11
6.72848
21
-4.75885
0
LINE
8
BLACK
6
CONTINUOUS
10
6.72848
20
-4.75885
11
6.72098
21
-4.7551
0
LINE
8
BLACK
6
CONTINUOUS
10
6.72098
20
-4.7551
11
6.71723
21
-4.7476
0
LINE
8
BLACK
6
CONTINUOUS
10
6.71723
20
-4.7476
11
6.71723
21
-4.74385
0
LINE
8
BLACK
6
CONTINUOUS
10
6.71723
20
-4.74385
11
6.72098
21
-4.73635
0
LINE
8
BLACK
6
CONTINUOUS
10
6.72098
20
-4.73635
11
6.72848
21
-4.7326
0
LINE
8
BLACK
6
CONTINUOUS
10
6.72848
20
-4.7326
11
6.73972
21
-4.7326
0
LINE
8
BLACK
6
CONTINUOUS
10
6.73972
20
-4.7326
11
6.74722
21
-4.73635
0
LINE
8
BLACK
6
CONTINUOUS
10
6.77722
20
-4.81509
11
6.78097
21
-4.81134
0
LINE
8
BLACK
6
CONTINUOUS
10
6.78097
20
-4.81134
11
6.78847
21
-4.80009
0
LINE
8
BLACK
6
CONTINUOUS
10
6.78847
20
-4.80009
11
6.79222
21
-4.79259
0
LINE
8
BLACK
6
CONTINUOUS
10
6.79222
20
-4.79259
11
6.79597
21
-4.78134
0
LINE
8
BLACK
6
CONTINUOUS
10
6.79597
20
-4.78134
11
6.79972
21
-4.76259
0
LINE
8
BLACK
6
CONTINUOUS
10
6.79972
20
-4.76259
11
6.79972
21
-4.7476
0
LINE
8
BLACK
6
CONTINUOUS
10
6.79972
20
-4.7476
11
6.79597
21
-4.72885
0
LINE
8
BLACK
6
CONTINUOUS
10
6.79597
20
-4.72885
11
6.79222
21
-4.7176
0
LINE
8
BLACK
6
CONTINUOUS
10
6.79222
20
-4.7176
11
6.78847
21
-4.7101
0
LINE
8
BLACK
6
CONTINUOUS
10
6.78847
20
-4.7101
11
6.78097
21
-4.69885
0
LINE
8
BLACK
6
CONTINUOUS
10
6.78097
20
-4.69885
11
6.77722
21
-4.6951
0
LINE
8
BLACK
6
CONTINUOUS
10
4.81652
20
-4.86693
11
4.81652
21
-4.83909
0
LINE
8
BLACK
6
CONTINUOUS
10
4.81652
20
-4.83909
11
4.78868
21
-4.83909
0
LINE
8
BLACK
6
CONTINUOUS
10
4.78868
20
-4.83909
11
4.78868
21
-4.86693
0
LINE
8
BLACK
6
CONTINUOUS
10
4.78868
20
-4.86693
11
4.81652
21
-4.86693
0
LINE
8
BLACK
6
CONTINUOUS
10
4.9662
20
-4.88903
11
4.9212
21
-4.88903
0
LINE
8
BLACK
6
CONTINUOUS
10
4.9437
20
-4.88903
11
4.9437
21
-4.81029
0
LINE
8
BLACK
6
CONTINUOUS
10
4.9437
20
-4.81029
11
4.9362
21
-4.82154
0
LINE
8
BLACK
6
CONTINUOUS
10
4.9362
20
-4.82154
11
4.9287
21
-4.82904
0
LINE
8
BLACK
6
CONTINUOUS
10
4.9287
20
-4.82904
11
4.9212
21
-4.83279
0
LINE
8
BLACK
6
CONTINUOUS
10
4.99994
20
-4.88153
11
5.00369
21
-4.88528
0
LINE
8
BLACK
6
CONTINUOUS
10
5.00369
20
-4.88528
11
4.99994
21
-4.88903
0
LINE
8
BLACK
6
CONTINUOUS
10
4.99994
20
-4.88903
11
4.99619
21
-4.88528
0
LINE
8
BLACK
6
CONTINUOUS
10
4.99619
20
-4.88528
11
4.99994
21
-4.88153
0
LINE
8
BLACK
6
CONTINUOUS
10
4.99994
20
-4.88153
11
4.99994
21
-4.88903
0
LINE
8
BLACK
6
CONTINUOUS
10
5.05244
20
-4.81029
11
5.05993
21
-4.81029
0
LINE
8
BLACK
6
CONTINUOUS
10
5.05993
20
-4.81029
11
5.06743
21
-4.81404
0
LINE
8
BLACK
6
CONTINUOUS
10
5.06743
20
-4.81404
11
5.07118
21
-4.81779
0
LINE
8
BLACK
6
CONTINUOUS
10
5.07118
20
-4.81779
11
5.07493
21
-4.82529
0
LINE
8
BLACK
6
CONTINUOUS
10
5.07493
20
-4.82529
11
5.07868
21
-4.84029
0
LINE
8
BLACK
6
CONTINUOUS
10
5.07868
20
-4.84029
11
5.07868
21
-4.85903
0
LINE
8
BLACK
6
CONTINUOUS
10
5.07868
20
-4.85903
11
5.07493
21
-4.87403
0
LINE
8
BLACK
6
CONTINUOUS
10
5.07493
20
-4.87403
11
5.07118
21
-4.88153
0
LINE
8
BLACK
6
CONTINUOUS
10
5.07118
20
-4.88153
11
5.06743
21
-4.88528
0
LINE
8
BLACK
6
CONTINUOUS
10
5.06743
20
-4.88528
11
5.05993
21
-4.88903
0
LINE
8
BLACK
6
CONTINUOUS
10
5.05993
20
-4.88903
11
5.05244
21
-4.88903
0
LINE
8
BLACK
6
CONTINUOUS
10
5.05244
20
-4.88903
11
5.04494
21
-4.88528
0
LINE
8
BLACK
6
CONTINUOUS
10
5.04494
20
-4.88528
11
5.04119
21
-4.88153
0
LINE
8
BLACK
6
CONTINUOUS
10
5.04119
20
-4.88153
11
5.03744
21
-4.87403
0
LINE
8
BLACK
6
CONTINUOUS
10
5.03744
20
-4.87403
11
5.03369
21
-4.85903
0
LINE
8
BLACK
6
CONTINUOUS
10
5.03369
20
-4.85903
11
5.03369
21
-4.84029
0
LINE
8
BLACK
6
CONTINUOUS
10
5.03369
20
-4.84029
11
5.03744
21
-4.82529
0
LINE
8
BLACK
6
CONTINUOUS
10
5.03744
20
-4.82529
11
5.04119
21
-4.81779
0
LINE
8
BLACK
6
CONTINUOUS
10
5.04119
20
-4.81779
11
5.04494
21
-4.81404
0
LINE
8
BLACK
6
CONTINUOUS
10
5.04494
20
-4.81404
11
5.05244
21
-4.81029
0
LINE
8
BLACK
6
CONTINUOUS
10
5.12743
20
-4.81029
11
5.13493
21
-4.81029
0
LINE
8
BLACK
6
CONTINUOUS
10
5.13493
20
-4.81029
11
5.14242
21
-4.81404
0
LINE
8
BLACK
6
CONTINUOUS
10
5.14242
20
-4.81404
11
5.14617
21
-4.81779
0
LINE
8
BLACK
6
CONTINUOUS
10
5.14617
20
-4.81779
11
5.14992
21
-4.82529
0
LINE
8
BLACK
6
CONTINUOUS
10
5.14992
20
-4.82529
11
5.15367
21
-4.84029
0
LINE
8
BLACK
6
CONTINUOUS
10
5.15367
20
-4.84029
11
5.15367
21
-4.85903
0
LINE
8
BLACK
6
CONTINUOUS
10
5.15367
20
-4.85903
11
5.14992
21
-4.87403
0
LINE
8
BLACK
6
CONTINUOUS
10
5.14992
20
-4.87403
11
5.14617
21
-4.88153
0
LINE
8
BLACK
6
CONTINUOUS
10
5.14617
20
-4.88153
11
5.14242
21
-4.88528
0
LINE
8
BLACK
6
CONTINUOUS
10
5.14242
20
-4.88528
11
5.13493
21
-4.88903
0
LINE
8
BLACK
6
CONTINUOUS
10
5.13493
20
-4.88903
11
5.12743
21
-4.88903
0
LINE
8
BLACK
6
CONTINUOUS
10
5.12743
20
-4.88903
11
5.11993
21
-4.88528
0
LINE
8
BLACK
6
CONTINUOUS
10
5.11993
20
-4.88528
11
5.11618
21
-4.88153
0
LINE
8
BLACK
6
CONTINUOUS
10
5.11618
20
-4.88153
11
5.11243
21
-4.87403
0
LINE
8
BLACK
6
CONTINUOUS
10
5.11243
20
-4.87403
11
5.10868
21
-4.85903
0
LINE
8
BLACK
6
CONTINUOUS
10
5.10868
20
-4.85903
11
5.10868
21
-4.84029
0
LINE
8
BLACK
6
CONTINUOUS
10
5.10868
20
-4.84029
11
5.11243
21
-4.82529
0
LINE
8
BLACK
6
CONTINUOUS
10
5.11243
20
-4.82529
11
5.11618
21
-4.81779
0
LINE
8
BLACK
6
CONTINUOUS
10
5.11618
20
-4.81779
11
5.11993
21
-4.81404
0
LINE
8
BLACK
6
CONTINUOUS
10
5.11993
20
-4.81404
11
5.12743
21
-4.81029
0
LINE
8
BLACK
6
CONTINUOUS
10
5.20242
20
-4.81029
11
5.20992
21
-4.81029
0
LINE
8
BLACK
6
CONTINUOUS
10
5.20992
20
-4.81029
11
5.21741
21
-4.81404
0
LINE
8
BLACK
6
CONTINUOUS
10
5.21741
20
-4.81404
11
5.22116
21
-4.81779
0
LINE
8
BLACK
6
CONTINUOUS
10
5.22116
20
-4.81779
11
5.22491
21
-4.82529
0
LINE
8
BLACK
6
CONTINUOUS
10
5.22491
20
-4.82529
11
5.22866
21
-4.84029
0
LINE
8
BLACK
6
CONTINUOUS
10
5.22866
20
-4.84029
11
5.22866
21
-4.85903
0
LINE
8
BLACK
6
CONTINUOUS
10
5.22866
20
-4.85903
11
5.22491
21
-4.87403
0
LINE
8
BLACK
6
CONTINUOUS
10
5.22491
20
-4.87403
11
5.22116
21
-4.88153
0
LINE
8
BLACK
6
CONTINUOUS
10
5.22116
20
-4.88153
11
5.21741
21
-4.88528
0
LINE
8
BLACK
6
CONTINUOUS
10
5.21741
20
-4.88528
11
5.20992
21
-4.88903
0
LINE
8
BLACK
6
CONTINUOUS
10
5.20992
20
-4.88903
11
5.20242
21
-4.88903
0
LINE
8
BLACK
6
CONTINUOUS
10
5.20242
20
-4.88903
11
5.19492
21
-4.88528
0
LINE
8
BLACK
6
CONTINUOUS
10
5.19492
20
-4.88528
11
5.19117
21
-4.88153
0
LINE
8
BLACK
6
CONTINUOUS
10
5.19117
20
-4.88153
11
5.18742
21
-4.87403
0
LINE
8
BLACK
6
CONTINUOUS
10
5.18742
20
-4.87403
11
5.18367
21
-4.85903
0
LINE
8
BLACK
6
CONTINUOUS
10
5.18367
20
-4.85903
11
5.18367
21
-4.84029
0
LINE
8
BLACK
6
CONTINUOUS
10
5.18367
20
-4.84029
11
5.18742
21
-4.82529
0
LINE
8
BLACK
6
CONTINUOUS
10
5.18742
20
-4.82529
11
5.19117
21
-4.81779
0
LINE
8
BLACK
6
CONTINUOUS
10
5.19117
20
-4.81779
11
5.19492
21
-4.81404
0
LINE
8
BLACK
6
CONTINUOUS
10
5.19492
20
-4.81404
11
5.20242
21
-4.81029
0
LINE
8
BLACK
6
CONTINUOUS
10
5.26241
20
-4.88903
11
5.26241
21
-4.83654
0
LINE
8
BLACK
6
CONTINUOUS
10
5.26241
20
-4.84403
11
5.26616
21
-4.84029
0
LINE
8
BLACK
6
CONTINUOUS
10
5.26616
20
-4.84029
11
5.27366
21
-4.83654
0
LINE
8
BLACK
6
CONTINUOUS
10
5.27366
20
-4.83654
11
5.28491
21
-4.83654
0
LINE
8
BLACK
6
CONTINUOUS
10
5.28491
20
-4.83654
11
5.29241
21
-4.84029
0
LINE
8
BLACK
6
CONTINUOUS
10
5.29241
20
-4.84029
11
5.29616
21
-4.84778
0
LINE
8
BLACK
6
CONTINUOUS
10
5.29616
20
-4.84778
11
5.29616
21
-4.88903
0
LINE
8
BLACK
6
CONTINUOUS
10
5.29616
20
-4.84778
11
5.2999
21
-4.84029
0
LINE
8
BLACK
6
CONTINUOUS
10
5.2999
20
-4.84029
11
5.3074
21
-4.83654
0
LINE
8
BLACK
6
CONTINUOUS
10
5.3074
20
-4.83654
11
5.31865
21
-4.83654
0
LINE
8
BLACK
6
CONTINUOUS
10
5.31865
20
-4.83654
11
5.32615
21
-4.84029
0
LINE
8
BLACK
6
CONTINUOUS
10
5.32615
20
-4.84029
11
5.3299
21
-4.84778
0
LINE
8
BLACK
6
CONTINUOUS
10
5.3299
20
-4.84778
11
5.3299
21
-4.88903
0
LINE
8
BLACK
6
CONTINUOUS
10
5.3674
20
-4.88903
11
5.3674
21
-4.83654
0
LINE
8
BLACK
6
CONTINUOUS
10
5.3674
20
-4.84403
11
5.37115
21
-4.84029
0
LINE
8
BLACK
6
CONTINUOUS
10
5.37115
20
-4.84029
11
5.37864
21
-4.83654
0
LINE
8
BLACK
6
CONTINUOUS
10
5.37864
20
-4.83654
11
5.38989
21
-4.83654
0
LINE
8
BLACK
6
CONTINUOUS
10
5.38989
20
-4.83654
11
5.39739
21
-4.84029
0
LINE
8
BLACK
6
CONTINUOUS
10
5.39739
20
-4.84029
11
5.40114
21
-4.84778
0
LINE
8
BLACK
6
CONTINUOUS
10
5.40114
20
-4.84778
11
5.40114
21
-4.88903
0
LINE
8
BLACK
6
CONTINUOUS
10
5.40114
20
-4.84778
11
5.40489
21
-4.84029
0
LINE
8
BLACK
6
CONTINUOUS
10
5.40489
20
-4.84029
11
5.41239
21
-4.83654
0
LINE
8
BLACK
6
CONTINUOUS
10
5.41239
20
-4.83654
11
5.42364
21
-4.83654
0
LINE
8
BLACK
6
CONTINUOUS
10
5.42364
20
-4.83654
11
5.43114
21
-4.84029
0
LINE
8
BLACK
6
CONTINUOUS
10
5.43114
20
-4.84029
11
5.43489
21
-4.84778
0
LINE
8
BLACK
6
CONTINUOUS
10
5.43489
20
-4.84778
11
5.43489
21
-4.88903
0
LINE
8
BLACK
6
CONTINUOUS
10
5.58862
20
-4.80654
11
5.52113
21
-4.90778
0
LINE
8
BLACK
6
CONTINUOUS
10
5.68986
20
-4.81029
11
5.69736
21
-4.81029
0
LINE
8
BLACK
6
CONTINUOUS
10
5.69736
20
-4.81029
11
5.70485
21
-4.81404
0
LINE
8
BLACK
6
CONTINUOUS
10
5.70485
20
-4.81404
11
5.7086
21
-4.81779
0
LINE
8
BLACK
6
CONTINUOUS
10
5.7086
20
-4.81779
11
5.71235
21
-4.82529
0
LINE
8
BLACK
6
CONTINUOUS
10
5.71235
20
-4.82529
11
5.7161
21
-4.84029
0
LINE
8
BLACK
6
CONTINUOUS
10
5.7161
20
-4.84029
11
5.7161
21
-4.85903
0
LINE
8
BLACK
6
CONTINUOUS
10
5.7161
20
-4.85903
11
5.71235
21
-4.87403
0
LINE
8
BLACK
6
CONTINUOUS
10
5.71235
20
-4.87403
11
5.7086
21
-4.88153
0
LINE
8
BLACK
6
CONTINUOUS
10
5.7086
20
-4.88153
11
5.70485
21
-4.88528
0
LINE
8
BLACK
6
CONTINUOUS
10
5.70485
20
-4.88528
11
5.69736
21
-4.88903
0
LINE
8
BLACK
6
CONTINUOUS
10
5.69736
20
-4.88903
11
5.68986
21
-4.88903
0
LINE
8
BLACK
6
CONTINUOUS
10
5.68986
20
-4.88903
11
5.68236
21
-4.88528
0
LINE
8
BLACK
6
CONTINUOUS
10
5.68236
20
-4.88528
11
5.67861
21
-4.88153
0
LINE
8
BLACK
6
CONTINUOUS
10
5.67861
20
-4.88153
11
5.67486
21
-4.87403
0
LINE
8
BLACK
6
CONTINUOUS
10
5.67486
20
-4.87403
11
5.67111
21
-4.85903
0
LINE
8
BLACK
6
CONTINUOUS
10
5.67111
20
-4.85903
11
5.67111
21
-4.84029
0
LINE
8
BLACK
6
CONTINUOUS
10
5.67111
20
-4.84029
11
5.67486
21
-4.82529
0
LINE
8
BLACK
6
CONTINUOUS
10
5.67486
20
-4.82529
11
5.67861
21
-4.81779
0
LINE
8
BLACK
6
CONTINUOUS
10
5.67861
20
-4.81779
11
5.68236
21
-4.81404
0
LINE
8
BLACK
6
CONTINUOUS
10
5.68236
20
-4.81404
11
5.68986
21
-4.81029
0
LINE
8
BLACK
6
CONTINUOUS
10
5.74985
20
-4.88153
11
5.7536
21
-4.88528
0
LINE
8
BLACK
6
CONTINUOUS
10
5.7536
20
-4.88528
11
5.74985
21
-4.88903
0
LINE
8
BLACK
6
CONTINUOUS
10
5.74985
20
-4.88903
11
5.7461
21
-4.88528
0
LINE
8
BLACK
6
CONTINUOUS
10
5.7461
20
-4.88528
11
5.74985
21
-4.88153
0
LINE
8
BLACK
6
CONTINUOUS
10
5.74985
20
-4.88153
11
5.74985
21
-4.88903
0
LINE
8
BLACK
6
CONTINUOUS
10
5.80234
20
-4.81029
11
5.80984
21
-4.81029
0
LINE
8
BLACK
6
CONTINUOUS
10
5.80984
20
-4.81029
11
5.81734
21
-4.81404
0
LINE
8
BLACK
6
CONTINUOUS
10
5.81734
20
-4.81404
11
5.82109
21
-4.81779
0
LINE
8
BLACK
6
CONTINUOUS
10
5.82109
20
-4.81779
11
5.82484
21
-4.82529
0
LINE
8
BLACK
6
CONTINUOUS
10
5.82484
20
-4.82529
11
5.82859
21
-4.84029
0
LINE
8
BLACK
6
CONTINUOUS
10
5.82859
20
-4.84029
11
5.82859
21
-4.85903
0
LINE
8
BLACK
6
CONTINUOUS
10
5.82859
20
-4.85903
11
5.82484
21
-4.87403
0
LINE
8
BLACK
6
CONTINUOUS
10
5.82484
20
-4.87403
11
5.82109
21
-4.88153
0
LINE
8
BLACK
6
CONTINUOUS
10
5.82109
20
-4.88153
11
5.81734
21
-4.88528
0
LINE
8
BLACK
6
CONTINUOUS
10
5.81734
20
-4.88528
11
5.80984
21
-4.88903
0
LINE
8
BLACK
6
CONTINUOUS
10
5.80984
20
-4.88903
11
5.80234
21
-4.88903
0
LINE
8
BLACK
6
CONTINUOUS
10
5.80234
20
-4.88903
11
5.79484
21
-4.88528
0
LINE
8
BLACK
6
CONTINUOUS
10
5.79484
20
-4.88528
11
5.79109
21
-4.88153
0
LINE
8
BLACK
6
CONTINUOUS
10
5.79109
20
-4.88153
11
5.78734
21
-4.87403
0
LINE
8
BLACK
6
CONTINUOUS
10
5.78734
20
-4.87403
11
5.78359
21
-4.85903
0
LINE
8
BLACK
6
CONTINUOUS
10
5.78359
20
-4.85903
11
5.78359
21
-4.84029
0
LINE
8
BLACK
6
CONTINUOUS
10
5.78359
20
-4.84029
11
5.78734
21
-4.82529
0
LINE
8
BLACK
6
CONTINUOUS
10
5.78734
20
-4.82529
11
5.79109
21
-4.81779
0
LINE
8
BLACK
6
CONTINUOUS
10
5.79109
20
-4.81779
11
5.79484
21
-4.81404
0
LINE
8
BLACK
6
CONTINUOUS
10
5.79484
20
-4.81404
11
5.80234
21
-4.81029
0
LINE
8
BLACK
6
CONTINUOUS
10
5.85484
20
-4.81029
11
5.90358
21
-4.81029
0
LINE
8
BLACK
6
CONTINUOUS
10
5.90358
20
-4.81029
11
5.87733
21
-4.84029
0
LINE
8
BLACK
6
CONTINUOUS
10
5.87733
20
-4.84029
11
5.88858
21
-4.84029
0
LINE
8
BLACK
6
CONTINUOUS
10
5.88858
20
-4.84029
11
5.89608
21
-4.84403
0
LINE
8
BLACK
6
CONTINUOUS
10
5.89608
20
-4.84403
11
5.89983
21
-4.84778
0
LINE
8
BLACK
6
CONTINUOUS
10
5.89983
20
-4.84778
11
5.90358
21
-4.85528
0
LINE
8
BLACK
6
CONTINUOUS
10
5.90358
20
-4.85528
11
5.90358
21
-4.87403
0
LINE
8
BLACK
6
CONTINUOUS
10
5.90358
20
-4.87403
11
5.89983
21
-4.88153
0
LINE
8
BLACK
6
CONTINUOUS
10
5.89983
20
-4.88153
11
5.89608
21
-4.88528
0
LINE
8
BLACK
6
CONTINUOUS
10
5.89608
20
-4.88528
11
5.88858
21
-4.88903
0
LINE
8
BLACK
6
CONTINUOUS
10
5.88858
20
-4.88903
11
5.86608
21
-4.88903
0
LINE
8
BLACK
6
CONTINUOUS
10
5.86608
20
-4.88903
11
5.85858
21
-4.88528
0
LINE
8
BLACK
6
CONTINUOUS
10
5.85858
20
-4.88528
11
5.85484
21
-4.88153
0
LINE
8
BLACK
6
CONTINUOUS
10
5.94107
20
-4.88903
11
5.95607
21
-4.88903
0
LINE
8
BLACK
6
CONTINUOUS
10
5.95607
20
-4.88903
11
5.96357
21
-4.88528
0
LINE
8
BLACK
6
CONTINUOUS
10
5.96357
20
-4.88528
11
5.96732
21
-4.88153
0
LINE
8
BLACK
6
CONTINUOUS
10
5.96732
20
-4.88153
11
5.97482
21
-4.87028
0
LINE
8
BLACK
6
CONTINUOUS
10
5.97482
20
-4.87028
11
5.97857
21
-4.85528
0
LINE
8
BLACK
6
CONTINUOUS
10
5.97857
20
-4.85528
11
5.97857
21
-4.82529
0
LINE
8
BLACK
6
CONTINUOUS
10
5.97857
20
-4.82529
11
5.97482
21
-4.81779
0
LINE
8
BLACK
6
CONTINUOUS
10
5.97482
20
-4.81779
11
5.97107
21
-4.81404
0
LINE
8
BLACK
6
CONTINUOUS
10
5.97107
20
-4.81404
11
5.96357
21
-4.81029
0
LINE
8
BLACK
6
CONTINUOUS
10
5.96357
20
-4.81029
11
5.94857
21
-4.81029
0
LINE
8
BLACK
6
CONTINUOUS
10
5.94857
20
-4.81029
11
5.94107
21
-4.81404
0
LINE
8
BLACK
6
CONTINUOUS
10
5.94107
20
-4.81404
11
5.93733
21
-4.81779
0
LINE
8
BLACK
6
CONTINUOUS
10
5.93733
20
-4.81779
11
5.93358
21
-4.82529
0
LINE
8
BLACK
6
CONTINUOUS
10
5.93358
20
-4.82529
11
5.93358
21
-4.84403
0
LINE
8
BLACK
6
CONTINUOUS
10
5.93358
20
-4.84403
11
5.93733
21
-4.85153
0
LINE
8
BLACK
6
CONTINUOUS
10
5.93733
20
-4.85153
11
5.94107
21
-4.85528
0
LINE
8
BLACK
6
CONTINUOUS
10
5.94107
20
-4.85528
11
5.94857
21
-4.85903
0
LINE
8
BLACK
6
CONTINUOUS
10
5.94857
20
-4.85903
11
5.96357
21
-4.85903
0
LINE
8
BLACK
6
CONTINUOUS
10
5.96357
20
-4.85903
11
5.97107
21
-4.85528
0
LINE
8
BLACK
6
CONTINUOUS
10
5.97107
20
-4.85528
11
5.97482
21
-4.85153
0
LINE
8
BLACK
6
CONTINUOUS
10
5.97482
20
-4.85153
11
5.97857
21
-4.84403
0
LINE
8
BLACK
6
CONTINUOUS
10
6.04606
20
-4.83654
11
6.04606
21
-4.88903
0
LINE
8
BLACK
6
CONTINUOUS
10
6.02731
20
-4.80654
11
6.00857
21
-4.86278
0
LINE
8
BLACK
6
CONTINUOUS
10
6.00857
20
-4.86278
11
6.05731
21
-4.86278
0
LINE
8
BLACK
6
CONTINUOUS
10
6.08356
20
-4.81029
11
6.08356
21
-4.82529
0
LINE
8
BLACK
6
CONTINUOUS
10
6.11355
20
-4.81029
11
6.11355
21
-4.82529
0
LINE
8
BLACK
6
CONTINUOUS
10
6.22979
20
-4.91903
11
6.22604
21
-4.91528
0
LINE
8
BLACK
6
CONTINUOUS
10
6.22604
20
-4.91528
11
6.21854
21
-4.90403
0
LINE
8
BLACK
6
CONTINUOUS
10
6.21854
20
-4.90403
11
6.21479
21
-4.89653
0
LINE
8
BLACK
6
CONTINUOUS
10
6.21479
20
-4.89653
11
6.21104
21
-4.88528
0
LINE
8
BLACK
6
CONTINUOUS
10
6.21104
20
-4.88528
11
6.20729
21
-4.86653
0
LINE
8
BLACK
6
CONTINUOUS
10
6.20729
20
-4.86653
11
6.20729
21
-4.85153
0
LINE
8
BLACK
6
CONTINUOUS
10
6.20729
20
-4.85153
11
6.21104
21
-4.83279
0
LINE
8
BLACK
6
CONTINUOUS
10
6.21104
20
-4.83279
11
6.21479
21
-4.82154
0
LINE
8
BLACK
6
CONTINUOUS
10
6.21479
20
-4.82154
11
6.21854
21
-4.81404
0
LINE
8
BLACK
6
CONTINUOUS
10
6.21854
20
-4.81404
11
6.22604
21
-4.80279
0
LINE
8
BLACK
6
CONTINUOUS
10
6.22604
20
-4.80279
11
6.22979
21
-4.79904
0
LINE
8
BLACK
6
CONTINUOUS
10
6.25604
20
-4.81779
11
6.25978
21
-4.81404
0
LINE
8
BLACK
6
CONTINUOUS
10
6.25978
20
-4.81404
11
6.26728
21
-4.81029
0
LINE
8
BLACK
6
CONTINUOUS
10
6.26728
20
-4.81029
11
6.28603
21
-4.81029
0
LINE
8
BLACK
6
CONTINUOUS
10
6.28603
20
-4.81029
11
6.29353
21
-4.81404
0
LINE
8
BLACK
6
CONTINUOUS
10
6.29353
20
-4.81404
11
6.29728
21
-4.81779
0
LINE
8
BLACK
6
CONTINUOUS
10
6.29728
20
-4.81779
11
6.30103
21
-4.82529
0
LINE
8
BLACK
6
CONTINUOUS
10
6.30103
20
-4.82529
11
6.30103
21
-4.83279
0
LINE
8
BLACK
6
CONTINUOUS
10
6.30103
20
-4.83279
11
6.29728
21
-4.84403
0
LINE
8
BLACK
6
CONTINUOUS
10
6.29728
20
-4.84403
11
6.25229
21
-4.88903
0
LINE
8
BLACK
6
CONTINUOUS
10
6.25229
20
-4.88903
11
6.30103
21
-4.88903
0
LINE
8
BLACK
6
CONTINUOUS
10
6.33103
20
-4.81779
11
6.33478
21
-4.81404
0
LINE
8
BLACK
6
CONTINUOUS
10
6.33478
20
-4.81404
11
6.34227
21
-4.81029
0
LINE
8
BLACK
6
CONTINUOUS
10
6.34227
20
-4.81029
11
6.36102
21
-4.81029
0
LINE
8
BLACK
6
CONTINUOUS
10
6.36102
20
-4.81029
11
6.36852
21
-4.81404
0
LINE
8
BLACK
6
CONTINUOUS
10
6.36852
20
-4.81404
11
6.37227
21
-4.81779
0
LINE
8
BLACK
6
CONTINUOUS
10
6.37227
20
-4.81779
11
6.37602
21
-4.82529
0
LINE
8
BLACK
6
CONTINUOUS
10
6.37602
20
-4.82529
11
6.37602
21
-4.83279
0
LINE
8
BLACK
6
CONTINUOUS
10
6.37602
20
-4.83279
11
6.37227
21
-4.84403
0
LINE
8
BLACK
6
CONTINUOUS
10
6.37227
20
-4.84403
11
6.32728
21
-4.88903
0
LINE
8
BLACK
6
CONTINUOUS
10
6.32728
20
-4.88903
11
6.37602
21
-4.88903
0
LINE
8
BLACK
6
CONTINUOUS
10
6.46976
20
-4.88903
11
6.46976
21
-4.81029
0
LINE
8
BLACK
6
CONTINUOUS
10
6.5035
20
-4.88903
11
6.5035
21
-4.84778
0
LINE
8
BLACK
6
CONTINUOUS
10
6.5035
20
-4.84778
11
6.49975
21
-4.84029
0
LINE
8
BLACK
6
CONTINUOUS
10
6.49975
20
-4.84029
11
6.49226
21
-4.83654
0
LINE
8
BLACK
6
CONTINUOUS
10
6.49226
20
-4.83654
11
6.48101
21
-4.83654
0
LINE
8
BLACK
6
CONTINUOUS
10
6.48101
20
-4.83654
11
6.47351
21
-4.84029
0
LINE
8
BLACK
6
CONTINUOUS
10
6.47351
20
-4.84029
11
6.46976
21
-4.84403
0
LINE
8
BLACK
6
CONTINUOUS
10
6.55225
20
-4.88903
11
6.54475
21
-4.88528
0
LINE
8
BLACK
6
CONTINUOUS
10
6.54475
20
-4.88528
11
6.541
21
-4.88153
0
LINE
8
BLACK
6
CONTINUOUS
10
6.541
20
-4.88153
11
6.53725
21
-4.87403
0
LINE
8
BLACK
6
CONTINUOUS
10
6.53725
20
-4.87403
11
6.53725
21
-4.85153
0
LINE
8
BLACK
6
CONTINUOUS
10
6.53725
20
-4.85153
11
6.541
21
-4.84403
0
LINE
8
BLACK
6
CONTINUOUS
10
6.541
20
-4.84403
11
6.54475
21
-4.84029
0
LINE
8
BLACK
6
CONTINUOUS
10
6.54475
20
-4.84029
11
6.55225
21
-4.83654
0
LINE
8
BLACK
6
CONTINUOUS
10
6.55225
20
-4.83654
11
6.5635
21
-4.83654
0
LINE
8
BLACK
6
CONTINUOUS
10
6.5635
20
-4.83654
11
6.571
21
-4.84029
0
LINE
8
BLACK
6
CONTINUOUS
10
6.571
20
-4.84029
11
6.57475
21
-4.84403
0
LINE
8
BLACK
6
CONTINUOUS
10
6.57475
20
-4.84403
11
6.57849
21
-4.85153
0
LINE
8
BLACK
6
CONTINUOUS
10
6.57849
20
-4.85153
11
6.57849
21
-4.87403
0
LINE
8
BLACK
6
CONTINUOUS
10
6.57849
20
-4.87403
11
6.57475
21
-4.88153
0
LINE
8
BLACK
6
CONTINUOUS
10
6.57475
20
-4.88153
11
6.571
21
-4.88528
0
LINE
8
BLACK
6
CONTINUOUS
10
6.571
20
-4.88528
11
6.5635
21
-4.88903
0
LINE
8
BLACK
6
CONTINUOUS
10
6.5635
20
-4.88903
11
6.55225
21
-4.88903
0
LINE
8
BLACK
6
CONTINUOUS
10
6.62349
20
-4.88903
11
6.61599
21
-4.88528
0
LINE
8
BLACK
6
CONTINUOUS
10
6.61599
20
-4.88528
11
6.61224
21
-4.87778
0
LINE
8
BLACK
6
CONTINUOUS
10
6.61224
20
-4.87778
11
6.61224
21
-4.81029
0
LINE
8
BLACK
6
CONTINUOUS
10
6.68348
20
-4.88528
11
6.67598
21
-4.88903
0
LINE
8
BLACK
6
CONTINUOUS
10
6.67598
20
-4.88903
11
6.66098
21
-4.88903
0
LINE
8
BLACK
6
CONTINUOUS
10
6.66098
20
-4.88903
11
6.65349
21
-4.88528
0
LINE
8
BLACK
6
CONTINUOUS
10
6.65349
20
-4.88528
11
6.64974
21
-4.87778
0
LINE
8
BLACK
6
CONTINUOUS
10
6.64974
20
-4.87778
11
6.64974
21
-4.84778
0
LINE
8
BLACK
6
CONTINUOUS
10
6.64974
20
-4.84778
11
6.65349
21
-4.84029
0
LINE
8
BLACK
6
CONTINUOUS
10
6.65349
20
-4.84029
11
6.66098
21
-4.83654
0
LINE
8
BLACK
6
CONTINUOUS
10
6.66098
20
-4.83654
11
6.67598
21
-4.83654
0
LINE
8
BLACK
6
CONTINUOUS
10
6.67598
20
-4.83654
11
6.68348
21
-4.84029
0
LINE
8
BLACK
6
CONTINUOUS
10
6.68348
20
-4.84029
11
6.68723
21
-4.84778
0
LINE
8
BLACK
6
CONTINUOUS
10
6.68723
20
-4.84778
11
6.68723
21
-4.85528
0
LINE
8
BLACK
6
CONTINUOUS
10
6.68723
20
-4.85528
11
6.64974
21
-4.86278
0
LINE
8
BLACK
6
CONTINUOUS
10
6.71723
20
-4.88528
11
6.72473
21
-4.88903
0
LINE
8
BLACK
6
CONTINUOUS
10
6.72473
20
-4.88903
11
6.73972
21
-4.88903
0
LINE
8
BLACK
6
CONTINUOUS
10
6.73972
20
-4.88903
11
6.74722
21
-4.88528
0
LINE
8
BLACK
6
CONTINUOUS
10
6.74722
20
-4.88528
11
6.75097
21
-4.87778
0
LINE
8
BLACK
6
CONTINUOUS
10
6.75097
20
-4.87778
11
6.75097
21
-4.87403
0
LINE
8
BLACK
6
CONTINUOUS
10
6.75097
20
-4.87403
11
6.74722
21
-4.86653
0
LINE
8
BLACK
6
CONTINUOUS
10
6.74722
20
-4.86653
11
6.73972
21
-4.86278
0
LINE
8
BLACK
6
CONTINUOUS
10
6.73972
20
-4.86278
11
6.72848
21
-4.86278
0
LINE
8
BLACK
6
CONTINUOUS
10
6.72848
20
-4.86278
11
6.72098
21
-4.85903
0
LINE
8
BLACK
6
CONTINUOUS
10
6.72098
20
-4.85903
11
6.71723
21
-4.85153
0
LINE
8
BLACK
6
CONTINUOUS
10
6.71723
20
-4.85153
11
6.71723
21
-4.84778
0
LINE
8
BLACK
6
CONTINUOUS
10
6.71723
20
-4.84778
11
6.72098
21
-4.84029
0
LINE
8
BLACK
6
CONTINUOUS
10
6.72098
20
-4.84029
11
6.72848
21
-4.83654
0
LINE
8
BLACK
6
CONTINUOUS
10
6.72848
20
-4.83654
11
6.73972
21
-4.83654
0
LINE
8
BLACK
6
CONTINUOUS
10
6.73972
20
-4.83654
11
6.74722
21
-4.84029
0
LINE
8
BLACK
6
CONTINUOUS
10
6.77722
20
-4.91903
11
6.78097
21
-4.91528
0
LINE
8
BLACK
6
CONTINUOUS
10
6.78097
20
-4.91528
11
6.78847
21
-4.90403
0
LINE
8
BLACK
6
CONTINUOUS
10
6.78847
20
-4.90403
11
6.79222
21
-4.89653
0
LINE
8
BLACK
6
CONTINUOUS
10
6.79222
20
-4.89653
11
6.79597
21
-4.88528
0
LINE
8
BLACK
6
CONTINUOUS
10
6.79597
20
-4.88528
11
6.79972
21
-4.86653
0
LINE
8
BLACK
6
CONTINUOUS
10
6.79972
20
-4.86653
11
6.79972
21
-4.85153
0
LINE
8
BLACK
6
CONTINUOUS
10
6.79972
20
-4.85153
11
6.79597
21
-4.83279
0
LINE
8
BLACK
6
CONTINUOUS
10
6.79597
20
-4.83279
11
6.79222
21
-4.82154
0
LINE
8
BLACK
6
CONTINUOUS
10
6.79222
20
-4.82154
11
6.78847
21
-4.81404
0
LINE
8
BLACK
6
CONTINUOUS
10
6.78847
20
-4.81404
11
6.78097
21
-4.80279
0
LINE
8
BLACK
6
CONTINUOUS
10
6.78097
20
-4.80279
11
6.77722
21
-4.79904
0
LINE
8
BLACK
6
CONTINUOUS
10
4.78291
20
-4.99632
11
4.82228
21
-4.95695
0
LINE
8
BLACK
6
CONTINUOUS
10
4.82228
20
-4.95695
11
4.78291
21
-4.91758
0
LINE
8
BLACK
6
CONTINUOUS
10
4.78291
20
-4.91758
11
4.74354
21
-4.95695
0
LINE
8
BLACK
6
CONTINUOUS
10
4.74354
20
-4.95695
11
4.78291
21
-4.99632
0
LINE
8
BLACK
6
CONTINUOUS
10
4.9212
20
-4.92172
11
4.92495
21
-4.91798
0
LINE
8
BLACK
6
CONTINUOUS
10
4.92495
20
-4.91798
11
4.93245
21
-4.91423
0
LINE
8
BLACK
6
CONTINUOUS
10
4.93245
20
-4.91423
11
4.9512
21
-4.91423
0
LINE
8
BLACK
6
CONTINUOUS
10
4.9512
20
-4.91423
11
4.9587
21
-4.91798
0
LINE
8
BLACK
6
CONTINUOUS
10
4.9587
20
-4.91798
11
4.96245
21
-4.92172
0
LINE
8
BLACK
6
CONTINUOUS
10
4.96245
20
-4.92172
11
4.9662
21
-4.92922
0
LINE
8
BLACK
6
CONTINUOUS
10
4.9662
20
-4.92922
11
4.9662
21
-4.93672
0
LINE
8
BLACK
6
CONTINUOUS
10
4.9662
20
-4.93672
11
4.96245
21
-4.94797
0
LINE
8
BLACK
6
CONTINUOUS
10
4.96245
20
-4.94797
11
4.91745
21
-4.99297
0
LINE
8
BLACK
6
CONTINUOUS
10
4.91745
20
-4.99297
11
4.9662
21
-4.99297
0
LINE
8
BLACK
6
CONTINUOUS
10
4.99994
20
-4.98547
11
5.00369
21
-4.98922
0
LINE
8
BLACK
6
CONTINUOUS
10
5.00369
20
-4.98922
11
4.99994
21
-4.99297
0
LINE
8
BLACK
6
CONTINUOUS
10
4.99994
20
-4.99297
11
4.99619
21
-4.98922
0
LINE
8
BLACK
6
CONTINUOUS
10
4.99619
20
-4.98922
11
4.99994
21
-4.98547
0
LINE
8
BLACK
6
CONTINUOUS
10
4.99994
20
-4.98547
11
4.99994
21
-4.99297
0
LINE
8
BLACK
6
CONTINUOUS
10
5.05244
20
-4.91423
11
5.05993
21
-4.91423
0
LINE
8
BLACK
6
CONTINUOUS
10
5.05993
20
-4.91423
11
5.06743
21
-4.91798
0
LINE
8
BLACK
6
CONTINUOUS
10
5.06743
20
-4.91798
11
5.07118
21
-4.92172
0
LINE
8
BLACK
6
CONTINUOUS
10
5.07118
20
-4.92172
11
5.07493
21
-4.92922
0
LINE
8
BLACK
6
CONTINUOUS
10
5.07493
20
-4.92922
11
5.07868
21
-4.94422
0
LINE
8
BLACK
6
CONTINUOUS
10
5.07868
20
-4.94422
11
5.07868
21
-4.96297
0
LINE
8
BLACK
6
CONTINUOUS
10
5.07868
20
-4.96297
11
5.07493
21
-4.97797
0
LINE
8
BLACK
6
CONTINUOUS
10
5.07493
20
-4.97797
11
5.07118
21
-4.98547
0
LINE
8
BLACK
6
CONTINUOUS
10
5.07118
20
-4.98547
11
5.06743
21
-4.98922
0
LINE
8
BLACK
6
CONTINUOUS
10
5.06743
20
-4.98922
11
5.05993
21
-4.99297
0
LINE
8
BLACK
6
CONTINUOUS
10
5.05993
20
-4.99297
11
5.05244
21
-4.99297
0
LINE
8
BLACK
6
CONTINUOUS
10
5.05244
20
-4.99297
11
5.04494
21
-4.98922
0
LINE
8
BLACK
6
CONTINUOUS
10
5.04494
20
-4.98922
11
5.04119
21
-4.98547
0
LINE
8
BLACK
6
CONTINUOUS
10
5.04119
20
-4.98547
11
5.03744
21
-4.97797
0
LINE
8
BLACK
6
CONTINUOUS
10
5.03744
20
-4.97797
11
5.03369
21
-4.96297
0
LINE
8
BLACK
6
CONTINUOUS
10
5.03369
20
-4.96297
11
5.03369
21
-4.94422
0
LINE
8
BLACK
6
CONTINUOUS
10
5.03369
20
-4.94422
11
5.03744
21
-4.92922
0
LINE
8
BLACK
6
CONTINUOUS
10
5.03744
20
-4.92922
11
5.04119
21
-4.92172
0
LINE
8
BLACK
6
CONTINUOUS
10
5.04119
20
-4.92172
11
5.04494
21
-4.91798
0
LINE
8
BLACK
6
CONTINUOUS
10
5.04494
20
-4.91798
11
5.05244
21
-4.91423
0
LINE
8
BLACK
6
CONTINUOUS
10
5.12743
20
-4.91423
11
5.13493
21
-4.91423
0
LINE
8
BLACK
6
CONTINUOUS
10
5.13493
20
-4.91423
11
5.14242
21
-4.91798
0
LINE
8
BLACK
6
CONTINUOUS
10
5.14242
20
-4.91798
11
5.14617
21
-4.92172
0
LINE
8
BLACK
6
CONTINUOUS
10
5.14617
20
-4.92172
11
5.14992
21
-4.92922
0
LINE
8
BLACK
6
CONTINUOUS
10
5.14992
20
-4.92922
11
5.15367
21
-4.94422
0
LINE
8
BLACK
6
CONTINUOUS
10
5.15367
20
-4.94422
11
5.15367
21
-4.96297
0
LINE
8
BLACK
6
CONTINUOUS
10
5.15367
20
-4.96297
11
5.14992
21
-4.97797
0
LINE
8
BLACK
6
CONTINUOUS
10
5.14992
20
-4.97797
11
5.14617
21
-4.98547
0
LINE
8
BLACK
6
CONTINUOUS
10
5.14617
20
-4.98547
11
5.14242
21
-4.98922
0
LINE
8
BLACK
6
CONTINUOUS
10
5.14242
20
-4.98922
11
5.13493
21
-4.99297
0
LINE
8
BLACK
6
CONTINUOUS
10
5.13493
20
-4.99297
11
5.12743
21
-4.99297
0
LINE
8
BLACK
6
CONTINUOUS
10
5.12743
20
-4.99297
11
5.11993
21
-4.98922
0
LINE
8
BLACK
6
CONTINUOUS
10
5.11993
20
-4.98922
11
5.11618
21
-4.98547
0
LINE
8
BLACK
6
CONTINUOUS
10
5.11618
20
-4.98547
11
5.11243
21
-4.97797
0
LINE
8
BLACK
6
CONTINUOUS
10
5.11243
20
-4.97797
11
5.10868
21
-4.96297
0
LINE
8
BLACK
6
CONTINUOUS
10
5.10868
20
-4.96297
11
5.10868
21
-4.94422
0
LINE
8
BLACK
6
CONTINUOUS
10
5.10868
20
-4.94422
11
5.11243
21
-4.92922
0
LINE
8
BLACK
6
CONTINUOUS
10
5.11243
20
-4.92922
11
5.11618
21
-4.92172
0
LINE
8
BLACK
6
CONTINUOUS
10
5.11618
20
-4.92172
11
5.11993
21
-4.91798
0
LINE
8
BLACK
6
CONTINUOUS
10
5.11993
20
-4.91798
11
5.12743
21
-4.91423
0
LINE
8
BLACK
6
CONTINUOUS
10
5.20242
20
-4.91423
11
5.20992
21
-4.91423
0
LINE
8
BLACK
6
CONTINUOUS
10
5.20992
20
-4.91423
11
5.21741
21
-4.91798
0
LINE
8
BLACK
6
CONTINUOUS
10
5.21741
20
-4.91798
11
5.22116
21
-4.92172
0
LINE
8
BLACK
6
CONTINUOUS
10
5.22116
20
-4.92172
11
5.22491
21
-4.92922
0
LINE
8
BLACK
6
CONTINUOUS
10
5.22491
20
-4.92922
11
5.22866
21
-4.94422
0
LINE
8
BLACK
6
CONTINUOUS
10
5.22866
20
-4.94422
11
5.22866
21
-4.96297
0
LINE
8
BLACK
6
CONTINUOUS
10
5.22866
20
-4.96297
11
5.22491
21
-4.97797
0
LINE
8
BLACK
6
CONTINUOUS
10
5.22491
20
-4.97797
11
5.22116
21
-4.98547
0
LINE
8
BLACK
6
CONTINUOUS
10
5.22116
20
-4.98547
11
5.21741
21
-4.98922
0
LINE
8
BLACK
6
CONTINUOUS
10
5.21741
20
-4.98922
11
5.20992
21
-4.99297
0
LINE
8
BLACK
6
CONTINUOUS
10
5.20992
20
-4.99297
11
5.20242
21
-4.99297
0
LINE
8
BLACK
6
CONTINUOUS
10
5.20242
20
-4.99297
11
5.19492
21
-4.98922
0
LINE
8
BLACK
6
CONTINUOUS
10
5.19492
20
-4.98922
11
5.19117
21
-4.98547
0
LINE
8
BLACK
6
CONTINUOUS
10
5.19117
20
-4.98547
11
5.18742
21
-4.97797
0
LINE
8
BLACK
6
CONTINUOUS
10
5.18742
20
-4.97797
11
5.18367
21
-4.96297
0
LINE
8
BLACK
6
CONTINUOUS
10
5.18367
20
-4.96297
11
5.18367
21
-4.94422
0
LINE
8
BLACK
6
CONTINUOUS
10
5.18367
20
-4.94422
11
5.18742
21
-4.92922
0
LINE
8
BLACK
6
CONTINUOUS
10
5.18742
20
-4.92922
11
5.19117
21
-4.92172
0
LINE
8
BLACK
6
CONTINUOUS
10
5.19117
20
-4.92172
11
5.19492
21
-4.91798
0
LINE
8
BLACK
6
CONTINUOUS
10
5.19492
20
-4.91798
11
5.20242
21
-4.91423
0
LINE
8
BLACK
6
CONTINUOUS
10
5.26241
20
-4.99297
11
5.26241
21
-4.94047
0
LINE
8
BLACK
6
CONTINUOUS
10
5.26241
20
-4.94797
11
5.26616
21
-4.94422
0
LINE
8
BLACK
6
CONTINUOUS
10
5.26616
20
-4.94422
11
5.27366
21
-4.94047
0
LINE
8
BLACK
6
CONTINUOUS
10
5.27366
20
-4.94047
11
5.28491
21
-4.94047
0
LINE
8
BLACK
6
CONTINUOUS
10
5.28491
20
-4.94047
11
5.29241
21
-4.94422
0
LINE
8
BLACK
6
CONTINUOUS
10
5.29241
20
-4.94422
11
5.29616
21
-4.95172
0
LINE
8
BLACK
6
CONTINUOUS
10
5.29616
20
-4.95172
11
5.29616
21
-4.99297
0
LINE
8
BLACK
6
CONTINUOUS
10
5.29616
20
-4.95172
11
5.2999
21
-4.94422
0
LINE
8
BLACK
6
CONTINUOUS
10
5.2999
20
-4.94422
11
5.3074
21
-4.94047
0
LINE
8
BLACK
6
CONTINUOUS
10
5.3074
20
-4.94047
11
5.31865
21
-4.94047
0
LINE
8
BLACK
6
CONTINUOUS
10
5.31865
20
-4.94047
11
5.32615
21
-4.94422
0
LINE
8
BLACK
6
CONTINUOUS
10
5.32615
20
-4.94422
11
5.3299
21
-4.95172
0
LINE
8
BLACK
6
CONTINUOUS
10
5.3299
20
-4.95172
11
5.3299
21
-4.99297
0
LINE
8
BLACK
6
CONTINUOUS
10
5.3674
20
-4.99297
11
5.3674
21
-4.94047
0
LINE
8
BLACK
6
CONTINUOUS
10
5.3674
20
-4.94797
11
5.37115
21
-4.94422
0
LINE
8
BLACK
6
CONTINUOUS
10
5.37115
20
-4.94422
11
5.37864
21
-4.94047
0
LINE
8
BLACK
6
CONTINUOUS
10
5.37864
20
-4.94047
11
5.38989
21
-4.94047
0
LINE
8
BLACK
6
CONTINUOUS
10
5.38989
20
-4.94047
11
5.39739
21
-4.94422
0
LINE
8
BLACK
6
CONTINUOUS
10
5.39739
20
-4.94422
11
5.40114
21
-4.95172
0
LINE
8
BLACK
6
CONTINUOUS
10
5.40114
20
-4.95172
11
5.40114
21
-4.99297
0
LINE
8
BLACK
6
CONTINUOUS
10
5.40114
20
-4.95172
11
5.40489
21
-4.94422
0
LINE
8
BLACK
6
CONTINUOUS
10
5.40489
20
-4.94422
11
5.41239
21
-4.94047
0
LINE
8
BLACK
6
CONTINUOUS
10
5.41239
20
-4.94047
11
5.42364
21
-4.94047
0
LINE
8
BLACK
6
CONTINUOUS
10
5.42364
20
-4.94047
11
5.43114
21
-4.94422
0
LINE
8
BLACK
6
CONTINUOUS
10
5.43114
20
-4.94422
11
5.43489
21
-4.95172
0
LINE
8
BLACK
6
CONTINUOUS
10
5.43489
20
-4.95172
11
5.43489
21
-4.99297
0
LINE
8
BLACK
6
CONTINUOUS
10
5.58862
20
-4.91048
11
5.52113
21
-5.01171
0
LINE
8
BLACK
6
CONTINUOUS
10
5.68986
20
-4.91423
11
5.69736
21
-4.91423
0
LINE
8
BLACK
6
CONTINUOUS
10
5.69736
20
-4.91423
11
5.70485
21
-4.91798
0
LINE
8
BLACK
6
CONTINUOUS
10
5.70485
20
-4.91798
11
5.7086
21
-4.92172
0
LINE
8
BLACK
6
CONTINUOUS
10
5.7086
20
-4.92172
11
5.71235
21
-4.92922
0
LINE
8
BLACK
6
CONTINUOUS
10
5.71235
20
-4.92922
11
5.7161
21
-4.94422
0
LINE
8
BLACK
6
CONTINUOUS
10
5.7161
20
-4.94422
11
5.7161
21
-4.96297
0
LINE
8
BLACK
6
CONTINUOUS
10
5.7161
20
-4.96297
11
5.71235
21
-4.97797
0
LINE
8
BLACK
6
CONTINUOUS
10
5.71235
20
-4.97797
11
5.7086
21
-4.98547
0
LINE
8
BLACK
6
CONTINUOUS
10
5.7086
20
-4.98547
11
5.70485
21
-4.98922
0
LINE
8
BLACK
6
CONTINUOUS
10
5.70485
20
-4.98922
11
5.69736
21
-4.99297
0
LINE
8
BLACK
6
CONTINUOUS
10
5.69736
20
-4.99297
11
5.68986
21
-4.99297
0
LINE
8
BLACK
6
CONTINUOUS
10
5.68986
20
-4.99297
11
5.68236
21
-4.98922
0
LINE
8
BLACK
6
CONTINUOUS
10
5.68236
20
-4.98922
11
5.67861
21
-4.98547
0
LINE
8
BLACK
6
CONTINUOUS
10
5.67861
20
-4.98547
11
5.67486
21
-4.97797
0
LINE
8
BLACK
6
CONTINUOUS
10
5.67486
20
-4.97797
11
5.67111
21
-4.96297
0
LINE
8
BLACK
6
CONTINUOUS
10
5.67111
20
-4.96297
11
5.67111
21
-4.94422
0
LINE
8
BLACK
6
CONTINUOUS
10
5.67111
20
-4.94422
11
5.67486
21
-4.92922
0
LINE
8
BLACK
6
CONTINUOUS
10
5.67486
20
-4.92922
11
5.67861
21
-4.92172
0
LINE
8
BLACK
6
CONTINUOUS
10
5.67861
20
-4.92172
11
5.68236
21
-4.91798
0
LINE
8
BLACK
6
CONTINUOUS
10
5.68236
20
-4.91798
11
5.68986
21
-4.91423
0
LINE
8
BLACK
6
CONTINUOUS
10
5.74985
20
-4.98547
11
5.7536
21
-4.98922
0
LINE
8
BLACK
6
CONTINUOUS
10
5.7536
20
-4.98922
11
5.74985
21
-4.99297
0
LINE
8
BLACK
6
CONTINUOUS
10
5.74985
20
-4.99297
11
5.7461
21
-4.98922
0
LINE
8
BLACK
6
CONTINUOUS
10
5.7461
20
-4.98922
11
5.74985
21
-4.98547
0
LINE
8
BLACK
6
CONTINUOUS
10
5.74985
20
-4.98547
11
5.74985
21
-4.99297
0
LINE
8
BLACK
6
CONTINUOUS
10
5.80234
20
-4.91423
11
5.80984
21
-4.91423
0
LINE
8
BLACK
6
CONTINUOUS
10
5.80984
20
-4.91423
11
5.81734
21
-4.91798
0
LINE
8
BLACK
6
CONTINUOUS
10
5.81734
20
-4.91798
11
5.82109
21
-4.92172
0
LINE
8
BLACK
6
CONTINUOUS
10
5.82109
20
-4.92172
11
5.82484
21
-4.92922
0
LINE
8
BLACK
6
CONTINUOUS
10
5.82484
20
-4.92922
11
5.82859
21
-4.94422
0
LINE
8
BLACK
6
CONTINUOUS
10
5.82859
20
-4.94422
11
5.82859
21
-4.96297
0
LINE
8
BLACK
6
CONTINUOUS
10
5.82859
20
-4.96297
11
5.82484
21
-4.97797
0
LINE
8
BLACK
6
CONTINUOUS
10
5.82484
20
-4.97797
11
5.82109
21
-4.98547
0
LINE
8
BLACK
6
CONTINUOUS
10
5.82109
20
-4.98547
11
5.81734
21
-4.98922
0
LINE
8
BLACK
6
CONTINUOUS
10
5.81734
20
-4.98922
11
5.80984
21
-4.99297
0
LINE
8
BLACK
6
CONTINUOUS
10
5.80984
20
-4.99297
11
5.80234
21
-4.99297
0
LINE
8
BLACK
6
CONTINUOUS
10
5.80234
20
-4.99297
11
5.79484
21
-4.98922
0
LINE
8
BLACK
6
CONTINUOUS
10
5.79484
20
-4.98922
11
5.79109
21
-4.98547
0
LINE
8
BLACK
6
CONTINUOUS
10
5.79109
20
-4.98547
11
5.78734
21
-4.97797
0
LINE
8
BLACK
6
CONTINUOUS
10
5.78734
20
-4.97797
11
5.78359
21
-4.96297
0
LINE
8
BLACK
6
CONTINUOUS
10
5.78359
20
-4.96297
11
5.78359
21
-4.94422
0
LINE
8
BLACK
6
CONTINUOUS
10
5.78359
20
-4.94422
11
5.78734
21
-4.92922
0
LINE
8
BLACK
6
CONTINUOUS
10
5.78734
20
-4.92922
11
5.79109
21
-4.92172
0
LINE
8
BLACK
6
CONTINUOUS
10
5.79109
20
-4.92172
11
5.79484
21
-4.91798
0
LINE
8
BLACK
6
CONTINUOUS
10
5.79484
20
-4.91798
11
5.80234
21
-4.91423
0
LINE
8
BLACK
6
CONTINUOUS
10
5.85484
20
-4.91423
11
5.90733
21
-4.91423
0
LINE
8
BLACK
6
CONTINUOUS
10
5.90733
20
-4.91423
11
5.87358
21
-4.99297
0
LINE
8
BLACK
6
CONTINUOUS
10
5.94857
20
-4.94797
11
5.94107
21
-4.94422
0
LINE
8
BLACK
6
CONTINUOUS
10
5.94107
20
-4.94422
11
5.93733
21
-4.94047
0
LINE
8
BLACK
6
CONTINUOUS
10
5.93733
20
-4.94047
11
5.93358
21
-4.93297
0
LINE
8
BLACK
6
CONTINUOUS
10
5.93358
20
-4.93297
11
5.93358
21
-4.92922
0
LINE
8
BLACK
6
CONTINUOUS
10
5.93358
20
-4.92922
11
5.93733
21
-4.92172
0
LINE
8
BLACK
6
CONTINUOUS
10
5.93733
20
-4.92172
11
5.94107
21
-4.91798
0
LINE
8
BLACK
6
CONTINUOUS
10
5.94107
20
-4.91798
11
5.94857
21
-4.91423
0
LINE
8
BLACK
6
CONTINUOUS
10
5.94857
20
-4.91423
11
5.96357
21
-4.91423
0
LINE
8
BLACK
6
CONTINUOUS
10
5.96357
20
-4.91423
11
5.97107
21
-4.91798
0
LINE
8
BLACK
6
CONTINUOUS
10
5.97107
20
-4.91798
11
5.97482
21
-4.92172
0
LINE
8
BLACK
6
CONTINUOUS
10
5.97482
20
-4.92172
11
5.97857
21
-4.92922
0
LINE
8
BLACK
6
CONTINUOUS
10
5.97857
20
-4.92922
11
5.97857
21
-4.93297
0
LINE
8
BLACK
6
CONTINUOUS
10
5.97857
20
-4.93297
11
5.97482
21
-4.94047
0
LINE
8
BLACK
6
CONTINUOUS
10
5.97482
20
-4.94047
11
5.97107
21
-4.94422
0
LINE
8
BLACK
6
CONTINUOUS
10
5.97107
20
-4.94422
11
5.96357
21
-4.94797
0
LINE
8
BLACK
6
CONTINUOUS
10
5.96357
20
-4.94797
11
5.94857
21
-4.94797
0
LINE
8
BLACK
6
CONTINUOUS
10
5.94857
20
-4.94797
11
5.94107
21
-4.95172
0
LINE
8
BLACK
6
CONTINUOUS
10
5.94107
20
-4.95172
11
5.93733
21
-4.95547
0
LINE
8
BLACK
6
CONTINUOUS
10
5.93733
20
-4.95547
11
5.93358
21
-4.96297
0
LINE
8
BLACK
6
CONTINUOUS
10
5.93358
20
-4.96297
11
5.93358
21
-4.97797
0
LINE
8
BLACK
6
CONTINUOUS
10
5.93358
20
-4.97797
11
5.93733
21
-4.98547
0
LINE
8
BLACK
6
CONTINUOUS
10
5.93733
20
-4.98547
11
5.94107
21
-4.98922
0
LINE
8
BLACK
6
CONTINUOUS
10
5.94107
20
-4.98922
11
5.94857
21
-4.99297
0
LINE
8
BLACK
6
CONTINUOUS
10
5.94857
20
-4.99297
11
5.96357
21
-4.99297
0
LINE
8
BLACK
6
CONTINUOUS
10
5.96357
20
-4.99297
11
5.97107
21
-4.98922
0
LINE
8
BLACK
6
CONTINUOUS
10
5.97107
20
-4.98922
11
5.97482
21
-4.98547
0
LINE
8
BLACK
6
CONTINUOUS
10
5.97482
20
-4.98547
11
5.97857
21
-4.97797
0
LINE
8
BLACK
6
CONTINUOUS
10
5.97857
20
-4.97797
11
5.97857
21
-4.96297
0
LINE
8
BLACK
6
CONTINUOUS
10
5.97857
20
-4.96297
11
5.97482
21
-4.95547
0
LINE
8
BLACK
6
CONTINUOUS
10
5.97482
20
-4.95547
11
5.97107
21
-4.95172
0
LINE
8
BLACK
6
CONTINUOUS
10
5.97107
20
-4.95172
11
5.96357
21
-4.94797
0
LINE
8
BLACK
6
CONTINUOUS
10
6.00482
20
-4.91423
11
6.05731
21
-4.91423
0
LINE
8
BLACK
6
CONTINUOUS
10
6.05731
20
-4.91423
11
6.02356
21
-4.99297
0
LINE
8
BLACK
6
CONTINUOUS
10
6.08356
20
-4.91423
11
6.08356
21
-4.92922
0
LINE
8
BLACK
6
CONTINUOUS
10
6.11355
20
-4.91423
11
6.11355
21
-4.92922
0
LINE
8
BLACK
6
CONTINUOUS
10
6.22979
20
-5.02296
11
6.22604
21
-5.01921
0
LINE
8
BLACK
6
CONTINUOUS
10
6.22604
20
-5.01921
11
6.21854
21
-5.00796
0
LINE
8
BLACK
6
CONTINUOUS
10
6.21854
20
-5.00796
11
6.21479
21
-5.00047
0
LINE
8
BLACK
6
CONTINUOUS
10
6.21479
20
-5.00047
11
6.21104
21
-4.98922
0
LINE
8
BLACK
6
CONTINUOUS
10
6.21104
20
-4.98922
11
6.20729
21
-4.97047
0
LINE
8
BLACK
6
CONTINUOUS
10
6.20729
20
-4.97047
11
6.20729
21
-4.95547
0
LINE
8
BLACK
6
CONTINUOUS
10
6.20729
20
-4.95547
11
6.21104
21
-4.93672
0
LINE
8
BLACK
6
CONTINUOUS
10
6.21104
20
-4.93672
11
6.21479
21
-4.92547
0
LINE
8
BLACK
6
CONTINUOUS
10
6.21479
20
-4.92547
11
6.21854
21
-4.91798
0
LINE
8
BLACK
6
CONTINUOUS
10
6.21854
20
-4.91798
11
6.22604
21
-4.90673
0
LINE
8
BLACK
6
CONTINUOUS
10
6.22604
20
-4.90673
11
6.22979
21
-4.90298
0
LINE
8
BLACK
6
CONTINUOUS
10
6.29353
20
-4.94047
11
6.29353
21
-4.99297
0
LINE
8
BLACK
6
CONTINUOUS
10
6.27478
20
-4.91048
11
6.25604
21
-4.96672
0
LINE
8
BLACK
6
CONTINUOUS
10
6.25604
20
-4.96672
11
6.30478
21
-4.96672
0
LINE
8
BLACK
6
CONTINUOUS
10
6.39477
20
-4.99297
11
6.39477
21
-4.91423
0
LINE
8
BLACK
6
CONTINUOUS
10
6.42851
20
-4.99297
11
6.42851
21
-4.95172
0
LINE
8
BLACK
6
CONTINUOUS
10
6.42851
20
-4.95172
11
6.42476
21
-4.94422
0
LINE
8
BLACK
6
CONTINUOUS
10
6.42476
20
-4.94422
11
6.41727
21
-4.94047
0
LINE
8
BLACK
6
CONTINUOUS
10
6.41727
20
-4.94047
11
6.40602
21
-4.94047
0
LINE
8
BLACK
6
CONTINUOUS
10
6.40602
20
-4.94047
11
6.39852
21
-4.94422
0
LINE
8
BLACK
6
CONTINUOUS
10
6.39852
20
-4.94422
11
6.39477
21
-4.94797
0
LINE
8
BLACK
6
CONTINUOUS
10
6.47726
20
-4.99297
11
6.46976
21
-4.98922
0
LINE
8
BLACK
6
CONTINUOUS
10
6.46976
20
-4.98922
11
6.46601
21
-4.98547
0
LINE
8
BLACK
6
CONTINUOUS
10
6.46601
20
-4.98547
11
6.46226
21
-4.97797
0
LINE
8
BLACK
6
CONTINUOUS
10
6.46226
20
-4.97797
11
6.46226
21
-4.95547
0
LINE
8
BLACK
6
CONTINUOUS
10
6.46226
20
-4.95547
11
6.46601
21
-4.94797
0
LINE
8
BLACK
6
CONTINUOUS
10
6.46601
20
-4.94797
11
6.46976
21
-4.94422
0
LINE
8
BLACK
6
CONTINUOUS
10
6.46976
20
-4.94422
11
6.47726
21
-4.94047
0
LINE
8
BLACK
6
CONTINUOUS
10
6.47726
20
-4.94047
11
6.48851
21
-4.94047
0
LINE
8
BLACK
6
CONTINUOUS
10
6.48851
20
-4.94047
11
6.49601
21
-4.94422
0
LINE
8
BLACK
6
CONTINUOUS
10
6.49601
20
-4.94422
11
6.49975
21
-4.94797
0
LINE
8
BLACK
6
CONTINUOUS
10
6.49975
20
-4.94797
11
6.5035
21
-4.95547
0
LINE
8
BLACK
6
CONTINUOUS
10
6.5035
20
-4.95547
11
6.5035
21
-4.97797
0
LINE
8
BLACK
6
CONTINUOUS
10
6.5035
20
-4.97797
11
6.49975
21
-4.98547
0
LINE
8
BLACK
6
CONTINUOUS
10
6.49975
20
-4.98547
11
6.49601
21
-4.98922
0
LINE
8
BLACK
6
CONTINUOUS
10
6.49601
20
-4.98922
11
6.48851
21
-4.99297
0
LINE
8
BLACK
6
CONTINUOUS
10
6.48851
20
-4.99297
11
6.47726
21
-4.99297
0
LINE
8
BLACK
6
CONTINUOUS
10
6.5485
20
-4.99297
11
6.541
21
-4.98922
0
LINE
8
BLACK
6
CONTINUOUS
10
6.541
20
-4.98922
11
6.53725
21
-4.98172
0
LINE
8
BLACK
6
CONTINUOUS
10
6.53725
20
-4.98172
11
6.53725
21
-4.91423
0
LINE
8
BLACK
6
CONTINUOUS
10
6.60849
20
-4.98922
11
6.60099
21
-4.99297
0
LINE
8
BLACK
6
CONTINUOUS
10
6.60099
20
-4.99297
11
6.58599
21
-4.99297
0
LINE
8
BLACK
6
CONTINUOUS
10
6.58599
20
-4.99297
11
6.57849
21
-4.98922
0
LINE
8
BLACK
6
CONTINUOUS
10
6.57849
20
-4.98922
11
6.57475
21
-4.98172
0
LINE
8
BLACK
6
CONTINUOUS
10
6.57475
20
-4.98172
11
6.57475
21
-4.95172
0
LINE
8
BLACK
6
CONTINUOUS
10
6.57475
20
-4.95172
11
6.57849
21
-4.94422
0
LINE
8
BLACK
6
CONTINUOUS
10
6.57849
20
-4.94422
11
6.58599
21
-4.94047
0
LINE
8
BLACK
6
CONTINUOUS
10
6.58599
20
-4.94047
11
6.60099
21
-4.94047
0
LINE
8
BLACK
6
CONTINUOUS
10
6.60099
20
-4.94047
11
6.60849
21
-4.94422
0
LINE
8
BLACK
6
CONTINUOUS
10
6.60849
20
-4.94422
11
6.61224
21
-4.95172
0
LINE
8
BLACK
6
CONTINUOUS
10
6.61224
20
-4.95172
11
6.61224
21
-4.95922
0
LINE
8
BLACK
6
CONTINUOUS
10
6.61224
20
-4.95922
11
6.57475
21
-4.96672
0
LINE
8
BLACK
6
CONTINUOUS
10
6.64224
20
-4.98922
11
6.64974
21
-4.99297
0
LINE
8
BLACK
6
CONTINUOUS
10
6.64974
20
-4.99297
11
6.66473
21
-4.99297
0
LINE
8
BLACK
6
CONTINUOUS
10
6.66473
20
-4.99297
11
6.67223
21
-4.98922
0
LINE
8
BLACK
6
CONTINUOUS
10
6.67223
20
-4.98922
11
6.67598
21
-4.98172
0
LINE
8
BLACK
6
CONTINUOUS
10
6.67598
20
-4.98172
11
6.67598
21
-4.97797
0
LINE
8
BLACK
6
CONTINUOUS
10
6.67598
20
-4.97797
11
6.67223
21
-4.97047
0
LINE
8
BLACK
6
CONTINUOUS
10
6.67223
20
-4.97047
11
6.66473
21
-4.96672
0
LINE
8
BLACK
6
CONTINUOUS
10
6.66473
20
-4.96672
11
6.65349
21
-4.96672
0
LINE
8
BLACK
6
CONTINUOUS
10
6.65349
20
-4.96672
11
6.64599
21
-4.96297
0
LINE
8
BLACK
6
CONTINUOUS
10
6.64599
20
-4.96297
11
6.64224
21
-4.95547
0
LINE
8
BLACK
6
CONTINUOUS
10
6.64224
20
-4.95547
11
6.64224
21
-4.95172
0
LINE
8
BLACK
6
CONTINUOUS
10
6.64224
20
-4.95172
11
6.64599
21
-4.94422
0
LINE
8
BLACK
6
CONTINUOUS
10
6.64599
20
-4.94422
11
6.65349
21
-4.94047
0
LINE
8
BLACK
6
CONTINUOUS
10
6.65349
20
-4.94047
11
6.66473
21
-4.94047
0
LINE
8
BLACK
6
CONTINUOUS
10
6.66473
20
-4.94047
11
6.67223
21
-4.94422
0
LINE
8
BLACK
6
CONTINUOUS
10
6.70223
20
-5.02296
11
6.70598
21
-5.01921
0
LINE
8
BLACK
6
CONTINUOUS
10
6.70598
20
-5.01921
11
6.71348
21
-5.00796
0
LINE
8
BLACK
6
CONTINUOUS
10
6.71348
20
-5.00796
11
6.71723
21
-5.00047
0
LINE
8
BLACK
6
CONTINUOUS
10
6.71723
20
-5.00047
11
6.72098
21
-4.98922
0
LINE
8
BLACK
6
CONTINUOUS
10
6.72098
20
-4.98922
11
6.72473
21
-4.97047
0
LINE
8
BLACK
6
CONTINUOUS
10
6.72473
20
-4.97047
11
6.72473
21
-4.95547
0
LINE
8
BLACK
6
CONTINUOUS
10
6.72473
20
-4.95547
11
6.72098
21
-4.93672
0
LINE
8
BLACK
6
CONTINUOUS
10
6.72098
20
-4.93672
11
6.71723
21
-4.92547
0
LINE
8
BLACK
6
CONTINUOUS
10
6.71723
20
-4.92547
11
6.71348
21
-4.91798
0
LINE
8
BLACK
6
CONTINUOUS
10
6.71348
20
-4.91798
11
6.70598
21
-4.90673
0
LINE
8
BLACK
6
CONTINUOUS
10
6.70598
20
-4.90673
11
6.70223
21
-4.90298
  0
ENDSEC
  0
EOF
