M48
; DRILL file {KiCad 7.0.7} date Tue Mar 26 11:27:02 2024
; FORMAT={-:-/ absolute / inch / decimal}
; #@! TF.CreationDate,2024-03-26T11:27:02-06:00
; #@! TF.GenerationSoftware,Kicad,Pcbnew,7.0.7
; #@! TF.FileFunction,Plated,1,2,PTH
FMAT,2
INCH
; #@! TA.AperFunction,Plated,PTH,ComponentDrill
T1C0.0236
; #@! TA.AperFunction,Plated,PTH,ComponentDrill
T2C0.0276
; #@! TA.AperFunction,Plated,PTH,ComponentDrill
T3C0.0315
; #@! TA.AperFunction,Plated,PTH,ComponentDrill
T4C0.0394
; #@! TA.AperFunction,Plated,PTH,ViaDrill
T5C0.0787
%
G90
G05
T1
X4.9637Y-3.9193
X5.0227Y-3.9193
X5.725Y-3.5125
X5.725Y-3.5715
X5.925Y-3.5125
X5.925Y-3.5715
X6.125Y-3.5125
X6.125Y-3.5715
T2
X5.048Y-3.1715
X5.148Y-3.1715
X5.275Y-3.3122
X5.275Y-3.4122
X5.275Y-3.4965
X5.275Y-3.5965
X5.2756Y-3.6803
X5.2756Y-3.7803
X5.725Y-3.0735
X5.725Y-3.1735
X5.725Y-3.6945
X5.725Y-3.7945
X5.925Y-3.6985
X5.925Y-3.7985
X6.125Y-3.6945
X6.125Y-3.7945
X6.1862Y-4.1791
X6.2862Y-4.1791
X6.2933Y-3.5504
X6.2933Y-3.6504
X6.2992Y-3.2787
X6.2992Y-3.3787
X6.3843Y-3.7618
X6.3909Y-4.1791
X6.4843Y-3.7618
X6.4909Y-4.1791
X6.6063Y-3.9106
X6.6063Y-4.0106
X6.6083Y-3.7256
X6.6083Y-3.8256
T3
X5.0236Y-4.0827
X5.0236Y-4.1811
X5.1437Y-3.8622
X5.1437Y-3.9606
X5.1585Y-4.1681
X5.1935Y-4.0681
X5.2285Y-4.1681
X5.2508Y-3.1715
X5.2635Y-4.0681
X5.2985Y-4.1681
X5.3335Y-4.0681
X5.3492Y-3.1715
X5.3685Y-4.1681
X5.374Y-3.311
X5.374Y-3.4094
X5.374Y-3.4961
X5.374Y-3.5945
X5.374Y-3.6831
X5.374Y-3.7815
X5.4035Y-4.0681
X5.4385Y-4.1681
X5.4735Y-4.0681
X5.5085Y-4.1681
X5.5435Y-4.0681
X5.5785Y-4.1681
X5.6135Y-4.0681
X5.625Y-3.0723
X5.625Y-3.1707
X5.6485Y-4.1681
X5.6835Y-4.0681
X5.7067Y-3.9685
X5.7185Y-4.1681
X5.7535Y-4.0681
X5.7885Y-4.1681
X5.8051Y-3.9685
X5.8235Y-4.0681
X5.8585Y-4.1681
X5.8917Y-3.9665
X5.8935Y-4.0681
X5.9285Y-4.1681
X5.9635Y-4.0681
X5.9902Y-3.9665
X6.0846Y-4.0709
X6.0846Y-4.1693
X6.1555Y-3.2343
X6.1555Y-3.3327
X6.185Y-4.0925
X6.2835Y-4.0925
X6.3898Y-4.0906
X6.4882Y-4.0906
X6.5787Y-4.1063
X6.5787Y-4.2047
T4
X5.0448Y-3.3252
X5.0448Y-3.4252
X5.0448Y-3.5252
X5.0448Y-3.6252
X5.0448Y-3.7252
X5.1448Y-3.3252
X5.1448Y-3.4252
X5.1448Y-3.5252
X5.1448Y-3.6252
X5.1448Y-3.7252
X6.475Y-3.0715
X6.475Y-3.1715
X6.475Y-3.2715
X6.475Y-3.3715
X6.475Y-3.4715
X6.475Y-3.5715
X6.575Y-3.0715
X6.575Y-3.1715
X6.575Y-3.2715
X6.575Y-3.3715
X6.575Y-3.4715
X6.575Y-3.5715
T5
X4.91Y-4.2065
X4.985Y-3.0765
X5.8354Y-3.3453
X6.295Y-3.7565
T0
M30
